<svg width="48" height="48" viewBox="0 0 48 48" fill="none" xmlns="http://www.w3.org/2000/svg">
<rect width="48" height="48" rx="12" fill="#9C6FE2"/>
<path fill-rule="evenodd" clip-rule="evenodd" d="M11.9805 17.8656C11.8604 17.9413 11.7384 18.0075 11.6144 18.0649C10.9642 18.3658 10.2571 18.4239 9.46597 18.328C7.44936 18.0837 6.27271 16.7436 6.48211 15.0151C6.75907 12.729 8.65448 11.3273 11.0614 11.6189C11.8013 11.7085 12.4425 11.9526 12.9193 12.3235C13.0686 12.4396 13.2018 12.5681 13.3168 12.7082C13.4528 12.8738 13.5634 13.0555 13.6453 13.252L11.9157 14.2966C11.8467 14.1345 11.7606 13.9908 11.6566 13.8676C11.4288 13.5977 11.1153 13.4264 10.707 13.377C9.67544 13.252 8.8515 13.982 8.71077 15.1436C8.61845 15.9057 9.08624 16.481 9.89475 16.5789C10.3038 16.6285 10.7175 16.5397 11.1285 16.2537C11.2311 16.1824 11.3335 16.0987 11.4357 16.0018L12.5777 17.3943C12.5213 17.4484 12.4645 17.5 12.4074 17.5491C12.3047 17.6372 12.2007 17.7174 12.0953 17.7899C12.0572 17.8161 12.019 17.8413 11.9805 17.8656ZM13.368 18.2174C13.3194 18.1835 13.2732 18.1491 13.2295 18.1144L14.271 16.5999C14.3816 16.6829 14.4934 16.7596 14.6062 16.8304C15.112 17.1475 15.6391 17.3442 16.1707 17.4371C16.2441 17.4499 16.3175 17.4607 16.3911 17.4696C16.9579 17.5383 17.2733 17.4256 17.3015 17.1933C17.3305 16.9539 16.9683 16.8008 16.4942 16.6178L16.4095 16.5852L16.3554 16.5644C15.8636 16.3751 15.2868 16.145 14.9024 15.7586C14.8003 15.6559 14.7118 15.5422 14.642 15.4153C14.507 15.1695 14.4424 14.8742 14.4861 14.5137C14.5058 14.351 14.5397 14.1962 14.5873 14.0501C14.6707 13.7939 14.7958 13.564 14.9594 13.3633C15.5499 12.6388 16.6408 12.2948 18.0719 12.4682C18.5519 12.5263 19.0008 12.6295 19.3998 12.7721C19.6284 12.8538 19.8407 12.9484 20.033 13.0548C20.1807 13.1366 20.3167 13.2254 20.4392 13.3207L19.4556 14.8234C19.3037 14.7008 19.1387 14.5936 18.9641 14.5017C18.6141 14.3177 18.2254 14.1958 17.8269 14.1371C17.7946 14.1323 17.7623 14.128 17.7299 14.124C17.0887 14.0464 16.7468 14.2218 16.7198 14.4449C16.6878 14.7091 17.0984 14.865 17.6168 15.0575L17.6361 15.0647L17.666 15.0758C18.0417 15.2154 18.4672 15.3761 18.8198 15.6111C19.0966 15.7956 19.3285 16.0258 19.4561 16.3277C19.5468 16.5421 19.5848 16.7926 19.549 17.0884C19.3734 18.5381 17.9913 19.3608 15.9654 19.1154C15.3334 19.0388 14.75 18.8844 14.2565 18.6861C14.0009 18.5833 13.7694 18.4688 13.5678 18.3471C13.5065 18.3101 13.448 18.2725 13.3923 18.2343L13.368 18.2174ZM13.1194 16.2095L13.4793 15.6861C13.376 15.4232 13.3142 15.1356 13.3039 14.8252L12.4212 15.3583L13.1194 16.2095ZM11.2021 10.4572C12.4823 10.6123 13.7235 11.1821 14.4241 12.2374C14.5951 12.0861 14.7839 11.9501 14.9892 11.8311C15.8911 11.3085 17.0194 11.162 18.2127 11.3065C19.3099 11.4394 20.3762 11.7894 21.1575 12.397L21.675 12.7995C21.7435 12.7531 21.8141 12.7089 21.8868 12.6667C22.7887 12.1441 23.917 11.9976 25.1103 12.1421C26.2075 12.2751 27.2738 12.625 28.0551 13.2326L28.9065 13.8947L27.2712 16.3933C27.55 16.8566 27.6865 17.4185 27.6082 18.0648C27.4749 19.1658 26.8633 20.0531 25.9311 20.5881C25.0316 21.1043 23.9073 21.2562 22.7223 21.1126C21.407 20.9533 20.1882 20.491 19.4007 19.8674L19.1597 19.6766C19.1183 19.7026 19.0762 19.7279 19.0334 19.7525C18.134 20.2687 17.0097 20.4206 15.8246 20.277C14.5093 20.1177 13.2906 19.6554 12.5031 19.0318L12.4201 18.9661C11.4527 19.513 10.4074 19.6208 9.32525 19.4897C8.09438 19.3405 7.01297 18.8424 6.267 18.0081C5.50952 17.1609 5.17769 16.053 5.32047 14.8744C5.49533 13.431 6.19409 12.2122 7.27635 11.4102C8.35361 10.6119 9.73716 10.2798 11.2021 10.4572ZM20.4655 19.1828C20.3408 19.1075 20.2275 19.0296 20.1271 18.9501L21.1687 17.4355C21.2792 17.5185 21.391 17.5952 21.5039 17.666C22.0096 17.9832 22.5367 18.1798 23.0683 18.2727C23.1417 18.2855 23.2152 18.2963 23.2887 18.3052C23.8556 18.3739 24.171 18.2613 24.1991 18.0289C24.2281 17.7895 23.866 17.6364 23.3919 17.4535L23.3071 17.4208L23.2531 17.4001C22.7612 17.2107 22.1844 16.9806 21.8001 16.5942C21.6979 16.4915 21.6094 16.3778 21.5396 16.2509C21.4046 16.0051 21.34 15.7098 21.3837 15.3493C21.5627 13.8717 22.9158 13.055 24.9695 13.3038C25.4495 13.3619 25.8985 13.4651 26.2974 13.6077C26.5261 13.6894 26.7383 13.784 26.9306 13.8905C27.0783 13.9723 27.2143 14.061 27.3368 14.1563L26.3532 15.6591C26.2014 15.5364 26.0363 15.4292 25.8617 15.3374C25.5117 15.1533 25.1231 15.0314 24.7245 14.9727C24.6922 14.9679 24.6599 14.9636 24.6275 14.9597C23.9863 14.882 23.6444 15.0574 23.6174 15.2805C23.5854 15.5447 23.996 15.7006 24.5144 15.8931L24.5337 15.9003L24.5637 15.9114C24.9393 16.051 25.3648 16.2117 25.7174 16.4467C25.9942 16.6312 26.2261 16.8615 26.3537 17.1633C26.4444 17.3777 26.4824 17.6282 26.4466 17.924C26.271 19.3738 24.8889 20.1964 22.863 19.951C22.2311 19.8744 21.6476 19.72 21.1541 19.5217C20.8985 19.4189 20.6671 19.3044 20.4655 19.1828ZM10.8392 14.7552L10.8997 14.8974L10.6305 15.1528C10.474 15.3011 10.3536 15.3644 10.2736 15.3927C10.1971 15.4199 10.1228 15.4279 10.0355 15.4173C9.95554 15.4076 9.90908 15.3892 9.8873 15.3781C9.88062 15.3747 9.87587 15.3718 9.87266 15.3696C9.87048 15.3594 9.86661 15.3323 9.87242 15.2844C9.91373 14.9433 10.0434 14.7487 10.1505 14.654C10.2476 14.568 10.3762 14.5156 10.5662 14.5386C10.6752 14.5518 10.7166 14.5805 10.732 14.5925C10.7506 14.607 10.7931 14.647 10.8392 14.7552ZM30.3538 25.4631L28.7927 23.4604L10.7121 28.5471L11.4084 37.5895L19.9236 35.1939L19.5447 30.2729L20.405 30.0309L20.7876 34.9508L25.2113 33.7063L24.8288 28.7863L25.6999 28.5413L26.0788 33.4622L30.3137 32.2708L30.2675 31.6712L31.6691 31.2768L31.7184 31.8756L42.7121 28.7827L42.4033 24.6589L39.5517 25.4611L39.1692 20.5412L31.4995 22.6989L30.3538 25.4631ZM14.2573 31.177L14.0791 28.8154L11.9524 29.4137L12.4655 36.0766L14.5921 35.4783L14.4067 33.0215L16.3711 32.4688L16.5566 34.9256L18.6833 34.3273L18.1702 27.6645L16.0436 28.2628L16.2217 30.6243L14.2573 31.177ZM21.8436 33.4382L21.4611 28.5182L19.6138 29.0379L19.4833 27.2951L25.3045 25.6573L25.4351 27.4002L23.5877 27.9199L23.9703 32.8399L21.8436 33.4382ZM30.4545 30.403L28.8425 28.4059L29.0733 31.4042L27.1359 31.9493L26.6229 25.2864L28.353 24.7997L30.6658 27.7665L32.363 23.6715L34.1743 23.162L34.7054 29.8197L32.7679 30.3648L32.5179 27.333L31.3917 30.1393L30.4545 30.403ZM38.1131 22.0538L38.4957 26.9738L41.3432 26.1727L41.4738 27.9155L36.4995 29.315L35.9865 22.6521L38.1131 22.0538Z" fill="white"/>
</svg>
