<svg width="57" height="60" viewBox="0 0 57 60" fill="none" xmlns="http://www.w3.org/2000/svg">
<path d="M27.5648 55.3521L1.94943 43.3063L11.4276 21.5558L37.3764 33.1799L27.5648 55.3521Z" fill="#FF6C00" stroke="#151E34" stroke-width="0.545283" stroke-miterlimit="10"/>
<path d="M37.3586 33.1486L45.6179 39.1879L37.526 57.4702L27.5427 55.3257L37.3586 33.1486Z" fill="#D2691C" stroke="#151E34" stroke-width="0.545283" stroke-miterlimit="10"/>
<path d="M17.1952 50.4607L11.8421 47.9413L21.4901 26.0496L26.8885 28.4667L17.1952 50.4607Z" fill="white" stroke="#151E34" stroke-width="0.545283" stroke-miterlimit="10"/>
<path d="M34.6532 56.8212L31.6543 56.1866L40.7603 35.6254L43.2411 37.43L34.6532 56.8212Z" fill="white" stroke="#151E34" stroke-width="0.545283" stroke-miterlimit="10"/>
<path d="M39.4092 28.8721L11.7555 16.4933L9.82889 20.8439L37.4826 33.2226L39.4092 28.8721Z" fill="#FF6C00" stroke="#151E34" stroke-width="0.545283" stroke-miterlimit="10"/>
<path d="M46.6741 39.9202L37.4476 33.1095L39.4014 28.8603L48.5057 36.1463L46.6741 39.9202Z" fill="#D2691C" stroke="#151E34" stroke-width="0.545283" stroke-miterlimit="10"/>
<path d="M29.669 24.294L24.5355 21.9944L22.532 26.522L27.6655 28.8216L29.669 24.294Z" fill="white" stroke="#151E34" stroke-width="0.545283" stroke-miterlimit="10"/>
<path d="M44.2642 38.1345L41.8674 36.3807L43.7592 32.3716L46.0149 34.2118L44.2642 38.1345Z" fill="white" stroke="#151E34" stroke-width="0.545283" stroke-miterlimit="10"/>
<path d="M22.324 9.1711C19.7948 9.11227 18.3928 10.1568 18.0445 13.1012C17.9655 14.8064 19.9763 20.0859 24.2732 21.7254C21.7012 17.5815 23.163 12.2531 25.7319 13.1184C26.0506 10.1744 22.324 9.1711 22.324 9.1711Z" fill="#FFE3CE" stroke="#151E34" stroke-width="0.545283" stroke-miterlimit="10"/>
<path d="M18.1284 13.9659C18.515 11.9637 19.9803 9.84662 21.8591 10.5116C23.7379 11.1766 25.8908 12.8481 27.268 17.6663C28.1748 20.8598 27.2327 23.9183 28.9085 23.8805C31.5281 16.9645 31.4908 13.1 28.7204 8.90851C27.7736 7.4646 25.6794 6.39042 22.6964 6.79427C21.8935 6.88324 21.3162 7.05969 20.5634 7.33424C16.8684 8.68354 18.1284 13.9659 18.1284 13.9659Z" fill="white" stroke="#151E34" stroke-width="0.545283" stroke-miterlimit="10"/>
<path d="M43.7843 17.4332C42.7401 20.8554 38.5869 21.511 34.4306 22.8044C32.2487 23.4863 30.8615 24.4969 30.8615 24.4969C30.4155 23.7123 30.9474 23.4065 31.4031 22.8082C36.5318 19.815 38.3672 16.8289 37.576 15.5631C38.8476 13.9839 44.4147 13.4856 43.7843 17.4332Z" fill="#FFE3CE" stroke="#151E34" stroke-width="0.545283" stroke-miterlimit="10"/>
<path d="M28.8601 23.6178C30.777 15.5678 32.5703 12.046 34.9468 10.2272C37.5068 8.25934 39.2418 8.28856 41.3717 10.7117C44.7616 14.5698 44.4832 15.9956 43.7862 17.4379C43.7523 15.4233 41.9563 14.7683 40.541 15.0456C39.1257 15.3228 35.7234 16.8044 33.4023 20.1578C32.6241 21.3189 31.1604 23.4651 30.8583 24.513C30.2464 24.4021 28.7707 23.9858 28.8601 23.6178Z" fill="white" stroke="#151E34" stroke-width="0.545283" stroke-miterlimit="10"/>
<path d="M43.5256 23.8022C43.5178 25.81 41.7445 28.8888 35.351 26.7857C37.6227 29.6789 46.1991 32.1891 47.5788 29.9668C49.3915 27.1638 48.0173 25.692 46.429 24.5049C44.8286 23.3122 43.5256 23.8022 43.5256 23.8022Z" fill="#FFE3CE" stroke="#151E34" stroke-width="0.545283" stroke-miterlimit="10"/>
<path d="M30.8987 24.5104C36.0725 21.0112 43.6169 18.1256 47.1738 19.7734C49.0848 20.6294 49.3364 28.6522 47.5734 29.9826C48.5278 27.4609 47.3184 25.9813 45.0466 25.0451C42.7697 24.1202 36.2429 25.9668 33.5396 25.7071C31.3522 25.2436 30.8987 24.5104 30.8987 24.5104Z" fill="white" stroke="#151E34" stroke-width="0.545283" stroke-miterlimit="10"/>
<path d="M28.041 23.5308C26.8323 22.2145 23.5706 20.4949 21.667 20.716C19.529 20.737 12.1726 23.3277 9.62612 25.599C13.5256 23.6211 18.2716 27.7594 16.3985 32.059C19.5247 28.2121 27.6136 23.7336 28.041 23.5308Z" fill="white" stroke="#151E34" stroke-width="0.545283" stroke-miterlimit="10"/>
<path d="M30.19 24.3694C33.2726 28.688 34.1248 33.3673 33.5947 37.3866C32.8378 42.5826 29.4992 44.4188 28.5071 45.5655C38.9095 40.3117 35.653 48.7669 35.653 48.7669C40.2021 44.7259 41.8648 39.2421 40.0883 34.1623C38.3118 29.0824 36.4133 26.9671 35.3143 25.9988C34.2081 25.0136 31.2293 24.2774 30.19 24.3694Z" fill="white" stroke="#151E34" stroke-width="0.545283" stroke-miterlimit="10"/>
</svg>
