<svg width="470" height="404" fill="none" xmlns="http://www.w3.org/2000/svg"><path d="M365.384 390.046c-1.189-11.965-7.735-59.513-9.612-74.38-12.216-62.962-40.288-127.206-117.855-119.089-74.776-20.891-146.685 11.136-146.685 193.469" stroke="#000"/><path d="M435.756 390.046c-.878-11.965-5.713-59.513-7.098-74.38-9.023-62.962-29.757-127.206-87.046-119.089-55.229-20.891-108.339 11.136-108.339 193.469" stroke="#000"/><path d="M383.517 390.046c-.708-11.965-4.605-59.513-5.722-74.38-7.272-62.962-23.983-127.206-70.156-119.089-44.513-20.891-87.318 11.136-87.318 193.469" stroke="#000"/><path d="M157.719 81.513c-.571-.284-23.238-8.091-23.737 15.01-.499 23.102 23.231 18.833 23.289 18.165.058-.667.448-33.175.448-33.175z" fill="#12A682" stroke="#000"/><path d="M203.95 1l3.304.171c16.047.842 31.185 7.625 42.398 18.998 11.213 11.373 17.679 26.502 18.11 42.374.851 30.593 1.392 64.401.31 80.734-2.236 33.822-36.785 37.285-36.785 37.285s.245 9.051.151 18.999l-.923.485a79.528 79.528 0 01-40.016 9.018 79.416 79.416 0 01-39.173-12.104l-1.76-130.334C148.39 31.286 168.204 1.186 203.95 1z" fill="#12A682" stroke="#000"/><path d="M258.313 68.792a4.967 4.967 0 01-5.049 4.748 4.761 4.761 0 01-4.503-2.897 4.752 4.752 0 01-.377-1.844 4.967 4.967 0 015.049-4.755 4.755 4.755 0 014.88 4.748z" fill="#000"/><path d="M243.203 138.311c-.159 1.763-1.716 3.426-4.34 4.636-2.624 1.209-6.108 1.869-9.71 1.838a25.909 25.909 0 01-5.161-.442c-1.644-.315-3.142-.787-4.407-1.389-1.266-.602-2.272-1.323-2.962-2.118-.689-.796-1.046-1.651-1.051-2.515" stroke="#000" stroke-linecap="round"/><path d="M210.823 68.792a4.968 4.968 0 01-5.049 4.748 4.755 4.755 0 01-4.881-4.74 4.974 4.974 0 015.049-4.756 4.752 4.752 0 014.881 4.748z" fill="#000"/><path d="M224.728 117.128c.008.3 3.421.45 9.009.45.803.028 1.607-.04 2.393-.2a3.554 3.554 0 001.424-.648c.416-.317.75-.722.976-1.182.825-1.958.015-3.724-.428-5.26-1.08-3.317-2.212-6.776-3.398-10.407-4.935-14.73-9.443-26.524-10.066-26.338" stroke="#000" stroke-linecap="round"/><path d="M209.018 51.181c-.068 1.5-7.444.828-13.13 3.36-5.725 2.426-7.802 7.202-8.968 6.23-.539-.472-.111-1.998 1.404-3.907a20.991 20.991 0 017.564-5.571 21.231 21.231 0 019.27-1.739c2.443.192 3.87.916 3.86 1.627zm57.448 7.476c-1.261.814-3.684-3.632-7.803-5.096-4.04-1.596-8.516.28-8.924-1.173-.16-.683.776-1.619 2.665-2.166a13.069 13.069 0 017.498.5 13.04 13.04 0 015.98 4.542c1.071 1.656 1.158 2.972.584 3.393z" fill="#12A682" stroke="#000"/><path d="M331.945 52.111l-7.687 8.908 18.258-8.908c6.887 0 21.141-4.117 21.141-20.61 0-18.212-20.981-19.011-31.712-18.212-9.93-.48-27.868 0-27.867 18.213 0 15.795 8.649 20.61 27.867 20.61z" fill="#FF6B0A" stroke="#FF6B0A"/><path d="M344.055 31.055c1.124-7.998-3.328-8.249-9.984-5.155-2.936-2.247-11.358-4.684-9.984 5.155 1.09 7.799 9.984 10.966 9.984 10.966s8.777-2.376 9.984-10.966z" fill="#fff"/><path d="M183.067 374.502c.161-17.47 1.156-50.198 3.855-102.897 2.64-51.558-28.943-60.989-46.104-59.271-.749.075-1.493.076-2.246.093-5.656.127-16.978 4.57-24.889 22.154" stroke="#000" stroke-linecap="round"/><path d="M100.926 177.683l7.687 8.988-18.258-8.988c-6.887 0-21.141-4.154-21.141-20.795 0-18.377 20.98-19.183 31.712-18.377 9.929-.484 27.868 0 27.867 18.377 0 15.938-8.649 20.795-27.867 20.795z" fill="#000" stroke="#000"/><path d="M99.932 152.227c.786-.435 1.544-1.233 2.42-1.439 1.003-.237 1.849-1.116 2.868-1.236.857-.101 1.838-.187 2.696-.129.652.045 1.379.498 1.991.727 1.254.468 2.303 2.259 2.644 3.543.573 2.161.184 3.886-.749 5.864-.54 1.144-1.088 2.344-1.844 3.346-.643.853-1.454 1.249-2.305 1.813-2.009 1.331-4.15 2.377-6.197 3.638-1.345.828-2.605 1.869-3.93 2.728-.4.259-1.138-.696-1.37-.909-.948-.866-1.981-1.605-2.914-2.498a19.97 19.97 0 01-3.655-4.778c-.428-.785-.563-1.757-.833-2.607a33.78 33.78 0 01-.742-2.756c-.377-1.654-.816-3.602-.615-5.307.11-.929.387-3.316 1.383-3.788 2.422-1.147 4.916-.659 7.061.916.74.543 1.345.937 1.992 1.623.494.524.645 1.291 1.408 1.493" stroke="#12A682" stroke-linecap="round"/><path fill-rule="evenodd" clip-rule="evenodd" d="M150.931 391.221c0 6.506 5.274 11.779 11.78 11.779h145.243c6.506 0 11.78-5.274 11.78-11.78 0-14.053-11.392-25.445-25.445-25.445H176.376c-14.053 0-25.445 11.393-25.445 25.446z" fill="#C4C4C4"/><path d="M150.931 391.221h-.5.5zm168.803-.001v-.5h.5v.5h-.5zm0 0v.5h-.5v-.5h.5zM162.711 403.5c-6.782 0-12.28-5.497-12.28-12.279h1c0 6.229 5.05 11.279 11.28 11.279v1zm145.243 0H162.711v-1h145.243v1zm12.28-12.28c0 6.782-5.498 12.28-12.28 12.28v-1c6.23 0 11.28-5.05 11.28-11.28h1zm-.5-.5v1-1zm-.5.5c0-13.777-11.168-24.945-24.945-24.945v-1c14.329 0 25.945 11.616 25.945 25.945h-1zm-24.945-24.945H176.376v-1h117.913v1zm-117.913 0c-13.777 0-24.945 11.169-24.945 24.946h-1c0-14.329 11.616-25.946 25.945-25.946v1z" fill="#000"/><path fill="#C4C4C4" stroke="#000" d="M469 95.563H1V342.55h468z"/><path fill="#C4C4C4" stroke="#000" d="M453.458 104.199H16.543v230.146h436.915z"/><path stroke="#000" d="M424.099 260.076h-6.908v47.066h6.908z"/><path stroke="#000" d="M417.624 260.076h-7.339v47.066h7.339z"/><path stroke="#000" d="M411.147 260.076h-6.908v47.066h6.908z"/><path stroke="#000" d="M404.671 260.076h-6.908v47.066h6.908z"/><path stroke="#000" d="M397.764 260.076h-6.908v47.066h6.908z"/><path stroke="#000" d="M391.719 260.076h-6.908v47.066h6.908z"/><path stroke="#000" d="M385.244 260.076h-6.908v47.066h6.908zm-6.908 0h-6.908v47.066h6.908z"/><path stroke="#000" d="M372.292 260.076h-6.908v47.066h6.908z"/><path stroke="#000" d="M365.384 260.076h-6.908v47.066h6.908z"/><path stroke="#000" d="M358.908 260.076h-6.476v47.066h6.476z"/><path stroke="#000" d="M352.863 260.076h-6.908v47.066h6.908z"/><path stroke="#000" d="M345.956 260.076h-6.908v47.066h6.908z"/><path stroke="#000" d="M339.48 260.076h-6.476v47.066h6.476z"/><path stroke="#000" d="M333.435 260.076h-7.339v47.066h7.339z"/><path stroke="#000" d="M326.528 260.076h-6.908v47.066h6.908zm-176.148 0h-6.908v47.066h6.908z"/><path stroke="#000" d="M143.904 260.076h-7.339v47.066h7.339z"/><path stroke="#000" d="M137.428 260.076h-6.908v47.066h6.908z"/><path stroke="#000" d="M130.952 260.076h-6.908v47.066h6.908zm-6.908 0h-6.476v47.066h6.476z"/><path stroke="#000" d="M118 260.076h-6.908v47.066H118z"/><path stroke="#000" d="M111.524 260.076h-6.908v47.066h6.908zm-6.908 0H98.14v47.066h6.476z"/><path stroke="#000" d="M98.572 260.076h-6.908v47.066h6.908zm-6.908 0h-6.908v47.066h6.908z"/><path stroke="#000" d="M85.188 260.076h-6.476v47.066h6.476z"/><path stroke="#000" d="M79.144 260.076h-6.908v47.066h6.908zm-6.908 0h-6.908v47.066h6.908z"/><path stroke="#000" d="M66.192 260.076h-6.908v47.066h6.908z"/><path stroke="#000" d="M59.716 260.076h-7.34v47.066h7.34z"/><path stroke="#000" d="M52.808 260.076H45.9v47.066h6.908z"/><path d="M258.745 162.919c0-13.114-10.631-23.745-23.745-23.745s-23.745 10.631-23.745 23.745v217.628h47.49V162.919z" fill="#C4C4C4" stroke="#000"/><path d="M258.745 195.736c0-13.114-10.631-23.745-23.745-23.745s-23.745 10.631-23.745 23.745V383.57h47.49V195.736zm180.516 200.445c0-16.793-13.613-30.406-30.406-30.406-16.792 0-30.406 13.613-30.406 30.406v2.101h60.812v-2.101z" fill="#C4C4C4" stroke="#000"/><path d="M439.261 397.233a5.767 5.767 0 01-5.768 5.767h-49.276a5.768 5.768 0 01-5.768-5.767h60.812z" fill="#C4C4C4" stroke="#000"/><path d="M408.855 366.561v12.059M211.92 68.23v0c7.575-7.576 19.856-7.576 27.431 0v0" stroke="#000"/><rect width="44.469" height="44.475" rx="22.234" transform="matrix(-1 0 0 1 275.583 45.906)" fill="#12A682" stroke="#000"/><rect width="44.469" height="44.475" rx="22.234" transform="matrix(-1 0 0 1 221.185 45.906)" fill="#12A682" stroke="#000"/><path d="M176.716 67.496s-30.824 0-31.085 12.954" stroke="#000"/><path d="M254.462 55.45c-3.248 2.436-5.267 5.53-8.91 7.554-1.484.825-6.02 2.943-4.347 2.655 4.241-.727 8.414-1.66 12.588-2.695.989-.245 2.519-1.14 3.502-1.14.916 0-.232.947-.394 1.101-2.164 2.063-4.72 3.61-7.238 5.194-2.982 1.874-6.984 3.946-8.379 7.436-.005.011-.327.553-.099.472 2.634-.94 5.288-2.875 7.809-4.072 4.119-1.956 8.519-3.536 12.431-5.902 1.458-.882 5.962-3.153 4.701-2.007-1.467 1.334-3.807 2.033-5.488 3.03-2.74 1.625-4.918 3.606-6.904 6.079-.784.976-1.728 1.897-2.458 2.911-.047.064-1.065 1.13-.826 1.26 1.416.762 6.448-2.624 7.671-3.07 1.482-.54 2.931-.747 4.484-.747m0-.004c-1.777 2.9-3.619 7.16-6.019 9.561M199.858 54.86c-3.248 2.436-5.267 5.53-8.91 7.554-1.485.825-6.021 2.943-4.347 2.656 4.241-.727 8.413-1.661 12.588-2.695.989-.245 2.519-1.141 3.501-1.141.916 0-.231.947-.393 1.101-2.165 2.063-4.721 3.61-7.238 5.194-2.982 1.874-6.984 3.946-8.38 7.436-.004.011-.327.554-.098.472 2.633-.94 5.288-2.875 7.809-4.072 4.119-1.956 8.519-3.536 12.431-5.902 1.458-.881 5.962-3.153 4.701-2.006-1.467 1.333-3.808 2.033-5.488 3.03-2.74 1.624-4.918 3.605-6.904 6.078-.784.977-1.728 1.897-2.458 2.911-.047.065-1.065 1.13-.827 1.26 1.416.762 6.449-2.624 7.671-3.07 1.482-.54 2.932-.747 4.485-.747m0-.004c-1.777 2.9-3.619 7.16-6.019 9.561" stroke="#000" stroke-linecap="round"/><rect width="12.057" height="21.497" rx="6.029" transform="matrix(-.98067 -.19564 -.1956 .98069 429.825 360.27)" fill="#12A682" stroke="#000"/><rect width="12.057" height="21.497" rx="6.029" transform="matrix(-.98067 -.19564 -.1956 .98069 439.785 366.561)" fill="#12A682" stroke="#000"/><rect width="12.057" height="21.497" rx="6.029" transform="matrix(-.98067 -.19564 -.1956 .98069 418.2 360.27)" fill="#12A682" stroke="#000"/><rect width="12.059" height="14.36" rx="6.029" transform="matrix(-.47485 .88007 .88001 .47495 383.636 370.211)" fill="#12A682" stroke="#000"/></svg>