<svg width="311" height="200" viewBox="0 0 311 200" fill="none" xmlns="http://www.w3.org/2000/svg">
<rect x="57.0842" y="180.913" width="313.39" height="86.0134" transform="rotate(-35.2248 57.0842 180.913)" fill="#89D3C1"/>
<rect x="57.0842" y="180.913" width="313.39" height="86.0134" transform="rotate(-35.2248 57.0842 180.913)" fill="black" fill-opacity="0.05"/>
<rect x="57.0842" y="180.913" width="313.39" height="86.0134" transform="rotate(-35.2248 57.0842 180.913)" stroke="#12A682" stroke-width="0.98281"/>
<mask id="path-2-outside-1_65_532" maskUnits="userSpaceOnUse" x="112.204" y="49.6949" width="196.157" height="153.657" fill="black">
<rect fill="white" x="112.204" y="49.6949" width="196.157" height="153.657"/>
<path d="M133.184 201.107L114.706 174.937L118.707 172.113L149.347 180.676L147.366 182.075L133.138 161.924L137.96 158.518L156.438 184.688L152.438 187.513L121.798 178.95L123.779 177.551L138.007 197.702L133.184 201.107ZM174.402 172.397C172.359 173.84 170.231 174.688 168.02 174.942C165.792 175.171 163.671 174.838 161.657 173.944C159.644 173.05 157.942 171.619 156.552 169.65C155.144 167.656 154.365 165.573 154.213 163.402C154.045 161.205 154.45 159.108 155.429 157.109C156.408 155.11 157.92 153.39 159.963 151.947C162.032 150.486 164.172 149.629 166.383 149.375C168.619 149.103 170.722 149.411 172.693 150.298C174.689 151.167 176.399 152.611 177.825 154.63C179.215 156.599 179.994 158.681 180.163 160.878C180.357 163.057 179.961 165.167 178.974 167.208C177.995 169.206 176.471 170.936 174.402 172.397ZM171.578 168.396C172.725 167.587 173.57 166.616 174.116 165.484C174.661 164.352 174.849 163.137 174.678 161.837C174.533 160.521 174.012 159.227 173.114 157.956C172.199 156.66 171.154 155.735 169.98 155.183C168.812 154.588 167.604 154.358 166.355 154.493C165.106 154.628 163.92 155.091 162.799 155.883C161.652 156.693 160.806 157.663 160.261 158.795C159.741 159.91 159.553 161.125 159.699 162.442C159.826 163.734 160.348 165.028 161.263 166.324C162.16 167.595 163.205 168.519 164.397 169.097C165.589 169.674 166.798 169.904 168.022 169.787C169.271 169.652 170.456 169.188 171.578 168.396ZM184.975 151.878L182.229 147.99L192.51 140.731L195.256 144.619L184.975 151.878ZM218.287 141.411C216.193 142.889 214.016 143.773 211.755 144.062C209.502 144.309 207.368 143.985 205.355 143.091C203.342 142.197 201.64 140.765 200.25 138.796C198.842 136.802 198.062 134.72 197.911 132.548C197.742 130.352 198.16 128.245 199.164 126.229C200.193 124.195 201.754 122.439 203.848 120.961C205.792 119.588 207.781 118.782 209.814 118.541C211.855 118.258 213.799 118.604 215.645 119.578L213.534 124.206C212.267 123.681 211.039 123.503 209.85 123.67C208.686 123.82 207.605 124.246 206.608 124.95C205.462 125.76 204.604 126.739 204.033 127.889C203.463 129.039 203.251 130.272 203.396 131.588C203.524 132.88 204.045 134.174 204.96 135.47C205.875 136.766 206.929 137.703 208.121 138.28C209.296 138.833 210.52 139.033 211.794 138.88C213.068 138.728 214.279 138.247 215.425 137.437C216.422 136.733 217.186 135.858 217.716 134.811C218.272 133.746 218.515 132.529 218.444 131.16L223.511 130.719C223.794 132.76 223.479 134.72 222.564 136.598C221.657 138.434 220.231 140.038 218.287 141.411ZM241.774 124.827C239.73 126.27 237.603 127.119 235.392 127.373C233.163 127.602 231.042 127.269 229.029 126.375C227.016 125.481 225.314 124.049 223.924 122.08C222.516 120.087 221.736 118.004 221.585 115.832C221.416 113.636 221.821 111.538 222.801 109.54C223.78 107.541 225.291 105.82 227.335 104.377C229.404 102.917 231.544 102.06 233.755 101.806C235.991 101.534 238.094 101.842 240.065 102.729C242.06 103.598 243.771 105.042 245.196 107.061C246.587 109.03 247.366 111.112 247.535 113.309C247.729 115.487 247.333 117.597 246.346 119.639C245.367 121.637 243.843 123.367 241.774 124.827ZM238.95 120.827C240.096 120.018 240.942 119.047 241.487 117.915C242.033 116.783 242.22 115.567 242.05 114.268C241.905 112.952 241.383 111.658 240.486 110.387C239.571 109.091 238.526 108.166 237.351 107.614C236.184 107.018 234.976 106.788 233.727 106.923C232.477 107.059 231.292 107.522 230.171 108.314C229.024 109.123 228.178 110.094 227.633 111.226C227.112 112.341 226.925 113.556 227.07 114.873C227.198 116.165 227.719 117.458 228.634 118.754C229.532 120.026 230.577 120.95 231.769 121.527C232.961 122.105 234.169 122.335 235.394 122.218C236.643 122.083 237.828 121.619 238.95 120.827ZM267.59 106.6C265.671 107.955 263.64 108.754 261.496 108.998C259.36 109.199 257.319 108.847 255.373 107.943C253.427 107.038 251.724 105.552 250.263 103.483C248.803 101.414 247.972 99.3118 247.771 97.1756C247.569 95.0393 247.93 93.0107 248.852 91.0898C249.799 89.1513 251.232 87.5046 253.151 86.1495C254.821 84.9704 256.58 84.2884 258.429 84.1034C260.261 83.8935 262.09 84.2635 263.919 85.2134C265.747 86.1633 267.489 87.8097 269.143 90.1525C270.78 92.4704 271.761 94.6535 272.087 96.7018C272.395 98.7252 272.152 100.577 271.359 102.258C270.566 103.938 269.31 105.385 267.59 106.6ZM265.326 102.203C266.448 101.411 267.269 100.458 267.789 99.3438C268.335 98.2118 268.535 96.9875 268.389 95.6708C268.269 94.3366 267.76 93.0339 266.863 91.7628C265.947 90.4667 264.89 89.5512 263.691 89.0162C262.499 88.4386 261.278 88.2174 260.029 88.3524C258.804 88.4699 257.631 88.9245 256.51 89.7164C255.388 90.5084 254.555 91.4703 254.01 92.6023C253.489 93.7167 253.289 94.9411 253.41 96.2753C253.537 97.5671 254.059 98.8609 254.974 100.157C255.871 101.428 256.916 102.352 258.108 102.93C259.325 103.49 260.546 103.711 261.77 103.594C263.02 103.459 264.205 102.995 265.326 102.203ZM274.023 101.666L270.697 96.9549L267.135 91.5142L263.013 86.4694L254.249 74.0573L258.885 70.7841L278.472 98.5243L274.023 101.666ZM296.434 86.2336C294.216 87.7999 291.964 88.7363 289.678 89.0431C287.4 89.3073 285.254 88.9923 283.24 88.0981C281.252 87.1864 279.563 85.746 278.173 83.777C276.765 81.7831 275.96 79.7181 275.759 77.5818C275.565 75.403 275.933 73.3319 276.862 71.3685C277.817 69.3874 279.291 67.693 281.285 66.2852C283.229 64.9126 285.26 64.1132 287.379 63.8871C289.497 63.6611 291.538 64.0127 293.502 64.942C295.465 65.8714 297.186 67.3829 298.664 69.4765C298.805 69.6759 298.951 69.909 299.102 70.1758C299.278 70.4251 299.433 70.6706 299.566 70.9125L282.93 82.6592L280.739 79.5562L294.908 69.5517L293.762 71.8172C292.978 70.6531 292.028 69.8109 290.914 69.2905C289.799 68.7701 288.63 68.5687 287.406 68.6861C286.206 68.786 285.046 69.2319 283.924 70.0238C282.778 70.8333 281.944 71.7952 281.424 72.9096C280.929 74.0064 280.748 75.1794 280.883 76.4287C281.026 77.6354 281.519 78.8369 282.364 80.0332L282.892 80.7809C283.737 81.9773 284.759 82.843 285.958 83.378C287.158 83.913 288.432 84.0778 289.781 83.8724C291.13 83.6669 292.452 83.1067 293.748 82.1916C294.87 81.3996 295.756 80.5125 296.407 79.53C297.058 78.5475 297.468 77.4361 297.638 76.1956L302.176 77.3057C302.017 78.9861 301.455 80.5968 300.489 82.1379C299.53 83.6366 298.179 85.0018 296.434 86.2336Z"/>
</mask>
<path d="M133.184 201.107L114.706 174.937L118.707 172.113L149.347 180.676L147.366 182.075L133.138 161.924L137.96 158.518L156.438 184.688L152.438 187.513L121.798 178.95L123.779 177.551L138.007 197.702L133.184 201.107ZM174.402 172.397C172.359 173.84 170.231 174.688 168.02 174.942C165.792 175.171 163.671 174.838 161.657 173.944C159.644 173.05 157.942 171.619 156.552 169.65C155.144 167.656 154.365 165.573 154.213 163.402C154.045 161.205 154.45 159.108 155.429 157.109C156.408 155.11 157.92 153.39 159.963 151.947C162.032 150.486 164.172 149.629 166.383 149.375C168.619 149.103 170.722 149.411 172.693 150.298C174.689 151.167 176.399 152.611 177.825 154.63C179.215 156.599 179.994 158.681 180.163 160.878C180.357 163.057 179.961 165.167 178.974 167.208C177.995 169.206 176.471 170.936 174.402 172.397ZM171.578 168.396C172.725 167.587 173.57 166.616 174.116 165.484C174.661 164.352 174.849 163.137 174.678 161.837C174.533 160.521 174.012 159.227 173.114 157.956C172.199 156.66 171.154 155.735 169.98 155.183C168.812 154.588 167.604 154.358 166.355 154.493C165.106 154.628 163.92 155.091 162.799 155.883C161.652 156.693 160.806 157.663 160.261 158.795C159.741 159.91 159.553 161.125 159.699 162.442C159.826 163.734 160.348 165.028 161.263 166.324C162.16 167.595 163.205 168.519 164.397 169.097C165.589 169.674 166.798 169.904 168.022 169.787C169.271 169.652 170.456 169.188 171.578 168.396ZM184.975 151.878L182.229 147.99L192.51 140.731L195.256 144.619L184.975 151.878ZM218.287 141.411C216.193 142.889 214.016 143.773 211.755 144.062C209.502 144.309 207.368 143.985 205.355 143.091C203.342 142.197 201.64 140.765 200.25 138.796C198.842 136.802 198.062 134.72 197.911 132.548C197.742 130.352 198.16 128.245 199.164 126.229C200.193 124.195 201.754 122.439 203.848 120.961C205.792 119.588 207.781 118.782 209.814 118.541C211.855 118.258 213.799 118.604 215.645 119.578L213.534 124.206C212.267 123.681 211.039 123.503 209.85 123.67C208.686 123.82 207.605 124.246 206.608 124.95C205.462 125.76 204.604 126.739 204.033 127.889C203.463 129.039 203.251 130.272 203.396 131.588C203.524 132.88 204.045 134.174 204.96 135.47C205.875 136.766 206.929 137.703 208.121 138.28C209.296 138.833 210.52 139.033 211.794 138.88C213.068 138.728 214.279 138.247 215.425 137.437C216.422 136.733 217.186 135.858 217.716 134.811C218.272 133.746 218.515 132.529 218.444 131.16L223.511 130.719C223.794 132.76 223.479 134.72 222.564 136.598C221.657 138.434 220.231 140.038 218.287 141.411ZM241.774 124.827C239.73 126.27 237.603 127.119 235.392 127.373C233.163 127.602 231.042 127.269 229.029 126.375C227.016 125.481 225.314 124.049 223.924 122.08C222.516 120.087 221.736 118.004 221.585 115.832C221.416 113.636 221.821 111.538 222.801 109.54C223.78 107.541 225.291 105.82 227.335 104.377C229.404 102.917 231.544 102.06 233.755 101.806C235.991 101.534 238.094 101.842 240.065 102.729C242.06 103.598 243.771 105.042 245.196 107.061C246.587 109.03 247.366 111.112 247.535 113.309C247.729 115.487 247.333 117.597 246.346 119.639C245.367 121.637 243.843 123.367 241.774 124.827ZM238.95 120.827C240.096 120.018 240.942 119.047 241.487 117.915C242.033 116.783 242.22 115.567 242.05 114.268C241.905 112.952 241.383 111.658 240.486 110.387C239.571 109.091 238.526 108.166 237.351 107.614C236.184 107.018 234.976 106.788 233.727 106.923C232.477 107.059 231.292 107.522 230.171 108.314C229.024 109.123 228.178 110.094 227.633 111.226C227.112 112.341 226.925 113.556 227.07 114.873C227.198 116.165 227.719 117.458 228.634 118.754C229.532 120.026 230.577 120.95 231.769 121.527C232.961 122.105 234.169 122.335 235.394 122.218C236.643 122.083 237.828 121.619 238.95 120.827ZM267.59 106.6C265.671 107.955 263.64 108.754 261.496 108.998C259.36 109.199 257.319 108.847 255.373 107.943C253.427 107.038 251.724 105.552 250.263 103.483C248.803 101.414 247.972 99.3118 247.771 97.1756C247.569 95.0393 247.93 93.0107 248.852 91.0898C249.799 89.1513 251.232 87.5046 253.151 86.1495C254.821 84.9704 256.58 84.2884 258.429 84.1034C260.261 83.8935 262.09 84.2635 263.919 85.2134C265.747 86.1633 267.489 87.8097 269.143 90.1525C270.78 92.4704 271.761 94.6535 272.087 96.7018C272.395 98.7252 272.152 100.577 271.359 102.258C270.566 103.938 269.31 105.385 267.59 106.6ZM265.326 102.203C266.448 101.411 267.269 100.458 267.789 99.3438C268.335 98.2118 268.535 96.9875 268.389 95.6708C268.269 94.3366 267.76 93.0339 266.863 91.7628C265.947 90.4667 264.89 89.5512 263.691 89.0162C262.499 88.4386 261.278 88.2174 260.029 88.3524C258.804 88.4699 257.631 88.9245 256.51 89.7164C255.388 90.5084 254.555 91.4703 254.01 92.6023C253.489 93.7167 253.289 94.9411 253.41 96.2753C253.537 97.5671 254.059 98.8609 254.974 100.157C255.871 101.428 256.916 102.352 258.108 102.93C259.325 103.49 260.546 103.711 261.77 103.594C263.02 103.459 264.205 102.995 265.326 102.203ZM274.023 101.666L270.697 96.9549L267.135 91.5142L263.013 86.4694L254.249 74.0573L258.885 70.7841L278.472 98.5243L274.023 101.666ZM296.434 86.2336C294.216 87.7999 291.964 88.7363 289.678 89.0431C287.4 89.3073 285.254 88.9923 283.24 88.0981C281.252 87.1864 279.563 85.746 278.173 83.777C276.765 81.7831 275.96 79.7181 275.759 77.5818C275.565 75.403 275.933 73.3319 276.862 71.3685C277.817 69.3874 279.291 67.693 281.285 66.2852C283.229 64.9126 285.26 64.1132 287.379 63.8871C289.497 63.6611 291.538 64.0127 293.502 64.942C295.465 65.8714 297.186 67.3829 298.664 69.4765C298.805 69.6759 298.951 69.909 299.102 70.1758C299.278 70.4251 299.433 70.6706 299.566 70.9125L282.93 82.6592L280.739 79.5562L294.908 69.5517L293.762 71.8172C292.978 70.6531 292.028 69.8109 290.914 69.2905C289.799 68.7701 288.63 68.5687 287.406 68.6861C286.206 68.786 285.046 69.2319 283.924 70.0238C282.778 70.8333 281.944 71.7952 281.424 72.9096C280.929 74.0064 280.748 75.1794 280.883 76.4287C281.026 77.6354 281.519 78.8369 282.364 80.0332L282.892 80.7809C283.737 81.9773 284.759 82.843 285.958 83.378C287.158 83.913 288.432 84.0778 289.781 83.8724C291.13 83.6669 292.452 83.1067 293.748 82.1916C294.87 81.3996 295.756 80.5125 296.407 79.53C297.058 78.5475 297.468 77.4361 297.638 76.1956L302.176 77.3057C302.017 78.9861 301.455 80.5968 300.489 82.1379C299.53 83.6366 298.179 85.0018 296.434 86.2336Z" fill="white"/>
<path d="M133.184 201.107L114.706 174.937L118.707 172.113L149.347 180.676L147.366 182.075L133.138 161.924L137.96 158.518L156.438 184.688L152.438 187.513L121.798 178.95L123.779 177.551L138.007 197.702L133.184 201.107ZM174.402 172.397C172.359 173.84 170.231 174.688 168.02 174.942C165.792 175.171 163.671 174.838 161.657 173.944C159.644 173.05 157.942 171.619 156.552 169.65C155.144 167.656 154.365 165.573 154.213 163.402C154.045 161.205 154.45 159.108 155.429 157.109C156.408 155.11 157.92 153.39 159.963 151.947C162.032 150.486 164.172 149.629 166.383 149.375C168.619 149.103 170.722 149.411 172.693 150.298C174.689 151.167 176.399 152.611 177.825 154.63C179.215 156.599 179.994 158.681 180.163 160.878C180.357 163.057 179.961 165.167 178.974 167.208C177.995 169.206 176.471 170.936 174.402 172.397ZM171.578 168.396C172.725 167.587 173.57 166.616 174.116 165.484C174.661 164.352 174.849 163.137 174.678 161.837C174.533 160.521 174.012 159.227 173.114 157.956C172.199 156.66 171.154 155.735 169.98 155.183C168.812 154.588 167.604 154.358 166.355 154.493C165.106 154.628 163.92 155.091 162.799 155.883C161.652 156.693 160.806 157.663 160.261 158.795C159.741 159.91 159.553 161.125 159.699 162.442C159.826 163.734 160.348 165.028 161.263 166.324C162.16 167.595 163.205 168.519 164.397 169.097C165.589 169.674 166.798 169.904 168.022 169.787C169.271 169.652 170.456 169.188 171.578 168.396ZM184.975 151.878L182.229 147.99L192.51 140.731L195.256 144.619L184.975 151.878ZM218.287 141.411C216.193 142.889 214.016 143.773 211.755 144.062C209.502 144.309 207.368 143.985 205.355 143.091C203.342 142.197 201.64 140.765 200.25 138.796C198.842 136.802 198.062 134.72 197.911 132.548C197.742 130.352 198.16 128.245 199.164 126.229C200.193 124.195 201.754 122.439 203.848 120.961C205.792 119.588 207.781 118.782 209.814 118.541C211.855 118.258 213.799 118.604 215.645 119.578L213.534 124.206C212.267 123.681 211.039 123.503 209.85 123.67C208.686 123.82 207.605 124.246 206.608 124.95C205.462 125.76 204.604 126.739 204.033 127.889C203.463 129.039 203.251 130.272 203.396 131.588C203.524 132.88 204.045 134.174 204.96 135.47C205.875 136.766 206.929 137.703 208.121 138.28C209.296 138.833 210.52 139.033 211.794 138.88C213.068 138.728 214.279 138.247 215.425 137.437C216.422 136.733 217.186 135.858 217.716 134.811C218.272 133.746 218.515 132.529 218.444 131.16L223.511 130.719C223.794 132.76 223.479 134.72 222.564 136.598C221.657 138.434 220.231 140.038 218.287 141.411ZM241.774 124.827C239.73 126.27 237.603 127.119 235.392 127.373C233.163 127.602 231.042 127.269 229.029 126.375C227.016 125.481 225.314 124.049 223.924 122.08C222.516 120.087 221.736 118.004 221.585 115.832C221.416 113.636 221.821 111.538 222.801 109.54C223.78 107.541 225.291 105.82 227.335 104.377C229.404 102.917 231.544 102.06 233.755 101.806C235.991 101.534 238.094 101.842 240.065 102.729C242.06 103.598 243.771 105.042 245.196 107.061C246.587 109.03 247.366 111.112 247.535 113.309C247.729 115.487 247.333 117.597 246.346 119.639C245.367 121.637 243.843 123.367 241.774 124.827ZM238.95 120.827C240.096 120.018 240.942 119.047 241.487 117.915C242.033 116.783 242.22 115.567 242.05 114.268C241.905 112.952 241.383 111.658 240.486 110.387C239.571 109.091 238.526 108.166 237.351 107.614C236.184 107.018 234.976 106.788 233.727 106.923C232.477 107.059 231.292 107.522 230.171 108.314C229.024 109.123 228.178 110.094 227.633 111.226C227.112 112.341 226.925 113.556 227.07 114.873C227.198 116.165 227.719 117.458 228.634 118.754C229.532 120.026 230.577 120.95 231.769 121.527C232.961 122.105 234.169 122.335 235.394 122.218C236.643 122.083 237.828 121.619 238.95 120.827ZM267.59 106.6C265.671 107.955 263.64 108.754 261.496 108.998C259.36 109.199 257.319 108.847 255.373 107.943C253.427 107.038 251.724 105.552 250.263 103.483C248.803 101.414 247.972 99.3118 247.771 97.1756C247.569 95.0393 247.93 93.0107 248.852 91.0898C249.799 89.1513 251.232 87.5046 253.151 86.1495C254.821 84.9704 256.58 84.2884 258.429 84.1034C260.261 83.8935 262.09 84.2635 263.919 85.2134C265.747 86.1633 267.489 87.8097 269.143 90.1525C270.78 92.4704 271.761 94.6535 272.087 96.7018C272.395 98.7252 272.152 100.577 271.359 102.258C270.566 103.938 269.31 105.385 267.59 106.6ZM265.326 102.203C266.448 101.411 267.269 100.458 267.789 99.3438C268.335 98.2118 268.535 96.9875 268.389 95.6708C268.269 94.3366 267.76 93.0339 266.863 91.7628C265.947 90.4667 264.89 89.5512 263.691 89.0162C262.499 88.4386 261.278 88.2174 260.029 88.3524C258.804 88.4699 257.631 88.9245 256.51 89.7164C255.388 90.5084 254.555 91.4703 254.01 92.6023C253.489 93.7167 253.289 94.9411 253.41 96.2753C253.537 97.5671 254.059 98.8609 254.974 100.157C255.871 101.428 256.916 102.352 258.108 102.93C259.325 103.49 260.546 103.711 261.77 103.594C263.02 103.459 264.205 102.995 265.326 102.203ZM274.023 101.666L270.697 96.9549L267.135 91.5142L263.013 86.4694L254.249 74.0573L258.885 70.7841L278.472 98.5243L274.023 101.666ZM296.434 86.2336C294.216 87.7999 291.964 88.7363 289.678 89.0431C287.4 89.3073 285.254 88.9923 283.24 88.0981C281.252 87.1864 279.563 85.746 278.173 83.777C276.765 81.7831 275.96 79.7181 275.759 77.5818C275.565 75.403 275.933 73.3319 276.862 71.3685C277.817 69.3874 279.291 67.693 281.285 66.2852C283.229 64.9126 285.26 64.1132 287.379 63.8871C289.497 63.6611 291.538 64.0127 293.502 64.942C295.465 65.8714 297.186 67.3829 298.664 69.4765C298.805 69.6759 298.951 69.909 299.102 70.1758C299.278 70.4251 299.433 70.6706 299.566 70.9125L282.93 82.6592L280.739 79.5562L294.908 69.5517L293.762 71.8172C292.978 70.6531 292.028 69.8109 290.914 69.2905C289.799 68.7701 288.63 68.5687 287.406 68.6861C286.206 68.786 285.046 69.2319 283.924 70.0238C282.778 70.8333 281.944 71.7952 281.424 72.9096C280.929 74.0064 280.748 75.1794 280.883 76.4287C281.026 77.6354 281.519 78.8369 282.364 80.0332L282.892 80.7809C283.737 81.9773 284.759 82.843 285.958 83.378C287.158 83.913 288.432 84.0778 289.781 83.8724C291.13 83.6669 292.452 83.1067 293.748 82.1916C294.87 81.3996 295.756 80.5125 296.407 79.53C297.058 78.5475 297.468 77.4361 297.638 76.1956L302.176 77.3057C302.017 78.9861 301.455 80.5968 300.489 82.1379C299.53 83.6366 298.179 85.0018 296.434 86.2336Z" fill="black" fill-opacity="0.05"/>
<path d="M133.184 201.107L114.706 174.937L118.707 172.113L149.347 180.676L147.366 182.075L133.138 161.924L137.96 158.518L156.438 184.688L152.438 187.513L121.798 178.95L123.779 177.551L138.007 197.702L133.184 201.107ZM174.402 172.397C172.359 173.84 170.231 174.688 168.02 174.942C165.792 175.171 163.671 174.838 161.657 173.944C159.644 173.05 157.942 171.619 156.552 169.65C155.144 167.656 154.365 165.573 154.213 163.402C154.045 161.205 154.45 159.108 155.429 157.109C156.408 155.11 157.92 153.39 159.963 151.947C162.032 150.486 164.172 149.629 166.383 149.375C168.619 149.103 170.722 149.411 172.693 150.298C174.689 151.167 176.399 152.611 177.825 154.63C179.215 156.599 179.994 158.681 180.163 160.878C180.357 163.057 179.961 165.167 178.974 167.208C177.995 169.206 176.471 170.936 174.402 172.397ZM171.578 168.396C172.725 167.587 173.57 166.616 174.116 165.484C174.661 164.352 174.849 163.137 174.678 161.837C174.533 160.521 174.012 159.227 173.114 157.956C172.199 156.66 171.154 155.735 169.98 155.183C168.812 154.588 167.604 154.358 166.355 154.493C165.106 154.628 163.92 155.091 162.799 155.883C161.652 156.693 160.806 157.663 160.261 158.795C159.741 159.91 159.553 161.125 159.699 162.442C159.826 163.734 160.348 165.028 161.263 166.324C162.16 167.595 163.205 168.519 164.397 169.097C165.589 169.674 166.798 169.904 168.022 169.787C169.271 169.652 170.456 169.188 171.578 168.396ZM184.975 151.878L182.229 147.99L192.51 140.731L195.256 144.619L184.975 151.878ZM218.287 141.411C216.193 142.889 214.016 143.773 211.755 144.062C209.502 144.309 207.368 143.985 205.355 143.091C203.342 142.197 201.64 140.765 200.25 138.796C198.842 136.802 198.062 134.72 197.911 132.548C197.742 130.352 198.16 128.245 199.164 126.229C200.193 124.195 201.754 122.439 203.848 120.961C205.792 119.588 207.781 118.782 209.814 118.541C211.855 118.258 213.799 118.604 215.645 119.578L213.534 124.206C212.267 123.681 211.039 123.503 209.85 123.67C208.686 123.82 207.605 124.246 206.608 124.95C205.462 125.76 204.604 126.739 204.033 127.889C203.463 129.039 203.251 130.272 203.396 131.588C203.524 132.88 204.045 134.174 204.96 135.47C205.875 136.766 206.929 137.703 208.121 138.28C209.296 138.833 210.52 139.033 211.794 138.88C213.068 138.728 214.279 138.247 215.425 137.437C216.422 136.733 217.186 135.858 217.716 134.811C218.272 133.746 218.515 132.529 218.444 131.16L223.511 130.719C223.794 132.76 223.479 134.72 222.564 136.598C221.657 138.434 220.231 140.038 218.287 141.411ZM241.774 124.827C239.73 126.27 237.603 127.119 235.392 127.373C233.163 127.602 231.042 127.269 229.029 126.375C227.016 125.481 225.314 124.049 223.924 122.08C222.516 120.087 221.736 118.004 221.585 115.832C221.416 113.636 221.821 111.538 222.801 109.54C223.78 107.541 225.291 105.82 227.335 104.377C229.404 102.917 231.544 102.06 233.755 101.806C235.991 101.534 238.094 101.842 240.065 102.729C242.06 103.598 243.771 105.042 245.196 107.061C246.587 109.03 247.366 111.112 247.535 113.309C247.729 115.487 247.333 117.597 246.346 119.639C245.367 121.637 243.843 123.367 241.774 124.827ZM238.95 120.827C240.096 120.018 240.942 119.047 241.487 117.915C242.033 116.783 242.22 115.567 242.05 114.268C241.905 112.952 241.383 111.658 240.486 110.387C239.571 109.091 238.526 108.166 237.351 107.614C236.184 107.018 234.976 106.788 233.727 106.923C232.477 107.059 231.292 107.522 230.171 108.314C229.024 109.123 228.178 110.094 227.633 111.226C227.112 112.341 226.925 113.556 227.07 114.873C227.198 116.165 227.719 117.458 228.634 118.754C229.532 120.026 230.577 120.95 231.769 121.527C232.961 122.105 234.169 122.335 235.394 122.218C236.643 122.083 237.828 121.619 238.95 120.827ZM267.59 106.6C265.671 107.955 263.64 108.754 261.496 108.998C259.36 109.199 257.319 108.847 255.373 107.943C253.427 107.038 251.724 105.552 250.263 103.483C248.803 101.414 247.972 99.3118 247.771 97.1756C247.569 95.0393 247.93 93.0107 248.852 91.0898C249.799 89.1513 251.232 87.5046 253.151 86.1495C254.821 84.9704 256.58 84.2884 258.429 84.1034C260.261 83.8935 262.09 84.2635 263.919 85.2134C265.747 86.1633 267.489 87.8097 269.143 90.1525C270.78 92.4704 271.761 94.6535 272.087 96.7018C272.395 98.7252 272.152 100.577 271.359 102.258C270.566 103.938 269.31 105.385 267.59 106.6ZM265.326 102.203C266.448 101.411 267.269 100.458 267.789 99.3438C268.335 98.2118 268.535 96.9875 268.389 95.6708C268.269 94.3366 267.76 93.0339 266.863 91.7628C265.947 90.4667 264.89 89.5512 263.691 89.0162C262.499 88.4386 261.278 88.2174 260.029 88.3524C258.804 88.4699 257.631 88.9245 256.51 89.7164C255.388 90.5084 254.555 91.4703 254.01 92.6023C253.489 93.7167 253.289 94.9411 253.41 96.2753C253.537 97.5671 254.059 98.8609 254.974 100.157C255.871 101.428 256.916 102.352 258.108 102.93C259.325 103.49 260.546 103.711 261.77 103.594C263.02 103.459 264.205 102.995 265.326 102.203ZM274.023 101.666L270.697 96.9549L267.135 91.5142L263.013 86.4694L254.249 74.0573L258.885 70.7841L278.472 98.5243L274.023 101.666ZM296.434 86.2336C294.216 87.7999 291.964 88.7363 289.678 89.0431C287.4 89.3073 285.254 88.9923 283.24 88.0981C281.252 87.1864 279.563 85.746 278.173 83.777C276.765 81.7831 275.96 79.7181 275.759 77.5818C275.565 75.403 275.933 73.3319 276.862 71.3685C277.817 69.3874 279.291 67.693 281.285 66.2852C283.229 64.9126 285.26 64.1132 287.379 63.8871C289.497 63.6611 291.538 64.0127 293.502 64.942C295.465 65.8714 297.186 67.3829 298.664 69.4765C298.805 69.6759 298.951 69.909 299.102 70.1758C299.278 70.4251 299.433 70.6706 299.566 70.9125L282.93 82.6592L280.739 79.5562L294.908 69.5517L293.762 71.8172C292.978 70.6531 292.028 69.8109 290.914 69.2905C289.799 68.7701 288.63 68.5687 287.406 68.6861C286.206 68.786 285.046 69.2319 283.924 70.0238C282.778 70.8333 281.944 71.7952 281.424 72.9096C280.929 74.0064 280.748 75.1794 280.883 76.4287C281.026 77.6354 281.519 78.8369 282.364 80.0332L282.892 80.7809C283.737 81.9773 284.759 82.843 285.958 83.378C287.158 83.913 288.432 84.0778 289.781 83.8724C291.13 83.6669 292.452 83.1067 293.748 82.1916C294.87 81.3996 295.756 80.5125 296.407 79.53C297.058 78.5475 297.468 77.4361 297.638 76.1956L302.176 77.3057C302.017 78.9861 301.455 80.5968 300.489 82.1379C299.53 83.6366 298.179 85.0018 296.434 86.2336Z" stroke="#12A682" stroke-width="1.96562" mask="url(#path-2-outside-1_65_532)"/>
<path d="M69.5382 255.667L0.691471 205.288L202.638 -63.9662L271.485 -13.587L69.5382 255.667Z" fill="#89D3C1" stroke="#12A682" stroke-width="0.98281"/>
<mask id="path-4-outside-2_65_532" maskUnits="userSpaceOnUse" x="68.4212" y="-8.92779" width="154.246" height="192.346" fill="black">
<rect fill="white" x="68.4212" y="-8.92779" width="154.246" height="192.346"/>
<path d="M97.0019 181.833L71.3574 163.068L74.2259 159.148L105.741 157.515L104.32 159.456L84.5738 145.007L88.032 140.281L113.677 159.046L110.808 162.966L79.2931 164.6L80.7139 162.658L100.46 177.108L97.0019 181.833ZM126.682 141.812C125.217 143.814 123.485 145.284 121.486 146.222C119.463 147.142 117.364 147.499 115.188 147.295C113.013 147.091 110.96 146.282 109.031 144.871C107.077 143.441 105.686 141.729 104.857 139.735C104.004 137.723 103.722 135.623 104.011 133.435C104.3 131.246 105.177 129.15 106.643 127.148C108.126 125.12 109.867 123.638 111.866 122.7C113.882 121.739 115.957 121.363 118.09 121.574C120.241 121.76 122.306 122.578 124.284 124.025C126.214 125.437 127.605 127.149 128.458 129.161C129.329 131.148 129.623 133.257 129.341 135.488C129.052 137.677 128.165 139.784 126.682 141.812ZM122.762 138.943C123.584 137.82 124.073 136.64 124.228 135.403C124.383 134.166 124.175 132.964 123.604 131.796C123.051 130.604 122.152 129.553 120.907 128.641C119.637 127.712 118.362 127.173 117.083 127.025C115.798 126.834 114.589 127 113.457 127.521C112.325 128.043 111.357 128.854 110.553 129.953C109.731 131.076 109.242 132.256 109.087 133.493C108.95 134.705 109.158 135.907 109.711 137.099C110.239 138.273 111.138 139.325 112.408 140.255C113.654 141.166 114.929 141.705 116.232 141.871C117.535 142.037 118.744 141.872 119.858 141.374C120.99 140.853 121.958 140.042 122.762 138.943ZM130.137 119.179L126.327 116.391L133.699 106.316L137.51 109.104L130.137 119.179ZM158.15 98.8083C156.649 100.86 154.881 102.379 152.847 103.365C150.806 104.309 148.698 104.679 146.522 104.475C144.347 104.27 142.294 103.462 140.365 102.05C138.411 100.621 137.02 98.9089 136.191 96.915C135.338 94.9033 135.065 92.7909 135.372 90.5779C135.697 88.3404 136.61 86.1959 138.111 84.1443C139.505 82.2393 141.12 80.8522 142.956 79.9832C144.785 79.0718 146.722 78.7827 148.766 79.1157L148.244 84.1339C146.887 84.041 145.676 84.261 144.611 84.7942C143.563 85.3029 142.682 86.0457 141.967 87.0226C141.145 88.1461 140.648 89.3384 140.475 90.5995C140.302 91.8606 140.492 93.0871 141.045 94.2792C141.573 95.4533 142.472 96.5051 143.742 97.4344C145.012 98.3638 146.299 98.9116 147.603 99.0778C148.882 99.2262 150.096 99.0273 151.246 98.481C152.395 97.9348 153.381 97.1 154.203 95.9765C154.918 94.9996 155.36 93.935 155.528 92.783C155.714 91.6064 155.557 90.3855 155.058 89.1202L159.683 87.1045C160.594 88.934 160.917 90.8763 160.651 92.9315C160.378 94.9444 159.544 96.9033 158.15 98.8083ZM174.992 75.7926C173.527 77.7953 171.795 79.2655 169.796 80.2031C167.773 81.1228 165.674 81.4804 163.498 81.276C161.323 81.0716 159.27 80.2635 157.341 78.8516C155.387 77.4218 153.996 75.71 153.167 73.7161C152.314 71.7044 152.032 69.6042 152.321 67.4156C152.61 65.227 153.487 63.1313 154.953 61.1286C156.436 59.1015 158.177 57.6191 160.176 56.6815C162.192 55.7195 164.267 55.344 166.4 55.555C168.551 55.7415 170.616 56.5586 172.594 58.0062C174.524 59.4181 175.915 61.1299 176.768 63.1417C177.639 65.129 177.933 67.2381 177.651 69.469C177.362 71.6576 176.475 73.7655 174.992 75.7926ZM171.072 72.9242C171.894 71.8007 172.383 70.6206 172.538 69.3839C172.693 68.1472 172.485 66.9451 171.914 65.7775C171.361 64.5855 170.462 63.5337 169.217 62.6222C167.947 61.6929 166.672 61.154 165.393 61.0057C164.108 60.815 162.899 60.9806 161.767 61.5024C160.635 62.0242 159.667 62.8346 158.863 63.9336C158.041 65.0571 157.552 66.2372 157.397 67.4739C157.26 68.6861 157.468 69.8883 158.021 71.0803C158.549 72.2545 159.448 73.3062 160.718 74.2356C161.964 75.147 163.239 75.6859 164.542 75.8521C165.845 76.0184 167.054 75.8528 168.168 75.3555C169.3 74.8337 170.268 74.0232 171.072 72.9242ZM193.504 50.495C192.128 52.3756 190.47 53.7692 188.532 54.6758C186.587 55.5401 184.557 55.8545 182.441 55.6192C180.326 55.3838 178.255 54.5244 176.228 53.041C174.201 51.5577 172.755 49.8435 171.891 47.8985C171.026 45.9534 170.724 43.9322 170.984 41.8347C171.261 39.7128 172.088 37.7116 173.465 35.831C174.662 34.1946 176.101 32.9973 177.781 32.239C179.436 31.4629 181.274 31.2324 183.293 31.5476C185.312 31.8628 187.47 32.8604 189.766 34.5403C192.037 36.2024 193.65 37.9449 194.603 39.7678C195.533 41.5729 195.89 43.3907 195.675 45.2213C195.461 47.0519 194.737 48.8098 193.504 50.495ZM189.986 47.077C190.79 45.9779 191.261 44.8223 191.398 43.61C191.553 42.3734 191.354 41.159 190.801 39.967C190.266 38.7505 189.376 37.6866 188.13 36.7751C186.86 35.8457 185.577 35.3191 184.28 35.1951C182.977 35.0289 181.759 35.2067 180.627 35.7285C179.513 36.2258 178.554 37.0241 177.75 38.1231C176.946 39.2222 176.466 40.39 176.311 41.6267C176.174 42.839 176.373 44.0533 176.908 45.2698C177.436 46.4439 178.336 47.4957 179.606 48.425C180.851 49.3365 182.126 49.8754 183.429 50.0416C184.75 50.1834 185.968 50.0056 187.082 49.5083C188.214 48.9865 189.182 48.176 189.986 47.077ZM197.992 43.8229L193.376 40.4451L188.308 36.4552L182.838 33.0148L170.675 24.1145L173.999 19.5718L201.183 39.4633L197.992 43.8229ZM214.187 22.2302C212.596 24.4039 210.775 25.9961 208.723 27.007C206.664 27.9755 204.547 28.3576 202.371 28.1532C200.214 27.9244 198.17 27.104 196.241 25.6921C194.287 24.2624 192.878 22.575 192.013 20.63C191.142 18.6426 190.834 16.5791 191.087 14.4393C191.358 12.2751 192.208 10.2161 193.638 8.26224C195.032 6.35722 196.69 4.96361 198.61 4.08144C200.531 3.19927 202.561 2.88481 204.701 3.13805C206.84 3.3913 208.936 4.26856 210.988 5.76981C211.183 5.91278 211.394 6.08584 211.62 6.28899C211.865 6.46771 212.088 6.6497 212.29 6.83498L200.36 23.1376L197.319 20.9125L207.48 7.02781L207.118 9.51994C206.013 8.67341 204.854 8.1816 203.642 8.04455C202.429 7.90749 201.266 8.08766 200.152 8.58505C199.056 9.058 198.106 9.844 197.302 10.943C196.48 12.0665 196 13.2344 195.863 14.4467C195.744 15.6345 195.945 16.7943 196.467 17.9262C196.982 19.0158 197.826 19.9895 198.998 20.8473L199.731 21.3835C200.903 22.2413 202.138 22.7323 203.435 22.8562C204.732 22.9802 205.982 22.7324 207.185 22.1129C208.388 21.4934 209.455 20.5486 210.384 19.2786C211.188 18.1796 211.741 17.0653 212.043 15.9359C212.344 14.8064 212.379 13.6317 212.146 12.4117L216.763 12.0213C217.146 13.6512 217.126 15.3433 216.705 17.0977C216.277 18.8097 215.438 20.5205 214.187 22.2302Z"/>
</mask>
<path d="M97.0019 181.833L71.3574 163.068L74.2259 159.148L105.741 157.515L104.32 159.456L84.5738 145.007L88.032 140.281L113.677 159.046L110.808 162.966L79.2931 164.6L80.7139 162.658L100.46 177.108L97.0019 181.833ZM126.682 141.812C125.217 143.814 123.485 145.284 121.486 146.222C119.463 147.142 117.364 147.499 115.188 147.295C113.013 147.091 110.96 146.282 109.031 144.871C107.077 143.441 105.686 141.729 104.857 139.735C104.004 137.723 103.722 135.623 104.011 133.435C104.3 131.246 105.177 129.15 106.643 127.148C108.126 125.12 109.867 123.638 111.866 122.7C113.882 121.739 115.957 121.363 118.09 121.574C120.241 121.76 122.306 122.578 124.284 124.025C126.214 125.437 127.605 127.149 128.458 129.161C129.329 131.148 129.623 133.257 129.341 135.488C129.052 137.677 128.165 139.784 126.682 141.812ZM122.762 138.943C123.584 137.82 124.073 136.64 124.228 135.403C124.383 134.166 124.175 132.964 123.604 131.796C123.051 130.604 122.152 129.553 120.907 128.641C119.637 127.712 118.362 127.173 117.083 127.025C115.798 126.834 114.589 127 113.457 127.521C112.325 128.043 111.357 128.854 110.553 129.953C109.731 131.076 109.242 132.256 109.087 133.493C108.95 134.705 109.158 135.907 109.711 137.099C110.239 138.273 111.138 139.325 112.408 140.255C113.654 141.166 114.929 141.705 116.232 141.871C117.535 142.037 118.744 141.872 119.858 141.374C120.99 140.853 121.958 140.042 122.762 138.943ZM130.137 119.179L126.327 116.391L133.699 106.316L137.51 109.104L130.137 119.179ZM158.15 98.8083C156.649 100.86 154.881 102.379 152.847 103.365C150.806 104.309 148.698 104.679 146.522 104.475C144.347 104.27 142.294 103.462 140.365 102.05C138.411 100.621 137.02 98.9089 136.191 96.915C135.338 94.9033 135.065 92.7909 135.372 90.5779C135.697 88.3404 136.61 86.1959 138.111 84.1443C139.505 82.2393 141.12 80.8522 142.956 79.9832C144.785 79.0718 146.722 78.7827 148.766 79.1157L148.244 84.1339C146.887 84.041 145.676 84.261 144.611 84.7942C143.563 85.3029 142.682 86.0457 141.967 87.0226C141.145 88.1461 140.648 89.3384 140.475 90.5995C140.302 91.8606 140.492 93.0871 141.045 94.2792C141.573 95.4533 142.472 96.5051 143.742 97.4344C145.012 98.3638 146.299 98.9116 147.603 99.0778C148.882 99.2262 150.096 99.0273 151.246 98.481C152.395 97.9348 153.381 97.1 154.203 95.9765C154.918 94.9996 155.36 93.935 155.528 92.783C155.714 91.6064 155.557 90.3855 155.058 89.1202L159.683 87.1045C160.594 88.934 160.917 90.8763 160.651 92.9315C160.378 94.9444 159.544 96.9033 158.15 98.8083ZM174.992 75.7926C173.527 77.7953 171.795 79.2655 169.796 80.2031C167.773 81.1228 165.674 81.4804 163.498 81.276C161.323 81.0716 159.27 80.2635 157.341 78.8516C155.387 77.4218 153.996 75.71 153.167 73.7161C152.314 71.7044 152.032 69.6042 152.321 67.4156C152.61 65.227 153.487 63.1313 154.953 61.1286C156.436 59.1015 158.177 57.6191 160.176 56.6815C162.192 55.7195 164.267 55.344 166.4 55.555C168.551 55.7415 170.616 56.5586 172.594 58.0062C174.524 59.4181 175.915 61.1299 176.768 63.1417C177.639 65.129 177.933 67.2381 177.651 69.469C177.362 71.6576 176.475 73.7655 174.992 75.7926ZM171.072 72.9242C171.894 71.8007 172.383 70.6206 172.538 69.3839C172.693 68.1472 172.485 66.9451 171.914 65.7775C171.361 64.5855 170.462 63.5337 169.217 62.6222C167.947 61.6929 166.672 61.154 165.393 61.0057C164.108 60.815 162.899 60.9806 161.767 61.5024C160.635 62.0242 159.667 62.8346 158.863 63.9336C158.041 65.0571 157.552 66.2372 157.397 67.4739C157.26 68.6861 157.468 69.8883 158.021 71.0803C158.549 72.2545 159.448 73.3062 160.718 74.2356C161.964 75.147 163.239 75.6859 164.542 75.8521C165.845 76.0184 167.054 75.8528 168.168 75.3555C169.3 74.8337 170.268 74.0232 171.072 72.9242ZM193.504 50.495C192.128 52.3756 190.47 53.7692 188.532 54.6758C186.587 55.5401 184.557 55.8545 182.441 55.6192C180.326 55.3838 178.255 54.5244 176.228 53.041C174.201 51.5577 172.755 49.8435 171.891 47.8985C171.026 45.9534 170.724 43.9322 170.984 41.8347C171.261 39.7128 172.088 37.7116 173.465 35.831C174.662 34.1946 176.101 32.9973 177.781 32.239C179.436 31.4629 181.274 31.2324 183.293 31.5476C185.312 31.8628 187.47 32.8604 189.766 34.5403C192.037 36.2024 193.65 37.9449 194.603 39.7678C195.533 41.5729 195.89 43.3907 195.675 45.2213C195.461 47.0519 194.737 48.8098 193.504 50.495ZM189.986 47.077C190.79 45.9779 191.261 44.8223 191.398 43.61C191.553 42.3734 191.354 41.159 190.801 39.967C190.266 38.7505 189.376 37.6866 188.13 36.7751C186.86 35.8457 185.577 35.3191 184.28 35.1951C182.977 35.0289 181.759 35.2067 180.627 35.7285C179.513 36.2258 178.554 37.0241 177.75 38.1231C176.946 39.2222 176.466 40.39 176.311 41.6267C176.174 42.839 176.373 44.0533 176.908 45.2698C177.436 46.4439 178.336 47.4957 179.606 48.425C180.851 49.3365 182.126 49.8754 183.429 50.0416C184.75 50.1834 185.968 50.0056 187.082 49.5083C188.214 48.9865 189.182 48.176 189.986 47.077ZM197.992 43.8229L193.376 40.4451L188.308 36.4552L182.838 33.0148L170.675 24.1145L173.999 19.5718L201.183 39.4633L197.992 43.8229ZM214.187 22.2302C212.596 24.4039 210.775 25.9961 208.723 27.007C206.664 27.9755 204.547 28.3576 202.371 28.1532C200.214 27.9244 198.17 27.104 196.241 25.6921C194.287 24.2624 192.878 22.575 192.013 20.63C191.142 18.6426 190.834 16.5791 191.087 14.4393C191.358 12.2751 192.208 10.2161 193.638 8.26224C195.032 6.35722 196.69 4.96361 198.61 4.08144C200.531 3.19927 202.561 2.88481 204.701 3.13805C206.84 3.3913 208.936 4.26856 210.988 5.76981C211.183 5.91278 211.394 6.08584 211.62 6.28899C211.865 6.46771 212.088 6.6497 212.29 6.83498L200.36 23.1376L197.319 20.9125L207.48 7.02781L207.118 9.51994C206.013 8.67341 204.854 8.1816 203.642 8.04455C202.429 7.90749 201.266 8.08766 200.152 8.58505C199.056 9.058 198.106 9.844 197.302 10.943C196.48 12.0665 196 13.2344 195.863 14.4467C195.744 15.6345 195.945 16.7943 196.467 17.9262C196.982 19.0158 197.826 19.9895 198.998 20.8473L199.731 21.3835C200.903 22.2413 202.138 22.7323 203.435 22.8562C204.732 22.9802 205.982 22.7324 207.185 22.1129C208.388 21.4934 209.455 20.5486 210.384 19.2786C211.188 18.1796 211.741 17.0653 212.043 15.9359C212.344 14.8064 212.379 13.6317 212.146 12.4117L216.763 12.0213C217.146 13.6512 217.126 15.3433 216.705 17.0977C216.277 18.8097 215.438 20.5205 214.187 22.2302Z" fill="white"/>
<path d="M97.0019 181.833L71.3574 163.068L74.2259 159.148L105.741 157.515L104.32 159.456L84.5738 145.007L88.032 140.281L113.677 159.046L110.808 162.966L79.2931 164.6L80.7139 162.658L100.46 177.108L97.0019 181.833ZM126.682 141.812C125.217 143.814 123.485 145.284 121.486 146.222C119.463 147.142 117.364 147.499 115.188 147.295C113.013 147.091 110.96 146.282 109.031 144.871C107.077 143.441 105.686 141.729 104.857 139.735C104.004 137.723 103.722 135.623 104.011 133.435C104.3 131.246 105.177 129.15 106.643 127.148C108.126 125.12 109.867 123.638 111.866 122.7C113.882 121.739 115.957 121.363 118.09 121.574C120.241 121.76 122.306 122.578 124.284 124.025C126.214 125.437 127.605 127.149 128.458 129.161C129.329 131.148 129.623 133.257 129.341 135.488C129.052 137.677 128.165 139.784 126.682 141.812ZM122.762 138.943C123.584 137.82 124.073 136.64 124.228 135.403C124.383 134.166 124.175 132.964 123.604 131.796C123.051 130.604 122.152 129.553 120.907 128.641C119.637 127.712 118.362 127.173 117.083 127.025C115.798 126.834 114.589 127 113.457 127.521C112.325 128.043 111.357 128.854 110.553 129.953C109.731 131.076 109.242 132.256 109.087 133.493C108.95 134.705 109.158 135.907 109.711 137.099C110.239 138.273 111.138 139.325 112.408 140.255C113.654 141.166 114.929 141.705 116.232 141.871C117.535 142.037 118.744 141.872 119.858 141.374C120.99 140.853 121.958 140.042 122.762 138.943ZM130.137 119.179L126.327 116.391L133.699 106.316L137.51 109.104L130.137 119.179ZM158.15 98.8083C156.649 100.86 154.881 102.379 152.847 103.365C150.806 104.309 148.698 104.679 146.522 104.475C144.347 104.27 142.294 103.462 140.365 102.05C138.411 100.621 137.02 98.9089 136.191 96.915C135.338 94.9033 135.065 92.7909 135.372 90.5779C135.697 88.3404 136.61 86.1959 138.111 84.1443C139.505 82.2393 141.12 80.8522 142.956 79.9832C144.785 79.0718 146.722 78.7827 148.766 79.1157L148.244 84.1339C146.887 84.041 145.676 84.261 144.611 84.7942C143.563 85.3029 142.682 86.0457 141.967 87.0226C141.145 88.1461 140.648 89.3384 140.475 90.5995C140.302 91.8606 140.492 93.0871 141.045 94.2792C141.573 95.4533 142.472 96.5051 143.742 97.4344C145.012 98.3638 146.299 98.9116 147.603 99.0778C148.882 99.2262 150.096 99.0273 151.246 98.481C152.395 97.9348 153.381 97.1 154.203 95.9765C154.918 94.9996 155.36 93.935 155.528 92.783C155.714 91.6064 155.557 90.3855 155.058 89.1202L159.683 87.1045C160.594 88.934 160.917 90.8763 160.651 92.9315C160.378 94.9444 159.544 96.9033 158.15 98.8083ZM174.992 75.7926C173.527 77.7953 171.795 79.2655 169.796 80.2031C167.773 81.1228 165.674 81.4804 163.498 81.276C161.323 81.0716 159.27 80.2635 157.341 78.8516C155.387 77.4218 153.996 75.71 153.167 73.7161C152.314 71.7044 152.032 69.6042 152.321 67.4156C152.61 65.227 153.487 63.1313 154.953 61.1286C156.436 59.1015 158.177 57.6191 160.176 56.6815C162.192 55.7195 164.267 55.344 166.4 55.555C168.551 55.7415 170.616 56.5586 172.594 58.0062C174.524 59.4181 175.915 61.1299 176.768 63.1417C177.639 65.129 177.933 67.2381 177.651 69.469C177.362 71.6576 176.475 73.7655 174.992 75.7926ZM171.072 72.9242C171.894 71.8007 172.383 70.6206 172.538 69.3839C172.693 68.1472 172.485 66.9451 171.914 65.7775C171.361 64.5855 170.462 63.5337 169.217 62.6222C167.947 61.6929 166.672 61.154 165.393 61.0057C164.108 60.815 162.899 60.9806 161.767 61.5024C160.635 62.0242 159.667 62.8346 158.863 63.9336C158.041 65.0571 157.552 66.2372 157.397 67.4739C157.26 68.6861 157.468 69.8883 158.021 71.0803C158.549 72.2545 159.448 73.3062 160.718 74.2356C161.964 75.147 163.239 75.6859 164.542 75.8521C165.845 76.0184 167.054 75.8528 168.168 75.3555C169.3 74.8337 170.268 74.0232 171.072 72.9242ZM193.504 50.495C192.128 52.3756 190.47 53.7692 188.532 54.6758C186.587 55.5401 184.557 55.8545 182.441 55.6192C180.326 55.3838 178.255 54.5244 176.228 53.041C174.201 51.5577 172.755 49.8435 171.891 47.8985C171.026 45.9534 170.724 43.9322 170.984 41.8347C171.261 39.7128 172.088 37.7116 173.465 35.831C174.662 34.1946 176.101 32.9973 177.781 32.239C179.436 31.4629 181.274 31.2324 183.293 31.5476C185.312 31.8628 187.47 32.8604 189.766 34.5403C192.037 36.2024 193.65 37.9449 194.603 39.7678C195.533 41.5729 195.89 43.3907 195.675 45.2213C195.461 47.0519 194.737 48.8098 193.504 50.495ZM189.986 47.077C190.79 45.9779 191.261 44.8223 191.398 43.61C191.553 42.3734 191.354 41.159 190.801 39.967C190.266 38.7505 189.376 37.6866 188.13 36.7751C186.86 35.8457 185.577 35.3191 184.28 35.1951C182.977 35.0289 181.759 35.2067 180.627 35.7285C179.513 36.2258 178.554 37.0241 177.75 38.1231C176.946 39.2222 176.466 40.39 176.311 41.6267C176.174 42.839 176.373 44.0533 176.908 45.2698C177.436 46.4439 178.336 47.4957 179.606 48.425C180.851 49.3365 182.126 49.8754 183.429 50.0416C184.75 50.1834 185.968 50.0056 187.082 49.5083C188.214 48.9865 189.182 48.176 189.986 47.077ZM197.992 43.8229L193.376 40.4451L188.308 36.4552L182.838 33.0148L170.675 24.1145L173.999 19.5718L201.183 39.4633L197.992 43.8229ZM214.187 22.2302C212.596 24.4039 210.775 25.9961 208.723 27.007C206.664 27.9755 204.547 28.3576 202.371 28.1532C200.214 27.9244 198.17 27.104 196.241 25.6921C194.287 24.2624 192.878 22.575 192.013 20.63C191.142 18.6426 190.834 16.5791 191.087 14.4393C191.358 12.2751 192.208 10.2161 193.638 8.26224C195.032 6.35722 196.69 4.96361 198.61 4.08144C200.531 3.19927 202.561 2.88481 204.701 3.13805C206.84 3.3913 208.936 4.26856 210.988 5.76981C211.183 5.91278 211.394 6.08584 211.62 6.28899C211.865 6.46771 212.088 6.6497 212.29 6.83498L200.36 23.1376L197.319 20.9125L207.48 7.02781L207.118 9.51994C206.013 8.67341 204.854 8.1816 203.642 8.04455C202.429 7.90749 201.266 8.08766 200.152 8.58505C199.056 9.058 198.106 9.844 197.302 10.943C196.48 12.0665 196 13.2344 195.863 14.4467C195.744 15.6345 195.945 16.7943 196.467 17.9262C196.982 19.0158 197.826 19.9895 198.998 20.8473L199.731 21.3835C200.903 22.2413 202.138 22.7323 203.435 22.8562C204.732 22.9802 205.982 22.7324 207.185 22.1129C208.388 21.4934 209.455 20.5486 210.384 19.2786C211.188 18.1796 211.741 17.0653 212.043 15.9359C212.344 14.8064 212.379 13.6317 212.146 12.4117L216.763 12.0213C217.146 13.6512 217.126 15.3433 216.705 17.0977C216.277 18.8097 215.438 20.5205 214.187 22.2302Z" fill="black" fill-opacity="0.05"/>
<path d="M97.0019 181.833L71.3574 163.068L74.2259 159.148L105.741 157.515L104.32 159.456L84.5738 145.007L88.032 140.281L113.677 159.046L110.808 162.966L79.2931 164.6L80.7139 162.658L100.46 177.108L97.0019 181.833ZM126.682 141.812C125.217 143.814 123.485 145.284 121.486 146.222C119.463 147.142 117.364 147.499 115.188 147.295C113.013 147.091 110.96 146.282 109.031 144.871C107.077 143.441 105.686 141.729 104.857 139.735C104.004 137.723 103.722 135.623 104.011 133.435C104.3 131.246 105.177 129.15 106.643 127.148C108.126 125.12 109.867 123.638 111.866 122.7C113.882 121.739 115.957 121.363 118.09 121.574C120.241 121.76 122.306 122.578 124.284 124.025C126.214 125.437 127.605 127.149 128.458 129.161C129.329 131.148 129.623 133.257 129.341 135.488C129.052 137.677 128.165 139.784 126.682 141.812ZM122.762 138.943C123.584 137.82 124.073 136.64 124.228 135.403C124.383 134.166 124.175 132.964 123.604 131.796C123.051 130.604 122.152 129.553 120.907 128.641C119.637 127.712 118.362 127.173 117.083 127.025C115.798 126.834 114.589 127 113.457 127.521C112.325 128.043 111.357 128.854 110.553 129.953C109.731 131.076 109.242 132.256 109.087 133.493C108.95 134.705 109.158 135.907 109.711 137.099C110.239 138.273 111.138 139.325 112.408 140.255C113.654 141.166 114.929 141.705 116.232 141.871C117.535 142.037 118.744 141.872 119.858 141.374C120.99 140.853 121.958 140.042 122.762 138.943ZM130.137 119.179L126.327 116.391L133.699 106.316L137.51 109.104L130.137 119.179ZM158.15 98.8083C156.649 100.86 154.881 102.379 152.847 103.365C150.806 104.309 148.698 104.679 146.522 104.475C144.347 104.27 142.294 103.462 140.365 102.05C138.411 100.621 137.02 98.9089 136.191 96.915C135.338 94.9033 135.065 92.7909 135.372 90.5779C135.697 88.3404 136.61 86.1959 138.111 84.1443C139.505 82.2393 141.12 80.8522 142.956 79.9832C144.785 79.0718 146.722 78.7827 148.766 79.1157L148.244 84.1339C146.887 84.041 145.676 84.261 144.611 84.7942C143.563 85.3029 142.682 86.0457 141.967 87.0226C141.145 88.1461 140.648 89.3384 140.475 90.5995C140.302 91.8606 140.492 93.0871 141.045 94.2792C141.573 95.4533 142.472 96.5051 143.742 97.4344C145.012 98.3638 146.299 98.9116 147.603 99.0778C148.882 99.2262 150.096 99.0273 151.246 98.481C152.395 97.9348 153.381 97.1 154.203 95.9765C154.918 94.9996 155.36 93.935 155.528 92.783C155.714 91.6064 155.557 90.3855 155.058 89.1202L159.683 87.1045C160.594 88.934 160.917 90.8763 160.651 92.9315C160.378 94.9444 159.544 96.9033 158.15 98.8083ZM174.992 75.7926C173.527 77.7953 171.795 79.2655 169.796 80.2031C167.773 81.1228 165.674 81.4804 163.498 81.276C161.323 81.0716 159.27 80.2635 157.341 78.8516C155.387 77.4218 153.996 75.71 153.167 73.7161C152.314 71.7044 152.032 69.6042 152.321 67.4156C152.61 65.227 153.487 63.1313 154.953 61.1286C156.436 59.1015 158.177 57.6191 160.176 56.6815C162.192 55.7195 164.267 55.344 166.4 55.555C168.551 55.7415 170.616 56.5586 172.594 58.0062C174.524 59.4181 175.915 61.1299 176.768 63.1417C177.639 65.129 177.933 67.2381 177.651 69.469C177.362 71.6576 176.475 73.7655 174.992 75.7926ZM171.072 72.9242C171.894 71.8007 172.383 70.6206 172.538 69.3839C172.693 68.1472 172.485 66.9451 171.914 65.7775C171.361 64.5855 170.462 63.5337 169.217 62.6222C167.947 61.6929 166.672 61.154 165.393 61.0057C164.108 60.815 162.899 60.9806 161.767 61.5024C160.635 62.0242 159.667 62.8346 158.863 63.9336C158.041 65.0571 157.552 66.2372 157.397 67.4739C157.26 68.6861 157.468 69.8883 158.021 71.0803C158.549 72.2545 159.448 73.3062 160.718 74.2356C161.964 75.147 163.239 75.6859 164.542 75.8521C165.845 76.0184 167.054 75.8528 168.168 75.3555C169.3 74.8337 170.268 74.0232 171.072 72.9242ZM193.504 50.495C192.128 52.3756 190.47 53.7692 188.532 54.6758C186.587 55.5401 184.557 55.8545 182.441 55.6192C180.326 55.3838 178.255 54.5244 176.228 53.041C174.201 51.5577 172.755 49.8435 171.891 47.8985C171.026 45.9534 170.724 43.9322 170.984 41.8347C171.261 39.7128 172.088 37.7116 173.465 35.831C174.662 34.1946 176.101 32.9973 177.781 32.239C179.436 31.4629 181.274 31.2324 183.293 31.5476C185.312 31.8628 187.47 32.8604 189.766 34.5403C192.037 36.2024 193.65 37.9449 194.603 39.7678C195.533 41.5729 195.89 43.3907 195.675 45.2213C195.461 47.0519 194.737 48.8098 193.504 50.495ZM189.986 47.077C190.79 45.9779 191.261 44.8223 191.398 43.61C191.553 42.3734 191.354 41.159 190.801 39.967C190.266 38.7505 189.376 37.6866 188.13 36.7751C186.86 35.8457 185.577 35.3191 184.28 35.1951C182.977 35.0289 181.759 35.2067 180.627 35.7285C179.513 36.2258 178.554 37.0241 177.75 38.1231C176.946 39.2222 176.466 40.39 176.311 41.6267C176.174 42.839 176.373 44.0533 176.908 45.2698C177.436 46.4439 178.336 47.4957 179.606 48.425C180.851 49.3365 182.126 49.8754 183.429 50.0416C184.75 50.1834 185.968 50.0056 187.082 49.5083C188.214 48.9865 189.182 48.176 189.986 47.077ZM197.992 43.8229L193.376 40.4451L188.308 36.4552L182.838 33.0148L170.675 24.1145L173.999 19.5718L201.183 39.4633L197.992 43.8229ZM214.187 22.2302C212.596 24.4039 210.775 25.9961 208.723 27.007C206.664 27.9755 204.547 28.3576 202.371 28.1532C200.214 27.9244 198.17 27.104 196.241 25.6921C194.287 24.2624 192.878 22.575 192.013 20.63C191.142 18.6426 190.834 16.5791 191.087 14.4393C191.358 12.2751 192.208 10.2161 193.638 8.26224C195.032 6.35722 196.69 4.96361 198.61 4.08144C200.531 3.19927 202.561 2.88481 204.701 3.13805C206.84 3.3913 208.936 4.26856 210.988 5.76981C211.183 5.91278 211.394 6.08584 211.62 6.28899C211.865 6.46771 212.088 6.6497 212.29 6.83498L200.36 23.1376L197.319 20.9125L207.48 7.02781L207.118 9.51994C206.013 8.67341 204.854 8.1816 203.642 8.04455C202.429 7.90749 201.266 8.08766 200.152 8.58505C199.056 9.058 198.106 9.844 197.302 10.943C196.48 12.0665 196 13.2344 195.863 14.4467C195.744 15.6345 195.945 16.7943 196.467 17.9262C196.982 19.0158 197.826 19.9895 198.998 20.8473L199.731 21.3835C200.903 22.2413 202.138 22.7323 203.435 22.8562C204.732 22.9802 205.982 22.7324 207.185 22.1129C208.388 21.4934 209.455 20.5486 210.384 19.2786C211.188 18.1796 211.741 17.0653 212.043 15.9359C212.344 14.8064 212.379 13.6317 212.146 12.4117L216.763 12.0213C217.146 13.6512 217.126 15.3433 216.705 17.0977C216.277 18.8097 215.438 20.5205 214.187 22.2302Z" stroke="#12A682" stroke-width="1.96562" mask="url(#path-4-outside-2_65_532)"/>
</svg>
