<svg width="280" height="183" viewBox="0 0 280 183" fill="none" xmlns="http://www.w3.org/2000/svg">
<g clip-path="url(#clip0_73_1551)">
<rect x="6.35842" y="57.6214" width="307.539" height="73.6706" transform="rotate(9.77521 6.35842 57.6214)" fill="#89D3C1"/>
<rect x="6.35842" y="57.6214" width="307.539" height="73.6706" transform="rotate(9.77521 6.35842 57.6214)" fill="black" fill-opacity="0.05"/>
<rect x="6.35842" y="57.6214" width="307.539" height="73.6706" transform="rotate(9.77521 6.35842 57.6214)" stroke="#12A682" stroke-width="0.98281"/>
<mask id="path-3-outside-1_73_1551" maskUnits="userSpaceOnUse" x="77.1117" y="91.678" width="186.762" height="62.7755" fill="black">
<rect fill="white" x="77.1117" y="91.678" width="186.762" height="62.7755"/>
<path d="M78.413 121.55L83.0804 94.4587L87.2216 95.1722L100.618 118.96L98.5667 118.607L102.161 97.746L107.153 98.6061L102.486 125.698L98.3446 124.984L84.9483 101.197L86.9995 101.55L83.4056 122.411L78.413 121.55ZM120.845 129.14C118.729 128.775 116.923 127.999 115.428 126.812C113.936 125.598 112.851 124.109 112.172 122.345C111.493 120.581 111.329 118.68 111.68 116.642C112.036 114.577 112.827 112.841 114.052 111.431C115.283 109.996 116.801 108.969 118.608 108.351C120.415 107.732 122.376 107.605 124.492 107.97C126.634 108.338 128.452 109.117 129.948 110.304C131.469 111.496 132.559 112.959 133.217 114.693C133.9 116.431 134.062 118.346 133.702 120.436C133.351 122.474 132.56 124.211 131.33 125.646C130.125 127.086 128.605 128.125 126.767 128.765C124.961 129.384 122.986 129.509 120.845 129.14ZM121.558 124.999C122.745 125.203 123.847 125.127 124.865 124.771C125.883 124.415 126.734 123.791 127.419 122.9C128.13 122.013 128.599 120.911 128.825 119.595C129.057 118.254 128.983 117.059 128.606 116.011C128.259 114.942 127.665 114.069 126.826 113.393C125.986 112.717 124.985 112.279 123.824 112.079C122.637 111.874 121.535 111.95 120.517 112.306C119.525 112.666 118.674 113.29 117.963 114.177C117.257 115.039 116.788 116.14 116.557 117.482C116.33 118.798 116.403 119.992 116.776 121.066C117.149 122.14 117.743 123.013 118.557 123.684C119.397 124.36 120.397 124.798 121.558 124.999ZM139.71 123.105L140.403 119.079L151.046 120.913L150.353 124.938L139.71 123.105ZM166.275 136.967C164.107 136.593 162.25 135.808 160.703 134.612C159.186 133.394 158.088 131.903 157.408 130.139C156.729 128.375 156.565 126.473 156.917 124.435C157.272 122.371 158.063 120.634 159.289 119.225C160.519 117.79 162.051 116.765 163.883 116.151C165.742 115.541 167.755 115.423 169.922 115.796C171.934 116.143 173.631 116.86 175.011 117.948C176.421 119.015 177.391 120.404 177.919 122.116L173.83 123.643C173.38 122.556 172.743 121.702 171.92 121.082C171.123 120.467 170.208 120.07 169.176 119.892C167.99 119.688 166.874 119.761 165.831 120.113C164.787 120.464 163.91 121.084 163.199 121.971C162.493 122.832 162.024 123.934 161.793 125.275C161.562 126.617 161.633 127.825 162.006 128.898C162.383 129.946 163.005 130.811 163.87 131.491C164.736 132.172 165.763 132.614 166.949 132.819C167.981 132.997 168.976 132.929 169.933 132.615C170.916 132.307 171.802 131.715 172.59 130.842L175.932 133.649C174.866 135.059 173.485 136.057 171.79 136.642C170.126 137.205 168.287 137.313 166.275 136.967ZM190.589 141.156C188.473 140.791 186.668 140.015 185.172 138.827C183.681 137.614 182.595 136.125 181.916 134.361C181.237 132.597 181.073 130.696 181.425 128.657C181.78 126.593 182.571 124.857 183.797 123.447C185.027 122.012 186.546 120.985 188.352 120.366C190.159 119.748 192.121 119.621 194.236 119.985C196.378 120.354 198.197 121.133 199.692 122.32C201.214 123.512 202.303 124.975 202.961 126.709C203.645 128.447 203.806 130.361 203.446 132.451C203.095 134.49 202.304 136.227 201.074 137.662C199.87 139.101 198.349 140.141 196.512 140.781C194.705 141.4 192.731 141.524 190.589 141.156ZM191.303 137.014C192.489 137.219 193.592 137.143 194.609 136.787C195.627 136.431 196.479 135.807 197.164 134.916C197.874 134.029 198.343 132.927 198.57 131.611C198.801 130.27 198.728 129.075 198.35 128.027C198.003 126.957 197.41 126.085 196.57 125.409C195.73 124.733 194.729 124.295 193.568 124.094C192.381 123.89 191.279 123.966 190.261 124.322C189.269 124.682 188.418 125.306 187.707 126.193C187.001 127.054 186.532 128.156 186.301 129.498C186.074 130.813 186.147 132.008 186.52 133.082C186.893 134.156 187.487 135.029 188.301 135.7C189.141 136.376 190.141 136.814 191.303 137.014ZM217.314 145.76C215.327 145.418 213.61 144.67 212.161 143.517C210.743 142.343 209.718 140.891 209.086 139.162C208.454 137.432 208.323 135.497 208.692 133.355C209.061 131.214 209.832 129.434 211.006 128.015C212.181 126.597 213.63 125.585 215.355 124.979C217.106 124.377 218.975 124.247 220.962 124.59C222.69 124.888 224.172 125.541 225.406 126.551C226.644 127.535 227.53 128.87 228.063 130.555C228.596 132.241 228.654 134.297 228.236 136.722C227.823 139.122 227.094 141.042 226.048 142.482C225.008 143.897 223.737 144.874 222.236 145.412C220.735 145.951 219.095 146.067 217.314 145.76ZM218.608 141.719C219.769 141.919 220.846 141.839 221.838 141.478C222.855 141.122 223.72 140.501 224.43 139.613C225.167 138.731 225.649 137.631 225.875 136.316C226.107 134.974 226.021 133.777 225.617 132.724C225.244 131.651 224.638 130.776 223.798 130.1C222.984 129.428 221.996 128.992 220.835 128.792C219.674 128.592 218.585 128.67 217.567 129.026C216.575 129.387 215.711 130.008 214.974 130.891C214.268 131.752 213.799 132.854 213.568 134.195C213.341 135.511 213.414 136.706 213.787 137.78C214.186 138.858 214.793 139.733 215.607 140.405C216.447 141.081 217.447 141.519 218.608 141.719ZM224.211 146.669L225.051 141.793L226.192 136.33L226.751 130.768L228.965 117.919L233.764 118.745L228.817 147.463L224.211 146.669ZM247.174 150.904C244.878 150.509 242.943 149.71 241.37 148.509C239.827 147.287 238.716 145.794 238.037 144.03C237.384 142.27 237.233 140.371 237.584 138.333C237.939 136.269 238.704 134.527 239.878 133.109C241.083 131.669 242.563 130.636 244.318 130.008C246.099 129.385 248.022 129.252 250.086 129.607C252.098 129.954 253.816 130.702 255.239 131.85C256.662 132.998 257.687 134.45 258.314 136.206C258.942 137.961 259.069 139.922 258.695 142.09C258.66 142.296 258.607 142.526 258.536 142.779C258.492 143.038 258.437 143.28 258.371 143.508L241.149 140.541L241.702 137.329L256.37 139.856L254.3 140.535C254.531 139.353 254.466 138.266 254.105 137.274C253.745 136.282 253.157 135.45 252.343 134.778C251.555 134.111 250.58 133.678 249.419 133.478C248.232 133.273 247.143 133.351 246.151 133.712C245.185 134.076 244.364 134.679 243.688 135.519C243.042 136.337 242.612 137.366 242.399 138.604L242.265 139.378C242.052 140.617 242.147 141.762 242.55 142.815C242.953 143.867 243.626 144.74 244.57 145.434C245.513 146.128 246.655 146.591 247.997 146.822C249.158 147.022 250.234 147.021 251.225 146.82C252.216 146.619 253.14 146.193 253.995 145.544L256.075 148.971C254.959 149.894 253.641 150.531 252.12 150.88C250.629 151.207 248.98 151.215 247.174 150.904Z"/>
</mask>
<path d="M78.413 121.55L83.0804 94.4587L87.2216 95.1722L100.618 118.96L98.5667 118.607L102.161 97.746L107.153 98.6061L102.486 125.698L98.3446 124.984L84.9483 101.197L86.9995 101.55L83.4056 122.411L78.413 121.55ZM120.845 129.14C118.729 128.775 116.923 127.999 115.428 126.812C113.936 125.598 112.851 124.109 112.172 122.345C111.493 120.581 111.329 118.68 111.68 116.642C112.036 114.577 112.827 112.841 114.052 111.431C115.283 109.996 116.801 108.969 118.608 108.351C120.415 107.732 122.376 107.605 124.492 107.97C126.634 108.338 128.452 109.117 129.948 110.304C131.469 111.496 132.559 112.959 133.217 114.693C133.9 116.431 134.062 118.346 133.702 120.436C133.351 122.474 132.56 124.211 131.33 125.646C130.125 127.086 128.605 128.125 126.767 128.765C124.961 129.384 122.986 129.509 120.845 129.14ZM121.558 124.999C122.745 125.203 123.847 125.127 124.865 124.771C125.883 124.415 126.734 123.791 127.419 122.9C128.13 122.013 128.599 120.911 128.825 119.595C129.057 118.254 128.983 117.059 128.606 116.011C128.259 114.942 127.665 114.069 126.826 113.393C125.986 112.717 124.985 112.279 123.824 112.079C122.637 111.874 121.535 111.95 120.517 112.306C119.525 112.666 118.674 113.29 117.963 114.177C117.257 115.039 116.788 116.14 116.557 117.482C116.33 118.798 116.403 119.992 116.776 121.066C117.149 122.14 117.743 123.013 118.557 123.684C119.397 124.36 120.397 124.798 121.558 124.999ZM139.71 123.105L140.403 119.079L151.046 120.913L150.353 124.938L139.71 123.105ZM166.275 136.967C164.107 136.593 162.25 135.808 160.703 134.612C159.186 133.394 158.088 131.903 157.408 130.139C156.729 128.375 156.565 126.473 156.917 124.435C157.272 122.371 158.063 120.634 159.289 119.225C160.519 117.79 162.051 116.765 163.883 116.151C165.742 115.541 167.755 115.423 169.922 115.796C171.934 116.143 173.631 116.86 175.011 117.948C176.421 119.015 177.391 120.404 177.919 122.116L173.83 123.643C173.38 122.556 172.743 121.702 171.92 121.082C171.123 120.467 170.208 120.07 169.176 119.892C167.99 119.688 166.874 119.761 165.831 120.113C164.787 120.464 163.91 121.084 163.199 121.971C162.493 122.832 162.024 123.934 161.793 125.275C161.562 126.617 161.633 127.825 162.006 128.898C162.383 129.946 163.005 130.811 163.87 131.491C164.736 132.172 165.763 132.614 166.949 132.819C167.981 132.997 168.976 132.929 169.933 132.615C170.916 132.307 171.802 131.715 172.59 130.842L175.932 133.649C174.866 135.059 173.485 136.057 171.79 136.642C170.126 137.205 168.287 137.313 166.275 136.967ZM190.589 141.156C188.473 140.791 186.668 140.015 185.172 138.827C183.681 137.614 182.595 136.125 181.916 134.361C181.237 132.597 181.073 130.696 181.425 128.657C181.78 126.593 182.571 124.857 183.797 123.447C185.027 122.012 186.546 120.985 188.352 120.366C190.159 119.748 192.121 119.621 194.236 119.985C196.378 120.354 198.197 121.133 199.692 122.32C201.214 123.512 202.303 124.975 202.961 126.709C203.645 128.447 203.806 130.361 203.446 132.451C203.095 134.49 202.304 136.227 201.074 137.662C199.87 139.101 198.349 140.141 196.512 140.781C194.705 141.4 192.731 141.524 190.589 141.156ZM191.303 137.014C192.489 137.219 193.592 137.143 194.609 136.787C195.627 136.431 196.479 135.807 197.164 134.916C197.874 134.029 198.343 132.927 198.57 131.611C198.801 130.27 198.728 129.075 198.35 128.027C198.003 126.957 197.41 126.085 196.57 125.409C195.73 124.733 194.729 124.295 193.568 124.094C192.381 123.89 191.279 123.966 190.261 124.322C189.269 124.682 188.418 125.306 187.707 126.193C187.001 127.054 186.532 128.156 186.301 129.498C186.074 130.813 186.147 132.008 186.52 133.082C186.893 134.156 187.487 135.029 188.301 135.7C189.141 136.376 190.141 136.814 191.303 137.014ZM217.314 145.76C215.327 145.418 213.61 144.67 212.161 143.517C210.743 142.343 209.718 140.891 209.086 139.162C208.454 137.432 208.323 135.497 208.692 133.355C209.061 131.214 209.832 129.434 211.006 128.015C212.181 126.597 213.63 125.585 215.355 124.979C217.106 124.377 218.975 124.247 220.962 124.59C222.69 124.888 224.172 125.541 225.406 126.551C226.644 127.535 227.53 128.87 228.063 130.555C228.596 132.241 228.654 134.297 228.236 136.722C227.823 139.122 227.094 141.042 226.048 142.482C225.008 143.897 223.737 144.874 222.236 145.412C220.735 145.951 219.095 146.067 217.314 145.76ZM218.608 141.719C219.769 141.919 220.846 141.839 221.838 141.478C222.855 141.122 223.72 140.501 224.43 139.613C225.167 138.731 225.649 137.631 225.875 136.316C226.107 134.974 226.021 133.777 225.617 132.724C225.244 131.651 224.638 130.776 223.798 130.1C222.984 129.428 221.996 128.992 220.835 128.792C219.674 128.592 218.585 128.67 217.567 129.026C216.575 129.387 215.711 130.008 214.974 130.891C214.268 131.752 213.799 132.854 213.568 134.195C213.341 135.511 213.414 136.706 213.787 137.78C214.186 138.858 214.793 139.733 215.607 140.405C216.447 141.081 217.447 141.519 218.608 141.719ZM224.211 146.669L225.051 141.793L226.192 136.33L226.751 130.768L228.965 117.919L233.764 118.745L228.817 147.463L224.211 146.669ZM247.174 150.904C244.878 150.509 242.943 149.71 241.37 148.509C239.827 147.287 238.716 145.794 238.037 144.03C237.384 142.27 237.233 140.371 237.584 138.333C237.939 136.269 238.704 134.527 239.878 133.109C241.083 131.669 242.563 130.636 244.318 130.008C246.099 129.385 248.022 129.252 250.086 129.607C252.098 129.954 253.816 130.702 255.239 131.85C256.662 132.998 257.687 134.45 258.314 136.206C258.942 137.961 259.069 139.922 258.695 142.09C258.66 142.296 258.607 142.526 258.536 142.779C258.492 143.038 258.437 143.28 258.371 143.508L241.149 140.541L241.702 137.329L256.37 139.856L254.3 140.535C254.531 139.353 254.466 138.266 254.105 137.274C253.745 136.282 253.157 135.45 252.343 134.778C251.555 134.111 250.58 133.678 249.419 133.478C248.232 133.273 247.143 133.351 246.151 133.712C245.185 134.076 244.364 134.679 243.688 135.519C243.042 136.337 242.612 137.366 242.399 138.604L242.265 139.378C242.052 140.617 242.147 141.762 242.55 142.815C242.953 143.867 243.626 144.74 244.57 145.434C245.513 146.128 246.655 146.591 247.997 146.822C249.158 147.022 250.234 147.021 251.225 146.82C252.216 146.619 253.14 146.193 253.995 145.544L256.075 148.971C254.959 149.894 253.641 150.531 252.12 150.88C250.629 151.207 248.98 151.215 247.174 150.904Z" fill="white"/>
<path d="M78.413 121.55L83.0804 94.4587L87.2216 95.1722L100.618 118.96L98.5667 118.607L102.161 97.746L107.153 98.6061L102.486 125.698L98.3446 124.984L84.9483 101.197L86.9995 101.55L83.4056 122.411L78.413 121.55ZM120.845 129.14C118.729 128.775 116.923 127.999 115.428 126.812C113.936 125.598 112.851 124.109 112.172 122.345C111.493 120.581 111.329 118.68 111.68 116.642C112.036 114.577 112.827 112.841 114.052 111.431C115.283 109.996 116.801 108.969 118.608 108.351C120.415 107.732 122.376 107.605 124.492 107.97C126.634 108.338 128.452 109.117 129.948 110.304C131.469 111.496 132.559 112.959 133.217 114.693C133.9 116.431 134.062 118.346 133.702 120.436C133.351 122.474 132.56 124.211 131.33 125.646C130.125 127.086 128.605 128.125 126.767 128.765C124.961 129.384 122.986 129.509 120.845 129.14ZM121.558 124.999C122.745 125.203 123.847 125.127 124.865 124.771C125.883 124.415 126.734 123.791 127.419 122.9C128.13 122.013 128.599 120.911 128.825 119.595C129.057 118.254 128.983 117.059 128.606 116.011C128.259 114.942 127.665 114.069 126.826 113.393C125.986 112.717 124.985 112.279 123.824 112.079C122.637 111.874 121.535 111.95 120.517 112.306C119.525 112.666 118.674 113.29 117.963 114.177C117.257 115.039 116.788 116.14 116.557 117.482C116.33 118.798 116.403 119.992 116.776 121.066C117.149 122.14 117.743 123.013 118.557 123.684C119.397 124.36 120.397 124.798 121.558 124.999ZM139.71 123.105L140.403 119.079L151.046 120.913L150.353 124.938L139.71 123.105ZM166.275 136.967C164.107 136.593 162.25 135.808 160.703 134.612C159.186 133.394 158.088 131.903 157.408 130.139C156.729 128.375 156.565 126.473 156.917 124.435C157.272 122.371 158.063 120.634 159.289 119.225C160.519 117.79 162.051 116.765 163.883 116.151C165.742 115.541 167.755 115.423 169.922 115.796C171.934 116.143 173.631 116.86 175.011 117.948C176.421 119.015 177.391 120.404 177.919 122.116L173.83 123.643C173.38 122.556 172.743 121.702 171.92 121.082C171.123 120.467 170.208 120.07 169.176 119.892C167.99 119.688 166.874 119.761 165.831 120.113C164.787 120.464 163.91 121.084 163.199 121.971C162.493 122.832 162.024 123.934 161.793 125.275C161.562 126.617 161.633 127.825 162.006 128.898C162.383 129.946 163.005 130.811 163.87 131.491C164.736 132.172 165.763 132.614 166.949 132.819C167.981 132.997 168.976 132.929 169.933 132.615C170.916 132.307 171.802 131.715 172.59 130.842L175.932 133.649C174.866 135.059 173.485 136.057 171.79 136.642C170.126 137.205 168.287 137.313 166.275 136.967ZM190.589 141.156C188.473 140.791 186.668 140.015 185.172 138.827C183.681 137.614 182.595 136.125 181.916 134.361C181.237 132.597 181.073 130.696 181.425 128.657C181.78 126.593 182.571 124.857 183.797 123.447C185.027 122.012 186.546 120.985 188.352 120.366C190.159 119.748 192.121 119.621 194.236 119.985C196.378 120.354 198.197 121.133 199.692 122.32C201.214 123.512 202.303 124.975 202.961 126.709C203.645 128.447 203.806 130.361 203.446 132.451C203.095 134.49 202.304 136.227 201.074 137.662C199.87 139.101 198.349 140.141 196.512 140.781C194.705 141.4 192.731 141.524 190.589 141.156ZM191.303 137.014C192.489 137.219 193.592 137.143 194.609 136.787C195.627 136.431 196.479 135.807 197.164 134.916C197.874 134.029 198.343 132.927 198.57 131.611C198.801 130.27 198.728 129.075 198.35 128.027C198.003 126.957 197.41 126.085 196.57 125.409C195.73 124.733 194.729 124.295 193.568 124.094C192.381 123.89 191.279 123.966 190.261 124.322C189.269 124.682 188.418 125.306 187.707 126.193C187.001 127.054 186.532 128.156 186.301 129.498C186.074 130.813 186.147 132.008 186.52 133.082C186.893 134.156 187.487 135.029 188.301 135.7C189.141 136.376 190.141 136.814 191.303 137.014ZM217.314 145.76C215.327 145.418 213.61 144.67 212.161 143.517C210.743 142.343 209.718 140.891 209.086 139.162C208.454 137.432 208.323 135.497 208.692 133.355C209.061 131.214 209.832 129.434 211.006 128.015C212.181 126.597 213.63 125.585 215.355 124.979C217.106 124.377 218.975 124.247 220.962 124.59C222.69 124.888 224.172 125.541 225.406 126.551C226.644 127.535 227.53 128.87 228.063 130.555C228.596 132.241 228.654 134.297 228.236 136.722C227.823 139.122 227.094 141.042 226.048 142.482C225.008 143.897 223.737 144.874 222.236 145.412C220.735 145.951 219.095 146.067 217.314 145.76ZM218.608 141.719C219.769 141.919 220.846 141.839 221.838 141.478C222.855 141.122 223.72 140.501 224.43 139.613C225.167 138.731 225.649 137.631 225.875 136.316C226.107 134.974 226.021 133.777 225.617 132.724C225.244 131.651 224.638 130.776 223.798 130.1C222.984 129.428 221.996 128.992 220.835 128.792C219.674 128.592 218.585 128.67 217.567 129.026C216.575 129.387 215.711 130.008 214.974 130.891C214.268 131.752 213.799 132.854 213.568 134.195C213.341 135.511 213.414 136.706 213.787 137.78C214.186 138.858 214.793 139.733 215.607 140.405C216.447 141.081 217.447 141.519 218.608 141.719ZM224.211 146.669L225.051 141.793L226.192 136.33L226.751 130.768L228.965 117.919L233.764 118.745L228.817 147.463L224.211 146.669ZM247.174 150.904C244.878 150.509 242.943 149.71 241.37 148.509C239.827 147.287 238.716 145.794 238.037 144.03C237.384 142.27 237.233 140.371 237.584 138.333C237.939 136.269 238.704 134.527 239.878 133.109C241.083 131.669 242.563 130.636 244.318 130.008C246.099 129.385 248.022 129.252 250.086 129.607C252.098 129.954 253.816 130.702 255.239 131.85C256.662 132.998 257.687 134.45 258.314 136.206C258.942 137.961 259.069 139.922 258.695 142.09C258.66 142.296 258.607 142.526 258.536 142.779C258.492 143.038 258.437 143.28 258.371 143.508L241.149 140.541L241.702 137.329L256.37 139.856L254.3 140.535C254.531 139.353 254.466 138.266 254.105 137.274C253.745 136.282 253.157 135.45 252.343 134.778C251.555 134.111 250.58 133.678 249.419 133.478C248.232 133.273 247.143 133.351 246.151 133.712C245.185 134.076 244.364 134.679 243.688 135.519C243.042 136.337 242.612 137.366 242.399 138.604L242.265 139.378C242.052 140.617 242.147 141.762 242.55 142.815C242.953 143.867 243.626 144.74 244.57 145.434C245.513 146.128 246.655 146.591 247.997 146.822C249.158 147.022 250.234 147.021 251.225 146.82C252.216 146.619 253.14 146.193 253.995 145.544L256.075 148.971C254.959 149.894 253.641 150.531 252.12 150.88C250.629 151.207 248.98 151.215 247.174 150.904Z" fill="black" fill-opacity="0.05"/>
<path d="M78.413 121.55L83.0804 94.4587L87.2216 95.1722L100.618 118.96L98.5667 118.607L102.161 97.746L107.153 98.6061L102.486 125.698L98.3446 124.984L84.9483 101.197L86.9995 101.55L83.4056 122.411L78.413 121.55ZM120.845 129.14C118.729 128.775 116.923 127.999 115.428 126.812C113.936 125.598 112.851 124.109 112.172 122.345C111.493 120.581 111.329 118.68 111.68 116.642C112.036 114.577 112.827 112.841 114.052 111.431C115.283 109.996 116.801 108.969 118.608 108.351C120.415 107.732 122.376 107.605 124.492 107.97C126.634 108.338 128.452 109.117 129.948 110.304C131.469 111.496 132.559 112.959 133.217 114.693C133.9 116.431 134.062 118.346 133.702 120.436C133.351 122.474 132.56 124.211 131.33 125.646C130.125 127.086 128.605 128.125 126.767 128.765C124.961 129.384 122.986 129.509 120.845 129.14ZM121.558 124.999C122.745 125.203 123.847 125.127 124.865 124.771C125.883 124.415 126.734 123.791 127.419 122.9C128.13 122.013 128.599 120.911 128.825 119.595C129.057 118.254 128.983 117.059 128.606 116.011C128.259 114.942 127.665 114.069 126.826 113.393C125.986 112.717 124.985 112.279 123.824 112.079C122.637 111.874 121.535 111.95 120.517 112.306C119.525 112.666 118.674 113.29 117.963 114.177C117.257 115.039 116.788 116.14 116.557 117.482C116.33 118.798 116.403 119.992 116.776 121.066C117.149 122.14 117.743 123.013 118.557 123.684C119.397 124.36 120.397 124.798 121.558 124.999ZM139.71 123.105L140.403 119.079L151.046 120.913L150.353 124.938L139.71 123.105ZM166.275 136.967C164.107 136.593 162.25 135.808 160.703 134.612C159.186 133.394 158.088 131.903 157.408 130.139C156.729 128.375 156.565 126.473 156.917 124.435C157.272 122.371 158.063 120.634 159.289 119.225C160.519 117.79 162.051 116.765 163.883 116.151C165.742 115.541 167.755 115.423 169.922 115.796C171.934 116.143 173.631 116.86 175.011 117.948C176.421 119.015 177.391 120.404 177.919 122.116L173.83 123.643C173.38 122.556 172.743 121.702 171.92 121.082C171.123 120.467 170.208 120.07 169.176 119.892C167.99 119.688 166.874 119.761 165.831 120.113C164.787 120.464 163.91 121.084 163.199 121.971C162.493 122.832 162.024 123.934 161.793 125.275C161.562 126.617 161.633 127.825 162.006 128.898C162.383 129.946 163.005 130.811 163.87 131.491C164.736 132.172 165.763 132.614 166.949 132.819C167.981 132.997 168.976 132.929 169.933 132.615C170.916 132.307 171.802 131.715 172.59 130.842L175.932 133.649C174.866 135.059 173.485 136.057 171.79 136.642C170.126 137.205 168.287 137.313 166.275 136.967ZM190.589 141.156C188.473 140.791 186.668 140.015 185.172 138.827C183.681 137.614 182.595 136.125 181.916 134.361C181.237 132.597 181.073 130.696 181.425 128.657C181.78 126.593 182.571 124.857 183.797 123.447C185.027 122.012 186.546 120.985 188.352 120.366C190.159 119.748 192.121 119.621 194.236 119.985C196.378 120.354 198.197 121.133 199.692 122.32C201.214 123.512 202.303 124.975 202.961 126.709C203.645 128.447 203.806 130.361 203.446 132.451C203.095 134.49 202.304 136.227 201.074 137.662C199.87 139.101 198.349 140.141 196.512 140.781C194.705 141.4 192.731 141.524 190.589 141.156ZM191.303 137.014C192.489 137.219 193.592 137.143 194.609 136.787C195.627 136.431 196.479 135.807 197.164 134.916C197.874 134.029 198.343 132.927 198.57 131.611C198.801 130.27 198.728 129.075 198.35 128.027C198.003 126.957 197.41 126.085 196.57 125.409C195.73 124.733 194.729 124.295 193.568 124.094C192.381 123.89 191.279 123.966 190.261 124.322C189.269 124.682 188.418 125.306 187.707 126.193C187.001 127.054 186.532 128.156 186.301 129.498C186.074 130.813 186.147 132.008 186.52 133.082C186.893 134.156 187.487 135.029 188.301 135.7C189.141 136.376 190.141 136.814 191.303 137.014ZM217.314 145.76C215.327 145.418 213.61 144.67 212.161 143.517C210.743 142.343 209.718 140.891 209.086 139.162C208.454 137.432 208.323 135.497 208.692 133.355C209.061 131.214 209.832 129.434 211.006 128.015C212.181 126.597 213.63 125.585 215.355 124.979C217.106 124.377 218.975 124.247 220.962 124.59C222.69 124.888 224.172 125.541 225.406 126.551C226.644 127.535 227.53 128.87 228.063 130.555C228.596 132.241 228.654 134.297 228.236 136.722C227.823 139.122 227.094 141.042 226.048 142.482C225.008 143.897 223.737 144.874 222.236 145.412C220.735 145.951 219.095 146.067 217.314 145.76ZM218.608 141.719C219.769 141.919 220.846 141.839 221.838 141.478C222.855 141.122 223.72 140.501 224.43 139.613C225.167 138.731 225.649 137.631 225.875 136.316C226.107 134.974 226.021 133.777 225.617 132.724C225.244 131.651 224.638 130.776 223.798 130.1C222.984 129.428 221.996 128.992 220.835 128.792C219.674 128.592 218.585 128.67 217.567 129.026C216.575 129.387 215.711 130.008 214.974 130.891C214.268 131.752 213.799 132.854 213.568 134.195C213.341 135.511 213.414 136.706 213.787 137.78C214.186 138.858 214.793 139.733 215.607 140.405C216.447 141.081 217.447 141.519 218.608 141.719ZM224.211 146.669L225.051 141.793L226.192 136.33L226.751 130.768L228.965 117.919L233.764 118.745L228.817 147.463L224.211 146.669ZM247.174 150.904C244.878 150.509 242.943 149.71 241.37 148.509C239.827 147.287 238.716 145.794 238.037 144.03C237.384 142.27 237.233 140.371 237.584 138.333C237.939 136.269 238.704 134.527 239.878 133.109C241.083 131.669 242.563 130.636 244.318 130.008C246.099 129.385 248.022 129.252 250.086 129.607C252.098 129.954 253.816 130.702 255.239 131.85C256.662 132.998 257.687 134.45 258.314 136.206C258.942 137.961 259.069 139.922 258.695 142.09C258.66 142.296 258.607 142.526 258.536 142.779C258.492 143.038 258.437 143.28 258.371 143.508L241.149 140.541L241.702 137.329L256.37 139.856L254.3 140.535C254.531 139.353 254.466 138.266 254.105 137.274C253.745 136.282 253.157 135.45 252.343 134.778C251.555 134.111 250.58 133.678 249.419 133.478C248.232 133.273 247.143 133.351 246.151 133.712C245.185 134.076 244.364 134.679 243.688 135.519C243.042 136.337 242.612 137.366 242.399 138.604L242.265 139.378C242.052 140.617 242.147 141.762 242.55 142.815C242.953 143.867 243.626 144.74 244.57 145.434C245.513 146.128 246.655 146.591 247.997 146.822C249.158 147.022 250.234 147.021 251.225 146.82C252.216 146.619 253.14 146.193 253.995 145.544L256.075 148.971C254.959 149.894 253.641 150.531 252.12 150.88C250.629 151.207 248.98 151.215 247.174 150.904Z" stroke="#12A682" stroke-width="1.96562" mask="url(#path-3-outside-1_73_1551)"/>
<path d="M-7.7764 119.207L-18.9608 47.0006L281.341 3.93064L292.525 76.1372L-7.7764 119.207Z" fill="#89D3C1" stroke="#12A682" stroke-width="0.98281"/>
<mask id="path-5-outside-2_73_1551" maskUnits="userSpaceOnUse" x="62.5876" y="28.6424" width="184.753" height="59.4815" fill="black">
<rect fill="white" x="62.5876" y="28.6424" width="184.753" height="59.4815"/>
<path d="M68.1533 85.9004L63.9793 58.953L68.0984 58.315L88.2123 76.4468L86.172 76.7628L82.958 56.0133L87.924 55.2441L92.098 82.1915L87.9789 82.8295L67.8651 64.6977L69.9054 64.3817L73.1194 85.1312L68.1533 85.9004ZM110.447 79.6252C108.343 79.9512 106.4 79.7923 104.618 79.1484C102.833 78.4789 101.342 77.4221 100.146 75.978C98.9498 74.534 98.1947 72.7982 97.8807 70.7707C97.5626 68.7176 97.7572 66.8347 98.4643 65.1221C99.1674 63.3838 100.271 61.9384 101.774 60.7857C103.277 59.633 105.081 58.8937 107.186 58.5678C109.316 58.2378 111.272 58.3948 113.053 59.0386C114.861 59.6784 116.348 60.7096 117.514 62.132C118.706 63.5504 119.463 65.299 119.785 67.3778C120.099 69.4053 119.905 71.2882 119.201 73.0264C118.524 74.7607 117.423 76.219 115.898 77.4013C114.394 78.554 112.578 79.2953 110.447 79.6252ZM109.809 75.5061C110.99 75.3233 112.002 74.9036 112.847 74.2472C113.691 73.5908 114.295 72.7353 114.657 71.6805C115.045 70.6218 115.137 69.438 114.935 68.1292C114.728 66.7946 114.281 65.6943 113.595 64.8282C112.931 63.9325 112.097 63.2995 111.094 62.9293C110.09 62.5592 109.011 62.4635 107.856 62.6424C106.676 62.8253 105.663 63.2449 104.819 63.9013C104 64.5537 103.397 65.4093 103.009 66.468C102.617 67.501 102.524 68.6848 102.731 70.0194C102.934 71.3282 103.38 72.4286 104.07 73.3203C104.76 74.2121 105.594 74.845 106.572 75.2192C107.575 75.5894 108.655 75.685 109.809 75.5061ZM126.277 67.9884L125.657 63.9848L136.244 62.345L136.864 66.3486L126.277 67.9884ZM155.635 72.6258C153.48 72.9598 151.485 72.8088 149.652 72.1729C147.841 71.5074 146.337 70.4526 145.141 69.0085C143.945 67.5644 143.19 65.8286 142.876 63.8011C142.558 61.748 142.753 59.8651 143.46 58.1525C144.163 56.4143 145.279 54.9668 146.808 53.8102C148.363 52.6496 150.218 51.9023 152.374 51.5684C154.376 51.2583 156.197 51.3966 157.839 51.9834C159.502 52.5404 160.852 53.5401 161.89 54.9824L158.529 57.7106C157.762 56.8308 156.893 56.2295 155.923 55.9066C154.979 55.5798 153.994 55.4959 152.967 55.655C151.787 55.8378 150.761 56.2594 149.891 56.9198C149.021 57.5802 148.392 58.4397 148.004 59.4984C147.613 60.5315 147.52 61.7153 147.727 63.0498C147.933 64.3843 148.382 65.4975 149.072 66.3893C149.758 67.2554 150.615 67.8715 151.644 68.2377C152.674 68.6039 153.778 68.6956 154.959 68.5127C155.985 68.3537 156.899 67.9756 157.7 67.3785C158.527 66.7774 159.173 65.9416 159.638 64.8709L163.667 66.4543C163.11 68.1174 162.127 69.4916 160.719 70.5771C159.332 71.6328 157.637 72.3158 155.635 72.6258ZM179.82 68.8797C177.716 69.2057 175.773 69.0468 173.991 68.4029C172.206 67.7334 170.715 66.6766 169.519 65.2325C168.323 63.7884 167.568 62.0527 167.254 60.0252C166.936 57.9721 167.13 56.0892 167.837 54.3766C168.54 52.6383 169.644 51.1929 171.147 50.0402C172.65 48.8875 174.454 48.1482 176.559 47.8223C178.689 47.4923 180.645 47.6493 182.426 48.2931C184.234 48.9329 185.721 49.9641 186.887 51.3865C188.079 52.8049 188.836 54.5535 189.158 56.6323C189.472 58.6598 189.278 60.5427 188.574 62.2809C187.897 64.0152 186.796 65.4735 185.271 66.6558C183.767 67.8085 181.951 68.5498 179.82 68.8797ZM179.182 64.7606C180.363 64.5778 181.375 64.1581 182.22 63.5017C183.064 62.8453 183.668 61.9898 184.03 60.935C184.418 59.8763 184.51 58.6925 184.308 57.3836C184.101 56.0491 183.654 54.9488 182.968 54.0827C182.304 53.187 181.47 52.554 180.467 52.1838C179.463 51.8137 178.384 51.718 177.229 51.8969C176.049 52.0798 175.036 52.4994 174.192 53.1558C173.373 53.8082 172.77 54.6638 172.382 55.7225C171.99 56.7555 171.897 57.9393 172.104 59.2739C172.307 60.5827 172.753 61.6831 173.443 62.5748C174.133 63.4666 174.967 64.0995 175.945 64.4737C176.948 64.8439 178.028 64.9395 179.182 64.7606ZM206.403 64.7622C204.427 65.0683 202.576 64.9083 200.85 64.2821C199.145 63.6264 197.722 62.5853 196.581 61.1589C195.441 59.7326 194.705 57.9543 194.375 55.8242C194.046 53.694 194.208 51.7767 194.864 50.072C195.52 48.3674 196.563 46.9575 197.993 45.8424C199.449 44.7234 201.165 44.0108 203.142 43.7047C204.861 43.4384 206.461 43.5848 207.94 44.1441C209.416 44.6776 210.67 45.6527 211.704 47.0693C212.739 48.486 213.442 50.4005 213.816 52.8129C214.186 55.1997 214.107 57.2355 213.579 58.9202C213.048 60.5793 212.162 61.8992 210.921 62.8798C209.68 63.8604 208.174 64.4879 206.403 64.7622ZM206.343 60.5536C207.498 60.3747 208.484 59.9591 209.303 59.3067C210.148 58.6503 210.764 57.7927 211.152 56.734C211.565 55.6713 211.671 54.4855 211.468 53.1767C211.261 51.8421 210.802 50.7438 210.09 49.8817C209.4 48.9899 208.553 48.3589 207.55 47.9888C206.572 47.6146 205.506 47.517 204.351 47.6959C203.196 47.8748 202.197 48.2924 201.352 48.9488C200.533 49.6012 199.917 50.4588 199.504 51.5215C199.112 52.5545 199.019 53.7383 199.226 55.0729C199.429 56.3817 199.875 57.482 200.565 58.3738C201.281 59.2616 202.128 59.8925 203.105 60.2667C204.109 60.6369 205.188 60.7325 206.343 60.5536ZM213.175 63.4373L212.424 58.5867L211.77 53.0905L210.538 47.6836L208.558 34.9029L213.332 34.1635L217.756 62.7277L213.175 63.4373ZM236.104 60.1617C233.82 60.5155 231.749 60.3764 229.89 59.7445C228.053 59.083 226.537 58.0302 225.34 56.5861C224.17 55.138 223.428 53.4002 223.114 51.3728C222.796 49.3196 222.965 47.4407 223.62 45.7361C224.298 44.0018 225.363 42.5623 226.815 41.4176C228.292 40.2689 230.058 39.5355 232.111 39.2175C234.113 38.9075 235.964 39.0675 237.665 39.6975C239.365 40.3276 240.788 41.3687 241.933 42.8208C243.077 44.2728 243.817 46.0767 244.151 48.2325C244.182 48.4378 244.205 48.6708 244.22 48.9314C244.259 49.1881 244.284 49.4339 244.294 49.6688L227.163 52.3223L226.669 49.1271L241.259 46.8672L239.527 48.1602C239.37 46.9757 238.965 45.9741 238.313 45.1553C237.661 44.3366 236.845 43.7402 235.868 43.366C234.916 42.9879 233.862 42.8883 232.707 43.0671C231.527 43.25 230.527 43.6676 229.708 44.3201C228.915 44.9685 228.334 45.7944 227.963 46.7978C227.615 47.7716 227.536 48.8745 227.727 50.1063L227.846 50.8763C228.037 52.1081 228.488 53.1551 229.2 54.0173C229.912 54.8794 230.821 55.4876 231.927 55.8419C233.033 56.1961 234.253 56.2699 235.587 56.0632C236.742 55.8843 237.754 55.5437 238.622 55.0413C239.49 54.5388 240.224 53.847 240.824 52.9658L243.862 55.5305C243.105 56.7515 242.067 57.7665 240.746 58.5754C239.448 59.3546 237.901 59.8834 236.104 60.1617Z"/>
</mask>
<path d="M68.1533 85.9004L63.9793 58.953L68.0984 58.315L88.2123 76.4468L86.172 76.7628L82.958 56.0133L87.924 55.2441L92.098 82.1915L87.9789 82.8295L67.8651 64.6977L69.9054 64.3817L73.1194 85.1312L68.1533 85.9004ZM110.447 79.6252C108.343 79.9512 106.4 79.7923 104.618 79.1484C102.833 78.4789 101.342 77.4221 100.146 75.978C98.9498 74.534 98.1947 72.7982 97.8807 70.7707C97.5626 68.7176 97.7572 66.8347 98.4643 65.1221C99.1674 63.3838 100.271 61.9384 101.774 60.7857C103.277 59.633 105.081 58.8937 107.186 58.5678C109.316 58.2378 111.272 58.3948 113.053 59.0386C114.861 59.6784 116.348 60.7096 117.514 62.132C118.706 63.5504 119.463 65.299 119.785 67.3778C120.099 69.4053 119.905 71.2882 119.201 73.0264C118.524 74.7607 117.423 76.219 115.898 77.4013C114.394 78.554 112.578 79.2953 110.447 79.6252ZM109.809 75.5061C110.99 75.3233 112.002 74.9036 112.847 74.2472C113.691 73.5908 114.295 72.7353 114.657 71.6805C115.045 70.6218 115.137 69.438 114.935 68.1292C114.728 66.7946 114.281 65.6943 113.595 64.8282C112.931 63.9325 112.097 63.2995 111.094 62.9293C110.09 62.5592 109.011 62.4635 107.856 62.6424C106.676 62.8253 105.663 63.2449 104.819 63.9013C104 64.5537 103.397 65.4093 103.009 66.468C102.617 67.501 102.524 68.6848 102.731 70.0194C102.934 71.3282 103.38 72.4286 104.07 73.3203C104.76 74.2121 105.594 74.845 106.572 75.2192C107.575 75.5894 108.655 75.685 109.809 75.5061ZM126.277 67.9884L125.657 63.9848L136.244 62.345L136.864 66.3486L126.277 67.9884ZM155.635 72.6258C153.48 72.9598 151.485 72.8088 149.652 72.1729C147.841 71.5074 146.337 70.4526 145.141 69.0085C143.945 67.5644 143.19 65.8286 142.876 63.8011C142.558 61.748 142.753 59.8651 143.46 58.1525C144.163 56.4143 145.279 54.9668 146.808 53.8102C148.363 52.6496 150.218 51.9023 152.374 51.5684C154.376 51.2583 156.197 51.3966 157.839 51.9834C159.502 52.5404 160.852 53.5401 161.89 54.9824L158.529 57.7106C157.762 56.8308 156.893 56.2295 155.923 55.9066C154.979 55.5798 153.994 55.4959 152.967 55.655C151.787 55.8378 150.761 56.2594 149.891 56.9198C149.021 57.5802 148.392 58.4397 148.004 59.4984C147.613 60.5315 147.52 61.7153 147.727 63.0498C147.933 64.3843 148.382 65.4975 149.072 66.3893C149.758 67.2554 150.615 67.8715 151.644 68.2377C152.674 68.6039 153.778 68.6956 154.959 68.5127C155.985 68.3537 156.899 67.9756 157.7 67.3785C158.527 66.7774 159.173 65.9416 159.638 64.8709L163.667 66.4543C163.11 68.1174 162.127 69.4916 160.719 70.5771C159.332 71.6328 157.637 72.3158 155.635 72.6258ZM179.82 68.8797C177.716 69.2057 175.773 69.0468 173.991 68.4029C172.206 67.7334 170.715 66.6766 169.519 65.2325C168.323 63.7884 167.568 62.0527 167.254 60.0252C166.936 57.9721 167.13 56.0892 167.837 54.3766C168.54 52.6383 169.644 51.1929 171.147 50.0402C172.65 48.8875 174.454 48.1482 176.559 47.8223C178.689 47.4923 180.645 47.6493 182.426 48.2931C184.234 48.9329 185.721 49.9641 186.887 51.3865C188.079 52.8049 188.836 54.5535 189.158 56.6323C189.472 58.6598 189.278 60.5427 188.574 62.2809C187.897 64.0152 186.796 65.4735 185.271 66.6558C183.767 67.8085 181.951 68.5498 179.82 68.8797ZM179.182 64.7606C180.363 64.5778 181.375 64.1581 182.22 63.5017C183.064 62.8453 183.668 61.9898 184.03 60.935C184.418 59.8763 184.51 58.6925 184.308 57.3836C184.101 56.0491 183.654 54.9488 182.968 54.0827C182.304 53.187 181.47 52.554 180.467 52.1838C179.463 51.8137 178.384 51.718 177.229 51.8969C176.049 52.0798 175.036 52.4994 174.192 53.1558C173.373 53.8082 172.77 54.6638 172.382 55.7225C171.99 56.7555 171.897 57.9393 172.104 59.2739C172.307 60.5827 172.753 61.6831 173.443 62.5748C174.133 63.4666 174.967 64.0995 175.945 64.4737C176.948 64.8439 178.028 64.9395 179.182 64.7606ZM206.403 64.7622C204.427 65.0683 202.576 64.9083 200.85 64.2821C199.145 63.6264 197.722 62.5853 196.581 61.1589C195.441 59.7326 194.705 57.9543 194.375 55.8242C194.046 53.694 194.208 51.7767 194.864 50.072C195.52 48.3674 196.563 46.9575 197.993 45.8424C199.449 44.7234 201.165 44.0108 203.142 43.7047C204.861 43.4384 206.461 43.5848 207.94 44.1441C209.416 44.6776 210.67 45.6527 211.704 47.0693C212.739 48.486 213.442 50.4005 213.816 52.8129C214.186 55.1997 214.107 57.2355 213.579 58.9202C213.048 60.5793 212.162 61.8992 210.921 62.8798C209.68 63.8604 208.174 64.4879 206.403 64.7622ZM206.343 60.5536C207.498 60.3747 208.484 59.9591 209.303 59.3067C210.148 58.6503 210.764 57.7927 211.152 56.734C211.565 55.6713 211.671 54.4855 211.468 53.1767C211.261 51.8421 210.802 50.7438 210.09 49.8817C209.4 48.9899 208.553 48.3589 207.55 47.9888C206.572 47.6146 205.506 47.517 204.351 47.6959C203.196 47.8748 202.197 48.2924 201.352 48.9488C200.533 49.6012 199.917 50.4588 199.504 51.5215C199.112 52.5545 199.019 53.7383 199.226 55.0729C199.429 56.3817 199.875 57.482 200.565 58.3738C201.281 59.2616 202.128 59.8925 203.105 60.2667C204.109 60.6369 205.188 60.7325 206.343 60.5536ZM213.175 63.4373L212.424 58.5867L211.77 53.0905L210.538 47.6836L208.558 34.9029L213.332 34.1635L217.756 62.7277L213.175 63.4373ZM236.104 60.1617C233.82 60.5155 231.749 60.3764 229.89 59.7445C228.053 59.083 226.537 58.0302 225.34 56.5861C224.17 55.138 223.428 53.4002 223.114 51.3728C222.796 49.3196 222.965 47.4407 223.62 45.7361C224.298 44.0018 225.363 42.5623 226.815 41.4176C228.292 40.2689 230.058 39.5355 232.111 39.2175C234.113 38.9075 235.964 39.0675 237.665 39.6975C239.365 40.3276 240.788 41.3687 241.933 42.8208C243.077 44.2728 243.817 46.0767 244.151 48.2325C244.182 48.4378 244.205 48.6708 244.22 48.9314C244.259 49.1881 244.284 49.4339 244.294 49.6688L227.163 52.3223L226.669 49.1271L241.259 46.8672L239.527 48.1602C239.37 46.9757 238.965 45.9741 238.313 45.1553C237.661 44.3366 236.845 43.7402 235.868 43.366C234.916 42.9879 233.862 42.8883 232.707 43.0671C231.527 43.25 230.527 43.6676 229.708 44.3201C228.915 44.9685 228.334 45.7944 227.963 46.7978C227.615 47.7716 227.536 48.8745 227.727 50.1063L227.846 50.8763C228.037 52.1081 228.488 53.1551 229.2 54.0173C229.912 54.8794 230.821 55.4876 231.927 55.8419C233.033 56.1961 234.253 56.2699 235.587 56.0632C236.742 55.8843 237.754 55.5437 238.622 55.0413C239.49 54.5388 240.224 53.847 240.824 52.9658L243.862 55.5305C243.105 56.7515 242.067 57.7665 240.746 58.5754C239.448 59.3546 237.901 59.8834 236.104 60.1617Z" fill="white"/>
<path d="M68.1533 85.9004L63.9793 58.953L68.0984 58.315L88.2123 76.4468L86.172 76.7628L82.958 56.0133L87.924 55.2441L92.098 82.1915L87.9789 82.8295L67.8651 64.6977L69.9054 64.3817L73.1194 85.1312L68.1533 85.9004ZM110.447 79.6252C108.343 79.9512 106.4 79.7923 104.618 79.1484C102.833 78.4789 101.342 77.4221 100.146 75.978C98.9498 74.534 98.1947 72.7982 97.8807 70.7707C97.5626 68.7176 97.7572 66.8347 98.4643 65.1221C99.1674 63.3838 100.271 61.9384 101.774 60.7857C103.277 59.633 105.081 58.8937 107.186 58.5678C109.316 58.2378 111.272 58.3948 113.053 59.0386C114.861 59.6784 116.348 60.7096 117.514 62.132C118.706 63.5504 119.463 65.299 119.785 67.3778C120.099 69.4053 119.905 71.2882 119.201 73.0264C118.524 74.7607 117.423 76.219 115.898 77.4013C114.394 78.554 112.578 79.2953 110.447 79.6252ZM109.809 75.5061C110.99 75.3233 112.002 74.9036 112.847 74.2472C113.691 73.5908 114.295 72.7353 114.657 71.6805C115.045 70.6218 115.137 69.438 114.935 68.1292C114.728 66.7946 114.281 65.6943 113.595 64.8282C112.931 63.9325 112.097 63.2995 111.094 62.9293C110.09 62.5592 109.011 62.4635 107.856 62.6424C106.676 62.8253 105.663 63.2449 104.819 63.9013C104 64.5537 103.397 65.4093 103.009 66.468C102.617 67.501 102.524 68.6848 102.731 70.0194C102.934 71.3282 103.38 72.4286 104.07 73.3203C104.76 74.2121 105.594 74.845 106.572 75.2192C107.575 75.5894 108.655 75.685 109.809 75.5061ZM126.277 67.9884L125.657 63.9848L136.244 62.345L136.864 66.3486L126.277 67.9884ZM155.635 72.6258C153.48 72.9598 151.485 72.8088 149.652 72.1729C147.841 71.5074 146.337 70.4526 145.141 69.0085C143.945 67.5644 143.19 65.8286 142.876 63.8011C142.558 61.748 142.753 59.8651 143.46 58.1525C144.163 56.4143 145.279 54.9668 146.808 53.8102C148.363 52.6496 150.218 51.9023 152.374 51.5684C154.376 51.2583 156.197 51.3966 157.839 51.9834C159.502 52.5404 160.852 53.5401 161.89 54.9824L158.529 57.7106C157.762 56.8308 156.893 56.2295 155.923 55.9066C154.979 55.5798 153.994 55.4959 152.967 55.655C151.787 55.8378 150.761 56.2594 149.891 56.9198C149.021 57.5802 148.392 58.4397 148.004 59.4984C147.613 60.5315 147.52 61.7153 147.727 63.0498C147.933 64.3843 148.382 65.4975 149.072 66.3893C149.758 67.2554 150.615 67.8715 151.644 68.2377C152.674 68.6039 153.778 68.6956 154.959 68.5127C155.985 68.3537 156.899 67.9756 157.7 67.3785C158.527 66.7774 159.173 65.9416 159.638 64.8709L163.667 66.4543C163.11 68.1174 162.127 69.4916 160.719 70.5771C159.332 71.6328 157.637 72.3158 155.635 72.6258ZM179.82 68.8797C177.716 69.2057 175.773 69.0468 173.991 68.4029C172.206 67.7334 170.715 66.6766 169.519 65.2325C168.323 63.7884 167.568 62.0527 167.254 60.0252C166.936 57.9721 167.13 56.0892 167.837 54.3766C168.54 52.6383 169.644 51.1929 171.147 50.0402C172.65 48.8875 174.454 48.1482 176.559 47.8223C178.689 47.4923 180.645 47.6493 182.426 48.2931C184.234 48.9329 185.721 49.9641 186.887 51.3865C188.079 52.8049 188.836 54.5535 189.158 56.6323C189.472 58.6598 189.278 60.5427 188.574 62.2809C187.897 64.0152 186.796 65.4735 185.271 66.6558C183.767 67.8085 181.951 68.5498 179.82 68.8797ZM179.182 64.7606C180.363 64.5778 181.375 64.1581 182.22 63.5017C183.064 62.8453 183.668 61.9898 184.03 60.935C184.418 59.8763 184.51 58.6925 184.308 57.3836C184.101 56.0491 183.654 54.9488 182.968 54.0827C182.304 53.187 181.47 52.554 180.467 52.1838C179.463 51.8137 178.384 51.718 177.229 51.8969C176.049 52.0798 175.036 52.4994 174.192 53.1558C173.373 53.8082 172.77 54.6638 172.382 55.7225C171.99 56.7555 171.897 57.9393 172.104 59.2739C172.307 60.5827 172.753 61.6831 173.443 62.5748C174.133 63.4666 174.967 64.0995 175.945 64.4737C176.948 64.8439 178.028 64.9395 179.182 64.7606ZM206.403 64.7622C204.427 65.0683 202.576 64.9083 200.85 64.2821C199.145 63.6264 197.722 62.5853 196.581 61.1589C195.441 59.7326 194.705 57.9543 194.375 55.8242C194.046 53.694 194.208 51.7767 194.864 50.072C195.52 48.3674 196.563 46.9575 197.993 45.8424C199.449 44.7234 201.165 44.0108 203.142 43.7047C204.861 43.4384 206.461 43.5848 207.94 44.1441C209.416 44.6776 210.67 45.6527 211.704 47.0693C212.739 48.486 213.442 50.4005 213.816 52.8129C214.186 55.1997 214.107 57.2355 213.579 58.9202C213.048 60.5793 212.162 61.8992 210.921 62.8798C209.68 63.8604 208.174 64.4879 206.403 64.7622ZM206.343 60.5536C207.498 60.3747 208.484 59.9591 209.303 59.3067C210.148 58.6503 210.764 57.7927 211.152 56.734C211.565 55.6713 211.671 54.4855 211.468 53.1767C211.261 51.8421 210.802 50.7438 210.09 49.8817C209.4 48.9899 208.553 48.3589 207.55 47.9888C206.572 47.6146 205.506 47.517 204.351 47.6959C203.196 47.8748 202.197 48.2924 201.352 48.9488C200.533 49.6012 199.917 50.4588 199.504 51.5215C199.112 52.5545 199.019 53.7383 199.226 55.0729C199.429 56.3817 199.875 57.482 200.565 58.3738C201.281 59.2616 202.128 59.8925 203.105 60.2667C204.109 60.6369 205.188 60.7325 206.343 60.5536ZM213.175 63.4373L212.424 58.5867L211.77 53.0905L210.538 47.6836L208.558 34.9029L213.332 34.1635L217.756 62.7277L213.175 63.4373ZM236.104 60.1617C233.82 60.5155 231.749 60.3764 229.89 59.7445C228.053 59.083 226.537 58.0302 225.34 56.5861C224.17 55.138 223.428 53.4002 223.114 51.3728C222.796 49.3196 222.965 47.4407 223.62 45.7361C224.298 44.0018 225.363 42.5623 226.815 41.4176C228.292 40.2689 230.058 39.5355 232.111 39.2175C234.113 38.9075 235.964 39.0675 237.665 39.6975C239.365 40.3276 240.788 41.3687 241.933 42.8208C243.077 44.2728 243.817 46.0767 244.151 48.2325C244.182 48.4378 244.205 48.6708 244.22 48.9314C244.259 49.1881 244.284 49.4339 244.294 49.6688L227.163 52.3223L226.669 49.1271L241.259 46.8672L239.527 48.1602C239.37 46.9757 238.965 45.9741 238.313 45.1553C237.661 44.3366 236.845 43.7402 235.868 43.366C234.916 42.9879 233.862 42.8883 232.707 43.0671C231.527 43.25 230.527 43.6676 229.708 44.3201C228.915 44.9685 228.334 45.7944 227.963 46.7978C227.615 47.7716 227.536 48.8745 227.727 50.1063L227.846 50.8763C228.037 52.1081 228.488 53.1551 229.2 54.0173C229.912 54.8794 230.821 55.4876 231.927 55.8419C233.033 56.1961 234.253 56.2699 235.587 56.0632C236.742 55.8843 237.754 55.5437 238.622 55.0413C239.49 54.5388 240.224 53.847 240.824 52.9658L243.862 55.5305C243.105 56.7515 242.067 57.7665 240.746 58.5754C239.448 59.3546 237.901 59.8834 236.104 60.1617Z" fill="black" fill-opacity="0.05"/>
<path d="M68.1533 85.9004L63.9793 58.953L68.0984 58.315L88.2123 76.4468L86.172 76.7628L82.958 56.0133L87.924 55.2441L92.098 82.1915L87.9789 82.8295L67.8651 64.6977L69.9054 64.3817L73.1194 85.1312L68.1533 85.9004ZM110.447 79.6252C108.343 79.9512 106.4 79.7923 104.618 79.1484C102.833 78.4789 101.342 77.4221 100.146 75.978C98.9498 74.534 98.1947 72.7982 97.8807 70.7707C97.5626 68.7176 97.7572 66.8347 98.4643 65.1221C99.1674 63.3838 100.271 61.9384 101.774 60.7857C103.277 59.633 105.081 58.8937 107.186 58.5678C109.316 58.2378 111.272 58.3948 113.053 59.0386C114.861 59.6784 116.348 60.7096 117.514 62.132C118.706 63.5504 119.463 65.299 119.785 67.3778C120.099 69.4053 119.905 71.2882 119.201 73.0264C118.524 74.7607 117.423 76.219 115.898 77.4013C114.394 78.554 112.578 79.2953 110.447 79.6252ZM109.809 75.5061C110.99 75.3233 112.002 74.9036 112.847 74.2472C113.691 73.5908 114.295 72.7353 114.657 71.6805C115.045 70.6218 115.137 69.438 114.935 68.1292C114.728 66.7946 114.281 65.6943 113.595 64.8282C112.931 63.9325 112.097 63.2995 111.094 62.9293C110.09 62.5592 109.011 62.4635 107.856 62.6424C106.676 62.8253 105.663 63.2449 104.819 63.9013C104 64.5537 103.397 65.4093 103.009 66.468C102.617 67.501 102.524 68.6848 102.731 70.0194C102.934 71.3282 103.38 72.4286 104.07 73.3203C104.76 74.2121 105.594 74.845 106.572 75.2192C107.575 75.5894 108.655 75.685 109.809 75.5061ZM126.277 67.9884L125.657 63.9848L136.244 62.345L136.864 66.3486L126.277 67.9884ZM155.635 72.6258C153.48 72.9598 151.485 72.8088 149.652 72.1729C147.841 71.5074 146.337 70.4526 145.141 69.0085C143.945 67.5644 143.19 65.8286 142.876 63.8011C142.558 61.748 142.753 59.8651 143.46 58.1525C144.163 56.4143 145.279 54.9668 146.808 53.8102C148.363 52.6496 150.218 51.9023 152.374 51.5684C154.376 51.2583 156.197 51.3966 157.839 51.9834C159.502 52.5404 160.852 53.5401 161.89 54.9824L158.529 57.7106C157.762 56.8308 156.893 56.2295 155.923 55.9066C154.979 55.5798 153.994 55.4959 152.967 55.655C151.787 55.8378 150.761 56.2594 149.891 56.9198C149.021 57.5802 148.392 58.4397 148.004 59.4984C147.613 60.5315 147.52 61.7153 147.727 63.0498C147.933 64.3843 148.382 65.4975 149.072 66.3893C149.758 67.2554 150.615 67.8715 151.644 68.2377C152.674 68.6039 153.778 68.6956 154.959 68.5127C155.985 68.3537 156.899 67.9756 157.7 67.3785C158.527 66.7774 159.173 65.9416 159.638 64.8709L163.667 66.4543C163.11 68.1174 162.127 69.4916 160.719 70.5771C159.332 71.6328 157.637 72.3158 155.635 72.6258ZM179.82 68.8797C177.716 69.2057 175.773 69.0468 173.991 68.4029C172.206 67.7334 170.715 66.6766 169.519 65.2325C168.323 63.7884 167.568 62.0527 167.254 60.0252C166.936 57.9721 167.13 56.0892 167.837 54.3766C168.54 52.6383 169.644 51.1929 171.147 50.0402C172.65 48.8875 174.454 48.1482 176.559 47.8223C178.689 47.4923 180.645 47.6493 182.426 48.2931C184.234 48.9329 185.721 49.9641 186.887 51.3865C188.079 52.8049 188.836 54.5535 189.158 56.6323C189.472 58.6598 189.278 60.5427 188.574 62.2809C187.897 64.0152 186.796 65.4735 185.271 66.6558C183.767 67.8085 181.951 68.5498 179.82 68.8797ZM179.182 64.7606C180.363 64.5778 181.375 64.1581 182.22 63.5017C183.064 62.8453 183.668 61.9898 184.03 60.935C184.418 59.8763 184.51 58.6925 184.308 57.3836C184.101 56.0491 183.654 54.9488 182.968 54.0827C182.304 53.187 181.47 52.554 180.467 52.1838C179.463 51.8137 178.384 51.718 177.229 51.8969C176.049 52.0798 175.036 52.4994 174.192 53.1558C173.373 53.8082 172.77 54.6638 172.382 55.7225C171.99 56.7555 171.897 57.9393 172.104 59.2739C172.307 60.5827 172.753 61.6831 173.443 62.5748C174.133 63.4666 174.967 64.0995 175.945 64.4737C176.948 64.8439 178.028 64.9395 179.182 64.7606ZM206.403 64.7622C204.427 65.0683 202.576 64.9083 200.85 64.2821C199.145 63.6264 197.722 62.5853 196.581 61.1589C195.441 59.7326 194.705 57.9543 194.375 55.8242C194.046 53.694 194.208 51.7767 194.864 50.072C195.52 48.3674 196.563 46.9575 197.993 45.8424C199.449 44.7234 201.165 44.0108 203.142 43.7047C204.861 43.4384 206.461 43.5848 207.94 44.1441C209.416 44.6776 210.67 45.6527 211.704 47.0693C212.739 48.486 213.442 50.4005 213.816 52.8129C214.186 55.1997 214.107 57.2355 213.579 58.9202C213.048 60.5793 212.162 61.8992 210.921 62.8798C209.68 63.8604 208.174 64.4879 206.403 64.7622ZM206.343 60.5536C207.498 60.3747 208.484 59.9591 209.303 59.3067C210.148 58.6503 210.764 57.7927 211.152 56.734C211.565 55.6713 211.671 54.4855 211.468 53.1767C211.261 51.8421 210.802 50.7438 210.09 49.8817C209.4 48.9899 208.553 48.3589 207.55 47.9888C206.572 47.6146 205.506 47.517 204.351 47.6959C203.196 47.8748 202.197 48.2924 201.352 48.9488C200.533 49.6012 199.917 50.4588 199.504 51.5215C199.112 52.5545 199.019 53.7383 199.226 55.0729C199.429 56.3817 199.875 57.482 200.565 58.3738C201.281 59.2616 202.128 59.8925 203.105 60.2667C204.109 60.6369 205.188 60.7325 206.343 60.5536ZM213.175 63.4373L212.424 58.5867L211.77 53.0905L210.538 47.6836L208.558 34.9029L213.332 34.1635L217.756 62.7277L213.175 63.4373ZM236.104 60.1617C233.82 60.5155 231.749 60.3764 229.89 59.7445C228.053 59.083 226.537 58.0302 225.34 56.5861C224.17 55.138 223.428 53.4002 223.114 51.3728C222.796 49.3196 222.965 47.4407 223.62 45.7361C224.298 44.0018 225.363 42.5623 226.815 41.4176C228.292 40.2689 230.058 39.5355 232.111 39.2175C234.113 38.9075 235.964 39.0675 237.665 39.6975C239.365 40.3276 240.788 41.3687 241.933 42.8208C243.077 44.2728 243.817 46.0767 244.151 48.2325C244.182 48.4378 244.205 48.6708 244.22 48.9314C244.259 49.1881 244.284 49.4339 244.294 49.6688L227.163 52.3223L226.669 49.1271L241.259 46.8672L239.527 48.1602C239.37 46.9757 238.965 45.9741 238.313 45.1553C237.661 44.3366 236.845 43.7402 235.868 43.366C234.916 42.9879 233.862 42.8883 232.707 43.0671C231.527 43.25 230.527 43.6676 229.708 44.3201C228.915 44.9685 228.334 45.7944 227.963 46.7978C227.615 47.7716 227.536 48.8745 227.727 50.1063L227.846 50.8763C228.037 52.1081 228.488 53.1551 229.2 54.0173C229.912 54.8794 230.821 55.4876 231.927 55.8419C233.033 56.1961 234.253 56.2699 235.587 56.0632C236.742 55.8843 237.754 55.5437 238.622 55.0413C239.49 54.5388 240.224 53.847 240.824 52.9658L243.862 55.5305C243.105 56.7515 242.067 57.7665 240.746 58.5754C239.448 59.3546 237.901 59.8834 236.104 60.1617Z" stroke="#12A682" stroke-width="1.96562" mask="url(#path-5-outside-2_73_1551)"/>
</g>
<defs>
<clipPath id="clip0_73_1551">
<path d="M0 0H280V167C280 175.837 272.837 183 264 183H0V0Z" fill="white"/>
</clipPath>
</defs>
</svg>
