<svg width="134" height="134" fill="none" xmlns="http://www.w3.org/2000/svg"><path opacity=".2" d="M67 0l4.212 41.757L88.755 3.63 79.18 44.493l28.972-30.365-22.324 35.54 37.262-19.313L90.436 56.72l41.514-6.167-39.446 14.334 41.267 7.646-41.962.75 36.548 20.63-39.933-12.916 27.87 31.381-33.575-25.183 16.17 38.73-23.58-34.72 2.719 41.881L67 92.592l-11.028 40.494 2.718-41.88-23.578 34.719 16.17-38.73-33.575 25.183 27.868-31.38L5.643 93.913l36.548-20.632-41.962-.75 41.267-7.645L2.05 50.553l41.514 6.167L10.91 30.355l37.262 19.312-22.324-35.54L54.82 44.494 45.245 3.63l17.543 38.127L67 0z" fill="#89D3C1"/></svg>