<svg width="751" height="758" viewBox="0 0 751 758" fill="none" xmlns="http://www.w3.org/2000/svg">
<g clip-path="url(#clip0_70_5270)">
<path opacity="0.3" d="M1054.67 277.26C1054.67 542.481 835.781 757.5 565.754 757.5C295.728 757.5 76.8428 542.481 76.8428 277.26C76.8428 12.0387 295.728 -202.98 565.754 -202.98C835.781 -202.98 1054.67 12.0387 1054.67 277.26Z" stroke="#151E34"/>
<path opacity="0.3" d="M978.323 156.74C978.323 421.961 759.438 636.98 489.412 636.98C219.385 636.98 0.5 421.961 0.5 156.74C0.5 -108.481 219.385 -323.5 489.412 -323.5C759.438 -323.5 978.323 -108.481 978.323 156.74Z" stroke="#12A682"/>
<path opacity="0.1" d="M1128.28 277.26C1128.28 542.481 909.397 757.5 639.371 757.5C369.344 757.5 150.459 542.481 150.459 277.26C150.459 12.0387 369.344 -202.98 639.371 -202.98C909.397 -202.98 1128.28 12.0387 1128.28 277.26Z" fill="#12A682" stroke="#151E34"/>
</g>
<defs>
<clipPath id="clip0_70_5270">
<rect width="751" height="758" fill="white"/>
</clipPath>
</defs>
</svg>
