<svg width="336" height="107" viewBox="0 0 336 107" fill="none" xmlns="http://www.w3.org/2000/svg">
<path d="M99.182 53.2284L110.537 43.5137L82.5627 80.2241L70.2576 91.1854L99.182 53.2284Z" fill="#E0DEE9" stroke="#151E34" stroke-width="0.5"/>
<path d="M97.713 52.1317L110.128 41.0262L81.2036 78.9833L68.7887 90.0887L97.713 52.1317Z" fill="#E0DEE9" stroke="#151E34" stroke-width="0.5"/>
<path d="M92.7784 60.7684L99.6507 53.4788L90.0092 66.1311L83.1369 73.4207L92.7784 60.7684Z" fill="#AA9A85" stroke="#151E34" stroke-width="0.5"/>
<path d="M70.2577 91.1858L82.5143 80.2881L81.0444 79.1916L68.7878 90.0893L70.2577 91.1858Z" fill="#E0DEE9" stroke="#151E34" stroke-width="0.5"/>
<path d="M71.1229 89.55L76.744 84.6189L76.3571 84.3303L70.7361 89.2614L71.1229 89.55Z" fill="#AA9A85" stroke="#151E34" stroke-width="0.5"/>
<path d="M110.097 41.0678L83.2186 21.0175L54.2458 59.038L81.1243 79.0884L110.097 41.0678Z" fill="#E0DEE9" stroke="#151E34" stroke-width="0.5"/>
<path fill-rule="evenodd" clip-rule="evenodd" d="M77.0659 52.862L80.5637 48.2719L83.7135 50.6215L80.2157 55.2116L77.0659 52.862ZM80.3264 50.3684L81.0134 50.8809L81.6972 51.391L81.7015 51.3943C81.7044 51.3965 81.7072 51.3987 81.7101 51.4006C81.7186 51.4059 81.7217 51.4115 81.7135 51.4195C81.7116 51.4215 81.7101 51.4237 81.7085 51.4259L81.7061 51.4292L81.6193 51.5433C81.5613 51.6194 81.5033 51.6956 81.4452 51.7716L81.4403 51.7781C81.4349 51.7855 81.4322 51.789 81.4291 51.7894C81.4262 51.7898 81.423 51.7872 81.4166 51.7823L81.409 51.7765L80.0366 50.7527L80.0334 50.7502C80.0313 50.7485 80.0292 50.7468 80.0269 50.7454C80.0182 50.7402 80.016 50.7343 80.0236 50.7264C80.0251 50.7248 80.0264 50.723 80.0277 50.7211L80.0298 50.7183L80.1175 50.6031C80.176 50.5262 80.2346 50.4493 80.2932 50.3726L80.2977 50.3666C80.3024 50.3602 80.3048 50.3569 80.3076 50.3565C80.3104 50.3561 80.3136 50.3586 80.3201 50.3636L80.3264 50.3684ZM78.8543 52.261L79.2894 51.6899L79.2897 51.6896C79.4346 51.4994 79.5795 51.3092 79.7242 51.1191L79.7275 51.1148C79.7297 51.112 79.7319 51.1092 79.734 51.1062C79.7386 51.0995 79.7434 51.0996 79.749 51.1045C79.7507 51.106 79.7525 51.1073 79.7543 51.1086L79.7543 51.1086L79.7571 51.1106L80.0853 51.3554L80.0887 51.3579L80.0887 51.3579C80.0958 51.3632 80.0993 51.3657 80.0996 51.3687C80.1 51.3716 80.0975 51.3749 80.0925 51.3813L80.0891 51.3857L79.8157 51.7444C79.8068 51.7561 79.8024 51.7619 79.8031 51.767C79.8038 51.7719 79.8095 51.7761 79.8207 51.7845L80.8328 52.5394L80.838 52.5433C80.8439 52.5475 80.8469 52.5497 80.8474 52.5524C80.8479 52.5553 80.8452 52.5588 80.8397 52.566L80.8369 52.5696L80.8333 52.5744L80.5746 52.9138C80.5664 52.9246 80.5623 52.9299 80.5576 52.9306C80.553 52.9312 80.5477 52.9273 80.5373 52.9195L79.5253 52.1646L79.5194 52.1601L79.5194 52.1601C79.5133 52.1554 79.5101 52.1529 79.5072 52.1532C79.504 52.1536 79.5013 52.1573 79.4955 52.1649L79.4919 52.1697L79.2137 52.5349C79.2017 52.5506 79.2017 52.5506 79.1858 52.5391L79.181 52.5355L78.8592 52.2954L78.8532 52.291C78.846 52.2858 78.8424 52.2832 78.842 52.2802C78.8416 52.2772 78.8443 52.2738 78.8496 52.2671L78.8543 52.261Z" fill="#C6C3D1"/>
<path fill-rule="evenodd" clip-rule="evenodd" d="M81.4842 47.0639L84.982 42.4738L88.1318 44.8234L84.634 49.4135L82.1386 49.4466L81.4842 47.0639ZM84.7866 45.4979L84.7878 45.5317C84.7813 45.5342 84.7751 45.5342 84.7694 45.5341L84.7654 45.5341C84.7168 45.5367 84.6682 45.539 84.6196 45.5413L84.6195 45.5413L84.6195 45.5413L84.6194 45.5413C84.5221 45.5462 84.4249 45.5509 84.3276 45.5555C84.3081 45.5564 84.3029 45.5519 84.3018 45.5334C84.3007 45.5188 84.3 45.5041 84.2994 45.4893C84.2943 45.3629 84.3093 45.2393 84.3542 45.1202C84.3843 45.0407 84.4243 44.9663 84.4711 44.8953C84.5322 44.8027 84.6017 44.7175 84.6879 44.646C84.9893 44.3956 85.4152 44.3585 85.7604 44.5744C85.8535 44.6327 85.9351 44.7043 86.0034 44.79C86.1578 44.9844 86.222 45.2044 86.1866 45.4512C86.1673 45.5857 86.117 45.7093 86.0434 45.8239C85.981 45.921 85.9064 46.0073 85.8178 46.0816C85.6682 46.2071 85.4968 46.2889 85.3068 46.3336C85.2916 46.3372 85.2807 46.3351 85.2681 46.3257C85.1137 46.2099 84.9589 46.0945 84.8041 45.979L84.6881 45.8925C84.686 45.891 84.6841 45.8893 84.6822 45.8877C84.6779 45.884 84.6736 45.8803 84.6686 45.8785C84.6627 45.8763 84.6619 45.8717 84.6611 45.8672C84.6605 45.8635 84.6599 45.8599 84.6564 45.8578C84.6506 45.8545 84.6525 45.8503 84.6557 45.8461L84.6642 45.8349L85.1422 45.2077L85.1451 45.204C85.1471 45.2016 85.1491 45.1991 85.1508 45.1964C85.155 45.1895 85.1598 45.1898 85.1655 45.1948C85.1678 45.1969 85.1704 45.1987 85.173 45.2005L85.173 45.2005L85.173 45.2005L85.1768 45.2032L85.2787 45.2792C85.3466 45.3298 85.4145 45.3804 85.4824 45.4312L85.4898 45.4366C85.4961 45.4411 85.4993 45.4434 85.4998 45.4461C85.5002 45.4491 85.4976 45.4525 85.4921 45.4595L85.4874 45.4655L85.295 45.718L85.2904 45.724C85.285 45.7309 85.2824 45.7343 85.2828 45.7371C85.2832 45.7399 85.2864 45.7422 85.2926 45.7467L85.3003 45.7523C85.315 45.7634 85.3297 45.7743 85.3444 45.7853L85.3445 45.7853L85.3445 45.7853L85.3666 45.8018L85.3672 45.8022C85.3975 45.8248 85.3977 45.825 85.4316 45.8076C85.5308 45.7567 85.6059 45.6808 85.6611 45.5857C85.7225 45.4802 85.7353 45.3686 85.6987 45.2525C85.6749 45.1769 85.6317 45.1132 85.5744 45.0586C85.5011 44.989 85.4163 44.9409 85.3156 44.9225C85.1946 44.9006 85.0813 44.9195 84.9801 44.9927C84.9091 45.0439 84.8632 45.1152 84.8272 45.1927C84.7945 45.2629 84.7841 45.3377 84.7846 45.414C84.7846 45.4419 84.7856 45.4697 84.7866 45.4979L84.7866 45.4979ZM83.1318 47.0658C83.1084 46.8149 83.1783 46.5891 83.3165 46.4048C83.3811 46.3203 83.4362 46.2622 83.505 46.2083C83.7045 46.0519 83.9306 45.9816 84.1833 46.0114C84.4426 46.0419 84.6519 46.1649 84.8063 46.3713C84.979 46.602 85.0351 46.8611 84.9619 47.1425C84.9056 47.3586 84.7849 47.536 84.6082 47.6739C84.4031 47.8343 84.1695 47.9002 83.9106 47.8645C83.6924 47.8344 83.5102 47.7341 83.362 47.5741C83.2288 47.4303 83.1502 47.2606 83.1318 47.0658ZM84.1052 46.5032C83.9351 46.4779 83.7982 46.5383 83.7194 46.6372C83.5634 46.8408 83.5778 47.0606 83.7108 47.2169C83.7908 47.3112 83.8924 47.3716 84.0163 47.39C84.1619 47.4116 84.288 47.3699 84.3902 47.2635C84.4891 47.1607 84.5318 47.0384 84.5111 46.8971C84.498 46.8065 84.4578 46.7278 84.3957 46.6609C84.3171 46.576 84.2208 46.5203 84.1052 46.5032Z" fill="#C6C3D1"/>
<rect width="13.0605" height="3.92966" transform="matrix(-0.606105 0.795384 0.801552 0.597925 84.982 42.4738)" stroke="#151E34" stroke-width="0.5"/>
<path d="M82.1786 21.5178L83.2186 21.0175L54.2326 59.0555L53.1926 59.5558L82.1786 21.5178Z" fill="#E0DEE9" stroke="#151E34" stroke-width="0.5"/>
<path d="M80.2809 79.7618L53.1924 59.5548L54.2457 59.037L81.1242 79.0874L80.2809 79.7618Z" fill="#E0DEE9" stroke="#151E34" stroke-width="0.5"/>
<path d="M81.1239 79.0875L110.097 41.067C110.908 41.6725 111.069 42.8165 110.455 43.6221L82.5938 80.184L81.1239 79.0875Z" fill="#E0DEE9" stroke="#151E34" stroke-width="0.5"/>
<path d="M211.381 82.2802L231.797 92.1263L168.139 75.2502L147.724 65.4041L211.381 82.2802Z" fill="#E0DEE9" stroke="#151E34" stroke-width="0.5"/>
<path d="M212.142 79.8949L224.093 35.7677L160.329 18.8633L148.378 62.9905L212.142 79.8949Z" fill="#E0DEE9" stroke="#151E34" stroke-width="0.5"/>
<path d="M211.215 73.6635L219.861 41.7398C220.438 39.6075 219.175 37.42 217.04 36.8539L165.887 23.2928C163.752 22.7267 161.552 23.9963 160.975 26.1287L152.329 58.0523C151.752 60.1847 153.015 62.3722 155.15 62.9383L206.303 76.4994C208.439 77.0655 210.638 75.7958 211.215 73.6635Z" fill="#151E34"/>
<path d="M211.215 73.6635L219.861 41.7398C220.438 39.6075 219.175 37.42 217.04 36.8539L165.887 23.2928C163.752 22.7267 161.552 23.9963 160.975 26.1287L152.329 58.0523C151.752 60.1847 153.015 62.3722 155.15 62.9383L206.303 76.4994C208.439 77.0655 210.638 75.7958 211.215 73.6635Z" fill="url(#paint0_linear_65_452)"/>
<path d="M211.215 73.6635L219.861 41.7398C220.438 39.6075 219.175 37.42 217.04 36.8539L165.887 23.2928C163.752 22.7267 161.552 23.9963 160.975 26.1287L152.329 58.0523C151.752 60.1847 153.015 62.3722 155.15 62.9383L206.303 76.4994C208.439 77.0655 210.638 75.7958 211.215 73.6635Z" stroke="#151E34" stroke-width="0.5"/>
<path d="M222.915 34.7165L224.093 35.7677L160.3 18.8556L159.122 17.8043L222.915 34.7165Z" fill="#E0DEE9" stroke="#151E34" stroke-width="0.5"/>
<path d="M147.265 61.5869L159.122 17.8044L160.329 18.8634L148.379 62.9906L147.265 61.5869Z" fill="#E0DEE9" stroke="#151E34" stroke-width="0.5"/>
<path d="M212.142 79.8945L211.489 82.3077L147.725 65.4034L148.378 62.9901L212.142 79.8945Z" fill="#E0DEE9" stroke="#151E34" stroke-width="0.5"/>
<path d="M212.036 79.8658L232.693 89.7761L169.036 72.9L148.379 62.9897L212.036 79.8658Z" fill="#E0DEE9" stroke="#151E34" stroke-width="0.5"/>
<path d="M198.4 78.098L211.303 82.9966L190.083 77.3712L177.181 72.4726L198.4 78.098Z" fill="#A4A3A3" stroke="#151E34" stroke-width="0.5"/>
<path d="M147.725 65.4034L168.034 75.2213L168.687 72.8081L148.379 62.9902L147.725 65.4034Z" fill="#E0DEE9" stroke="#151E34" stroke-width="0.5"/>
<path d="M150.273 65.6506L159.501 70.1876L159.673 69.5526L150.445 65.0156L150.273 65.6506Z" fill="#AA9A85" stroke="#151E34" stroke-width="0.5"/>
<path d="M148.378 62.9909L147.724 65.4041C146.228 64.8597 146.937 62.7937 147.264 61.5871L148.378 62.9909Z" fill="#E0DEE9" stroke="#151E34" stroke-width="0.5"/>
<path d="M232.625 89.7585L231.972 92.1718L168.208 75.2674L168.861 72.8542L232.625 89.7585Z" fill="#E0DEE9" stroke="#151E34" stroke-width="0.5"/>
<ellipse cx="0.54071" cy="0.535743" rx="0.54071" ry="0.535743" transform="matrix(-0.966609 -0.256257 -0.261403 0.96523 193.151 28.6737)" fill="#E0DEE9" stroke="#151E34" stroke-width="0.5"/>
<path d="M298.579 83.1501L303.875 97.417L278.464 57.6511L272.305 42.0339L298.579 83.1501Z" fill="#E0DEE9" stroke="#151E34" stroke-width="0.5"/>
<path d="M300.171 82.1549L306.43 97.9283L280.156 56.8121L273.897 41.0387L300.171 82.1549Z" fill="#E0DEE9" stroke="#151E34" stroke-width="0.5"/>
<path d="M293.597 74.3595L298.167 83.5037L289.409 69.7982L284.84 60.6541L293.597 74.3595Z" fill="#AA9A85" stroke="#151E34" stroke-width="0.5"/>
<path d="M272.305 42.0332L278.42 57.5815L280.012 56.5855L273.897 41.0372L272.305 42.0332Z" fill="#E0DEE9" stroke="#151E34" stroke-width="0.5"/>
<path d="M273.575 43.4441L276.314 50.5507L276.733 50.2886L273.994 43.182L273.575 43.4441Z" fill="#AA9A85" stroke="#151E34" stroke-width="0.5"/>
<path d="M306.401 97.8842L335.516 79.6714L309.199 38.4863L280.083 56.6991L306.401 97.8842Z" fill="#E0DEE9" stroke="#151E34" stroke-width="0.5"/>
<path fill-rule="evenodd" clip-rule="evenodd" d="M306.927 62.3341L310.104 67.3063L306.692 69.4406L303.515 64.4684L306.927 62.3341ZM308.161 66.3237L307.417 66.7893L306.676 67.2526L306.671 67.2555C306.668 67.2574 306.665 67.2592 306.662 67.2614C306.654 67.2674 306.648 67.2683 306.643 67.2577C306.642 67.2552 306.64 67.253 306.638 67.2507L306.636 67.2473L306.557 67.1237C306.504 67.0413 306.452 66.9589 306.399 66.8763L306.395 66.8694C306.389 66.8615 306.387 66.8577 306.388 66.8547C306.388 66.8518 306.392 66.8496 306.399 66.8454L306.407 66.8403L307.894 65.9103L307.898 65.9082C307.9 65.9068 307.902 65.9055 307.905 65.9038C307.913 65.8974 307.919 65.8975 307.924 65.9076C307.925 65.9096 307.927 65.9115 307.928 65.9134L307.93 65.9163L308.01 66.0411C308.063 66.1243 308.116 66.2075 308.169 66.2908L308.173 66.2973L308.173 66.2973C308.178 66.304 308.18 66.3074 308.179 66.3102C308.179 66.313 308.175 66.3152 308.168 66.3195L308.168 66.3195L308.161 66.3237ZM306.862 64.2453L307.257 64.8639C307.389 65.07 307.521 65.2762 307.652 65.482L307.655 65.4867C307.657 65.4898 307.659 65.4929 307.661 65.4959C307.666 65.5027 307.664 65.5072 307.658 65.5107C307.656 65.5119 307.654 65.5131 307.652 65.5143L307.649 65.5162L307.293 65.7386L307.29 65.741L307.29 65.741C307.282 65.7458 307.278 65.7481 307.275 65.7474C307.272 65.7467 307.27 65.7431 307.266 65.7361L307.263 65.7313L307.014 65.3427C307.006 65.33 307.002 65.3238 306.997 65.3226C306.992 65.3215 306.986 65.3253 306.974 65.3329L305.877 66.0187L305.872 66.0223C305.866 66.0263 305.862 66.0284 305.86 66.0279C305.857 66.0273 305.854 66.0235 305.849 66.0156L305.847 66.0118L305.843 66.0066L305.609 65.6389C305.601 65.6272 305.597 65.6214 305.598 65.6167C305.599 65.6121 305.605 65.6085 305.616 65.6015L306.713 64.9157L306.719 64.9118C306.726 64.9077 306.73 64.9055 306.73 64.9027C306.731 64.8996 306.728 64.8956 306.723 64.8874L306.72 64.8823L306.467 64.4867C306.456 64.4697 306.456 64.4697 306.473 64.4589L306.478 64.4556L306.827 64.2375L306.833 64.2334C306.841 64.2285 306.845 64.2261 306.848 64.2268C306.851 64.2275 306.853 64.2312 306.858 64.2386L306.862 64.2453Z" fill="#C6C3D1"/>
<path fill-rule="evenodd" clip-rule="evenodd" d="M310.94 68.6148L314.117 73.5869L310.705 75.7212L307.528 70.7491L308.398 68.3735L310.94 68.6148ZM311.262 72.3089L311.229 72.2977C311.229 72.2907 311.231 72.2849 311.233 72.2794L311.234 72.2756C311.25 72.2286 311.265 72.1817 311.28 72.1348C311.311 72.0409 311.341 71.9471 311.372 71.8533C311.378 71.8345 311.384 71.8311 311.403 71.8368C311.417 71.8411 311.432 71.8457 311.446 71.8505C311.57 71.8913 311.685 71.9502 311.784 72.0358C311.85 72.093 311.907 72.1578 311.959 72.2278C312.026 72.3192 312.084 72.4158 312.122 72.5232C312.255 72.8993 312.137 73.3161 311.803 73.565C311.713 73.6321 311.615 73.6836 311.507 73.7173C311.263 73.7933 311.027 73.7746 310.801 73.6519C310.678 73.585 310.576 73.4926 310.492 73.3814C310.421 73.2873 310.364 73.1854 310.324 73.0747C310.257 72.8876 310.24 72.6957 310.265 72.4995C310.267 72.4839 310.273 72.4743 310.287 72.4658C310.455 72.3614 310.622 72.2565 310.79 72.1516L310.79 72.1515L310.916 72.0729C310.918 72.0715 310.92 72.0703 310.922 72.0691L310.922 72.0691C310.928 72.0663 310.933 72.0636 310.936 72.0595C310.94 72.0547 310.945 72.0556 310.95 72.0565C310.954 72.0572 310.957 72.058 310.961 72.0555C310.966 72.0511 310.969 72.0544 310.972 72.059L310.98 72.0712L311.414 72.7505L311.417 72.7546C311.418 72.7574 311.42 72.7602 311.422 72.7627C311.427 72.7693 311.425 72.7737 311.418 72.7773C311.415 72.7787 311.413 72.7805 311.41 72.7823L311.41 72.7823L311.41 72.7823L311.406 72.7849L311.296 72.854C311.222 72.9 311.149 72.9461 311.075 72.992L311.067 72.9971C311.06 73.0014 311.057 73.0037 311.054 73.0031C311.051 73.0025 311.049 72.9987 311.044 72.991L311.044 72.991L311.04 72.9844L310.865 72.7108L310.861 72.7044C310.856 72.6967 310.854 72.693 310.851 72.6924C310.848 72.6918 310.845 72.694 310.838 72.6983L310.83 72.7035C310.814 72.7134 310.798 72.7234 310.782 72.7334L310.782 72.7334L310.782 72.7334L310.758 72.7484L310.758 72.7488C310.725 72.7694 310.724 72.7695 310.729 72.8079C310.742 72.9202 310.789 73.0188 310.861 73.1054C310.941 73.2018 311.044 73.2542 311.17 73.2615C311.251 73.2662 311.329 73.2484 311.402 73.2138C311.496 73.1695 311.573 73.1066 311.627 73.0179C311.692 72.9112 311.715 72.797 311.681 72.6747C311.657 72.589 311.604 72.5198 311.542 72.4576C311.486 72.4012 311.418 72.3644 311.344 72.3373C311.317 72.3272 311.29 72.3181 311.262 72.3089ZM310.343 70.1747C310.594 70.2432 310.787 70.3911 310.916 70.5885C310.974 70.6803 311.01 70.7535 311.038 70.8381C311.117 71.0837 311.103 71.3232 310.983 71.5518C310.86 71.7864 310.665 71.9401 310.41 72.0119C310.124 72.092 309.853 72.0516 309.607 71.8805C309.418 71.749 309.29 71.5706 309.221 71.3534C309.14 71.1012 309.16 70.8561 309.288 70.6238C309.396 70.4279 309.559 70.2916 309.768 70.2091C309.955 70.1349 310.148 70.1217 310.343 70.1747ZM310.535 71.3001C310.621 71.148 310.612 70.9966 310.545 70.8862C310.405 70.6649 310.187 70.599 309.987 70.6685C309.867 70.7103 309.772 70.7847 309.709 70.8953C309.636 71.0255 309.631 71.16 309.697 71.2952C309.76 71.4261 309.863 71.5107 310.008 71.5422C310.1 71.5625 310.191 71.5528 310.278 71.5183C310.388 71.4745 310.477 71.4034 310.535 71.3001Z" fill="#C6C3D1"/>
<rect width="13.354" height="4.02455" transform="matrix(-0.53846 -0.842651 -0.847795 0.530323 314.117 73.5869)" stroke="#151E34" stroke-width="0.5"/>
<path d="M335.408 78.5054L335.516 79.6714L309.187 38.4674L309.078 37.3015L335.408 78.5054Z" fill="#E0DEE9" stroke="#151E34" stroke-width="0.5"/>
<path d="M279.736 55.6565L309.079 37.3014L309.199 38.4862L280.083 56.699L279.736 55.6565Z" fill="#E0DEE9" stroke="#151E34" stroke-width="0.5"/>
<path d="M280.084 56.699L306.401 97.8841C305.522 98.4342 304.356 98.1716 303.798 97.2975L278.491 57.695L280.084 56.699Z" fill="#E0DEE9" stroke="#151E34" stroke-width="0.5"/>
<path d="M138.527 5.56398L135.567 1L128.801 5.29527L128.436 8.74869L128.071 12.2021L131.396 13.3127L138.162 9.01741L138.527 5.56398Z" fill="white"/>
<path d="M138.527 5.56398L135.567 1L128.801 5.29527L128.436 8.74869M138.527 5.56398L138.162 9.01741L131.396 13.3127M138.527 5.56398L131.761 9.85925M131.396 13.3127L131.761 9.85925M131.396 13.3127L128.071 12.2021L128.436 8.74869M131.761 9.85925L128.436 8.74869" stroke="#151E34" stroke-width="0.5"/>
<path d="M129.916 11.0308L126.956 6.4668L120.191 10.7621L119.825 14.2155L122.785 18.7795L129.551 14.4842L129.916 11.0308Z" fill="white"/>
<path d="M129.916 11.0308L126.956 6.4668L120.191 10.7621M129.916 11.0308L129.551 14.4842L122.785 18.7795M129.916 11.0308L123.151 15.326M122.785 18.7795L123.151 15.326M122.785 18.7795L119.825 14.2155L120.191 10.7621M123.151 15.326L120.191 10.7621" stroke="#151E34" stroke-width="0.5"/>
<path d="M131.482 5.32843C131.212 5.50271 131.011 5.7637 130.919 6.10174C130.848 6.36443 130.868 6.62306 130.971 6.87388C131.087 7.15303 131.275 7.37069 131.545 7.51399C131.865 7.68395 132.201 7.70943 132.547 7.59831C132.844 7.50279 133.088 7.3292 133.267 7.07452C133.499 6.74268 133.552 6.37824 133.439 5.99525C133.339 5.65274 133.126 5.39257 132.803 5.22922C132.488 5.06986 132.159 5.05369 131.823 5.16232C131.707 5.19982 131.607 5.24915 131.482 5.32843ZM131.893 5.82344C132.044 5.73224 132.252 5.71877 132.462 5.83287C132.604 5.91023 132.702 6.02872 132.763 6.17681C132.812 6.2937 132.826 6.41542 132.799 6.5397C132.757 6.73368 132.641 6.87266 132.463 6.9595C132.278 7.04949 132.093 7.04366 131.914 6.9461C131.761 6.86293 131.658 6.7358 131.6 6.57475C131.503 6.3077 131.591 6.0144 131.893 5.82344Z" fill="#E0DEE9"/>
<path d="M133.824 4.89232C133.842 4.8396 133.859 4.78818 133.877 4.73749C133.914 4.63787 133.964 4.54533 134.041 4.46943C134.126 4.38553 134.22 4.31461 134.337 4.28171C134.505 4.23461 134.662 4.26401 134.809 4.35026C134.931 4.42215 135.018 4.52531 135.08 4.6509C135.128 4.74938 135.153 4.85309 135.147 4.96291C135.138 5.13162 135.067 5.27095 134.936 5.37922C134.818 5.47678 134.683 5.53991 134.529 5.55897C134.476 5.56546 134.476 5.56507 134.447 5.52032C134.426 5.48822 134.405 5.45651 134.385 5.42426C134.364 5.39154 134.361 5.39823 134.394 5.37707C134.519 5.29801 134.644 5.21896 134.768 5.13975C134.802 5.11843 134.799 5.12497 134.778 5.09264C134.683 4.94489 134.587 4.79743 134.491 4.64983C134.488 4.64444 134.484 4.63912 134.481 4.63343C134.476 4.62431 134.47 4.62159 134.461 4.62857C134.455 4.63252 134.449 4.63568 134.444 4.63915C134.134 4.83566 133.825 5.03217 133.516 5.22853C133.51 5.232 133.504 5.23563 133.499 5.23911C133.493 5.24304 133.488 5.24754 133.494 5.25466C133.502 5.26437 133.488 5.27715 133.5 5.28739C133.508 5.29439 133.512 5.30559 133.519 5.31497C133.7 5.59518 133.882 5.87547 134.063 6.15614C134.075 6.17441 134.088 6.18227 134.11 6.18483C134.379 6.21721 134.643 6.19234 134.899 6.10015C135.05 6.04563 135.19 5.96872 135.318 5.87194C135.47 5.7577 135.596 5.62058 135.686 5.45455C135.853 5.1498 135.876 4.83256 135.77 4.50559C135.723 4.36126 135.651 4.2291 135.558 4.10876C135.213 3.66278 134.64 3.50794 134.126 3.69058C133.978 3.74262 133.846 3.82048 133.722 3.91199C133.626 3.98227 133.538 4.06016 133.46 4.14934C133.343 4.2832 133.263 4.43702 133.209 4.6042C133.202 4.62383 133.196 4.64331 133.19 4.66287C133.183 4.6875 133.187 4.69577 133.213 4.70389C133.342 4.74432 133.471 4.78452 133.6 4.82457C133.665 4.84478 133.729 4.865 133.794 4.88483C133.803 4.88798 133.812 4.89261 133.824 4.89232Z" fill="#E0DEE9"/>
<path d="M131.482 5.32843C131.212 5.50271 131.011 5.7637 130.919 6.10174C130.848 6.36443 130.868 6.62306 130.971 6.87388C131.087 7.15303 131.275 7.37069 131.545 7.51399C131.865 7.68395 132.201 7.70943 132.547 7.59831C132.844 7.50279 133.088 7.3292 133.267 7.07452C133.499 6.74268 133.552 6.37824 133.439 5.99525C133.339 5.65274 133.126 5.39257 132.803 5.22922C132.488 5.06986 132.159 5.05369 131.823 5.16232C131.707 5.19982 131.607 5.24915 131.482 5.32843ZM131.893 5.82344C132.044 5.73224 132.252 5.71877 132.462 5.83287C132.604 5.91023 132.702 6.02872 132.763 6.17681C132.812 6.2937 132.826 6.41542 132.799 6.5397C132.757 6.73368 132.641 6.87266 132.463 6.9595C132.278 7.04949 132.093 7.04366 131.914 6.9461C131.761 6.86293 131.658 6.7358 131.6 6.57475C131.503 6.3077 131.591 6.0144 131.893 5.82344Z" stroke="#151E34" stroke-width="0.5"/>
<path d="M133.824 4.89232C133.842 4.8396 133.859 4.78818 133.877 4.73749C133.914 4.63787 133.964 4.54533 134.041 4.46943C134.126 4.38553 134.22 4.31461 134.337 4.28171C134.505 4.23461 134.662 4.26401 134.809 4.35026C134.931 4.42215 135.018 4.52531 135.08 4.6509C135.128 4.74938 135.153 4.85309 135.147 4.96291C135.138 5.13162 135.067 5.27095 134.936 5.37922C134.818 5.47678 134.683 5.53991 134.529 5.55897C134.476 5.56546 134.476 5.56507 134.447 5.52032C134.426 5.48822 134.405 5.45651 134.385 5.42426C134.364 5.39154 134.361 5.39823 134.394 5.37707C134.519 5.29801 134.644 5.21896 134.768 5.13975C134.802 5.11843 134.799 5.12497 134.778 5.09264C134.683 4.94489 134.587 4.79743 134.491 4.64983C134.488 4.64444 134.484 4.63912 134.481 4.63343C134.476 4.62431 134.47 4.62159 134.461 4.62857C134.455 4.63252 134.449 4.63568 134.444 4.63915C134.134 4.83566 133.825 5.03217 133.516 5.22853C133.51 5.232 133.504 5.23563 133.499 5.23911C133.493 5.24304 133.488 5.24754 133.494 5.25466C133.502 5.26437 133.488 5.27715 133.5 5.28739C133.508 5.29439 133.512 5.30559 133.519 5.31497C133.7 5.59518 133.882 5.87547 134.063 6.15614C134.075 6.17441 134.088 6.18227 134.11 6.18483C134.379 6.21721 134.643 6.19234 134.899 6.10015C135.05 6.04563 135.19 5.96872 135.318 5.87194C135.47 5.7577 135.596 5.62058 135.686 5.45455C135.853 5.1498 135.876 4.83256 135.77 4.50559C135.723 4.36126 135.651 4.2291 135.558 4.10876C135.213 3.66278 134.64 3.50794 134.126 3.69058C133.978 3.74262 133.846 3.82048 133.722 3.91199C133.626 3.98227 133.538 4.06016 133.46 4.14934C133.343 4.2832 133.263 4.43702 133.209 4.6042C133.202 4.62383 133.196 4.64331 133.19 4.66287C133.183 4.6875 133.187 4.69577 133.213 4.70389C133.342 4.74432 133.471 4.78452 133.6 4.82457C133.665 4.84478 133.729 4.865 133.794 4.88483C133.803 4.88798 133.812 4.89261 133.824 4.89232Z" stroke="#151E34" stroke-width="0.5"/>
<path d="M123.648 10.3022C123.367 10.4803 123.087 10.6584 122.806 10.8366C122.774 10.8572 122.775 10.8512 122.796 10.8838C122.897 11.0391 122.997 11.1944 123.098 11.35C123.1 11.3524 123.101 11.3547 123.103 11.357C123.118 11.3796 123.118 11.3796 123.141 11.3649C123.321 11.2509 123.5 11.1371 123.679 11.0232C123.711 11.0028 123.706 11.0027 123.725 11.0324C124.042 11.5212 124.359 12.0101 124.676 12.4989C124.696 12.5293 124.696 12.5293 124.728 12.5093C124.894 12.4035 125.061 12.2977 125.228 12.1917C125.23 12.1902 125.233 12.1887 125.235 12.1872C125.264 12.169 125.262 12.1729 125.244 12.146C124.927 11.6573 124.61 11.1683 124.293 10.6796C124.272 10.6468 124.272 10.6468 124.306 10.6251C124.482 10.5132 124.658 10.4014 124.835 10.2894C124.862 10.2718 124.862 10.2756 124.844 10.2482C124.741 10.0896 124.639 9.93118 124.536 9.77256C124.533 9.76858 124.531 9.76498 124.528 9.76085C124.523 9.75173 124.517 9.74939 124.508 9.75588C124.502 9.76017 124.495 9.76385 124.489 9.76792C124.209 9.94607 123.928 10.1241 123.648 10.3022Z" fill="#E0DEE9"/>
<path d="M126.28 10.0753C126.065 9.74357 125.85 9.41158 125.635 9.07983C125.614 9.04843 125.621 9.04977 125.589 9.06949C125.42 9.17703 125.25 9.28519 125.08 9.39297C125.076 9.39553 125.072 9.39856 125.068 9.4005C125.054 9.40722 125.054 9.41587 125.063 9.42683C125.067 9.43122 125.069 9.4362 125.072 9.44089C125.502 10.1037 125.932 10.7667 126.362 11.4295C126.384 11.4633 126.376 11.4627 126.411 11.4406C126.58 11.3339 126.748 11.2268 126.916 11.1201C126.921 11.1171 126.925 11.1136 126.93 11.1111C126.945 11.1045 126.943 11.0958 126.935 11.0849C126.931 11.0791 126.927 11.0725 126.923 11.0661C126.709 10.7358 126.494 10.4054 126.28 10.0753Z" fill="#E0DEE9"/>
<path d="M123.648 10.3022C123.367 10.4803 123.087 10.6584 122.806 10.8366C122.774 10.8572 122.775 10.8512 122.796 10.8838C122.897 11.0391 122.997 11.1944 123.098 11.35C123.1 11.3524 123.101 11.3547 123.103 11.357C123.118 11.3796 123.118 11.3796 123.141 11.3649C123.321 11.2509 123.5 11.1371 123.679 11.0232C123.711 11.0028 123.706 11.0027 123.725 11.0324C124.042 11.5212 124.359 12.0101 124.676 12.4989C124.696 12.5293 124.696 12.5293 124.728 12.5093C124.894 12.4035 125.061 12.2977 125.228 12.1917C125.23 12.1902 125.233 12.1887 125.235 12.1872C125.264 12.169 125.262 12.1729 125.244 12.146C124.927 11.6573 124.61 11.1683 124.293 10.6796C124.272 10.6468 124.272 10.6468 124.306 10.6251C124.482 10.5132 124.658 10.4014 124.835 10.2894C124.862 10.2718 124.862 10.2756 124.844 10.2482C124.741 10.0896 124.639 9.93118 124.536 9.77256C124.533 9.76858 124.531 9.76498 124.528 9.76085C124.523 9.75173 124.517 9.74939 124.508 9.75588C124.502 9.76017 124.495 9.76385 124.489 9.76792C124.209 9.94607 123.928 10.1241 123.648 10.3022Z" stroke="#151E34" stroke-width="0.5"/>
<path d="M126.28 10.0753C126.065 9.74357 125.85 9.41158 125.635 9.07983C125.614 9.04843 125.621 9.04977 125.589 9.06949C125.42 9.17703 125.25 9.28519 125.08 9.39297C125.076 9.39553 125.072 9.39856 125.068 9.4005C125.054 9.40722 125.054 9.41587 125.063 9.42683C125.067 9.43122 125.069 9.4362 125.072 9.44089C125.502 10.1037 125.932 10.7667 126.362 11.4295C126.384 11.4633 126.376 11.4627 126.411 11.4406C126.58 11.3339 126.748 11.2268 126.916 11.1201C126.921 11.1171 126.925 11.1136 126.93 11.1111C126.945 11.1045 126.943 11.0958 126.935 11.0849C126.931 11.0791 126.927 11.0725 126.923 11.0661C126.709 10.7358 126.494 10.4054 126.28 10.0753Z" stroke="#151E34" stroke-width="0.5"/>
<path d="M153.697 102.104L155.586 95.1293L145.246 92.3882L141.482 95.1281L137.718 97.868L139.593 102.103L149.932 104.844L153.697 102.104Z" fill="white"/>
<path d="M153.697 102.104L155.586 95.1293L145.246 92.3882L141.482 95.1281M153.697 102.104L149.932 104.844L139.593 102.103M153.697 102.104L143.357 99.3631M139.593 102.103L143.357 99.3631M139.593 102.103L137.718 97.868L141.482 95.1281M143.357 99.3631L141.482 95.1281" stroke="#151E34" stroke-width="0.5"/>
<path d="M140.537 98.6158L142.426 91.6409L132.087 88.8998L128.322 91.6397L126.434 98.6146L136.773 101.356L140.537 98.6158Z" fill="white"/>
<path d="M140.537 98.6158L142.426 91.6409L132.087 88.8998M140.537 98.6158L136.773 101.356L126.434 98.6146M140.537 98.6158L130.198 95.8747M126.434 98.6146L130.198 95.8747M126.434 98.6146L128.322 91.6397L132.087 88.8998M130.198 95.8747L132.087 88.8998" stroke="#151E34" stroke-width="0.5"/>
<path d="M147.616 95.0291C147.201 94.9224 146.761 94.9604 146.342 95.1741C146.017 95.3405 145.777 95.5916 145.62 95.9173C145.446 96.2797 145.398 96.6585 145.497 97.0498C145.615 97.5139 145.891 97.8646 146.312 98.1015C146.673 98.3056 147.064 98.3874 147.478 98.3332C148.017 98.2623 148.427 97.9873 148.707 97.5343C148.958 97.129 149.026 96.6885 148.899 96.2273C148.775 95.7778 148.497 95.443 148.087 95.2128C147.946 95.1335 147.807 95.0802 147.616 95.0291ZM147.492 95.874C147.718 95.9393 147.918 96.1296 147.992 96.436C148.043 96.6439 148.013 96.846 147.92 97.0382C147.847 97.19 147.739 97.3128 147.591 97.398C147.36 97.531 147.119 97.5433 146.872 97.4468C146.616 97.3472 146.457 97.1621 146.393 96.9001C146.339 96.677 146.374 96.4627 146.482 96.2615C146.66 95.9274 147.031 95.7506 147.492 95.874Z" fill="#E0DEE9"/>
<path d="M150.15 96.9205C150.218 96.8907 150.284 96.8606 150.352 96.8335C150.484 96.7799 150.62 96.7455 150.765 96.7523C150.924 96.7597 151.08 96.7882 151.218 96.8731C151.415 96.9941 151.526 97.1733 151.572 97.3938C151.61 97.5774 151.585 97.7547 151.516 97.9273C151.461 98.0624 151.38 98.18 151.266 98.2728C151.09 98.4154 150.887 98.4711 150.662 98.4401C150.459 98.4123 150.275 98.3375 150.118 98.2046C150.064 98.1588 150.065 98.1585 150.083 98.0902C150.096 98.0411 150.109 97.9923 150.123 97.9434C150.137 97.8937 150.128 97.897 150.179 97.9105C150.369 97.961 150.559 98.0114 150.75 98.062C150.801 98.0756 150.792 98.079 150.806 98.0296C150.867 97.8041 150.928 97.5785 150.989 97.3529C150.991 97.3447 150.993 97.3359 150.996 97.3278C151.001 97.3149 150.998 97.3064 150.983 97.304C150.974 97.3025 150.966 97.2995 150.957 97.2973C150.484 97.1719 150.011 97.0465 149.539 96.9211C149.53 96.9189 149.522 96.9166 149.513 96.9144C149.504 96.9119 149.495 96.9116 149.493 96.9238C149.491 96.9399 149.465 96.9378 149.466 96.9587C149.466 96.973 149.459 96.9872 149.455 97.0015C149.339 97.4297 149.224 97.8584 149.106 98.2864C149.099 98.3143 149.103 98.3342 149.12 98.3574C149.329 98.6489 149.59 98.883 149.911 99.05C150.101 99.1487 150.303 99.2156 150.514 99.254C150.764 99.2995 151.013 99.2992 151.26 99.2386C151.712 99.1276 152.049 98.8661 152.279 98.4692C152.38 98.2938 152.447 98.1056 152.484 97.9073C152.619 97.1717 152.259 96.4746 151.616 96.1368C151.432 96.0401 151.237 95.9813 151.034 95.9417C150.878 95.9115 150.721 95.8953 150.563 95.8993C150.325 95.9058 150.1 95.966 149.885 96.0623C149.859 96.0736 149.834 96.0851 149.81 96.097C149.779 96.1117 149.774 96.1237 149.79 96.156C149.865 96.318 149.941 96.4797 150.016 96.6414C150.054 96.7224 150.092 96.8034 150.13 96.8842C150.135 96.8959 150.139 96.9091 150.15 96.9205Z" fill="#E0DEE9"/>
<path d="M147.616 95.0291C147.201 94.9224 146.761 94.9604 146.342 95.1741C146.017 95.3405 145.777 95.5916 145.62 95.9173C145.446 96.2797 145.398 96.6585 145.497 97.0498C145.615 97.5139 145.891 97.8646 146.312 98.1015C146.673 98.3056 147.064 98.3874 147.478 98.3332C148.017 98.2623 148.427 97.9873 148.707 97.5343C148.958 97.129 149.026 96.6885 148.899 96.2273C148.775 95.7778 148.497 95.443 148.087 95.2128C147.946 95.1335 147.807 95.0802 147.616 95.0291ZM147.492 95.874C147.718 95.9393 147.918 96.1296 147.992 96.436C148.043 96.6439 148.013 96.846 147.92 97.0382C147.847 97.19 147.739 97.3128 147.591 97.398C147.36 97.531 147.119 97.5433 146.872 97.4468C146.616 97.3472 146.457 97.1621 146.393 96.9001C146.339 96.677 146.374 96.4627 146.482 96.2615C146.66 95.9274 147.031 95.7506 147.492 95.874Z" stroke="#151E34" stroke-width="0.5"/>
<path d="M150.15 96.9205C150.218 96.8907 150.284 96.8606 150.352 96.8335C150.484 96.7799 150.62 96.7455 150.765 96.7523C150.924 96.7597 151.08 96.7882 151.218 96.8731C151.415 96.9941 151.526 97.1733 151.572 97.3938C151.61 97.5774 151.585 97.7547 151.516 97.9273C151.461 98.0624 151.38 98.18 151.266 98.2728C151.09 98.4154 150.887 98.4711 150.662 98.4401C150.459 98.4123 150.275 98.3375 150.118 98.2046C150.064 98.1588 150.065 98.1585 150.083 98.0902C150.096 98.0411 150.109 97.9923 150.123 97.9434C150.137 97.8937 150.128 97.897 150.179 97.9105C150.369 97.961 150.559 98.0114 150.75 98.062C150.801 98.0756 150.792 98.079 150.806 98.0296C150.867 97.8041 150.928 97.5785 150.989 97.3529C150.991 97.3447 150.993 97.3359 150.996 97.3278C151.001 97.3149 150.998 97.3064 150.983 97.304C150.974 97.3025 150.966 97.2995 150.957 97.2973C150.484 97.1719 150.011 97.0465 149.539 96.9211C149.53 96.9189 149.522 96.9166 149.513 96.9144C149.504 96.9119 149.495 96.9116 149.493 96.9238C149.491 96.9399 149.465 96.9378 149.466 96.9587C149.466 96.973 149.459 96.9872 149.455 97.0015C149.339 97.4297 149.224 97.8584 149.106 98.2864C149.099 98.3143 149.103 98.3342 149.12 98.3574C149.329 98.6489 149.59 98.883 149.911 99.05C150.101 99.1487 150.303 99.2156 150.514 99.254C150.764 99.2995 151.013 99.2992 151.26 99.2386C151.712 99.1276 152.049 98.8661 152.279 98.4692C152.38 98.2938 152.447 98.1056 152.484 97.9073C152.619 97.1717 152.259 96.4746 151.616 96.1368C151.432 96.0401 151.237 95.9813 151.034 95.9417C150.878 95.9115 150.721 95.8953 150.563 95.8993C150.325 95.9058 150.1 95.966 149.885 96.0623C149.859 96.0736 149.834 96.0851 149.81 96.097C149.779 96.1117 149.774 96.1237 149.79 96.156C149.865 96.318 149.941 96.4797 150.016 96.6414C150.054 96.7224 150.092 96.8034 150.13 96.8842C150.135 96.8959 150.139 96.9091 150.15 96.9205Z" stroke="#151E34" stroke-width="0.5"/>
<path d="M135.643 91.8559C135.215 91.7422 134.786 91.6286 134.357 91.5148C134.307 91.5017 134.314 91.4974 134.301 91.5472C134.237 91.7845 134.172 92.0219 134.108 92.2597C134.107 92.2633 134.106 92.2669 134.105 92.2704C134.096 92.3053 134.096 92.3053 134.132 92.3147C134.406 92.3874 134.68 92.46 134.954 92.5327C135.003 92.5457 134.998 92.5402 134.986 92.5857C134.784 93.3326 134.581 94.0799 134.379 94.8268C134.366 94.8733 134.366 94.8733 134.415 94.8861C134.669 94.9536 134.924 95.0212 135.179 95.0888C135.183 95.0897 135.186 95.0907 135.19 95.0917C135.234 95.1033 135.228 95.1048 135.239 95.0636C135.441 94.3167 135.644 93.5695 135.846 92.8226C135.86 92.7724 135.86 92.7724 135.912 92.7863C136.181 92.8576 136.45 92.929 136.72 93.0005C136.762 93.0117 136.758 93.0149 136.77 92.973C136.835 92.7306 136.901 92.4885 136.967 92.2461C136.968 92.2401 136.969 92.2342 136.971 92.2282C136.976 92.2153 136.973 92.2071 136.958 92.204C136.948 92.2018 136.939 92.1989 136.929 92.1963C136.501 92.0831 136.072 91.9695 135.643 91.8559Z" fill="#E0DEE9"/>
<path d="M138.229 94.2171C138.366 93.7101 138.504 93.2027 138.641 92.6957C138.654 92.6477 138.658 92.655 138.611 92.6424C138.351 92.5733 138.091 92.5047 137.832 92.436C137.826 92.4343 137.82 92.4334 137.814 92.4312C137.795 92.4238 137.786 92.4315 137.783 92.4499C137.782 92.4572 137.779 92.4642 137.777 92.4714C137.503 93.4843 137.229 94.4976 136.954 95.5105C136.94 95.5621 136.934 95.5544 136.988 95.5685C137.245 95.637 137.502 95.7049 137.759 95.773C137.766 95.7749 137.774 95.7761 137.781 95.7788C137.8 95.787 137.808 95.7779 137.811 95.7599C137.813 95.7504 137.816 95.741 137.819 95.7313C137.956 95.2264 138.092 94.7216 138.229 94.2171Z" fill="#E0DEE9"/>
<path d="M135.643 91.8559C135.215 91.7422 134.786 91.6286 134.357 91.5148C134.307 91.5017 134.314 91.4974 134.301 91.5472C134.237 91.7845 134.172 92.0219 134.108 92.2597C134.107 92.2633 134.106 92.2669 134.105 92.2704C134.096 92.3053 134.096 92.3053 134.132 92.3147C134.406 92.3874 134.68 92.46 134.954 92.5327C135.003 92.5457 134.998 92.5402 134.986 92.5857C134.784 93.3326 134.581 94.0799 134.379 94.8268C134.366 94.8733 134.366 94.8733 134.415 94.8861C134.669 94.9536 134.924 95.0212 135.179 95.0888C135.183 95.0897 135.186 95.0907 135.19 95.0917C135.234 95.1033 135.228 95.1048 135.239 95.0636C135.441 94.3167 135.644 93.5695 135.846 92.8226C135.86 92.7724 135.86 92.7724 135.912 92.7863C136.181 92.8576 136.45 92.929 136.72 93.0005C136.762 93.0117 136.758 93.0149 136.77 92.973C136.835 92.7306 136.901 92.4885 136.967 92.2461C136.968 92.2401 136.969 92.2342 136.971 92.2282C136.976 92.2153 136.973 92.2071 136.958 92.204C136.948 92.2018 136.939 92.1989 136.929 92.1963C136.501 92.0831 136.072 91.9695 135.643 91.8559Z" stroke="#151E34" stroke-width="0.5"/>
<path d="M138.229 94.2171C138.366 93.7101 138.504 93.2027 138.641 92.6957C138.654 92.6477 138.658 92.655 138.611 92.6424C138.351 92.5733 138.091 92.5047 137.832 92.436C137.826 92.4343 137.82 92.4334 137.814 92.4312C137.795 92.4238 137.786 92.4315 137.783 92.4499C137.782 92.4572 137.779 92.4642 137.777 92.4714C137.503 93.4843 137.229 94.4976 136.954 95.5105C136.94 95.5621 136.934 95.5544 136.988 95.5685C137.245 95.637 137.502 95.7049 137.759 95.773C137.766 95.7749 137.774 95.7761 137.781 95.7788C137.8 95.787 137.808 95.7779 137.811 95.7599C137.813 95.7504 137.816 95.741 137.819 95.7313C137.956 95.2264 138.092 94.7216 138.229 94.2171Z" stroke="#151E34" stroke-width="0.5"/>
<path d="M258.493 76.7884L259.901 71.5889L252.193 69.5455L249.387 71.588L246.581 73.6305L247.979 76.7875L255.686 78.8309L258.493 76.7884Z" fill="white"/>
<path d="M258.493 76.7884L259.901 71.5889L252.193 69.5455L249.387 71.588M258.493 76.7884L255.686 78.8309L247.979 76.7875M258.493 76.7884L250.785 74.745M247.979 76.7875L250.785 74.745M247.979 76.7875L246.581 73.6305L249.387 71.588M250.785 74.745L249.387 71.588" stroke="#151E34" stroke-width="0.5"/>
<path d="M248.683 74.1877L250.091 68.9882L242.383 66.9448L239.577 68.9873L238.169 74.1868L245.877 76.2302L248.683 74.1877Z" fill="white"/>
<path d="M248.683 74.1877L250.091 68.9882L242.383 66.9448M248.683 74.1877L245.877 76.2302L238.169 74.1868M248.683 74.1877L240.975 72.1443M238.169 74.1868L240.975 72.1443M238.169 74.1868L239.577 68.9873L242.383 66.9448M240.975 72.1443L242.383 66.9448" stroke="#151E34" stroke-width="0.5"/>
<path d="M253.96 71.5143C253.65 71.4348 253.322 71.4632 253.01 71.6225C252.767 71.7465 252.589 71.9337 252.472 72.1765C252.342 72.4466 252.306 72.729 252.38 73.0207C252.468 73.3667 252.674 73.6281 252.987 73.8047C253.257 73.9568 253.548 74.0178 253.857 73.9774C254.258 73.9246 254.564 73.7195 254.773 73.3819C254.96 73.0798 255.011 72.7514 254.916 72.4076C254.824 72.0725 254.616 71.8229 254.311 71.6513C254.206 71.5922 254.102 71.5524 253.96 71.5143ZM253.867 72.1442C254.036 72.1929 254.185 72.3347 254.24 72.5631C254.278 72.7181 254.256 72.8688 254.187 73.0121C254.132 73.1252 254.051 73.2168 253.941 73.2803C253.769 73.3794 253.589 73.3886 253.405 73.3166C253.214 73.2424 253.095 73.1045 253.048 72.9091C253.008 72.7428 253.033 72.5831 253.114 72.433C253.247 72.184 253.524 72.0522 253.867 72.1442Z" fill="#E0DEE9"/>
<path d="M255.849 72.9243C255.9 72.9021 255.949 72.8796 255.999 72.8595C256.097 72.8195 256.199 72.7939 256.307 72.799C256.426 72.8044 256.542 72.8257 256.644 72.889C256.791 72.9791 256.874 73.1127 256.909 73.2772C256.937 73.414 256.919 73.5461 256.867 73.6748C256.826 73.7755 256.766 73.8632 256.68 73.9324C256.549 74.0387 256.398 74.0802 256.23 74.0571C256.079 74.0364 255.942 73.9807 255.825 73.8815C255.785 73.8474 255.785 73.8472 255.799 73.7962C255.809 73.7597 255.818 73.7233 255.828 73.6868C255.839 73.6498 255.832 73.6523 255.87 73.6623C256.012 73.7 256.154 73.7376 256.296 73.7752C256.334 73.7854 256.327 73.7879 256.337 73.7511C256.383 73.583 256.429 73.4148 256.474 73.2466C256.476 73.2405 256.477 73.234 256.479 73.228C256.483 73.2183 256.481 73.212 256.469 73.2102C256.463 73.2091 256.457 73.2068 256.45 73.2052C256.098 73.1117 255.745 73.0182 255.393 72.9248C255.387 72.9231 255.38 72.9214 255.374 72.9198C255.367 72.9179 255.36 72.9176 255.359 72.9267C255.357 72.9388 255.338 72.9372 255.339 72.9528C255.339 72.9635 255.334 72.974 255.331 72.9847C255.244 73.3039 255.158 73.6235 255.071 73.9425C255.065 73.9633 255.068 73.9781 255.08 73.9955C255.236 74.2128 255.431 74.3873 255.67 74.5117C255.812 74.5854 255.962 74.6352 256.12 74.6638C256.306 74.6977 256.492 74.6975 256.676 74.6524C257.013 74.5696 257.264 74.3747 257.435 74.0788C257.511 73.9481 257.561 73.8078 257.588 73.6599C257.689 73.1116 257.421 72.5919 256.941 72.3401C256.805 72.268 256.659 72.2242 256.507 72.1946C256.391 72.1722 256.274 72.1601 256.156 72.1631C255.979 72.1679 255.812 72.2128 255.651 72.2846C255.632 72.293 255.613 72.3015 255.595 72.3104C255.572 72.3214 255.569 72.3303 255.58 72.3544C255.636 72.4752 255.692 72.5957 255.749 72.7163C255.777 72.7767 255.805 72.837 255.834 72.8972C255.837 72.9059 255.84 72.9158 255.849 72.9243Z" fill="#E0DEE9"/>
<path d="M253.96 71.5143C253.65 71.4348 253.322 71.4632 253.01 71.6225C252.767 71.7465 252.589 71.9337 252.472 72.1765C252.342 72.4466 252.306 72.729 252.38 73.0207C252.468 73.3667 252.674 73.6281 252.987 73.8047C253.257 73.9568 253.548 74.0178 253.857 73.9774C254.258 73.9246 254.564 73.7195 254.773 73.3819C254.96 73.0798 255.011 72.7514 254.916 72.4076C254.824 72.0725 254.616 71.8229 254.311 71.6513C254.206 71.5922 254.102 71.5524 253.96 71.5143ZM253.867 72.1442C254.036 72.1929 254.185 72.3347 254.24 72.5631C254.278 72.7181 254.256 72.8688 254.187 73.0121C254.132 73.1252 254.051 73.2168 253.941 73.2803C253.769 73.3794 253.589 73.3886 253.405 73.3166C253.214 73.2424 253.095 73.1045 253.048 72.9091C253.008 72.7428 253.033 72.5831 253.114 72.433C253.247 72.184 253.524 72.0522 253.867 72.1442Z" stroke="#151E34" stroke-width="0.5"/>
<path d="M255.849 72.9243C255.9 72.9021 255.949 72.8796 255.999 72.8595C256.097 72.8195 256.199 72.7939 256.307 72.799C256.426 72.8044 256.542 72.8257 256.644 72.889C256.791 72.9791 256.874 73.1127 256.909 73.2772C256.937 73.414 256.919 73.5461 256.867 73.6748C256.826 73.7755 256.766 73.8632 256.68 73.9324C256.549 74.0387 256.398 74.0802 256.23 74.0571C256.079 74.0364 255.942 73.9807 255.825 73.8815C255.785 73.8474 255.785 73.8472 255.799 73.7962C255.809 73.7597 255.818 73.7233 255.828 73.6868C255.839 73.6498 255.832 73.6523 255.87 73.6623C256.012 73.7 256.154 73.7376 256.296 73.7752C256.334 73.7854 256.327 73.7879 256.337 73.7511C256.383 73.583 256.429 73.4148 256.474 73.2466C256.476 73.2405 256.477 73.234 256.479 73.228C256.483 73.2183 256.481 73.212 256.469 73.2102C256.463 73.2091 256.457 73.2068 256.45 73.2052C256.098 73.1117 255.745 73.0182 255.393 72.9248C255.387 72.9231 255.38 72.9214 255.374 72.9198C255.367 72.9179 255.36 72.9176 255.359 72.9267C255.357 72.9388 255.338 72.9372 255.339 72.9528C255.339 72.9635 255.334 72.974 255.331 72.9847C255.244 73.3039 255.158 73.6235 255.071 73.9425C255.065 73.9633 255.068 73.9781 255.08 73.9955C255.236 74.2128 255.431 74.3873 255.67 74.5117C255.812 74.5854 255.962 74.6352 256.12 74.6638C256.306 74.6977 256.492 74.6975 256.676 74.6524C257.013 74.5696 257.264 74.3747 257.435 74.0788C257.511 73.9481 257.561 73.8078 257.588 73.6599C257.689 73.1116 257.421 72.5919 256.941 72.3401C256.805 72.268 256.659 72.2242 256.507 72.1946C256.391 72.1722 256.274 72.1601 256.156 72.1631C255.979 72.1679 255.812 72.2128 255.651 72.2846C255.632 72.293 255.613 72.3015 255.595 72.3104C255.572 72.3214 255.569 72.3303 255.58 72.3544C255.636 72.4752 255.692 72.5957 255.749 72.7163C255.777 72.7767 255.805 72.837 255.834 72.8972C255.837 72.9059 255.84 72.9158 255.849 72.9243Z" stroke="#151E34" stroke-width="0.5"/>
<path d="M245.035 69.1484C244.715 69.0637 244.395 68.979 244.076 68.8942C244.039 68.8844 244.044 68.8812 244.034 68.9183C243.986 69.0953 243.938 69.2722 243.89 69.4495C243.889 69.4521 243.889 69.4548 243.888 69.4575C243.881 69.4834 243.881 69.4834 243.908 69.4904C244.112 69.5447 244.316 69.5988 244.521 69.653C244.557 69.6627 244.554 69.6586 244.544 69.6925C244.394 70.2493 244.243 70.8063 244.092 71.3631C244.083 71.3978 244.083 71.3978 244.119 71.4073C244.308 71.4577 244.498 71.508 244.688 71.5584C244.691 71.5591 244.694 71.5599 244.697 71.5606C244.729 71.5692 244.725 71.5704 244.733 71.5397C244.884 70.9829 245.035 70.4258 245.186 69.869C245.196 69.8317 245.196 69.8317 245.235 69.842C245.435 69.8952 245.636 69.9484 245.837 70.0017C245.869 70.0101 245.866 70.0124 245.874 69.9812C245.923 69.8005 245.972 69.6201 246.021 69.4394C246.022 69.4348 246.023 69.4305 246.024 69.426C246.028 69.4163 246.026 69.4103 246.015 69.4079C246.007 69.4063 246 69.4041 245.993 69.4022C245.674 69.3178 245.354 69.2331 245.035 69.1484Z" fill="#E0DEE9"/>
<path d="M246.962 70.9086C247.064 70.5306 247.167 70.1524 247.269 69.7745C247.279 69.7387 247.282 69.7441 247.247 69.7347C247.053 69.6832 246.859 69.6321 246.666 69.5809C246.661 69.5796 246.657 69.579 246.653 69.5773C246.638 69.5718 246.632 69.5775 246.63 69.5912C246.629 69.5967 246.627 69.6019 246.625 69.6072C246.421 70.3624 246.216 71.1177 246.012 71.8728C246.001 71.9113 245.997 71.9055 246.037 71.916C246.228 71.9671 246.42 72.0177 246.612 72.0685C246.617 72.0699 246.623 72.0708 246.628 72.0728C246.642 72.0789 246.648 72.0721 246.65 72.0587C246.652 72.0517 246.654 72.0446 246.656 72.0374C246.758 71.661 246.86 71.2847 246.962 70.9086Z" fill="#E0DEE9"/>
<path d="M245.035 69.1484C244.715 69.0637 244.395 68.979 244.076 68.8942C244.039 68.8844 244.044 68.8812 244.034 68.9183C243.986 69.0953 243.938 69.2722 243.89 69.4495C243.889 69.4521 243.889 69.4548 243.888 69.4575C243.881 69.4834 243.881 69.4834 243.908 69.4904C244.112 69.5447 244.316 69.5988 244.521 69.653C244.557 69.6627 244.554 69.6586 244.544 69.6925C244.394 70.2493 244.243 70.8063 244.092 71.3631C244.083 71.3978 244.083 71.3978 244.119 71.4073C244.308 71.4577 244.498 71.508 244.688 71.5584C244.691 71.5591 244.694 71.5599 244.697 71.5606C244.729 71.5692 244.725 71.5704 244.733 71.5397C244.884 70.9829 245.035 70.4258 245.186 69.869C245.196 69.8317 245.196 69.8317 245.235 69.842C245.435 69.8952 245.636 69.9484 245.837 70.0017C245.869 70.0101 245.866 70.0124 245.874 69.9812C245.923 69.8005 245.972 69.6201 246.021 69.4394C246.022 69.4348 246.023 69.4305 246.024 69.426C246.028 69.4163 246.026 69.4103 246.015 69.4079C246.007 69.4063 246 69.4041 245.993 69.4022C245.674 69.3178 245.354 69.2331 245.035 69.1484Z" stroke="#151E34" stroke-width="0.5"/>
<path d="M246.962 70.9086C247.064 70.5306 247.167 70.1524 247.269 69.7745C247.279 69.7387 247.282 69.7441 247.247 69.7347C247.053 69.6832 246.859 69.6321 246.666 69.5809C246.661 69.5796 246.657 69.579 246.653 69.5773C246.638 69.5718 246.632 69.5775 246.63 69.5912C246.629 69.5967 246.627 69.6019 246.625 69.6072C246.421 70.3624 246.216 71.1177 246.012 71.8728C246.001 71.9113 245.997 71.9055 246.037 71.916C246.228 71.9671 246.42 72.0177 246.612 72.0685C246.617 72.0699 246.623 72.0708 246.628 72.0728C246.642 72.0789 246.648 72.0721 246.65 72.0587C246.652 72.0517 246.654 72.0446 246.656 72.0374C246.758 71.661 246.86 71.2847 246.962 70.9086Z" stroke="#151E34" stroke-width="0.5"/>
<path d="M280.064 10.9661L276.729 7.59729L271.767 12.5571L272.082 15.5941L272.396 18.6312L275.417 18.9629L280.378 14.0032L280.064 10.9661Z" fill="white"/>
<path d="M280.064 10.9661L276.729 7.59729L271.767 12.5571L272.082 15.5941M280.064 10.9661L280.378 14.0032L275.417 18.9629M280.064 10.9661L275.102 15.9259M275.417 18.9629L275.102 15.9259M275.417 18.9629L272.396 18.6312L272.082 15.5941M275.102 15.9259L272.082 15.5941" stroke="#151E34" stroke-width="0.5"/>
<path d="M273.749 17.2785L270.414 13.9097L265.453 18.8694L265.767 21.9065L269.102 25.2753L274.064 20.3155L273.749 17.2785Z" fill="white"/>
<path d="M273.749 17.2785L270.414 13.9097L265.453 18.8694M273.749 17.2785L274.064 20.3155L269.102 25.2753M273.749 17.2785L268.788 22.2382M269.102 25.2753L268.788 22.2382M269.102 25.2753L265.767 21.9065L265.453 18.8694M268.788 22.2382L265.453 18.8694" stroke="#151E34" stroke-width="0.5"/>
<path d="M274.046 12.0834C273.849 12.2837 273.726 12.5458 273.709 12.8535C273.696 13.0926 273.76 13.3112 273.893 13.5075C274.041 13.7259 274.24 13.8776 274.495 13.9503C274.797 14.0364 275.087 13.9953 275.36 13.8351C275.595 13.6973 275.77 13.5024 275.876 13.25C276.013 12.9212 275.992 12.5979 275.827 12.2898C275.68 12.0142 275.452 11.8305 275.149 11.7506C274.853 11.6725 274.571 11.7202 274.306 11.8766C274.214 11.9306 274.138 11.9917 274.046 12.0834ZM274.485 12.4317C274.597 12.3251 274.77 12.2746 274.969 12.3334C275.103 12.3733 275.208 12.4567 275.287 12.5725C275.349 12.664 275.383 12.766 275.382 12.8779C275.382 13.0525 275.309 13.1935 275.173 13.3017C275.032 13.4137 274.875 13.4433 274.705 13.393C274.561 13.3501 274.45 13.2601 274.372 13.1326C274.241 12.9212 274.263 12.6525 274.485 12.4317Z" fill="#E0DEE9"/>
<path d="M275.954 11.2696C275.96 11.2209 275.964 11.1737 275.971 11.1265C275.984 11.034 276.01 10.9452 276.061 10.8655C276.118 10.7775 276.185 10.6989 276.279 10.6486C276.413 10.5767 276.551 10.5726 276.691 10.6192C276.808 10.6581 276.9 10.7304 276.975 10.8269C277.034 10.9025 277.074 10.9869 277.089 11.0824C277.112 11.2291 277.077 11.3622 276.985 11.4799C276.902 11.5859 276.799 11.6654 276.672 11.7107C276.629 11.7262 276.629 11.7258 276.596 11.6928C276.572 11.6691 276.549 11.6457 276.526 11.6219C276.502 11.5977 276.501 11.6039 276.525 11.5795C276.617 11.4882 276.708 11.3969 276.8 11.3055C276.824 11.2808 276.823 11.2869 276.8 11.2631C276.692 11.1539 276.584 11.0452 276.476 10.9362C276.472 10.9322 276.468 10.9284 276.464 10.9241C276.458 10.9172 276.453 10.916 276.446 10.9237C276.443 10.928 276.438 10.9319 276.434 10.9359C276.207 11.1628 275.98 11.3897 275.753 11.6164C275.749 11.6205 275.745 11.6246 275.741 11.6287C275.736 11.6332 275.733 11.6379 275.74 11.6429C275.748 11.6498 275.739 11.6634 275.751 11.67C275.759 11.6744 275.764 11.6833 275.771 11.6902C275.976 11.897 276.181 12.1039 276.385 12.3112C276.399 12.3247 276.411 12.329 276.43 12.3272C276.664 12.3045 276.883 12.2338 277.084 12.1066C277.202 12.0313 277.307 11.9391 277.398 11.8319C277.506 11.7052 277.588 11.5638 277.635 11.4041C277.721 11.1109 277.684 10.8338 277.534 10.5727C277.468 10.4575 277.383 10.3573 277.283 10.2712C276.91 9.95242 276.396 9.92667 275.993 10.1801C275.877 10.2524 275.779 10.3441 275.69 10.4461C275.622 10.5244 275.561 10.6079 275.511 10.6992C275.436 10.8361 275.396 10.9833 275.38 11.1373C275.378 11.1554 275.376 11.1733 275.375 11.1912C275.373 11.2138 275.378 11.22 275.402 11.2221C275.519 11.2327 275.635 11.2431 275.752 11.2533C275.81 11.2586 275.869 11.2639 275.927 11.2689C275.935 11.2699 275.944 11.2721 275.954 11.2696Z" fill="#E0DEE9"/>
<path d="M274.046 12.0834C273.849 12.2837 273.726 12.5458 273.709 12.8535C273.696 13.0926 273.76 13.3112 273.893 13.5075C274.041 13.7259 274.24 13.8776 274.495 13.9503C274.797 14.0364 275.087 13.9953 275.36 13.8351C275.595 13.6973 275.77 13.5024 275.876 13.25C276.013 12.9212 275.992 12.5979 275.827 12.2898C275.68 12.0142 275.452 11.8305 275.149 11.7506C274.853 11.6725 274.571 11.7202 274.306 11.8766C274.214 11.9306 274.138 11.9917 274.046 12.0834ZM274.485 12.4317C274.597 12.3251 274.77 12.2746 274.969 12.3334C275.103 12.3733 275.208 12.4567 275.287 12.5725C275.349 12.664 275.383 12.766 275.382 12.8779C275.382 13.0525 275.309 13.1935 275.173 13.3017C275.032 13.4137 274.875 13.4433 274.705 13.393C274.561 13.3501 274.45 13.2601 274.372 13.1326C274.241 12.9212 274.263 12.6525 274.485 12.4317Z" stroke="#151E34" stroke-width="0.5"/>
<path d="M275.954 11.2696C275.96 11.2209 275.964 11.1737 275.971 11.1265C275.984 11.034 276.01 10.9452 276.061 10.8655C276.118 10.7775 276.185 10.6989 276.279 10.6486C276.413 10.5767 276.551 10.5726 276.691 10.6192C276.808 10.6581 276.9 10.7304 276.975 10.8269C277.034 10.9025 277.074 10.9869 277.089 11.0824C277.112 11.2291 277.077 11.3622 276.985 11.4799C276.902 11.5859 276.799 11.6654 276.672 11.7107C276.629 11.7262 276.629 11.7258 276.596 11.6928C276.572 11.6691 276.549 11.6457 276.526 11.6219C276.502 11.5977 276.501 11.6039 276.525 11.5795C276.617 11.4882 276.708 11.3969 276.8 11.3055C276.824 11.2808 276.823 11.2869 276.8 11.2631C276.692 11.1539 276.584 11.0452 276.476 10.9362C276.472 10.9322 276.468 10.9284 276.464 10.9241C276.458 10.9172 276.453 10.916 276.446 10.9237C276.443 10.928 276.438 10.9319 276.434 10.9359C276.207 11.1628 275.98 11.3897 275.753 11.6164C275.749 11.6205 275.745 11.6246 275.741 11.6287C275.736 11.6332 275.733 11.6379 275.74 11.6429C275.748 11.6498 275.739 11.6634 275.751 11.67C275.759 11.6744 275.764 11.6833 275.771 11.6902C275.976 11.897 276.181 12.1039 276.385 12.3112C276.399 12.3247 276.411 12.329 276.43 12.3272C276.664 12.3045 276.883 12.2338 277.084 12.1066C277.202 12.0313 277.307 11.9391 277.398 11.8319C277.506 11.7052 277.588 11.5638 277.635 11.4041C277.721 11.1109 277.684 10.8338 277.534 10.5727C277.468 10.4575 277.383 10.3573 277.283 10.2712C276.91 9.95242 276.396 9.92667 275.993 10.1801C275.877 10.2524 275.779 10.3441 275.69 10.4461C275.622 10.5244 275.561 10.6079 275.511 10.6992C275.436 10.8361 275.396 10.9833 275.38 11.1373C275.378 11.1554 275.376 11.1733 275.375 11.1912C275.373 11.2138 275.378 11.22 275.402 11.2221C275.519 11.2327 275.635 11.2431 275.752 11.2533C275.81 11.2586 275.869 11.2639 275.927 11.2689C275.935 11.2699 275.944 11.2721 275.954 11.2696Z" stroke="#151E34" stroke-width="0.5"/>
<path d="M268.302 17.8266C268.096 18.0322 267.89 18.2378 267.684 18.4436C267.661 18.4674 267.66 18.4621 267.684 18.4861C267.798 18.6008 267.911 18.7154 268.025 18.8303C268.027 18.832 268.028 18.8337 268.03 18.8354C268.047 18.852 268.047 18.852 268.064 18.835C268.195 18.7034 268.327 18.572 268.459 18.4405C268.482 18.417 268.477 18.4179 268.499 18.4398C268.856 18.8006 269.214 19.1615 269.571 19.5222C269.593 19.5447 269.593 19.5447 269.616 19.5216C269.738 19.3994 269.861 19.2772 269.983 19.1549C269.985 19.1531 269.986 19.1514 269.988 19.1496C270.009 19.1286 270.008 19.1324 269.988 19.1125C269.631 18.7518 269.274 18.3909 268.917 18.0301C268.893 18.0059 268.893 18.0059 268.918 17.9809C269.047 17.8517 269.176 17.7226 269.306 17.5933C269.326 17.573 269.326 17.5762 269.306 17.556C269.191 17.4389 269.075 17.322 268.959 17.2049C268.956 17.202 268.953 17.1994 268.95 17.1963C268.944 17.1894 268.939 17.1885 268.932 17.1958C268.928 17.2007 268.923 17.205 268.918 17.2097C268.713 17.4154 268.507 17.621 268.302 17.8266Z" fill="#E0DEE9"/>
<path d="M270.493 17.1384C270.251 16.8935 270.008 16.6485 269.766 16.4036C269.743 16.3804 269.748 16.3804 269.725 16.4032C269.601 16.5275 269.476 16.6523 269.352 16.7767C269.349 16.7797 269.346 16.783 269.343 16.7854C269.333 16.7937 269.334 16.8012 269.344 16.809C269.347 16.8121 269.35 16.8159 269.354 16.8194C269.838 17.3086 270.323 17.798 270.807 18.2872C270.832 18.3121 270.825 18.313 270.851 18.2875C270.974 18.1642 271.098 18.0407 271.221 17.9174C271.225 17.914 271.228 17.9101 271.231 17.907C271.243 17.8987 271.24 17.8914 271.231 17.8836C271.226 17.8794 271.222 17.8744 271.217 17.8698C270.976 17.6259 270.734 17.3821 270.493 17.1384Z" fill="#E0DEE9"/>
<path d="M268.302 17.8266C268.096 18.0322 267.89 18.2378 267.684 18.4436C267.661 18.4674 267.66 18.4621 267.684 18.4861C267.798 18.6008 267.911 18.7154 268.025 18.8303C268.027 18.832 268.028 18.8337 268.03 18.8354C268.047 18.852 268.047 18.852 268.064 18.835C268.195 18.7034 268.327 18.572 268.459 18.4405C268.482 18.417 268.477 18.4179 268.499 18.4398C268.856 18.8006 269.214 19.1615 269.571 19.5222C269.593 19.5447 269.593 19.5447 269.616 19.5216C269.738 19.3994 269.861 19.2772 269.983 19.1549C269.985 19.1531 269.986 19.1514 269.988 19.1496C270.009 19.1286 270.008 19.1324 269.988 19.1125C269.631 18.7518 269.274 18.3909 268.917 18.0301C268.893 18.0059 268.893 18.0059 268.918 17.9809C269.047 17.8517 269.176 17.7226 269.306 17.5933C269.326 17.573 269.326 17.5762 269.306 17.556C269.191 17.4389 269.075 17.322 268.959 17.2049C268.956 17.202 268.953 17.1994 268.95 17.1963C268.944 17.1894 268.939 17.1885 268.932 17.1958C268.928 17.2007 268.923 17.205 268.918 17.2097C268.713 17.4154 268.507 17.621 268.302 17.8266Z" stroke="#151E34" stroke-width="0.5"/>
<path d="M270.493 17.1384C270.251 16.8935 270.008 16.6485 269.766 16.4036C269.743 16.3804 269.748 16.3804 269.725 16.4032C269.601 16.5275 269.476 16.6523 269.352 16.7767C269.349 16.7797 269.346 16.783 269.343 16.7854C269.333 16.7937 269.334 16.8012 269.344 16.809C269.347 16.8121 269.35 16.8159 269.354 16.8194C269.838 17.3086 270.323 17.798 270.807 18.2872C270.832 18.3121 270.825 18.313 270.851 18.2875C270.974 18.1642 271.098 18.0407 271.221 17.9174C271.225 17.914 271.228 17.9101 271.231 17.907C271.243 17.8987 271.24 17.8914 271.231 17.8836C271.226 17.8794 271.222 17.8744 271.217 17.8698C270.976 17.6259 270.734 17.3821 270.493 17.1384Z" stroke="#151E34" stroke-width="0.5"/>
<path d="M29.7969 94.9456L27.8015 87.5776L16.8795 90.4732L14.8984 94.9468L12.9174 99.4205L16.8938 102.315L27.8159 99.4192L29.7969 94.9456Z" fill="white"/>
<path d="M29.7969 94.9456L27.8015 87.5776L16.8795 90.4732L14.8984 94.9468M29.7969 94.9456L27.8159 99.4192L16.8938 102.315M29.7969 94.9456L18.8749 97.8411M16.8938 102.315L18.8749 97.8411M16.8938 102.315L12.9174 99.4205L14.8984 94.9468M18.8749 97.8411L14.8984 94.9468" stroke="#151E34" stroke-width="0.5"/>
<path d="M15.8962 98.6309L13.9008 91.2629L2.97871 94.1585L0.997656 98.6321L2.99304 106L13.9151 103.105L15.8962 98.6309Z" fill="white"/>
<path d="M15.8962 98.6309L13.9008 91.2629L2.97871 94.1585M15.8962 98.6309L13.9151 103.105L2.99304 106M15.8962 98.6309L4.97409 101.526M2.99304 106L4.97409 101.526M2.99304 106L0.997655 98.6321L2.97871 94.1585M4.97409 101.526L2.97871 94.1585" stroke="#151E34" stroke-width="0.5"/>
<path d="M20.4571 91.6508C20.0203 91.7702 19.638 92.035 19.3691 92.4492C19.1605 92.7713 19.0754 93.1262 19.1057 93.5061C19.1395 93.9289 19.2982 94.3004 19.5978 94.6065C19.9532 94.9695 20.3931 95.146 20.904 95.1431C21.3438 95.1408 21.7454 95.0112 22.0949 94.7455C22.5498 94.3991 22.7783 93.9331 22.7929 93.3723C22.8057 92.8706 22.633 92.432 22.2706 92.0765C21.9175 91.7298 21.4839 91.5691 20.9863 91.5725C20.8149 91.5738 20.6594 91.5976 20.4571 91.6508ZM20.7952 92.4883C21.0368 92.4299 21.321 92.4997 21.5525 92.7411C21.7097 92.905 21.7903 93.1054 21.8082 93.3297C21.8224 93.5067 21.7887 93.6758 21.6989 93.8309C21.5589 94.0732 21.3444 94.2107 21.0671 94.2514C20.7803 94.2938 20.5354 94.2079 20.3373 94.0013C20.169 93.8254 20.0859 93.6115 20.0772 93.371C20.0623 92.972 20.3075 92.6164 20.7952 92.4883Z" fill="#E0DEE9"/>
<path d="M23.7849 92.0569C23.8317 91.9938 23.8759 91.9318 23.9231 91.8719C24.0152 91.7538 24.122 91.6509 24.2577 91.5817C24.4075 91.5051 24.5648 91.45 24.7365 91.4556C24.9812 91.4633 25.1788 91.569 25.3385 91.7468C25.4713 91.8948 25.5435 92.0699 25.5718 92.2642C25.5937 92.4165 25.5827 92.5662 25.5276 92.7109C25.4428 92.9333 25.2875 93.09 25.0645 93.1795C24.8639 93.2602 24.6559 93.2878 24.4413 93.2482C24.3675 93.2345 24.3678 93.2341 24.3483 93.1618C24.3342 93.11 24.3199 93.0587 24.3063 93.0067C24.2924 92.9541 24.2859 92.9619 24.3397 92.9476C24.5407 92.8943 24.7417 92.841 24.9431 92.7876C24.9973 92.7733 24.9912 92.781 24.9771 92.7288C24.9129 92.4904 24.848 92.2522 24.7835 92.0139C24.7811 92.0052 24.7779 91.9963 24.7763 91.9874C24.7737 91.9731 24.7666 91.9669 24.7516 91.9725C24.743 91.9756 24.7336 91.9773 24.7247 91.9796C24.2251 92.1121 23.7254 92.2446 23.2261 92.3769C23.2172 92.3793 23.208 92.3817 23.1992 92.3841C23.1892 92.3867 23.1812 92.3908 23.1861 92.4029C23.1922 92.4192 23.168 92.4304 23.1797 92.4492C23.1877 92.4621 23.1886 92.4789 23.1927 92.494C23.3152 92.9464 23.4382 93.399 23.5595 93.8517C23.5675 93.8812 23.5818 93.8973 23.6095 93.9098C23.9565 94.0671 24.32 94.1451 24.7031 94.1298C24.9297 94.1208 25.1497 94.0767 25.3637 94.0013C25.6165 93.9124 25.8444 93.7819 26.0376 93.5977C26.3922 93.2596 26.5607 92.8444 26.5592 92.3612C26.5582 92.1478 26.5194 91.9404 26.447 91.7399C26.1776 90.9965 25.4766 90.5467 24.7078 90.5738C24.4882 90.5813 24.2776 90.6298 24.0708 90.6997C23.9123 90.7534 23.7603 90.8205 23.6173 90.9071C23.4033 91.0372 23.23 91.2096 23.0842 91.4104C23.0671 91.434 23.0504 91.4575 23.0342 91.4812C23.0134 91.5111 23.0161 91.5241 23.0471 91.5459C23.2027 91.6547 23.3581 91.763 23.5139 91.8713C23.5916 91.9257 23.6694 91.9801 23.7474 92.034C23.7583 92.0421 23.7689 92.0522 23.7849 92.0569Z" fill="#E0DEE9"/>
<path d="M20.4571 91.6508C20.0203 91.7702 19.638 92.035 19.3691 92.4492C19.1605 92.7713 19.0754 93.1262 19.1057 93.5061C19.1395 93.9289 19.2982 94.3004 19.5978 94.6065C19.9532 94.9695 20.3931 95.146 20.904 95.1431C21.3438 95.1408 21.7454 95.0112 22.0949 94.7455C22.5498 94.3991 22.7783 93.9331 22.7929 93.3723C22.8057 92.8706 22.633 92.432 22.2706 92.0765C21.9175 91.7298 21.4839 91.5691 20.9863 91.5725C20.8149 91.5738 20.6594 91.5976 20.4571 91.6508ZM20.7952 92.4883C21.0368 92.4299 21.321 92.4997 21.5525 92.7411C21.7097 92.905 21.7903 93.1054 21.8082 93.3297C21.8224 93.5067 21.7887 93.6758 21.6989 93.8309C21.5589 94.0732 21.3444 94.2107 21.0671 94.2514C20.7803 94.2938 20.5354 94.2079 20.3373 94.0013C20.169 93.8254 20.0859 93.6115 20.0772 93.371C20.0623 92.972 20.3075 92.6164 20.7952 92.4883Z" stroke="#151E34" stroke-width="0.5"/>
<path d="M23.7849 92.0569C23.8317 91.9938 23.8759 91.9318 23.9231 91.8719C24.0152 91.7538 24.122 91.6509 24.2577 91.5817C24.4075 91.5051 24.5648 91.45 24.7365 91.4556C24.9812 91.4633 25.1788 91.569 25.3385 91.7468C25.4713 91.8948 25.5435 92.0699 25.5718 92.2642C25.5937 92.4165 25.5827 92.5662 25.5276 92.7109C25.4428 92.9333 25.2875 93.09 25.0645 93.1795C24.8639 93.2602 24.6559 93.2878 24.4413 93.2482C24.3675 93.2345 24.3678 93.2341 24.3483 93.1618C24.3342 93.11 24.3199 93.0587 24.3063 93.0067C24.2924 92.9541 24.2859 92.9619 24.3397 92.9476C24.5407 92.8943 24.7417 92.841 24.9431 92.7876C24.9973 92.7733 24.9912 92.781 24.9771 92.7288C24.9129 92.4904 24.848 92.2522 24.7835 92.0139C24.7811 92.0052 24.7779 91.9963 24.7763 91.9874C24.7737 91.9731 24.7666 91.9669 24.7516 91.9725C24.743 91.9756 24.7336 91.9773 24.7247 91.9796C24.2251 92.1121 23.7254 92.2446 23.2261 92.3769C23.2172 92.3793 23.208 92.3817 23.1992 92.3841C23.1892 92.3867 23.1812 92.3908 23.1861 92.4029C23.1922 92.4192 23.168 92.4304 23.1797 92.4492C23.1877 92.4621 23.1886 92.4789 23.1927 92.494C23.3152 92.9464 23.4382 93.399 23.5595 93.8517C23.5675 93.8812 23.5818 93.8973 23.6095 93.9098C23.9565 94.0671 24.32 94.1451 24.7031 94.1298C24.9297 94.1208 25.1497 94.0767 25.3637 94.0013C25.6165 93.9124 25.8444 93.7819 26.0376 93.5977C26.3922 93.2596 26.5607 92.8444 26.5592 92.3612C26.5582 92.1478 26.5194 91.9404 26.447 91.7399C26.1776 90.9965 25.4766 90.5467 24.7078 90.5738C24.4882 90.5813 24.2776 90.6298 24.0708 90.6997C23.9123 90.7534 23.7603 90.8205 23.6173 90.9071C23.4033 91.0372 23.23 91.2096 23.0842 91.4104C23.0671 91.434 23.0504 91.4575 23.0342 91.4812C23.0134 91.5111 23.0161 91.5241 23.0471 91.5459C23.2027 91.6547 23.3581 91.763 23.5139 91.8713C23.5916 91.9257 23.6694 91.9801 23.7474 92.034C23.7583 92.0421 23.7689 92.0522 23.7849 92.0569Z" stroke="#151E34" stroke-width="0.5"/>
<path d="M7.81038 95.0039C7.35758 95.1239 6.90477 95.244 6.45158 95.3641C6.39915 95.378 6.40325 95.3705 6.41749 95.423C6.4854 95.6738 6.55331 95.9246 6.62133 96.1757C6.62235 96.1795 6.62337 96.1833 6.6244 96.1871C6.63472 96.2236 6.63472 96.2236 6.67223 96.2137C6.96198 96.1369 7.25135 96.0602 7.5411 95.9834C7.59277 95.9697 7.58552 95.9671 7.59853 96.0152C7.8122 96.8041 8.02598 97.5935 8.23965 98.3825C8.25297 98.4317 8.25296 98.4317 8.30387 98.4182C8.57295 98.3468 8.84203 98.2755 9.1115 98.2041C9.11532 98.2031 9.11915 98.202 9.12298 98.201C9.16929 98.1887 9.16475 98.1932 9.15297 98.1497C8.9393 97.3607 8.72552 96.5713 8.51185 95.7823C8.49751 95.7294 8.49751 95.7294 8.55263 95.7148C8.83702 95.6394 9.12141 95.564 9.40618 95.4885C9.45097 95.4766 9.44903 95.4816 9.43705 95.4373C9.3677 95.1813 9.29845 94.9256 9.22911 94.6695C9.22737 94.6631 9.22535 94.6572 9.22399 94.6506C9.22134 94.6363 9.21404 94.6306 9.19893 94.6354C9.1887 94.6385 9.17865 94.6408 9.16831 94.6435C8.71599 94.7638 8.26319 94.8839 7.81038 95.0039Z" fill="#E0DEE9"/>
<path d="M11.4361 95.8129C11.2911 95.2773 11.1459 94.7414 11.0009 94.2058C10.9872 94.1551 10.9949 94.1595 10.9448 94.1728C10.6706 94.2451 10.3963 94.3182 10.1222 94.3909C10.1157 94.3926 10.1094 94.3951 10.1031 94.396C10.0818 94.3992 10.078 94.4107 10.085 94.4291C10.0878 94.4365 10.0891 94.4443 10.0911 94.4518C10.3809 95.5218 10.6708 96.5922 10.9606 97.6623C10.9753 97.7167 10.9657 97.7128 11.0219 97.6979C11.2938 97.6262 11.5654 97.5538 11.8368 97.4818C11.8445 97.4798 11.8519 97.477 11.8598 97.4758C11.882 97.4731 11.884 97.4608 11.8775 97.4427C11.8741 97.4331 11.8721 97.4226 11.8693 97.4124C11.7249 96.8791 11.5804 96.3458 11.4361 95.8129Z" fill="#E0DEE9"/>
<path d="M7.81038 95.0039C7.35758 95.1239 6.90477 95.244 6.45158 95.3641C6.39915 95.378 6.40325 95.3705 6.41749 95.423C6.4854 95.6738 6.55331 95.9246 6.62133 96.1757C6.62235 96.1795 6.62337 96.1833 6.6244 96.1871C6.63472 96.2236 6.63472 96.2236 6.67223 96.2137C6.96198 96.1369 7.25135 96.0602 7.5411 95.9834C7.59277 95.9697 7.58552 95.9671 7.59853 96.0152C7.8122 96.8041 8.02598 97.5935 8.23965 98.3825C8.25297 98.4317 8.25296 98.4317 8.30387 98.4182C8.57295 98.3468 8.84203 98.2755 9.1115 98.2041C9.11532 98.2031 9.11915 98.202 9.12298 98.201C9.16929 98.1887 9.16475 98.1932 9.15297 98.1497C8.9393 97.3607 8.72552 96.5713 8.51185 95.7823C8.49751 95.7294 8.49751 95.7294 8.55263 95.7148C8.83702 95.6394 9.12141 95.564 9.40618 95.4885C9.45097 95.4766 9.44903 95.4816 9.43705 95.4373C9.3677 95.1813 9.29845 94.9256 9.22911 94.6695C9.22737 94.6631 9.22535 94.6572 9.22399 94.6506C9.22134 94.6363 9.21404 94.6306 9.19893 94.6354C9.1887 94.6385 9.17865 94.6408 9.16831 94.6435C8.71599 94.7638 8.26319 94.8839 7.81038 95.0039Z" stroke="#151E34" stroke-width="0.5"/>
<path d="M11.4361 95.8129C11.2911 95.2773 11.1459 94.7414 11.0009 94.2058C10.9872 94.1551 10.9949 94.1595 10.9448 94.1728C10.6706 94.2451 10.3963 94.3182 10.1222 94.3909C10.1157 94.3926 10.1094 94.3951 10.1031 94.396C10.0818 94.3992 10.078 94.4107 10.085 94.4291C10.0878 94.4365 10.0891 94.4443 10.0911 94.4518C10.3809 95.5218 10.6708 96.5922 10.9606 97.6623C10.9753 97.7167 10.9657 97.7128 11.0219 97.6979C11.2938 97.6262 11.5654 97.5538 11.8368 97.4818C11.8445 97.4798 11.8519 97.477 11.8598 97.4758C11.882 97.4731 11.884 97.4608 11.8775 97.4427C11.8741 97.4331 11.8721 97.4226 11.8693 97.4124C11.7249 96.8791 11.5804 96.3458 11.4361 95.8129Z" stroke="#151E34" stroke-width="0.5"/>
<defs>
<linearGradient id="paint0_linear_65_452" x1="220.906" y1="37.8789" x2="191.744" y2="86.2873" gradientUnits="userSpaceOnUse">
<stop stop-color="#C4C4C4"/>
<stop offset="0.192708" stop-color="#FDA3FF"/>
<stop offset="0.442708" stop-color="#7DFF9A"/>
<stop offset="0.692708" stop-color="#9DB1E5"/>
<stop offset="1" stop-color="#C4C4C4"/>
</linearGradient>
</defs>
</svg>
