<svg width="311" height="200" fill="none" xmlns="http://www.w3.org/2000/svg"><path fill="#89D3C1" d="M57.084 180.913L313.091.154l49.611 70.264-256.007 180.759z"/><path fill="#000" fill-opacity=".05" d="M57.084 180.913L313.091.154l49.611 70.264-256.007 180.759z"/><path stroke="#12A682" stroke-width=".983" d="M57.084 180.913L313.091.154l49.611 70.264-256.007 180.759z"/><mask id="path-2-outside-1_65_532" maskUnits="userSpaceOnUse" x="112.204" y="49.695" width="196.157" height="153.657" fill="#000"><path fill="#fff" d="M112.204 49.695h196.157v153.657H112.204z"/><path d="M133.184 201.107l-18.478-26.17 4.001-2.824 30.64 8.563-1.981 1.399-14.228-20.151 4.822-3.406 18.478 26.17-4 2.825-30.64-8.563 1.981-1.399 14.228 20.151-4.823 3.405zm41.218-28.71c-2.043 1.443-4.171 2.291-6.382 2.545-2.228.229-4.349-.104-6.363-.998-2.013-.894-3.715-2.325-5.105-4.294-1.408-1.994-2.187-4.077-2.339-6.248a11.985 11.985 0 011.216-6.293c.979-1.999 2.491-3.719 4.534-5.162 2.069-1.461 4.209-2.318 6.42-2.572 2.236-.272 4.339.036 6.31.923 1.996.869 3.706 2.313 5.132 4.332 1.39 1.969 2.169 4.051 2.338 6.248.194 2.179-.202 4.289-1.189 6.33-.979 1.998-2.503 3.728-4.572 5.189zm-2.824-4.001c1.147-.809 1.992-1.78 2.538-2.912.545-1.132.733-2.347.562-3.647-.145-1.316-.666-2.61-1.564-3.881-.915-1.296-1.96-2.221-3.134-2.773-1.168-.595-2.376-.825-3.625-.69s-2.435.598-3.556 1.39c-1.147.81-1.993 1.78-2.538 2.912-.52 1.115-.708 2.33-.562 3.647.127 1.292.649 2.586 1.564 3.882.897 1.271 1.942 2.195 3.134 2.773 1.192.577 2.401.807 3.625.69 1.249-.135 2.434-.599 3.556-1.391zm13.397-16.518l-2.746-3.888 10.281-7.259 2.746 3.888-10.281 7.259zm33.312-10.467c-2.094 1.478-4.271 2.362-6.532 2.651-2.253.247-4.387-.077-6.4-.971-2.013-.894-3.715-2.326-5.105-4.295-1.408-1.994-2.188-4.076-2.339-6.248-.169-2.196.249-4.303 1.253-6.319 1.029-2.034 2.59-3.79 4.684-5.268 1.944-1.373 3.933-2.179 5.966-2.42 2.041-.283 3.985.063 5.831 1.037l-2.111 4.628c-1.267-.525-2.495-.703-3.684-.536a7.13 7.13 0 00-3.242 1.28c-1.146.81-2.004 1.789-2.575 2.939-.57 1.15-.782 2.383-.637 3.699.128 1.292.649 2.586 1.564 3.882.915 1.296 1.969 2.233 3.161 2.81a6.611 6.611 0 003.673.6c1.274-.152 2.485-.633 3.631-1.443a7.119 7.119 0 002.291-2.626c.556-1.065.799-2.282.728-3.651l5.067-.441c.283 2.041-.032 4.001-.947 5.879-.907 1.836-2.333 3.44-4.277 4.813zm23.487-16.584c-2.044 1.443-4.171 2.292-6.382 2.546-2.229.229-4.35-.104-6.363-.998-2.013-.894-3.715-2.326-5.105-4.295-1.408-1.993-2.188-4.076-2.339-6.248a11.962 11.962 0 011.216-6.292c.979-1.999 2.49-3.72 4.534-5.163 2.069-1.46 4.209-2.317 6.42-2.571 2.236-.272 4.339.036 6.31.923 1.995.869 3.706 2.313 5.131 4.332 1.391 1.969 2.17 4.051 2.339 6.248.194 2.178-.202 4.288-1.189 6.33-.979 1.998-2.503 3.728-4.572 5.188zm-2.824-4c1.146-.809 1.992-1.78 2.537-2.912.546-1.132.733-2.348.563-3.647-.145-1.316-.667-2.61-1.564-3.881-.915-1.296-1.96-2.221-3.135-2.773-1.167-.596-2.375-.826-3.624-.691-1.25.136-2.435.599-3.556 1.391-1.147.809-1.993 1.78-2.538 2.912-.521 1.115-.708 2.33-.563 3.647.128 1.292.649 2.585 1.564 3.881.898 1.272 1.943 2.196 3.135 2.773 1.192.578 2.4.808 3.625.691 1.249-.135 2.434-.599 3.556-1.391zm28.64-14.227c-1.919 1.355-3.95 2.154-6.094 2.398a11.687 11.687 0 01-6.123-1.055c-1.946-.905-3.649-2.391-5.11-4.46-1.46-2.069-2.291-4.171-2.492-6.307a11.343 11.343 0 011.081-6.086c.947-1.939 2.38-3.585 4.299-4.94 1.67-1.18 3.429-1.862 5.278-2.047 1.832-.21 3.661.16 5.49 1.11 1.828.95 3.57 2.597 5.224 4.94 1.637 2.317 2.618 4.5 2.944 6.549.308 2.023.065 3.875-.728 5.556-.793 1.68-2.049 3.127-3.769 4.342zm-2.264-4.397c1.122-.792 1.943-1.745 2.463-2.86.546-1.131.746-2.356.6-3.672-.12-1.334-.629-2.637-1.526-3.908-.916-1.296-1.973-2.212-3.172-2.747-1.192-.577-2.413-.799-3.662-.664-1.225.118-2.398.572-3.519 1.364-1.122.792-1.955 1.754-2.5 2.886-.521 1.115-.721 2.34-.6 3.673.127 1.292.649 2.586 1.564 3.882.897 1.271 1.942 2.195 3.134 2.773 1.217.56 2.438.781 3.662.664 1.25-.135 2.435-.599 3.556-1.391zm8.697-.537l-3.326-4.711-3.562-5.44-4.122-5.046-8.764-12.412 4.636-3.273 19.587 27.74-4.449 3.142zm22.411-15.432c-2.218 1.566-4.47 2.502-6.756 2.81-2.278.263-4.424-.052-6.438-.946-1.988-.912-3.677-2.352-5.067-4.321-1.408-1.994-2.213-4.059-2.414-6.195a11.824 11.824 0 011.103-6.213c.955-1.982 2.429-3.676 4.423-5.084 1.944-1.372 3.975-2.172 6.094-2.398 2.118-.226 4.159.126 6.123 1.055 1.963.93 3.684 2.44 5.162 4.535.141.199.287.432.438.699.176.25.331.495.464.736L282.93 82.66l-2.191-3.103 14.169-10.004-1.146 2.265c-.784-1.164-1.734-2.006-2.848-2.526a6.65 6.65 0 00-3.508-.605c-1.2.1-2.36.546-3.482 1.338-1.146.81-1.98 1.771-2.5 2.886-.495 1.096-.676 2.27-.541 3.519.143 1.206.636 2.408 1.481 3.604l.528.748c.845 1.196 1.867 2.062 3.066 2.597 1.2.535 2.474.7 3.823.494 1.349-.205 2.671-.765 3.967-1.68 1.122-.792 2.008-1.68 2.659-2.662.651-.983 1.061-2.094 1.231-3.334l4.538 1.11c-.159 1.68-.721 3.29-1.687 4.832-.959 1.499-2.31 2.864-4.055 4.096z"/></mask><path d="M133.184 201.107l-18.478-26.17 4.001-2.824 30.64 8.563-1.981 1.399-14.228-20.151 4.822-3.406 18.478 26.17-4 2.825-30.64-8.563 1.981-1.399 14.228 20.151-4.823 3.405zm41.218-28.71c-2.043 1.443-4.171 2.291-6.382 2.545-2.228.229-4.349-.104-6.363-.998-2.013-.894-3.715-2.325-5.105-4.294-1.408-1.994-2.187-4.077-2.339-6.248a11.985 11.985 0 011.216-6.293c.979-1.999 2.491-3.719 4.534-5.162 2.069-1.461 4.209-2.318 6.42-2.572 2.236-.272 4.339.036 6.31.923 1.996.869 3.706 2.313 5.132 4.332 1.39 1.969 2.169 4.051 2.338 6.248.194 2.179-.202 4.289-1.189 6.33-.979 1.998-2.503 3.728-4.572 5.189zm-2.824-4.001c1.147-.809 1.992-1.78 2.538-2.912.545-1.132.733-2.347.562-3.647-.145-1.316-.666-2.61-1.564-3.881-.915-1.296-1.96-2.221-3.134-2.773-1.168-.595-2.376-.825-3.625-.69s-2.435.598-3.556 1.39c-1.147.81-1.993 1.78-2.538 2.912-.52 1.115-.708 2.33-.562 3.647.127 1.292.649 2.586 1.564 3.882.897 1.271 1.942 2.195 3.134 2.773 1.192.577 2.401.807 3.625.69 1.249-.135 2.434-.599 3.556-1.391zm13.397-16.518l-2.746-3.888 10.281-7.259 2.746 3.888-10.281 7.259zm33.312-10.467c-2.094 1.478-4.271 2.362-6.532 2.651-2.253.247-4.387-.077-6.4-.971-2.013-.894-3.715-2.326-5.105-4.295-1.408-1.994-2.188-4.076-2.339-6.248-.169-2.196.249-4.303 1.253-6.319 1.029-2.034 2.59-3.79 4.684-5.268 1.944-1.373 3.933-2.179 5.966-2.42 2.041-.283 3.985.063 5.831 1.037l-2.111 4.628c-1.267-.525-2.495-.703-3.684-.536a7.13 7.13 0 00-3.242 1.28c-1.146.81-2.004 1.789-2.575 2.939-.57 1.15-.782 2.383-.637 3.699.128 1.292.649 2.586 1.564 3.882.915 1.296 1.969 2.233 3.161 2.81a6.611 6.611 0 003.673.6c1.274-.152 2.485-.633 3.631-1.443a7.119 7.119 0 002.291-2.626c.556-1.065.799-2.282.728-3.651l5.067-.441c.283 2.041-.032 4.001-.947 5.879-.907 1.836-2.333 3.44-4.277 4.813zm23.487-16.584c-2.044 1.443-4.171 2.292-6.382 2.546-2.229.229-4.35-.104-6.363-.998-2.013-.894-3.715-2.326-5.105-4.295-1.408-1.993-2.188-4.076-2.339-6.248a11.962 11.962 0 011.216-6.292c.979-1.999 2.49-3.72 4.534-5.163 2.069-1.46 4.209-2.317 6.42-2.571 2.236-.272 4.339.036 6.31.923 1.995.869 3.706 2.313 5.131 4.332 1.391 1.969 2.17 4.051 2.339 6.248.194 2.178-.202 4.288-1.189 6.33-.979 1.998-2.503 3.728-4.572 5.188zm-2.824-4c1.146-.809 1.992-1.78 2.537-2.912.546-1.132.733-2.348.563-3.647-.145-1.316-.667-2.61-1.564-3.881-.915-1.296-1.96-2.221-3.135-2.773-1.167-.596-2.375-.826-3.624-.691-1.25.136-2.435.599-3.556 1.391-1.147.809-1.993 1.78-2.538 2.912-.521 1.115-.708 2.33-.563 3.647.128 1.292.649 2.585 1.564 3.881.898 1.272 1.943 2.196 3.135 2.773 1.192.578 2.4.808 3.625.691 1.249-.135 2.434-.599 3.556-1.391zm28.64-14.227c-1.919 1.355-3.95 2.154-6.094 2.398a11.687 11.687 0 01-6.123-1.055c-1.946-.905-3.649-2.391-5.11-4.46-1.46-2.069-2.291-4.171-2.492-6.307a11.343 11.343 0 011.081-6.086c.947-1.939 2.38-3.585 4.299-4.94 1.67-1.18 3.429-1.862 5.278-2.047 1.832-.21 3.661.16 5.49 1.11 1.828.95 3.57 2.597 5.224 4.94 1.637 2.317 2.618 4.5 2.944 6.549.308 2.023.065 3.875-.728 5.556-.793 1.68-2.049 3.127-3.769 4.342zm-2.264-4.397c1.122-.792 1.943-1.745 2.463-2.86.546-1.131.746-2.356.6-3.672-.12-1.334-.629-2.637-1.526-3.908-.916-1.296-1.973-2.212-3.172-2.747-1.192-.577-2.413-.799-3.662-.664-1.225.118-2.398.572-3.519 1.364-1.122.792-1.955 1.754-2.5 2.886-.521 1.115-.721 2.34-.6 3.673.127 1.292.649 2.586 1.564 3.882.897 1.271 1.942 2.195 3.134 2.773 1.217.56 2.438.781 3.662.664 1.25-.135 2.435-.599 3.556-1.391zm8.697-.537l-3.326-4.711-3.562-5.44-4.122-5.046-8.764-12.412 4.636-3.273 19.587 27.74-4.449 3.142zm22.411-15.432c-2.218 1.566-4.47 2.502-6.756 2.81-2.278.263-4.424-.052-6.438-.946-1.988-.912-3.677-2.352-5.067-4.321-1.408-1.994-2.213-4.059-2.414-6.195a11.824 11.824 0 011.103-6.213c.955-1.982 2.429-3.676 4.423-5.084 1.944-1.372 3.975-2.172 6.094-2.398 2.118-.226 4.159.126 6.123 1.055 1.963.93 3.684 2.44 5.162 4.535.141.199.287.432.438.699.176.25.331.495.464.736L282.93 82.66l-2.191-3.103 14.169-10.004-1.146 2.265c-.784-1.164-1.734-2.006-2.848-2.526a6.65 6.65 0 00-3.508-.605c-1.2.1-2.36.546-3.482 1.338-1.146.81-1.98 1.771-2.5 2.886-.495 1.096-.676 2.27-.541 3.519.143 1.206.636 2.408 1.481 3.604l.528.748c.845 1.196 1.867 2.062 3.066 2.597 1.2.535 2.474.7 3.823.494 1.349-.205 2.671-.765 3.967-1.68 1.122-.792 2.008-1.68 2.659-2.662.651-.983 1.061-2.094 1.231-3.334l4.538 1.11c-.159 1.68-.721 3.29-1.687 4.832-.959 1.499-2.31 2.864-4.055 4.096z" fill="#fff"/><path d="M133.184 201.107l-18.478-26.17 4.001-2.824 30.64 8.563-1.981 1.399-14.228-20.151 4.822-3.406 18.478 26.17-4 2.825-30.64-8.563 1.981-1.399 14.228 20.151-4.823 3.405zm41.218-28.71c-2.043 1.443-4.171 2.291-6.382 2.545-2.228.229-4.349-.104-6.363-.998-2.013-.894-3.715-2.325-5.105-4.294-1.408-1.994-2.187-4.077-2.339-6.248a11.985 11.985 0 011.216-6.293c.979-1.999 2.491-3.719 4.534-5.162 2.069-1.461 4.209-2.318 6.42-2.572 2.236-.272 4.339.036 6.31.923 1.996.869 3.706 2.313 5.132 4.332 1.39 1.969 2.169 4.051 2.338 6.248.194 2.179-.202 4.289-1.189 6.33-.979 1.998-2.503 3.728-4.572 5.189zm-2.824-4.001c1.147-.809 1.992-1.78 2.538-2.912.545-1.132.733-2.347.562-3.647-.145-1.316-.666-2.61-1.564-3.881-.915-1.296-1.96-2.221-3.134-2.773-1.168-.595-2.376-.825-3.625-.69s-2.435.598-3.556 1.39c-1.147.81-1.993 1.78-2.538 2.912-.52 1.115-.708 2.33-.562 3.647.127 1.292.649 2.586 1.564 3.882.897 1.271 1.942 2.195 3.134 2.773 1.192.577 2.401.807 3.625.69 1.249-.135 2.434-.599 3.556-1.391zm13.397-16.518l-2.746-3.888 10.281-7.259 2.746 3.888-10.281 7.259zm33.312-10.467c-2.094 1.478-4.271 2.362-6.532 2.651-2.253.247-4.387-.077-6.4-.971-2.013-.894-3.715-2.326-5.105-4.295-1.408-1.994-2.188-4.076-2.339-6.248-.169-2.196.249-4.303 1.253-6.319 1.029-2.034 2.59-3.79 4.684-5.268 1.944-1.373 3.933-2.179 5.966-2.42 2.041-.283 3.985.063 5.831 1.037l-2.111 4.628c-1.267-.525-2.495-.703-3.684-.536a7.13 7.13 0 00-3.242 1.28c-1.146.81-2.004 1.789-2.575 2.939-.57 1.15-.782 2.383-.637 3.699.128 1.292.649 2.586 1.564 3.882.915 1.296 1.969 2.233 3.161 2.81a6.611 6.611 0 003.673.6c1.274-.152 2.485-.633 3.631-1.443a7.119 7.119 0 002.291-2.626c.556-1.065.799-2.282.728-3.651l5.067-.441c.283 2.041-.032 4.001-.947 5.879-.907 1.836-2.333 3.44-4.277 4.813zm23.487-16.584c-2.044 1.443-4.171 2.292-6.382 2.546-2.229.229-4.35-.104-6.363-.998-2.013-.894-3.715-2.326-5.105-4.295-1.408-1.993-2.188-4.076-2.339-6.248a11.962 11.962 0 011.216-6.292c.979-1.999 2.49-3.72 4.534-5.163 2.069-1.46 4.209-2.317 6.42-2.571 2.236-.272 4.339.036 6.31.923 1.995.869 3.706 2.313 5.131 4.332 1.391 1.969 2.17 4.051 2.339 6.248.194 2.178-.202 4.288-1.189 6.33-.979 1.998-2.503 3.728-4.572 5.188zm-2.824-4c1.146-.809 1.992-1.78 2.537-2.912.546-1.132.733-2.348.563-3.647-.145-1.316-.667-2.61-1.564-3.881-.915-1.296-1.96-2.221-3.135-2.773-1.167-.596-2.375-.826-3.624-.691-1.25.136-2.435.599-3.556 1.391-1.147.809-1.993 1.78-2.538 2.912-.521 1.115-.708 2.33-.563 3.647.128 1.292.649 2.585 1.564 3.881.898 1.272 1.943 2.196 3.135 2.773 1.192.578 2.4.808 3.625.691 1.249-.135 2.434-.599 3.556-1.391zm28.64-14.227c-1.919 1.355-3.95 2.154-6.094 2.398a11.687 11.687 0 01-6.123-1.055c-1.946-.905-3.649-2.391-5.11-4.46-1.46-2.069-2.291-4.171-2.492-6.307a11.343 11.343 0 011.081-6.086c.947-1.939 2.38-3.585 4.299-4.94 1.67-1.18 3.429-1.862 5.278-2.047 1.832-.21 3.661.16 5.49 1.11 1.828.95 3.57 2.597 5.224 4.94 1.637 2.317 2.618 4.5 2.944 6.549.308 2.023.065 3.875-.728 5.556-.793 1.68-2.049 3.127-3.769 4.342zm-2.264-4.397c1.122-.792 1.943-1.745 2.463-2.86.546-1.131.746-2.356.6-3.672-.12-1.334-.629-2.637-1.526-3.908-.916-1.296-1.973-2.212-3.172-2.747-1.192-.577-2.413-.799-3.662-.664-1.225.118-2.398.572-3.519 1.364-1.122.792-1.955 1.754-2.5 2.886-.521 1.115-.721 2.34-.6 3.673.127 1.292.649 2.586 1.564 3.882.897 1.271 1.942 2.195 3.134 2.773 1.217.56 2.438.781 3.662.664 1.25-.135 2.435-.599 3.556-1.391zm8.697-.537l-3.326-4.711-3.562-5.44-4.122-5.046-8.764-12.412 4.636-3.273 19.587 27.74-4.449 3.142zm22.411-15.432c-2.218 1.566-4.47 2.502-6.756 2.81-2.278.263-4.424-.052-6.438-.946-1.988-.912-3.677-2.352-5.067-4.321-1.408-1.994-2.213-4.059-2.414-6.195a11.824 11.824 0 011.103-6.213c.955-1.982 2.429-3.676 4.423-5.084 1.944-1.372 3.975-2.172 6.094-2.398 2.118-.226 4.159.126 6.123 1.055 1.963.93 3.684 2.44 5.162 4.535.141.199.287.432.438.699.176.25.331.495.464.736L282.93 82.66l-2.191-3.103 14.169-10.004-1.146 2.265c-.784-1.164-1.734-2.006-2.848-2.526a6.65 6.65 0 00-3.508-.605c-1.2.1-2.36.546-3.482 1.338-1.146.81-1.98 1.771-2.5 2.886-.495 1.096-.676 2.27-.541 3.519.143 1.206.636 2.408 1.481 3.604l.528.748c.845 1.196 1.867 2.062 3.066 2.597 1.2.535 2.474.7 3.823.494 1.349-.205 2.671-.765 3.967-1.68 1.122-.792 2.008-1.68 2.659-2.662.651-.983 1.061-2.094 1.231-3.334l4.538 1.11c-.159 1.68-.721 3.29-1.687 4.832-.959 1.499-2.31 2.864-4.055 4.096z" fill="#000" fill-opacity=".05"/><path d="M133.184 201.107l-18.478-26.17 4.001-2.824 30.64 8.563-1.981 1.399-14.228-20.151 4.822-3.406 18.478 26.17-4 2.825-30.64-8.563 1.981-1.399 14.228 20.151-4.823 3.405zm41.218-28.71c-2.043 1.443-4.171 2.291-6.382 2.545-2.228.229-4.349-.104-6.363-.998-2.013-.894-3.715-2.325-5.105-4.294-1.408-1.994-2.187-4.077-2.339-6.248a11.985 11.985 0 011.216-6.293c.979-1.999 2.491-3.719 4.534-5.162 2.069-1.461 4.209-2.318 6.42-2.572 2.236-.272 4.339.036 6.31.923 1.996.869 3.706 2.313 5.132 4.332 1.39 1.969 2.169 4.051 2.338 6.248.194 2.179-.202 4.289-1.189 6.33-.979 1.998-2.503 3.728-4.572 5.189zm-2.824-4.001c1.147-.809 1.992-1.78 2.538-2.912.545-1.132.733-2.347.562-3.647-.145-1.316-.666-2.61-1.564-3.881-.915-1.296-1.96-2.221-3.134-2.773-1.168-.595-2.376-.825-3.625-.69s-2.435.598-3.556 1.39c-1.147.81-1.993 1.78-2.538 2.912-.52 1.115-.708 2.33-.562 3.647.127 1.292.649 2.586 1.564 3.882.897 1.271 1.942 2.195 3.134 2.773 1.192.577 2.401.807 3.625.69 1.249-.135 2.434-.599 3.556-1.391zm13.397-16.518l-2.746-3.888 10.281-7.259 2.746 3.888-10.281 7.259zm33.312-10.467c-2.094 1.478-4.271 2.362-6.532 2.651-2.253.247-4.387-.077-6.4-.971-2.013-.894-3.715-2.326-5.105-4.295-1.408-1.994-2.188-4.076-2.339-6.248-.169-2.196.249-4.303 1.253-6.319 1.029-2.034 2.59-3.79 4.684-5.268 1.944-1.373 3.933-2.179 5.966-2.42 2.041-.283 3.985.063 5.831 1.037l-2.111 4.628c-1.267-.525-2.495-.703-3.684-.536a7.13 7.13 0 00-3.242 1.28c-1.146.81-2.004 1.789-2.575 2.939-.57 1.15-.782 2.383-.637 3.699.128 1.292.649 2.586 1.564 3.882.915 1.296 1.969 2.233 3.161 2.81a6.611 6.611 0 003.673.6c1.274-.152 2.485-.633 3.631-1.443a7.119 7.119 0 002.291-2.626c.556-1.065.799-2.282.728-3.651l5.067-.441c.283 2.041-.032 4.001-.947 5.879-.907 1.836-2.333 3.44-4.277 4.813zm23.487-16.584c-2.044 1.443-4.171 2.292-6.382 2.546-2.229.229-4.35-.104-6.363-.998-2.013-.894-3.715-2.326-5.105-4.295-1.408-1.993-2.188-4.076-2.339-6.248a11.962 11.962 0 011.216-6.292c.979-1.999 2.49-3.72 4.534-5.163 2.069-1.46 4.209-2.317 6.42-2.571 2.236-.272 4.339.036 6.31.923 1.995.869 3.706 2.313 5.131 4.332 1.391 1.969 2.17 4.051 2.339 6.248.194 2.178-.202 4.288-1.189 6.33-.979 1.998-2.503 3.728-4.572 5.188zm-2.824-4c1.146-.809 1.992-1.78 2.537-2.912.546-1.132.733-2.348.563-3.647-.145-1.316-.667-2.61-1.564-3.881-.915-1.296-1.96-2.221-3.135-2.773-1.167-.596-2.375-.826-3.624-.691-1.25.136-2.435.599-3.556 1.391-1.147.809-1.993 1.78-2.538 2.912-.521 1.115-.708 2.33-.563 3.647.128 1.292.649 2.585 1.564 3.881.898 1.272 1.943 2.196 3.135 2.773 1.192.578 2.4.808 3.625.691 1.249-.135 2.434-.599 3.556-1.391zm28.64-14.227c-1.919 1.355-3.95 2.154-6.094 2.398a11.687 11.687 0 01-6.123-1.055c-1.946-.905-3.649-2.391-5.11-4.46-1.46-2.069-2.291-4.171-2.492-6.307a11.343 11.343 0 011.081-6.086c.947-1.939 2.38-3.585 4.299-4.94 1.67-1.18 3.429-1.862 5.278-2.047 1.832-.21 3.661.16 5.49 1.11 1.828.95 3.57 2.597 5.224 4.94 1.637 2.317 2.618 4.5 2.944 6.549.308 2.023.065 3.875-.728 5.556-.793 1.68-2.049 3.127-3.769 4.342zm-2.264-4.397c1.122-.792 1.943-1.745 2.463-2.86.546-1.131.746-2.356.6-3.672-.12-1.334-.629-2.637-1.526-3.908-.916-1.296-1.973-2.212-3.172-2.747-1.192-.577-2.413-.799-3.662-.664-1.225.118-2.398.572-3.519 1.364-1.122.792-1.955 1.754-2.5 2.886-.521 1.115-.721 2.34-.6 3.673.127 1.292.649 2.586 1.564 3.882.897 1.271 1.942 2.195 3.134 2.773 1.217.56 2.438.781 3.662.664 1.25-.135 2.435-.599 3.556-1.391zm8.697-.537l-3.326-4.711-3.562-5.44-4.122-5.046-8.764-12.412 4.636-3.273 19.587 27.74-4.449 3.142zm22.411-15.432c-2.218 1.566-4.47 2.502-6.756 2.81-2.278.263-4.424-.052-6.438-.946-1.988-.912-3.677-2.352-5.067-4.321-1.408-1.994-2.213-4.059-2.414-6.195a11.824 11.824 0 011.103-6.213c.955-1.982 2.429-3.676 4.423-5.084 1.944-1.372 3.975-2.172 6.094-2.398 2.118-.226 4.159.126 6.123 1.055 1.963.93 3.684 2.44 5.162 4.535.141.199.287.432.438.699.176.25.331.495.464.736L282.93 82.66l-2.191-3.103 14.169-10.004-1.146 2.265c-.784-1.164-1.734-2.006-2.848-2.526a6.65 6.65 0 00-3.508-.605c-1.2.1-2.36.546-3.482 1.338-1.146.81-1.98 1.771-2.5 2.886-.495 1.096-.676 2.27-.541 3.519.143 1.206.636 2.408 1.481 3.604l.528.748c.845 1.196 1.867 2.062 3.066 2.597 1.2.535 2.474.7 3.823.494 1.349-.205 2.671-.765 3.967-1.68 1.122-.792 2.008-1.68 2.659-2.662.651-.983 1.061-2.094 1.231-3.334l4.538 1.11c-.159 1.68-.721 3.29-1.687 4.832-.959 1.499-2.31 2.864-4.055 4.096z" stroke="#12A682" stroke-width="1.966" mask="url(#path-2-outside-1_65_532)"/><path d="M69.538 255.667L.691 205.288 202.638-63.966l68.847 50.379L69.538 255.667z" fill="#89D3C1" stroke="#12A682" stroke-width=".983"/><mask id="path-4-outside-2_65_532" maskUnits="userSpaceOnUse" x="68.421" y="-8.928" width="154.246" height="192.346" fill="#000"><path fill="#fff" d="M68.421-8.928h154.246v192.346H68.421z"/><path d="M97.002 181.833l-25.645-18.765 2.869-3.92 31.515-1.633-1.421 1.941-19.746-14.449 3.458-4.726 25.645 18.765-2.869 3.92-31.515 1.634 1.42-1.942 19.747 14.45-3.458 4.725zm29.68-40.021c-1.465 2.002-3.197 3.472-5.196 4.41-2.023.92-4.122 1.277-6.298 1.073-2.175-.204-4.228-1.013-6.157-2.424-1.954-1.43-3.345-3.142-4.174-5.136a11.875 11.875 0 01-.846-6.3c.289-2.189 1.166-4.285 2.632-6.287 1.483-2.028 3.224-3.51 5.223-4.448 2.016-.961 4.091-1.337 6.224-1.126 2.151.186 4.216 1.004 6.194 2.451 1.93 1.412 3.321 3.124 4.174 5.136.871 1.987 1.165 4.096.883 6.327-.289 2.189-1.176 4.296-2.659 6.324zm-3.92-2.869c.822-1.123 1.311-2.303 1.466-3.54.155-1.237-.053-2.439-.624-3.607-.553-1.192-1.452-2.243-2.697-3.155-1.27-.929-2.545-1.468-3.824-1.616-1.285-.191-2.494-.025-3.626.496-1.132.522-2.1 1.333-2.904 2.432-.822 1.123-1.311 2.303-1.466 3.54-.137 1.212.071 2.414.624 3.606.528 1.174 1.427 2.226 2.697 3.156 1.246.911 2.521 1.45 3.824 1.616 1.303.166 2.512.001 3.626-.497 1.132-.521 2.1-1.332 2.904-2.431zm7.375-19.764l-3.81-2.788 7.372-10.075 3.811 2.788-7.373 10.075zm28.013-20.37c-1.501 2.051-3.269 3.57-5.303 4.556-2.041.944-4.149 1.314-6.325 1.11-2.175-.205-4.228-1.013-6.157-2.425-1.954-1.429-3.345-3.141-4.174-5.135-.853-2.012-1.126-4.124-.819-6.337.325-2.238 1.238-4.382 2.739-6.434 1.394-1.905 3.009-3.292 4.845-4.16 1.829-.912 3.766-1.201 5.81-.868l-.522 5.018c-1.357-.093-2.568.127-3.633.66a7.067 7.067 0 00-2.644 2.229c-.822 1.123-1.319 2.315-1.492 3.577-.173 1.26.017 2.487.57 3.68.528 1.173 1.427 2.225 2.697 3.154 1.27.93 2.557 1.478 3.861 1.644a6.563 6.563 0 003.643-.597c1.149-.546 2.135-1.381 2.957-2.504a7.069 7.069 0 001.325-3.194c.186-1.177.029-2.398-.47-3.663l4.625-2.016c.911 1.83 1.234 3.772.968 5.828-.273 2.012-1.107 3.971-2.501 5.876zm16.842-23.016c-1.465 2.002-3.197 3.472-5.196 4.41-2.023.92-4.122 1.277-6.298 1.073-2.175-.204-4.228-1.013-6.157-2.424-1.954-1.43-3.345-3.142-4.174-5.136a11.876 11.876 0 01-.846-6.3c.289-2.189 1.166-4.285 2.632-6.287 1.483-2.027 3.224-3.51 5.223-4.447 2.016-.963 4.091-1.338 6.224-1.127 2.151.187 4.216 1.004 6.194 2.451 1.93 1.412 3.321 3.124 4.174 5.136.871 1.987 1.165 4.096.883 6.327-.289 2.189-1.176 4.297-2.659 6.324zm-3.92-2.869c.822-1.123 1.311-2.303 1.466-3.54.155-1.237-.053-2.439-.624-3.606-.553-1.193-1.452-2.244-2.697-3.156-1.27-.93-2.545-1.468-3.824-1.616-1.285-.191-2.494-.025-3.626.496-1.132.522-2.1 1.333-2.904 2.432-.822 1.123-1.311 2.303-1.466 3.54-.137 1.212.071 2.414.624 3.606.528 1.174 1.427 2.226 2.697 3.156 1.246.911 2.521 1.45 3.824 1.616 1.303.166 2.512 0 3.626-.496 1.132-.522 2.1-1.333 2.904-2.432zm22.432-22.429c-1.376 1.88-3.034 3.274-4.972 4.18a11.588 11.588 0 01-6.091.944c-2.115-.235-4.186-1.095-6.213-2.578-2.027-1.483-3.473-3.197-4.337-5.142a11.252 11.252 0 01-.907-6.064c.277-2.122 1.104-4.123 2.481-6.004 1.197-1.636 2.636-2.834 4.316-3.592 1.655-.776 3.493-1.007 5.512-.691 2.019.315 4.177 1.312 6.473 2.992 2.271 1.662 3.884 3.405 4.837 5.228.93 1.805 1.287 3.623 1.072 5.453-.214 1.83-.938 3.589-2.171 5.274zm-3.518-3.418c.804-1.1 1.275-2.255 1.412-3.467.155-1.237-.044-2.451-.597-3.643-.535-1.216-1.425-2.28-2.671-3.192-1.27-.93-2.553-1.456-3.85-1.58-1.303-.166-2.521.012-3.653.533-1.114.498-2.073 1.296-2.877 2.395-.804 1.1-1.284 2.267-1.439 3.504-.137 1.212.062 2.426.597 3.643.528 1.174 1.428 2.226 2.698 3.155 1.245.912 2.52 1.45 3.823 1.617 1.321.141 2.539-.036 3.653-.534 1.132-.522 2.1-1.332 2.904-2.431zm8.006-3.254l-4.616-3.378-5.068-3.99-5.47-3.44-12.163-8.9 3.324-4.543 27.184 19.891-3.191 4.36zm16.195-21.593c-1.591 2.174-3.412 3.766-5.464 4.777-2.059.968-4.176 1.35-6.352 1.146-2.157-.229-4.201-1.049-6.13-2.46-1.954-1.43-3.363-3.118-4.228-5.063a11.728 11.728 0 01-.926-6.19c.271-2.165 1.121-4.224 2.551-6.178 1.394-1.905 3.052-3.298 4.972-4.18 1.921-.883 3.951-1.197 6.091-.944 2.139.253 4.235 1.13 6.287 2.632.195.143.406.316.632.519.245.179.468.36.67.546l-11.93 16.303-3.041-2.226L207.48 7.029l-.362 2.492c-1.105-.847-2.264-1.338-3.476-1.475a6.595 6.595 0 00-3.49.54c-1.096.473-2.046 1.259-2.85 2.358-.822 1.123-1.302 2.291-1.439 3.504-.119 1.188.082 2.347.604 3.48.515 1.089 1.359 2.063 2.531 2.92l.733.537c1.172.857 2.407 1.348 3.704 1.472 1.297.124 2.547-.124 3.75-.743 1.203-.62 2.27-1.564 3.199-2.834.804-1.1 1.357-2.214 1.659-3.343.301-1.13.336-2.304.103-3.524l4.617-.39c.383 1.63.363 3.321-.058 5.076-.428 1.712-1.267 3.422-2.518 5.132z"/></mask><path d="M97.002 181.833l-25.645-18.765 2.869-3.92 31.515-1.633-1.421 1.941-19.746-14.449 3.458-4.726 25.645 18.765-2.869 3.92-31.515 1.634 1.42-1.942 19.747 14.45-3.458 4.725zm29.68-40.021c-1.465 2.002-3.197 3.472-5.196 4.41-2.023.92-4.122 1.277-6.298 1.073-2.175-.204-4.228-1.013-6.157-2.424-1.954-1.43-3.345-3.142-4.174-5.136a11.875 11.875 0 01-.846-6.3c.289-2.189 1.166-4.285 2.632-6.287 1.483-2.028 3.224-3.51 5.223-4.448 2.016-.961 4.091-1.337 6.224-1.126 2.151.186 4.216 1.004 6.194 2.451 1.93 1.412 3.321 3.124 4.174 5.136.871 1.987 1.165 4.096.883 6.327-.289 2.189-1.176 4.296-2.659 6.324zm-3.92-2.869c.822-1.123 1.311-2.303 1.466-3.54.155-1.237-.053-2.439-.624-3.607-.553-1.192-1.452-2.243-2.697-3.155-1.27-.929-2.545-1.468-3.824-1.616-1.285-.191-2.494-.025-3.626.496-1.132.522-2.1 1.333-2.904 2.432-.822 1.123-1.311 2.303-1.466 3.54-.137 1.212.071 2.414.624 3.606.528 1.174 1.427 2.226 2.697 3.156 1.246.911 2.521 1.45 3.824 1.616 1.303.166 2.512.001 3.626-.497 1.132-.521 2.1-1.332 2.904-2.431zm7.375-19.764l-3.81-2.788 7.372-10.075 3.811 2.788-7.373 10.075zm28.013-20.37c-1.501 2.051-3.269 3.57-5.303 4.556-2.041.944-4.149 1.314-6.325 1.11-2.175-.205-4.228-1.013-6.157-2.425-1.954-1.429-3.345-3.141-4.174-5.135-.853-2.012-1.126-4.124-.819-6.337.325-2.238 1.238-4.382 2.739-6.434 1.394-1.905 3.009-3.292 4.845-4.16 1.829-.912 3.766-1.201 5.81-.868l-.522 5.018c-1.357-.093-2.568.127-3.633.66a7.067 7.067 0 00-2.644 2.229c-.822 1.123-1.319 2.315-1.492 3.577-.173 1.26.017 2.487.57 3.68.528 1.173 1.427 2.225 2.697 3.154 1.27.93 2.557 1.478 3.861 1.644a6.563 6.563 0 003.643-.597c1.149-.546 2.135-1.381 2.957-2.504a7.069 7.069 0 001.325-3.194c.186-1.177.029-2.398-.47-3.663l4.625-2.016c.911 1.83 1.234 3.772.968 5.828-.273 2.012-1.107 3.971-2.501 5.876zm16.842-23.016c-1.465 2.002-3.197 3.472-5.196 4.41-2.023.92-4.122 1.277-6.298 1.073-2.175-.204-4.228-1.013-6.157-2.424-1.954-1.43-3.345-3.142-4.174-5.136a11.876 11.876 0 01-.846-6.3c.289-2.189 1.166-4.285 2.632-6.287 1.483-2.027 3.224-3.51 5.223-4.447 2.016-.963 4.091-1.338 6.224-1.127 2.151.187 4.216 1.004 6.194 2.451 1.93 1.412 3.321 3.124 4.174 5.136.871 1.987 1.165 4.096.883 6.327-.289 2.189-1.176 4.297-2.659 6.324zm-3.92-2.869c.822-1.123 1.311-2.303 1.466-3.54.155-1.237-.053-2.439-.624-3.606-.553-1.193-1.452-2.244-2.697-3.156-1.27-.93-2.545-1.468-3.824-1.616-1.285-.191-2.494-.025-3.626.496-1.132.522-2.1 1.333-2.904 2.432-.822 1.123-1.311 2.303-1.466 3.54-.137 1.212.071 2.414.624 3.606.528 1.174 1.427 2.226 2.697 3.156 1.246.911 2.521 1.45 3.824 1.616 1.303.166 2.512 0 3.626-.496 1.132-.522 2.1-1.333 2.904-2.432zm22.432-22.429c-1.376 1.88-3.034 3.274-4.972 4.18a11.588 11.588 0 01-6.091.944c-2.115-.235-4.186-1.095-6.213-2.578-2.027-1.483-3.473-3.197-4.337-5.142a11.252 11.252 0 01-.907-6.064c.277-2.122 1.104-4.123 2.481-6.004 1.197-1.636 2.636-2.834 4.316-3.592 1.655-.776 3.493-1.007 5.512-.691 2.019.315 4.177 1.312 6.473 2.992 2.271 1.662 3.884 3.405 4.837 5.228.93 1.805 1.287 3.623 1.072 5.453-.214 1.83-.938 3.589-2.171 5.274zm-3.518-3.418c.804-1.1 1.275-2.255 1.412-3.467.155-1.237-.044-2.451-.597-3.643-.535-1.216-1.425-2.28-2.671-3.192-1.27-.93-2.553-1.456-3.85-1.58-1.303-.166-2.521.012-3.653.533-1.114.498-2.073 1.296-2.877 2.395-.804 1.1-1.284 2.267-1.439 3.504-.137 1.212.062 2.426.597 3.643.528 1.174 1.428 2.226 2.698 3.155 1.245.912 2.52 1.45 3.823 1.617 1.321.141 2.539-.036 3.653-.534 1.132-.522 2.1-1.332 2.904-2.431zm8.006-3.254l-4.616-3.378-5.068-3.99-5.47-3.44-12.163-8.9 3.324-4.543 27.184 19.891-3.191 4.36zm16.195-21.593c-1.591 2.174-3.412 3.766-5.464 4.777-2.059.968-4.176 1.35-6.352 1.146-2.157-.229-4.201-1.049-6.13-2.46-1.954-1.43-3.363-3.118-4.228-5.063a11.728 11.728 0 01-.926-6.19c.271-2.165 1.121-4.224 2.551-6.178 1.394-1.905 3.052-3.298 4.972-4.18 1.921-.883 3.951-1.197 6.091-.944 2.139.253 4.235 1.13 6.287 2.632.195.143.406.316.632.519.245.179.468.36.67.546l-11.93 16.303-3.041-2.226L207.48 7.029l-.362 2.492c-1.105-.847-2.264-1.338-3.476-1.475a6.595 6.595 0 00-3.49.54c-1.096.473-2.046 1.259-2.85 2.358-.822 1.123-1.302 2.291-1.439 3.504-.119 1.188.082 2.347.604 3.48.515 1.089 1.359 2.063 2.531 2.92l.733.537c1.172.857 2.407 1.348 3.704 1.472 1.297.124 2.547-.124 3.75-.743 1.203-.62 2.27-1.564 3.199-2.834.804-1.1 1.357-2.214 1.659-3.343.301-1.13.336-2.304.103-3.524l4.617-.39c.383 1.63.363 3.321-.058 5.076-.428 1.712-1.267 3.422-2.518 5.132z" fill="#fff"/><path d="M97.002 181.833l-25.645-18.765 2.869-3.92 31.515-1.633-1.421 1.941-19.746-14.449 3.458-4.726 25.645 18.765-2.869 3.92-31.515 1.634 1.42-1.942 19.747 14.45-3.458 4.725zm29.68-40.021c-1.465 2.002-3.197 3.472-5.196 4.41-2.023.92-4.122 1.277-6.298 1.073-2.175-.204-4.228-1.013-6.157-2.424-1.954-1.43-3.345-3.142-4.174-5.136a11.875 11.875 0 01-.846-6.3c.289-2.189 1.166-4.285 2.632-6.287 1.483-2.028 3.224-3.51 5.223-4.448 2.016-.961 4.091-1.337 6.224-1.126 2.151.186 4.216 1.004 6.194 2.451 1.93 1.412 3.321 3.124 4.174 5.136.871 1.987 1.165 4.096.883 6.327-.289 2.189-1.176 4.296-2.659 6.324zm-3.92-2.869c.822-1.123 1.311-2.303 1.466-3.54.155-1.237-.053-2.439-.624-3.607-.553-1.192-1.452-2.243-2.697-3.155-1.27-.929-2.545-1.468-3.824-1.616-1.285-.191-2.494-.025-3.626.496-1.132.522-2.1 1.333-2.904 2.432-.822 1.123-1.311 2.303-1.466 3.54-.137 1.212.071 2.414.624 3.606.528 1.174 1.427 2.226 2.697 3.156 1.246.911 2.521 1.45 3.824 1.616 1.303.166 2.512.001 3.626-.497 1.132-.521 2.1-1.332 2.904-2.431zm7.375-19.764l-3.81-2.788 7.372-10.075 3.811 2.788-7.373 10.075zm28.013-20.37c-1.501 2.051-3.269 3.57-5.303 4.556-2.041.944-4.149 1.314-6.325 1.11-2.175-.205-4.228-1.013-6.157-2.425-1.954-1.429-3.345-3.141-4.174-5.135-.853-2.012-1.126-4.124-.819-6.337.325-2.238 1.238-4.382 2.739-6.434 1.394-1.905 3.009-3.292 4.845-4.16 1.829-.912 3.766-1.201 5.81-.868l-.522 5.018c-1.357-.093-2.568.127-3.633.66a7.067 7.067 0 00-2.644 2.229c-.822 1.123-1.319 2.315-1.492 3.577-.173 1.26.017 2.487.57 3.68.528 1.173 1.427 2.225 2.697 3.154 1.27.93 2.557 1.478 3.861 1.644a6.563 6.563 0 003.643-.597c1.149-.546 2.135-1.381 2.957-2.504a7.069 7.069 0 001.325-3.194c.186-1.177.029-2.398-.47-3.663l4.625-2.016c.911 1.83 1.234 3.772.968 5.828-.273 2.012-1.107 3.971-2.501 5.876zm16.842-23.016c-1.465 2.002-3.197 3.472-5.196 4.41-2.023.92-4.122 1.277-6.298 1.073-2.175-.204-4.228-1.013-6.157-2.424-1.954-1.43-3.345-3.142-4.174-5.136a11.876 11.876 0 01-.846-6.3c.289-2.189 1.166-4.285 2.632-6.287 1.483-2.027 3.224-3.51 5.223-4.447 2.016-.963 4.091-1.338 6.224-1.127 2.151.187 4.216 1.004 6.194 2.451 1.93 1.412 3.321 3.124 4.174 5.136.871 1.987 1.165 4.096.883 6.327-.289 2.189-1.176 4.297-2.659 6.324zm-3.92-2.869c.822-1.123 1.311-2.303 1.466-3.54.155-1.237-.053-2.439-.624-3.606-.553-1.193-1.452-2.244-2.697-3.156-1.27-.93-2.545-1.468-3.824-1.616-1.285-.191-2.494-.025-3.626.496-1.132.522-2.1 1.333-2.904 2.432-.822 1.123-1.311 2.303-1.466 3.54-.137 1.212.071 2.414.624 3.606.528 1.174 1.427 2.226 2.697 3.156 1.246.911 2.521 1.45 3.824 1.616 1.303.166 2.512 0 3.626-.496 1.132-.522 2.1-1.333 2.904-2.432zm22.432-22.429c-1.376 1.88-3.034 3.274-4.972 4.18a11.588 11.588 0 01-6.091.944c-2.115-.235-4.186-1.095-6.213-2.578-2.027-1.483-3.473-3.197-4.337-5.142a11.252 11.252 0 01-.907-6.064c.277-2.122 1.104-4.123 2.481-6.004 1.197-1.636 2.636-2.834 4.316-3.592 1.655-.776 3.493-1.007 5.512-.691 2.019.315 4.177 1.312 6.473 2.992 2.271 1.662 3.884 3.405 4.837 5.228.93 1.805 1.287 3.623 1.072 5.453-.214 1.83-.938 3.589-2.171 5.274zm-3.518-3.418c.804-1.1 1.275-2.255 1.412-3.467.155-1.237-.044-2.451-.597-3.643-.535-1.216-1.425-2.28-2.671-3.192-1.27-.93-2.553-1.456-3.85-1.58-1.303-.166-2.521.012-3.653.533-1.114.498-2.073 1.296-2.877 2.395-.804 1.1-1.284 2.267-1.439 3.504-.137 1.212.062 2.426.597 3.643.528 1.174 1.428 2.226 2.698 3.155 1.245.912 2.52 1.45 3.823 1.617 1.321.141 2.539-.036 3.653-.534 1.132-.522 2.1-1.332 2.904-2.431zm8.006-3.254l-4.616-3.378-5.068-3.99-5.47-3.44-12.163-8.9 3.324-4.543 27.184 19.891-3.191 4.36zm16.195-21.593c-1.591 2.174-3.412 3.766-5.464 4.777-2.059.968-4.176 1.35-6.352 1.146-2.157-.229-4.201-1.049-6.13-2.46-1.954-1.43-3.363-3.118-4.228-5.063a11.728 11.728 0 01-.926-6.19c.271-2.165 1.121-4.224 2.551-6.178 1.394-1.905 3.052-3.298 4.972-4.18 1.921-.883 3.951-1.197 6.091-.944 2.139.253 4.235 1.13 6.287 2.632.195.143.406.316.632.519.245.179.468.36.67.546l-11.93 16.303-3.041-2.226L207.48 7.029l-.362 2.492c-1.105-.847-2.264-1.338-3.476-1.475a6.595 6.595 0 00-3.49.54c-1.096.473-2.046 1.259-2.85 2.358-.822 1.123-1.302 2.291-1.439 3.504-.119 1.188.082 2.347.604 3.48.515 1.089 1.359 2.063 2.531 2.92l.733.537c1.172.857 2.407 1.348 3.704 1.472 1.297.124 2.547-.124 3.75-.743 1.203-.62 2.27-1.564 3.199-2.834.804-1.1 1.357-2.214 1.659-3.343.301-1.13.336-2.304.103-3.524l4.617-.39c.383 1.63.363 3.321-.058 5.076-.428 1.712-1.267 3.422-2.518 5.132z" fill="#000" fill-opacity=".05"/><path d="M97.002 181.833l-25.645-18.765 2.869-3.92 31.515-1.633-1.421 1.941-19.746-14.449 3.458-4.726 25.645 18.765-2.869 3.92-31.515 1.634 1.42-1.942 19.747 14.45-3.458 4.725zm29.68-40.021c-1.465 2.002-3.197 3.472-5.196 4.41-2.023.92-4.122 1.277-6.298 1.073-2.175-.204-4.228-1.013-6.157-2.424-1.954-1.43-3.345-3.142-4.174-5.136a11.875 11.875 0 01-.846-6.3c.289-2.189 1.166-4.285 2.632-6.287 1.483-2.028 3.224-3.51 5.223-4.448 2.016-.961 4.091-1.337 6.224-1.126 2.151.186 4.216 1.004 6.194 2.451 1.93 1.412 3.321 3.124 4.174 5.136.871 1.987 1.165 4.096.883 6.327-.289 2.189-1.176 4.296-2.659 6.324zm-3.92-2.869c.822-1.123 1.311-2.303 1.466-3.54.155-1.237-.053-2.439-.624-3.607-.553-1.192-1.452-2.243-2.697-3.155-1.27-.929-2.545-1.468-3.824-1.616-1.285-.191-2.494-.025-3.626.496-1.132.522-2.1 1.333-2.904 2.432-.822 1.123-1.311 2.303-1.466 3.54-.137 1.212.071 2.414.624 3.606.528 1.174 1.427 2.226 2.697 3.156 1.246.911 2.521 1.45 3.824 1.616 1.303.166 2.512.001 3.626-.497 1.132-.521 2.1-1.332 2.904-2.431zm7.375-19.764l-3.81-2.788 7.372-10.075 3.811 2.788-7.373 10.075zm28.013-20.37c-1.501 2.051-3.269 3.57-5.303 4.556-2.041.944-4.149 1.314-6.325 1.11-2.175-.205-4.228-1.013-6.157-2.425-1.954-1.429-3.345-3.141-4.174-5.135-.853-2.012-1.126-4.124-.819-6.337.325-2.238 1.238-4.382 2.739-6.434 1.394-1.905 3.009-3.292 4.845-4.16 1.829-.912 3.766-1.201 5.81-.868l-.522 5.018c-1.357-.093-2.568.127-3.633.66a7.067 7.067 0 00-2.644 2.229c-.822 1.123-1.319 2.315-1.492 3.577-.173 1.26.017 2.487.57 3.68.528 1.173 1.427 2.225 2.697 3.154 1.27.93 2.557 1.478 3.861 1.644a6.563 6.563 0 003.643-.597c1.149-.546 2.135-1.381 2.957-2.504a7.069 7.069 0 001.325-3.194c.186-1.177.029-2.398-.47-3.663l4.625-2.016c.911 1.83 1.234 3.772.968 5.828-.273 2.012-1.107 3.971-2.501 5.876zm16.842-23.016c-1.465 2.002-3.197 3.472-5.196 4.41-2.023.92-4.122 1.277-6.298 1.073-2.175-.204-4.228-1.013-6.157-2.424-1.954-1.43-3.345-3.142-4.174-5.136a11.876 11.876 0 01-.846-6.3c.289-2.189 1.166-4.285 2.632-6.287 1.483-2.027 3.224-3.51 5.223-4.447 2.016-.963 4.091-1.338 6.224-1.127 2.151.187 4.216 1.004 6.194 2.451 1.93 1.412 3.321 3.124 4.174 5.136.871 1.987 1.165 4.096.883 6.327-.289 2.189-1.176 4.297-2.659 6.324zm-3.92-2.869c.822-1.123 1.311-2.303 1.466-3.54.155-1.237-.053-2.439-.624-3.606-.553-1.193-1.452-2.244-2.697-3.156-1.27-.93-2.545-1.468-3.824-1.616-1.285-.191-2.494-.025-3.626.496-1.132.522-2.1 1.333-2.904 2.432-.822 1.123-1.311 2.303-1.466 3.54-.137 1.212.071 2.414.624 3.606.528 1.174 1.427 2.226 2.697 3.156 1.246.911 2.521 1.45 3.824 1.616 1.303.166 2.512 0 3.626-.496 1.132-.522 2.1-1.333 2.904-2.432zm22.432-22.429c-1.376 1.88-3.034 3.274-4.972 4.18a11.588 11.588 0 01-6.091.944c-2.115-.235-4.186-1.095-6.213-2.578-2.027-1.483-3.473-3.197-4.337-5.142a11.252 11.252 0 01-.907-6.064c.277-2.122 1.104-4.123 2.481-6.004 1.197-1.636 2.636-2.834 4.316-3.592 1.655-.776 3.493-1.007 5.512-.691 2.019.315 4.177 1.312 6.473 2.992 2.271 1.662 3.884 3.405 4.837 5.228.93 1.805 1.287 3.623 1.072 5.453-.214 1.83-.938 3.589-2.171 5.274zm-3.518-3.418c.804-1.1 1.275-2.255 1.412-3.467.155-1.237-.044-2.451-.597-3.643-.535-1.216-1.425-2.28-2.671-3.192-1.27-.93-2.553-1.456-3.85-1.58-1.303-.166-2.521.012-3.653.533-1.114.498-2.073 1.296-2.877 2.395-.804 1.1-1.284 2.267-1.439 3.504-.137 1.212.062 2.426.597 3.643.528 1.174 1.428 2.226 2.698 3.155 1.245.912 2.52 1.45 3.823 1.617 1.321.141 2.539-.036 3.653-.534 1.132-.522 2.1-1.332 2.904-2.431zm8.006-3.254l-4.616-3.378-5.068-3.99-5.47-3.44-12.163-8.9 3.324-4.543 27.184 19.891-3.191 4.36zm16.195-21.593c-1.591 2.174-3.412 3.766-5.464 4.777-2.059.968-4.176 1.35-6.352 1.146-2.157-.229-4.201-1.049-6.13-2.46-1.954-1.43-3.363-3.118-4.228-5.063a11.728 11.728 0 01-.926-6.19c.271-2.165 1.121-4.224 2.551-6.178 1.394-1.905 3.052-3.298 4.972-4.18 1.921-.883 3.951-1.197 6.091-.944 2.139.253 4.235 1.13 6.287 2.632.195.143.406.316.632.519.245.179.468.36.67.546l-11.93 16.303-3.041-2.226L207.48 7.029l-.362 2.492c-1.105-.847-2.264-1.338-3.476-1.475a6.595 6.595 0 00-3.49.54c-1.096.473-2.046 1.259-2.85 2.358-.822 1.123-1.302 2.291-1.439 3.504-.119 1.188.082 2.347.604 3.48.515 1.089 1.359 2.063 2.531 2.92l.733.537c1.172.857 2.407 1.348 3.704 1.472 1.297.124 2.547-.124 3.75-.743 1.203-.62 2.27-1.564 3.199-2.834.804-1.1 1.357-2.214 1.659-3.343.301-1.13.336-2.304.103-3.524l4.617-.39c.383 1.63.363 3.321-.058 5.076-.428 1.712-1.267 3.422-2.518 5.132z" stroke="#12A682" stroke-width="1.966" mask="url(#path-4-outside-2_65_532)"/></svg>