<svg width="280" height="183" fill="none" xmlns="http://www.w3.org/2000/svg"><g clip-path="url(#clip0_73_1551)"><path fill="#89D3C1" d="M6.358 57.62l303.074 52.216-12.508 72.601L-6.15 130.222z"/><path fill="#000" fill-opacity=".05" d="M6.358 57.62l303.074 52.216-12.508 72.601L-6.15 130.222z"/><path stroke="#12A682" stroke-width=".983" d="M6.358 57.62l303.074 52.216-12.508 72.601L-6.15 130.222z"/><mask id="path-3-outside-1_73_1551" maskUnits="userSpaceOnUse" x="77.112" y="91.678" width="186.762" height="62.776" fill="#000"><path fill="#fff" d="M77.112 91.678h186.762v62.776H77.112z"/><path d="M78.413 121.55l4.667-27.091 4.142.713 13.396 23.788-2.051-.353 3.594-20.861 4.992.86-4.667 27.092-4.141-.714-13.397-23.787 2.052.353-3.594 20.861-4.993-.861zm42.432 7.59c-2.116-.365-3.922-1.141-5.417-2.328a10.567 10.567 0 01-3.256-4.467c-.679-1.764-.843-3.665-.492-5.703.356-2.065 1.147-3.801 2.372-5.211a10.274 10.274 0 014.556-3.08c1.807-.619 3.768-.746 5.884-.381 2.142.368 3.96 1.147 5.456 2.334 1.521 1.192 2.611 2.655 3.269 4.389.683 1.738.845 3.653.485 5.743-.351 2.038-1.142 3.775-2.372 5.21-1.205 1.44-2.725 2.479-4.563 3.119-1.806.619-3.781.744-5.922.375zm.713-4.141c1.187.204 2.289.128 3.307-.228 1.018-.356 1.869-.98 2.554-1.871.711-.887 1.18-1.989 1.406-3.305.232-1.341.158-2.536-.219-3.584-.347-1.069-.941-1.942-1.78-2.618-.84-.676-1.841-1.114-3.002-1.314-1.187-.205-2.289-.129-3.307.227-.992.36-1.843.984-2.554 1.871-.706.862-1.175 1.963-1.406 3.305-.227 1.316-.154 2.51.219 3.584.373 1.074.967 1.947 1.781 2.618.84.676 1.84 1.114 3.001 1.315zm18.152-1.894l.693-4.026 10.643 1.834-.693 4.025-10.643-1.833zm26.565 13.862c-2.168-.374-4.025-1.159-5.572-2.355-1.517-1.218-2.615-2.709-3.295-4.473-.679-1.764-.843-3.666-.491-5.704.355-2.064 1.146-3.801 2.372-5.21 1.23-1.435 2.762-2.46 4.594-3.074 1.859-.61 3.872-.728 6.039-.355 2.012.347 3.709 1.064 5.089 2.152 1.41 1.067 2.38 2.456 2.908 4.168l-4.089 1.527c-.45-1.087-1.087-1.941-1.91-2.561a6.123 6.123 0 00-2.744-1.19c-1.186-.204-2.302-.131-3.345.221-1.044.351-1.921.971-2.632 1.858-.706.861-1.175 1.963-1.406 3.304-.231 1.342-.16 2.55.213 3.623a5.678 5.678 0 001.864 2.593c.866.681 1.893 1.123 3.079 1.328a6.105 6.105 0 002.984-.204c.983-.308 1.869-.9 2.657-1.773l3.342 2.807c-1.066 1.41-2.447 2.408-4.142 2.993-1.664.563-3.503.671-5.515.325zm24.314 4.189c-2.116-.365-3.921-1.141-5.417-2.329a10.566 10.566 0 01-3.256-4.466c-.679-1.764-.843-3.665-.491-5.704.355-2.064 1.146-3.8 2.372-5.21a10.281 10.281 0 014.555-3.081c1.807-.618 3.769-.745 5.884-.381 2.142.369 3.961 1.148 5.456 2.335 1.522 1.192 2.611 2.655 3.269 4.389.684 1.738.845 3.652.485 5.742-.351 2.039-1.142 3.776-2.372 5.211-1.204 1.439-2.725 2.479-4.562 3.119-1.807.619-3.781.743-5.923.375zm.714-4.142c1.186.205 2.289.129 3.306-.227 1.018-.356 1.87-.98 2.555-1.871.71-.887 1.179-1.989 1.406-3.305.231-1.341.158-2.536-.22-3.584-.347-1.07-.94-1.942-1.78-2.618-.84-.676-1.841-1.114-3.002-1.315-1.187-.204-2.289-.128-3.307.228-.992.36-1.843.984-2.554 1.871-.706.861-1.175 1.963-1.406 3.305-.227 1.315-.154 2.51.219 3.584.373 1.074.967 1.947 1.781 2.618.84.676 1.84 1.114 3.002 1.314zm26.011 8.746c-1.987-.342-3.704-1.09-5.153-2.243a10.027 10.027 0 01-3.075-4.355c-.632-1.73-.763-3.665-.394-5.807.369-2.141 1.14-3.921 2.314-5.34a9.746 9.746 0 014.349-3.036c1.751-.602 3.62-.732 5.607-.389 1.728.298 3.21.951 4.444 1.961 1.238.984 2.124 2.319 2.657 4.004.533 1.686.591 3.742.173 6.167-.413 2.4-1.142 4.32-2.188 5.76-1.04 1.415-2.311 2.392-3.812 2.93-1.501.539-3.141.655-4.922.348zm1.294-4.041c1.161.2 2.238.12 3.23-.241 1.017-.356 1.882-.977 2.592-1.865.737-.882 1.219-1.982 1.445-3.297.232-1.342.146-2.539-.258-3.592-.373-1.073-.979-1.948-1.819-2.624-.814-.672-1.802-1.108-2.963-1.308-1.161-.2-2.25-.122-3.268.234-.992.361-1.856.982-2.593 1.865-.706.861-1.175 1.963-1.406 3.304-.227 1.316-.154 2.511.219 3.585.399 1.078 1.006 1.953 1.82 2.625.84.676 1.84 1.114 3.001 1.314zm5.603 4.95l.84-4.876 1.141-5.463.559-5.562 2.214-12.849 4.799.826-4.947 28.718-4.606-.794zm22.963 4.235c-2.296-.395-4.231-1.194-5.804-2.395-1.543-1.222-2.654-2.715-3.333-4.479-.653-1.76-.804-3.659-.453-5.697.355-2.064 1.12-3.806 2.294-5.224a10.153 10.153 0 014.44-3.101c1.781-.623 3.704-.756 5.768-.401 2.012.347 3.73 1.095 5.153 2.243 1.423 1.148 2.448 2.6 3.075 4.356.628 1.755.755 3.716.381 5.884a6.782 6.782 0 01-.159.689 6.581 6.581 0 01-.165.729l-17.222-2.967.553-3.212 14.668 2.527-2.07.679c.231-1.182.166-2.269-.195-3.261a5.706 5.706 0 00-1.762-2.496c-.788-.667-1.763-1.1-2.924-1.3-1.187-.205-2.276-.127-3.268.234-.966.364-1.787.967-2.463 1.807-.646.818-1.076 1.847-1.289 3.085l-.134.774c-.213 1.239-.118 2.384.285 3.437.403 1.052 1.076 1.925 2.02 2.619.943.694 2.085 1.157 3.427 1.388 1.161.2 2.237.199 3.228-.002a6.77 6.77 0 002.77-1.276l2.08 3.427c-1.116.923-2.434 1.56-3.955 1.909-1.491.327-3.14.335-4.946.024z"/></mask><path d="M78.413 121.55l4.667-27.091 4.142.713 13.396 23.788-2.051-.353 3.594-20.861 4.992.86-4.667 27.092-4.141-.714-13.397-23.787 2.052.353-3.594 20.861-4.993-.861zm42.432 7.59c-2.116-.365-3.922-1.141-5.417-2.328a10.567 10.567 0 01-3.256-4.467c-.679-1.764-.843-3.665-.492-5.703.356-2.065 1.147-3.801 2.372-5.211a10.274 10.274 0 014.556-3.08c1.807-.619 3.768-.746 5.884-.381 2.142.368 3.96 1.147 5.456 2.334 1.521 1.192 2.611 2.655 3.269 4.389.683 1.738.845 3.653.485 5.743-.351 2.038-1.142 3.775-2.372 5.21-1.205 1.44-2.725 2.479-4.563 3.119-1.806.619-3.781.744-5.922.375zm.713-4.141c1.187.204 2.289.128 3.307-.228 1.018-.356 1.869-.98 2.554-1.871.711-.887 1.18-1.989 1.406-3.305.232-1.341.158-2.536-.219-3.584-.347-1.069-.941-1.942-1.78-2.618-.84-.676-1.841-1.114-3.002-1.314-1.187-.205-2.289-.129-3.307.227-.992.36-1.843.984-2.554 1.871-.706.862-1.175 1.963-1.406 3.305-.227 1.316-.154 2.51.219 3.584.373 1.074.967 1.947 1.781 2.618.84.676 1.84 1.114 3.001 1.315zm18.152-1.894l.693-4.026 10.643 1.834-.693 4.025-10.643-1.833zm26.565 13.862c-2.168-.374-4.025-1.159-5.572-2.355-1.517-1.218-2.615-2.709-3.295-4.473-.679-1.764-.843-3.666-.491-5.704.355-2.064 1.146-3.801 2.372-5.21 1.23-1.435 2.762-2.46 4.594-3.074 1.859-.61 3.872-.728 6.039-.355 2.012.347 3.709 1.064 5.089 2.152 1.41 1.067 2.38 2.456 2.908 4.168l-4.089 1.527c-.45-1.087-1.087-1.941-1.91-2.561a6.123 6.123 0 00-2.744-1.19c-1.186-.204-2.302-.131-3.345.221-1.044.351-1.921.971-2.632 1.858-.706.861-1.175 1.963-1.406 3.304-.231 1.342-.16 2.55.213 3.623a5.678 5.678 0 001.864 2.593c.866.681 1.893 1.123 3.079 1.328a6.105 6.105 0 002.984-.204c.983-.308 1.869-.9 2.657-1.773l3.342 2.807c-1.066 1.41-2.447 2.408-4.142 2.993-1.664.563-3.503.671-5.515.325zm24.314 4.189c-2.116-.365-3.921-1.141-5.417-2.329a10.566 10.566 0 01-3.256-4.466c-.679-1.764-.843-3.665-.491-5.704.355-2.064 1.146-3.8 2.372-5.21a10.281 10.281 0 014.555-3.081c1.807-.618 3.769-.745 5.884-.381 2.142.369 3.961 1.148 5.456 2.335 1.522 1.192 2.611 2.655 3.269 4.389.684 1.738.845 3.652.485 5.742-.351 2.039-1.142 3.776-2.372 5.211-1.204 1.439-2.725 2.479-4.562 3.119-1.807.619-3.781.743-5.923.375zm.714-4.142c1.186.205 2.289.129 3.306-.227 1.018-.356 1.87-.98 2.555-1.871.71-.887 1.179-1.989 1.406-3.305.231-1.341.158-2.536-.22-3.584-.347-1.07-.94-1.942-1.78-2.618-.84-.676-1.841-1.114-3.002-1.315-1.187-.204-2.289-.128-3.307.228-.992.36-1.843.984-2.554 1.871-.706.861-1.175 1.963-1.406 3.305-.227 1.315-.154 2.51.219 3.584.373 1.074.967 1.947 1.781 2.618.84.676 1.84 1.114 3.002 1.314zm26.011 8.746c-1.987-.342-3.704-1.09-5.153-2.243a10.027 10.027 0 01-3.075-4.355c-.632-1.73-.763-3.665-.394-5.807.369-2.141 1.14-3.921 2.314-5.34a9.746 9.746 0 014.349-3.036c1.751-.602 3.62-.732 5.607-.389 1.728.298 3.21.951 4.444 1.961 1.238.984 2.124 2.319 2.657 4.004.533 1.686.591 3.742.173 6.167-.413 2.4-1.142 4.32-2.188 5.76-1.04 1.415-2.311 2.392-3.812 2.93-1.501.539-3.141.655-4.922.348zm1.294-4.041c1.161.2 2.238.12 3.23-.241 1.017-.356 1.882-.977 2.592-1.865.737-.882 1.219-1.982 1.445-3.297.232-1.342.146-2.539-.258-3.592-.373-1.073-.979-1.948-1.819-2.624-.814-.672-1.802-1.108-2.963-1.308-1.161-.2-2.25-.122-3.268.234-.992.361-1.856.982-2.593 1.865-.706.861-1.175 1.963-1.406 3.304-.227 1.316-.154 2.511.219 3.585.399 1.078 1.006 1.953 1.82 2.625.84.676 1.84 1.114 3.001 1.314zm5.603 4.95l.84-4.876 1.141-5.463.559-5.562 2.214-12.849 4.799.826-4.947 28.718-4.606-.794zm22.963 4.235c-2.296-.395-4.231-1.194-5.804-2.395-1.543-1.222-2.654-2.715-3.333-4.479-.653-1.76-.804-3.659-.453-5.697.355-2.064 1.12-3.806 2.294-5.224a10.153 10.153 0 014.44-3.101c1.781-.623 3.704-.756 5.768-.401 2.012.347 3.73 1.095 5.153 2.243 1.423 1.148 2.448 2.6 3.075 4.356.628 1.755.755 3.716.381 5.884a6.782 6.782 0 01-.159.689 6.581 6.581 0 01-.165.729l-17.222-2.967.553-3.212 14.668 2.527-2.07.679c.231-1.182.166-2.269-.195-3.261a5.706 5.706 0 00-1.762-2.496c-.788-.667-1.763-1.1-2.924-1.3-1.187-.205-2.276-.127-3.268.234-.966.364-1.787.967-2.463 1.807-.646.818-1.076 1.847-1.289 3.085l-.134.774c-.213 1.239-.118 2.384.285 3.437.403 1.052 1.076 1.925 2.02 2.619.943.694 2.085 1.157 3.427 1.388 1.161.2 2.237.199 3.228-.002a6.77 6.77 0 002.77-1.276l2.08 3.427c-1.116.923-2.434 1.56-3.955 1.909-1.491.327-3.14.335-4.946.024z" fill="#fff"/><path d="M78.413 121.55l4.667-27.091 4.142.713 13.396 23.788-2.051-.353 3.594-20.861 4.992.86-4.667 27.092-4.141-.714-13.397-23.787 2.052.353-3.594 20.861-4.993-.861zm42.432 7.59c-2.116-.365-3.922-1.141-5.417-2.328a10.567 10.567 0 01-3.256-4.467c-.679-1.764-.843-3.665-.492-5.703.356-2.065 1.147-3.801 2.372-5.211a10.274 10.274 0 014.556-3.08c1.807-.619 3.768-.746 5.884-.381 2.142.368 3.96 1.147 5.456 2.334 1.521 1.192 2.611 2.655 3.269 4.389.683 1.738.845 3.653.485 5.743-.351 2.038-1.142 3.775-2.372 5.21-1.205 1.44-2.725 2.479-4.563 3.119-1.806.619-3.781.744-5.922.375zm.713-4.141c1.187.204 2.289.128 3.307-.228 1.018-.356 1.869-.98 2.554-1.871.711-.887 1.18-1.989 1.406-3.305.232-1.341.158-2.536-.219-3.584-.347-1.069-.941-1.942-1.78-2.618-.84-.676-1.841-1.114-3.002-1.314-1.187-.205-2.289-.129-3.307.227-.992.36-1.843.984-2.554 1.871-.706.862-1.175 1.963-1.406 3.305-.227 1.316-.154 2.51.219 3.584.373 1.074.967 1.947 1.781 2.618.84.676 1.84 1.114 3.001 1.315zm18.152-1.894l.693-4.026 10.643 1.834-.693 4.025-10.643-1.833zm26.565 13.862c-2.168-.374-4.025-1.159-5.572-2.355-1.517-1.218-2.615-2.709-3.295-4.473-.679-1.764-.843-3.666-.491-5.704.355-2.064 1.146-3.801 2.372-5.21 1.23-1.435 2.762-2.46 4.594-3.074 1.859-.61 3.872-.728 6.039-.355 2.012.347 3.709 1.064 5.089 2.152 1.41 1.067 2.38 2.456 2.908 4.168l-4.089 1.527c-.45-1.087-1.087-1.941-1.91-2.561a6.123 6.123 0 00-2.744-1.19c-1.186-.204-2.302-.131-3.345.221-1.044.351-1.921.971-2.632 1.858-.706.861-1.175 1.963-1.406 3.304-.231 1.342-.16 2.55.213 3.623a5.678 5.678 0 001.864 2.593c.866.681 1.893 1.123 3.079 1.328a6.105 6.105 0 002.984-.204c.983-.308 1.869-.9 2.657-1.773l3.342 2.807c-1.066 1.41-2.447 2.408-4.142 2.993-1.664.563-3.503.671-5.515.325zm24.314 4.189c-2.116-.365-3.921-1.141-5.417-2.329a10.566 10.566 0 01-3.256-4.466c-.679-1.764-.843-3.665-.491-5.704.355-2.064 1.146-3.8 2.372-5.21a10.281 10.281 0 014.555-3.081c1.807-.618 3.769-.745 5.884-.381 2.142.369 3.961 1.148 5.456 2.335 1.522 1.192 2.611 2.655 3.269 4.389.684 1.738.845 3.652.485 5.742-.351 2.039-1.142 3.776-2.372 5.211-1.204 1.439-2.725 2.479-4.562 3.119-1.807.619-3.781.743-5.923.375zm.714-4.142c1.186.205 2.289.129 3.306-.227 1.018-.356 1.87-.98 2.555-1.871.71-.887 1.179-1.989 1.406-3.305.231-1.341.158-2.536-.22-3.584-.347-1.07-.94-1.942-1.78-2.618-.84-.676-1.841-1.114-3.002-1.315-1.187-.204-2.289-.128-3.307.228-.992.36-1.843.984-2.554 1.871-.706.861-1.175 1.963-1.406 3.305-.227 1.315-.154 2.51.219 3.584.373 1.074.967 1.947 1.781 2.618.84.676 1.84 1.114 3.002 1.314zm26.011 8.746c-1.987-.342-3.704-1.09-5.153-2.243a10.027 10.027 0 01-3.075-4.355c-.632-1.73-.763-3.665-.394-5.807.369-2.141 1.14-3.921 2.314-5.34a9.746 9.746 0 014.349-3.036c1.751-.602 3.62-.732 5.607-.389 1.728.298 3.21.951 4.444 1.961 1.238.984 2.124 2.319 2.657 4.004.533 1.686.591 3.742.173 6.167-.413 2.4-1.142 4.32-2.188 5.76-1.04 1.415-2.311 2.392-3.812 2.93-1.501.539-3.141.655-4.922.348zm1.294-4.041c1.161.2 2.238.12 3.23-.241 1.017-.356 1.882-.977 2.592-1.865.737-.882 1.219-1.982 1.445-3.297.232-1.342.146-2.539-.258-3.592-.373-1.073-.979-1.948-1.819-2.624-.814-.672-1.802-1.108-2.963-1.308-1.161-.2-2.25-.122-3.268.234-.992.361-1.856.982-2.593 1.865-.706.861-1.175 1.963-1.406 3.304-.227 1.316-.154 2.511.219 3.585.399 1.078 1.006 1.953 1.82 2.625.84.676 1.84 1.114 3.001 1.314zm5.603 4.95l.84-4.876 1.141-5.463.559-5.562 2.214-12.849 4.799.826-4.947 28.718-4.606-.794zm22.963 4.235c-2.296-.395-4.231-1.194-5.804-2.395-1.543-1.222-2.654-2.715-3.333-4.479-.653-1.76-.804-3.659-.453-5.697.355-2.064 1.12-3.806 2.294-5.224a10.153 10.153 0 014.44-3.101c1.781-.623 3.704-.756 5.768-.401 2.012.347 3.73 1.095 5.153 2.243 1.423 1.148 2.448 2.6 3.075 4.356.628 1.755.755 3.716.381 5.884a6.782 6.782 0 01-.159.689 6.581 6.581 0 01-.165.729l-17.222-2.967.553-3.212 14.668 2.527-2.07.679c.231-1.182.166-2.269-.195-3.261a5.706 5.706 0 00-1.762-2.496c-.788-.667-1.763-1.1-2.924-1.3-1.187-.205-2.276-.127-3.268.234-.966.364-1.787.967-2.463 1.807-.646.818-1.076 1.847-1.289 3.085l-.134.774c-.213 1.239-.118 2.384.285 3.437.403 1.052 1.076 1.925 2.02 2.619.943.694 2.085 1.157 3.427 1.388 1.161.2 2.237.199 3.228-.002a6.77 6.77 0 002.77-1.276l2.08 3.427c-1.116.923-2.434 1.56-3.955 1.909-1.491.327-3.14.335-4.946.024z" fill="#000" fill-opacity=".05"/><path d="M78.413 121.55l4.667-27.091 4.142.713 13.396 23.788-2.051-.353 3.594-20.861 4.992.86-4.667 27.092-4.141-.714-13.397-23.787 2.052.353-3.594 20.861-4.993-.861zm42.432 7.59c-2.116-.365-3.922-1.141-5.417-2.328a10.567 10.567 0 01-3.256-4.467c-.679-1.764-.843-3.665-.492-5.703.356-2.065 1.147-3.801 2.372-5.211a10.274 10.274 0 014.556-3.08c1.807-.619 3.768-.746 5.884-.381 2.142.368 3.96 1.147 5.456 2.334 1.521 1.192 2.611 2.655 3.269 4.389.683 1.738.845 3.653.485 5.743-.351 2.038-1.142 3.775-2.372 5.21-1.205 1.44-2.725 2.479-4.563 3.119-1.806.619-3.781.744-5.922.375zm.713-4.141c1.187.204 2.289.128 3.307-.228 1.018-.356 1.869-.98 2.554-1.871.711-.887 1.18-1.989 1.406-3.305.232-1.341.158-2.536-.219-3.584-.347-1.069-.941-1.942-1.78-2.618-.84-.676-1.841-1.114-3.002-1.314-1.187-.205-2.289-.129-3.307.227-.992.36-1.843.984-2.554 1.871-.706.862-1.175 1.963-1.406 3.305-.227 1.316-.154 2.51.219 3.584.373 1.074.967 1.947 1.781 2.618.84.676 1.84 1.114 3.001 1.315zm18.152-1.894l.693-4.026 10.643 1.834-.693 4.025-10.643-1.833zm26.565 13.862c-2.168-.374-4.025-1.159-5.572-2.355-1.517-1.218-2.615-2.709-3.295-4.473-.679-1.764-.843-3.666-.491-5.704.355-2.064 1.146-3.801 2.372-5.21 1.23-1.435 2.762-2.46 4.594-3.074 1.859-.61 3.872-.728 6.039-.355 2.012.347 3.709 1.064 5.089 2.152 1.41 1.067 2.38 2.456 2.908 4.168l-4.089 1.527c-.45-1.087-1.087-1.941-1.91-2.561a6.123 6.123 0 00-2.744-1.19c-1.186-.204-2.302-.131-3.345.221-1.044.351-1.921.971-2.632 1.858-.706.861-1.175 1.963-1.406 3.304-.231 1.342-.16 2.55.213 3.623a5.678 5.678 0 001.864 2.593c.866.681 1.893 1.123 3.079 1.328a6.105 6.105 0 002.984-.204c.983-.308 1.869-.9 2.657-1.773l3.342 2.807c-1.066 1.41-2.447 2.408-4.142 2.993-1.664.563-3.503.671-5.515.325zm24.314 4.189c-2.116-.365-3.921-1.141-5.417-2.329a10.566 10.566 0 01-3.256-4.466c-.679-1.764-.843-3.665-.491-5.704.355-2.064 1.146-3.8 2.372-5.21a10.281 10.281 0 014.555-3.081c1.807-.618 3.769-.745 5.884-.381 2.142.369 3.961 1.148 5.456 2.335 1.522 1.192 2.611 2.655 3.269 4.389.684 1.738.845 3.652.485 5.742-.351 2.039-1.142 3.776-2.372 5.211-1.204 1.439-2.725 2.479-4.562 3.119-1.807.619-3.781.743-5.923.375zm.714-4.142c1.186.205 2.289.129 3.306-.227 1.018-.356 1.87-.98 2.555-1.871.71-.887 1.179-1.989 1.406-3.305.231-1.341.158-2.536-.22-3.584-.347-1.07-.94-1.942-1.78-2.618-.84-.676-1.841-1.114-3.002-1.315-1.187-.204-2.289-.128-3.307.228-.992.36-1.843.984-2.554 1.871-.706.861-1.175 1.963-1.406 3.305-.227 1.315-.154 2.51.219 3.584.373 1.074.967 1.947 1.781 2.618.84.676 1.84 1.114 3.002 1.314zm26.011 8.746c-1.987-.342-3.704-1.09-5.153-2.243a10.027 10.027 0 01-3.075-4.355c-.632-1.73-.763-3.665-.394-5.807.369-2.141 1.14-3.921 2.314-5.34a9.746 9.746 0 014.349-3.036c1.751-.602 3.62-.732 5.607-.389 1.728.298 3.21.951 4.444 1.961 1.238.984 2.124 2.319 2.657 4.004.533 1.686.591 3.742.173 6.167-.413 2.4-1.142 4.32-2.188 5.76-1.04 1.415-2.311 2.392-3.812 2.93-1.501.539-3.141.655-4.922.348zm1.294-4.041c1.161.2 2.238.12 3.23-.241 1.017-.356 1.882-.977 2.592-1.865.737-.882 1.219-1.982 1.445-3.297.232-1.342.146-2.539-.258-3.592-.373-1.073-.979-1.948-1.819-2.624-.814-.672-1.802-1.108-2.963-1.308-1.161-.2-2.25-.122-3.268.234-.992.361-1.856.982-2.593 1.865-.706.861-1.175 1.963-1.406 3.304-.227 1.316-.154 2.511.219 3.585.399 1.078 1.006 1.953 1.82 2.625.84.676 1.84 1.114 3.001 1.314zm5.603 4.95l.84-4.876 1.141-5.463.559-5.562 2.214-12.849 4.799.826-4.947 28.718-4.606-.794zm22.963 4.235c-2.296-.395-4.231-1.194-5.804-2.395-1.543-1.222-2.654-2.715-3.333-4.479-.653-1.76-.804-3.659-.453-5.697.355-2.064 1.12-3.806 2.294-5.224a10.153 10.153 0 014.44-3.101c1.781-.623 3.704-.756 5.768-.401 2.012.347 3.73 1.095 5.153 2.243 1.423 1.148 2.448 2.6 3.075 4.356.628 1.755.755 3.716.381 5.884a6.782 6.782 0 01-.159.689 6.581 6.581 0 01-.165.729l-17.222-2.967.553-3.212 14.668 2.527-2.07.679c.231-1.182.166-2.269-.195-3.261a5.706 5.706 0 00-1.762-2.496c-.788-.667-1.763-1.1-2.924-1.3-1.187-.205-2.276-.127-3.268.234-.966.364-1.787.967-2.463 1.807-.646.818-1.076 1.847-1.289 3.085l-.134.774c-.213 1.239-.118 2.384.285 3.437.403 1.052 1.076 1.925 2.02 2.619.943.694 2.085 1.157 3.427 1.388 1.161.2 2.237.199 3.228-.002a6.77 6.77 0 002.77-1.276l2.08 3.427c-1.116.923-2.434 1.56-3.955 1.909-1.491.327-3.14.335-4.946.024z" stroke="#12A682" stroke-width="1.966" mask="url(#path-3-outside-1_73_1551)"/><path d="M-7.776 119.207l-11.185-72.206L281.341 3.93l11.184 72.206-300.301 43.07z" fill="#89D3C1" stroke="#12A682" stroke-width=".983"/><mask id="path-5-outside-2_73_1551" maskUnits="userSpaceOnUse" x="62.588" y="28.642" width="184.753" height="59.481" fill="#000"><path fill="#fff" d="M62.588 28.642h184.753v59.481H62.588z"/><path d="M68.153 85.9L63.98 58.953l4.12-.638 20.113 18.132-2.04.316-3.214-20.75 4.966-.769 4.174 26.948-4.12.638-20.113-18.132 2.04-.316 3.214 20.75-4.966.768zm42.294-6.275c-2.104.326-4.047.167-5.829-.477a10.482 10.482 0 01-4.472-3.17c-1.196-1.444-1.951-3.18-2.265-5.207-.318-2.053-.124-3.936.583-5.649a10.194 10.194 0 013.31-4.336c1.503-1.153 3.307-1.892 5.412-2.218 2.13-.33 4.086-.173 5.867.47 1.808.64 3.295 1.672 4.461 3.094 1.192 1.418 1.949 3.167 2.271 5.246.314 2.027.12 3.91-.584 5.648-.677 1.735-1.778 3.193-3.303 4.375-1.504 1.153-3.32 1.894-5.451 2.224zm-.638-4.119c1.181-.183 2.193-.602 3.038-1.259.844-.656 1.448-1.512 1.81-2.567.388-1.058.48-2.242.278-3.55-.207-1.335-.654-2.436-1.34-3.302-.664-.896-1.498-1.529-2.501-1.899-1.004-.37-2.083-.465-3.238-.287-1.18.183-2.193.603-3.037 1.26-.819.652-1.422 1.507-1.81 2.566-.392 1.033-.485 2.217-.278 3.551.203 1.31.649 2.41 1.339 3.301.69.892 1.524 1.525 2.502 1.9 1.003.37 2.083.465 3.237.286zm16.468-7.518l-.62-4.003 10.587-1.64.62 4.004-10.587 1.64zm29.358 4.638c-2.155.334-4.15.183-5.983-.453-1.811-.666-3.315-1.72-4.511-3.165-1.196-1.444-1.951-3.18-2.265-5.207-.318-2.053-.123-3.936.584-5.648.703-1.739 1.819-3.186 3.348-4.343 1.555-1.16 3.41-1.908 5.566-2.242 2.002-.31 3.823-.171 5.465.415 1.663.557 3.013 1.557 4.051 3l-3.361 2.728c-.767-.88-1.636-1.481-2.606-1.804a6.064 6.064 0 00-2.956-.252c-1.18.183-2.206.604-3.076 1.265a5.569 5.569 0 00-1.887 2.578c-.391 1.034-.484 2.217-.277 3.552.206 1.334.655 2.448 1.345 3.34a5.63 5.63 0 002.572 1.848c1.03.366 2.134.458 3.315.275a6.067 6.067 0 002.741-1.135c.827-.6 1.473-1.436 1.938-2.507l4.029 1.583c-.557 1.663-1.54 3.038-2.948 4.123-1.387 1.056-3.082 1.739-5.084 2.049zm24.185-3.746c-2.104.326-4.047.167-5.829-.477a10.482 10.482 0 01-4.472-3.17c-1.196-1.445-1.951-3.18-2.265-5.208-.318-2.053-.124-3.936.583-5.648a10.194 10.194 0 013.31-4.337c1.503-1.152 3.307-1.892 5.412-2.218 2.13-.33 4.086-.173 5.867.471 1.808.64 3.295 1.671 4.461 3.093 1.192 1.419 1.949 3.167 2.271 5.246.314 2.028.12 3.91-.584 5.649-.677 1.734-1.778 3.193-3.303 4.375-1.504 1.152-3.32 1.894-5.451 2.224zm-.638-4.12c1.181-.182 2.193-.602 3.038-1.258.844-.657 1.448-1.512 1.81-2.567.388-1.059.48-2.242.278-3.551-.207-1.335-.654-2.435-1.34-3.301-.664-.896-1.498-1.529-2.501-1.9-1.004-.37-2.083-.465-3.238-.286-1.18.183-2.193.602-3.037 1.259-.819.652-1.422 1.508-1.81 2.566-.392 1.033-.485 2.217-.278 3.552.203 1.309.649 2.41 1.339 3.3.69.893 1.524 1.526 2.502 1.9 1.003.37 2.083.465 3.237.287zm27.221.002c-1.976.306-3.827.146-5.553-.48a9.945 9.945 0 01-4.269-3.123c-1.14-1.426-1.876-3.205-2.206-5.335-.329-2.13-.167-4.047.489-5.752a9.667 9.667 0 013.129-4.23c1.456-1.119 3.172-1.831 5.149-2.137 1.719-.267 3.319-.12 4.798.44 1.476.533 2.73 1.508 3.764 2.924 1.035 1.417 1.738 3.331 2.112 5.744.37 2.387.291 4.422-.237 6.107-.531 1.66-1.417 2.98-2.658 3.96-1.241.98-2.747 1.608-4.518 1.882zm-.06-4.208c1.155-.18 2.141-.595 2.96-1.247.845-.657 1.461-1.514 1.849-2.573.413-1.063.519-2.248.316-3.557-.207-1.335-.666-2.433-1.378-3.295-.69-.892-1.537-1.523-2.54-1.893-.978-.374-2.044-.472-3.199-.293-1.155.179-2.154.596-2.999 1.253-.819.652-1.435 1.51-1.848 2.573-.392 1.032-.485 2.216-.278 3.55.203 1.31.649 2.41 1.339 3.302.716.888 1.563 1.518 2.54 1.893 1.004.37 2.083.465 3.238.287zm6.832 2.883l-.751-4.85-.654-5.497-1.232-5.406-1.98-12.781 4.774-.74 4.424 28.565-4.581.71zm22.929-3.275c-2.284.354-4.355.214-6.214-.417-1.837-.662-3.353-1.715-4.55-3.159-1.17-1.448-1.912-3.186-2.226-5.213-.318-2.053-.149-3.932.506-5.637a10.07 10.07 0 013.195-4.318c1.477-1.15 3.243-1.883 5.296-2.2 2.002-.31 3.853-.15 5.554.48 1.7.63 3.123 1.67 4.268 3.123 1.144 1.452 1.884 3.256 2.218 5.412.031.205.054.438.069.698.039.257.064.503.074.738l-17.131 2.653-.494-3.195 14.59-2.26-1.732 1.293c-.157-1.184-.562-2.186-1.214-3.005a5.66 5.66 0 00-2.445-1.789c-.952-.378-2.006-.478-3.161-.299-1.18.183-2.18.6-2.999 1.253-.793.648-1.374 1.474-1.745 2.478-.348.974-.427 2.076-.236 3.308l.119.77c.191 1.232.642 2.28 1.354 3.141.712.862 1.621 1.47 2.727 1.825 1.106.354 2.326.428 3.66.221 1.155-.179 2.167-.52 3.035-1.022a6.728 6.728 0 002.202-2.075l3.038 2.565c-.757 1.22-1.795 2.236-3.116 3.044-1.298.78-2.845 1.308-4.642 1.587z"/></mask><path d="M68.153 85.9L63.98 58.953l4.12-.638 20.113 18.132-2.04.316-3.214-20.75 4.966-.769 4.174 26.948-4.12.638-20.113-18.132 2.04-.316 3.214 20.75-4.966.768zm42.294-6.275c-2.104.326-4.047.167-5.829-.477a10.482 10.482 0 01-4.472-3.17c-1.196-1.444-1.951-3.18-2.265-5.207-.318-2.053-.124-3.936.583-5.649a10.194 10.194 0 013.31-4.336c1.503-1.153 3.307-1.892 5.412-2.218 2.13-.33 4.086-.173 5.867.47 1.808.64 3.295 1.672 4.461 3.094 1.192 1.418 1.949 3.167 2.271 5.246.314 2.027.12 3.91-.584 5.648-.677 1.735-1.778 3.193-3.303 4.375-1.504 1.153-3.32 1.894-5.451 2.224zm-.638-4.119c1.181-.183 2.193-.602 3.038-1.259.844-.656 1.448-1.512 1.81-2.567.388-1.058.48-2.242.278-3.55-.207-1.335-.654-2.436-1.34-3.302-.664-.896-1.498-1.529-2.501-1.899-1.004-.37-2.083-.465-3.238-.287-1.18.183-2.193.603-3.037 1.26-.819.652-1.422 1.507-1.81 2.566-.392 1.033-.485 2.217-.278 3.551.203 1.31.649 2.41 1.339 3.301.69.892 1.524 1.525 2.502 1.9 1.003.37 2.083.465 3.237.286zm16.468-7.518l-.62-4.003 10.587-1.64.62 4.004-10.587 1.64zm29.358 4.638c-2.155.334-4.15.183-5.983-.453-1.811-.666-3.315-1.72-4.511-3.165-1.196-1.444-1.951-3.18-2.265-5.207-.318-2.053-.123-3.936.584-5.648.703-1.739 1.819-3.186 3.348-4.343 1.555-1.16 3.41-1.908 5.566-2.242 2.002-.31 3.823-.171 5.465.415 1.663.557 3.013 1.557 4.051 3l-3.361 2.728c-.767-.88-1.636-1.481-2.606-1.804a6.064 6.064 0 00-2.956-.252c-1.18.183-2.206.604-3.076 1.265a5.569 5.569 0 00-1.887 2.578c-.391 1.034-.484 2.217-.277 3.552.206 1.334.655 2.448 1.345 3.34a5.63 5.63 0 002.572 1.848c1.03.366 2.134.458 3.315.275a6.067 6.067 0 002.741-1.135c.827-.6 1.473-1.436 1.938-2.507l4.029 1.583c-.557 1.663-1.54 3.038-2.948 4.123-1.387 1.056-3.082 1.739-5.084 2.049zm24.185-3.746c-2.104.326-4.047.167-5.829-.477a10.482 10.482 0 01-4.472-3.17c-1.196-1.445-1.951-3.18-2.265-5.208-.318-2.053-.124-3.936.583-5.648a10.194 10.194 0 013.31-4.337c1.503-1.152 3.307-1.892 5.412-2.218 2.13-.33 4.086-.173 5.867.471 1.808.64 3.295 1.671 4.461 3.093 1.192 1.419 1.949 3.167 2.271 5.246.314 2.028.12 3.91-.584 5.649-.677 1.734-1.778 3.193-3.303 4.375-1.504 1.152-3.32 1.894-5.451 2.224zm-.638-4.12c1.181-.182 2.193-.602 3.038-1.258.844-.657 1.448-1.512 1.81-2.567.388-1.059.48-2.242.278-3.551-.207-1.335-.654-2.435-1.34-3.301-.664-.896-1.498-1.529-2.501-1.9-1.004-.37-2.083-.465-3.238-.286-1.18.183-2.193.602-3.037 1.259-.819.652-1.422 1.508-1.81 2.566-.392 1.033-.485 2.217-.278 3.552.203 1.309.649 2.41 1.339 3.3.69.893 1.524 1.526 2.502 1.9 1.003.37 2.083.465 3.237.287zm27.221.002c-1.976.306-3.827.146-5.553-.48a9.945 9.945 0 01-4.269-3.123c-1.14-1.426-1.876-3.205-2.206-5.335-.329-2.13-.167-4.047.489-5.752a9.667 9.667 0 013.129-4.23c1.456-1.119 3.172-1.831 5.149-2.137 1.719-.267 3.319-.12 4.798.44 1.476.533 2.73 1.508 3.764 2.924 1.035 1.417 1.738 3.331 2.112 5.744.37 2.387.291 4.422-.237 6.107-.531 1.66-1.417 2.98-2.658 3.96-1.241.98-2.747 1.608-4.518 1.882zm-.06-4.208c1.155-.18 2.141-.595 2.96-1.247.845-.657 1.461-1.514 1.849-2.573.413-1.063.519-2.248.316-3.557-.207-1.335-.666-2.433-1.378-3.295-.69-.892-1.537-1.523-2.54-1.893-.978-.374-2.044-.472-3.199-.293-1.155.179-2.154.596-2.999 1.253-.819.652-1.435 1.51-1.848 2.573-.392 1.032-.485 2.216-.278 3.55.203 1.31.649 2.41 1.339 3.302.716.888 1.563 1.518 2.54 1.893 1.004.37 2.083.465 3.238.287zm6.832 2.883l-.751-4.85-.654-5.497-1.232-5.406-1.98-12.781 4.774-.74 4.424 28.565-4.581.71zm22.929-3.275c-2.284.354-4.355.214-6.214-.417-1.837-.662-3.353-1.715-4.55-3.159-1.17-1.448-1.912-3.186-2.226-5.213-.318-2.053-.149-3.932.506-5.637a10.07 10.07 0 013.195-4.318c1.477-1.15 3.243-1.883 5.296-2.2 2.002-.31 3.853-.15 5.554.48 1.7.63 3.123 1.67 4.268 3.123 1.144 1.452 1.884 3.256 2.218 5.412.031.205.054.438.069.698.039.257.064.503.074.738l-17.131 2.653-.494-3.195 14.59-2.26-1.732 1.293c-.157-1.184-.562-2.186-1.214-3.005a5.66 5.66 0 00-2.445-1.789c-.952-.378-2.006-.478-3.161-.299-1.18.183-2.18.6-2.999 1.253-.793.648-1.374 1.474-1.745 2.478-.348.974-.427 2.076-.236 3.308l.119.77c.191 1.232.642 2.28 1.354 3.141.712.862 1.621 1.47 2.727 1.825 1.106.354 2.326.428 3.66.221 1.155-.179 2.167-.52 3.035-1.022a6.728 6.728 0 002.202-2.075l3.038 2.565c-.757 1.22-1.795 2.236-3.116 3.044-1.298.78-2.845 1.308-4.642 1.587z" fill="#fff"/><path d="M68.153 85.9L63.98 58.953l4.12-.638 20.113 18.132-2.04.316-3.214-20.75 4.966-.769 4.174 26.948-4.12.638-20.113-18.132 2.04-.316 3.214 20.75-4.966.768zm42.294-6.275c-2.104.326-4.047.167-5.829-.477a10.482 10.482 0 01-4.472-3.17c-1.196-1.444-1.951-3.18-2.265-5.207-.318-2.053-.124-3.936.583-5.649a10.194 10.194 0 013.31-4.336c1.503-1.153 3.307-1.892 5.412-2.218 2.13-.33 4.086-.173 5.867.47 1.808.64 3.295 1.672 4.461 3.094 1.192 1.418 1.949 3.167 2.271 5.246.314 2.027.12 3.91-.584 5.648-.677 1.735-1.778 3.193-3.303 4.375-1.504 1.153-3.32 1.894-5.451 2.224zm-.638-4.119c1.181-.183 2.193-.602 3.038-1.259.844-.656 1.448-1.512 1.81-2.567.388-1.058.48-2.242.278-3.55-.207-1.335-.654-2.436-1.34-3.302-.664-.896-1.498-1.529-2.501-1.899-1.004-.37-2.083-.465-3.238-.287-1.18.183-2.193.603-3.037 1.26-.819.652-1.422 1.507-1.81 2.566-.392 1.033-.485 2.217-.278 3.551.203 1.31.649 2.41 1.339 3.301.69.892 1.524 1.525 2.502 1.9 1.003.37 2.083.465 3.237.286zm16.468-7.518l-.62-4.003 10.587-1.64.62 4.004-10.587 1.64zm29.358 4.638c-2.155.334-4.15.183-5.983-.453-1.811-.666-3.315-1.72-4.511-3.165-1.196-1.444-1.951-3.18-2.265-5.207-.318-2.053-.123-3.936.584-5.648.703-1.739 1.819-3.186 3.348-4.343 1.555-1.16 3.41-1.908 5.566-2.242 2.002-.31 3.823-.171 5.465.415 1.663.557 3.013 1.557 4.051 3l-3.361 2.728c-.767-.88-1.636-1.481-2.606-1.804a6.064 6.064 0 00-2.956-.252c-1.18.183-2.206.604-3.076 1.265a5.569 5.569 0 00-1.887 2.578c-.391 1.034-.484 2.217-.277 3.552.206 1.334.655 2.448 1.345 3.34a5.63 5.63 0 002.572 1.848c1.03.366 2.134.458 3.315.275a6.067 6.067 0 002.741-1.135c.827-.6 1.473-1.436 1.938-2.507l4.029 1.583c-.557 1.663-1.54 3.038-2.948 4.123-1.387 1.056-3.082 1.739-5.084 2.049zm24.185-3.746c-2.104.326-4.047.167-5.829-.477a10.482 10.482 0 01-4.472-3.17c-1.196-1.445-1.951-3.18-2.265-5.208-.318-2.053-.124-3.936.583-5.648a10.194 10.194 0 013.31-4.337c1.503-1.152 3.307-1.892 5.412-2.218 2.13-.33 4.086-.173 5.867.471 1.808.64 3.295 1.671 4.461 3.093 1.192 1.419 1.949 3.167 2.271 5.246.314 2.028.12 3.91-.584 5.649-.677 1.734-1.778 3.193-3.303 4.375-1.504 1.152-3.32 1.894-5.451 2.224zm-.638-4.12c1.181-.182 2.193-.602 3.038-1.258.844-.657 1.448-1.512 1.81-2.567.388-1.059.48-2.242.278-3.551-.207-1.335-.654-2.435-1.34-3.301-.664-.896-1.498-1.529-2.501-1.9-1.004-.37-2.083-.465-3.238-.286-1.18.183-2.193.602-3.037 1.259-.819.652-1.422 1.508-1.81 2.566-.392 1.033-.485 2.217-.278 3.552.203 1.309.649 2.41 1.339 3.3.69.893 1.524 1.526 2.502 1.9 1.003.37 2.083.465 3.237.287zm27.221.002c-1.976.306-3.827.146-5.553-.48a9.945 9.945 0 01-4.269-3.123c-1.14-1.426-1.876-3.205-2.206-5.335-.329-2.13-.167-4.047.489-5.752a9.667 9.667 0 013.129-4.23c1.456-1.119 3.172-1.831 5.149-2.137 1.719-.267 3.319-.12 4.798.44 1.476.533 2.73 1.508 3.764 2.924 1.035 1.417 1.738 3.331 2.112 5.744.37 2.387.291 4.422-.237 6.107-.531 1.66-1.417 2.98-2.658 3.96-1.241.98-2.747 1.608-4.518 1.882zm-.06-4.208c1.155-.18 2.141-.595 2.96-1.247.845-.657 1.461-1.514 1.849-2.573.413-1.063.519-2.248.316-3.557-.207-1.335-.666-2.433-1.378-3.295-.69-.892-1.537-1.523-2.54-1.893-.978-.374-2.044-.472-3.199-.293-1.155.179-2.154.596-2.999 1.253-.819.652-1.435 1.51-1.848 2.573-.392 1.032-.485 2.216-.278 3.55.203 1.31.649 2.41 1.339 3.302.716.888 1.563 1.518 2.54 1.893 1.004.37 2.083.465 3.238.287zm6.832 2.883l-.751-4.85-.654-5.497-1.232-5.406-1.98-12.781 4.774-.74 4.424 28.565-4.581.71zm22.929-3.275c-2.284.354-4.355.214-6.214-.417-1.837-.662-3.353-1.715-4.55-3.159-1.17-1.448-1.912-3.186-2.226-5.213-.318-2.053-.149-3.932.506-5.637a10.07 10.07 0 013.195-4.318c1.477-1.15 3.243-1.883 5.296-2.2 2.002-.31 3.853-.15 5.554.48 1.7.63 3.123 1.67 4.268 3.123 1.144 1.452 1.884 3.256 2.218 5.412.031.205.054.438.069.698.039.257.064.503.074.738l-17.131 2.653-.494-3.195 14.59-2.26-1.732 1.293c-.157-1.184-.562-2.186-1.214-3.005a5.66 5.66 0 00-2.445-1.789c-.952-.378-2.006-.478-3.161-.299-1.18.183-2.18.6-2.999 1.253-.793.648-1.374 1.474-1.745 2.478-.348.974-.427 2.076-.236 3.308l.119.77c.191 1.232.642 2.28 1.354 3.141.712.862 1.621 1.47 2.727 1.825 1.106.354 2.326.428 3.66.221 1.155-.179 2.167-.52 3.035-1.022a6.728 6.728 0 002.202-2.075l3.038 2.565c-.757 1.22-1.795 2.236-3.116 3.044-1.298.78-2.845 1.308-4.642 1.587z" fill="#000" fill-opacity=".05"/><path d="M68.153 85.9L63.98 58.953l4.12-.638 20.113 18.132-2.04.316-3.214-20.75 4.966-.769 4.174 26.948-4.12.638-20.113-18.132 2.04-.316 3.214 20.75-4.966.768zm42.294-6.275c-2.104.326-4.047.167-5.829-.477a10.482 10.482 0 01-4.472-3.17c-1.196-1.444-1.951-3.18-2.265-5.207-.318-2.053-.124-3.936.583-5.649a10.194 10.194 0 013.31-4.336c1.503-1.153 3.307-1.892 5.412-2.218 2.13-.33 4.086-.173 5.867.47 1.808.64 3.295 1.672 4.461 3.094 1.192 1.418 1.949 3.167 2.271 5.246.314 2.027.12 3.91-.584 5.648-.677 1.735-1.778 3.193-3.303 4.375-1.504 1.153-3.32 1.894-5.451 2.224zm-.638-4.119c1.181-.183 2.193-.602 3.038-1.259.844-.656 1.448-1.512 1.81-2.567.388-1.058.48-2.242.278-3.55-.207-1.335-.654-2.436-1.34-3.302-.664-.896-1.498-1.529-2.501-1.899-1.004-.37-2.083-.465-3.238-.287-1.18.183-2.193.603-3.037 1.26-.819.652-1.422 1.507-1.81 2.566-.392 1.033-.485 2.217-.278 3.551.203 1.31.649 2.41 1.339 3.301.69.892 1.524 1.525 2.502 1.9 1.003.37 2.083.465 3.237.286zm16.468-7.518l-.62-4.003 10.587-1.64.62 4.004-10.587 1.64zm29.358 4.638c-2.155.334-4.15.183-5.983-.453-1.811-.666-3.315-1.72-4.511-3.165-1.196-1.444-1.951-3.18-2.265-5.207-.318-2.053-.123-3.936.584-5.648.703-1.739 1.819-3.186 3.348-4.343 1.555-1.16 3.41-1.908 5.566-2.242 2.002-.31 3.823-.171 5.465.415 1.663.557 3.013 1.557 4.051 3l-3.361 2.728c-.767-.88-1.636-1.481-2.606-1.804a6.064 6.064 0 00-2.956-.252c-1.18.183-2.206.604-3.076 1.265a5.569 5.569 0 00-1.887 2.578c-.391 1.034-.484 2.217-.277 3.552.206 1.334.655 2.448 1.345 3.34a5.63 5.63 0 002.572 1.848c1.03.366 2.134.458 3.315.275a6.067 6.067 0 002.741-1.135c.827-.6 1.473-1.436 1.938-2.507l4.029 1.583c-.557 1.663-1.54 3.038-2.948 4.123-1.387 1.056-3.082 1.739-5.084 2.049zm24.185-3.746c-2.104.326-4.047.167-5.829-.477a10.482 10.482 0 01-4.472-3.17c-1.196-1.445-1.951-3.18-2.265-5.208-.318-2.053-.124-3.936.583-5.648a10.194 10.194 0 013.31-4.337c1.503-1.152 3.307-1.892 5.412-2.218 2.13-.33 4.086-.173 5.867.471 1.808.64 3.295 1.671 4.461 3.093 1.192 1.419 1.949 3.167 2.271 5.246.314 2.028.12 3.91-.584 5.649-.677 1.734-1.778 3.193-3.303 4.375-1.504 1.152-3.32 1.894-5.451 2.224zm-.638-4.12c1.181-.182 2.193-.602 3.038-1.258.844-.657 1.448-1.512 1.81-2.567.388-1.059.48-2.242.278-3.551-.207-1.335-.654-2.435-1.34-3.301-.664-.896-1.498-1.529-2.501-1.9-1.004-.37-2.083-.465-3.238-.286-1.18.183-2.193.602-3.037 1.259-.819.652-1.422 1.508-1.81 2.566-.392 1.033-.485 2.217-.278 3.552.203 1.309.649 2.41 1.339 3.3.69.893 1.524 1.526 2.502 1.9 1.003.37 2.083.465 3.237.287zm27.221.002c-1.976.306-3.827.146-5.553-.48a9.945 9.945 0 01-4.269-3.123c-1.14-1.426-1.876-3.205-2.206-5.335-.329-2.13-.167-4.047.489-5.752a9.667 9.667 0 013.129-4.23c1.456-1.119 3.172-1.831 5.149-2.137 1.719-.267 3.319-.12 4.798.44 1.476.533 2.73 1.508 3.764 2.924 1.035 1.417 1.738 3.331 2.112 5.744.37 2.387.291 4.422-.237 6.107-.531 1.66-1.417 2.98-2.658 3.96-1.241.98-2.747 1.608-4.518 1.882zm-.06-4.208c1.155-.18 2.141-.595 2.96-1.247.845-.657 1.461-1.514 1.849-2.573.413-1.063.519-2.248.316-3.557-.207-1.335-.666-2.433-1.378-3.295-.69-.892-1.537-1.523-2.54-1.893-.978-.374-2.044-.472-3.199-.293-1.155.179-2.154.596-2.999 1.253-.819.652-1.435 1.51-1.848 2.573-.392 1.032-.485 2.216-.278 3.55.203 1.31.649 2.41 1.339 3.302.716.888 1.563 1.518 2.54 1.893 1.004.37 2.083.465 3.238.287zm6.832 2.883l-.751-4.85-.654-5.497-1.232-5.406-1.98-12.781 4.774-.74 4.424 28.565-4.581.71zm22.929-3.275c-2.284.354-4.355.214-6.214-.417-1.837-.662-3.353-1.715-4.55-3.159-1.17-1.448-1.912-3.186-2.226-5.213-.318-2.053-.149-3.932.506-5.637a10.07 10.07 0 013.195-4.318c1.477-1.15 3.243-1.883 5.296-2.2 2.002-.31 3.853-.15 5.554.48 1.7.63 3.123 1.67 4.268 3.123 1.144 1.452 1.884 3.256 2.218 5.412.031.205.054.438.069.698.039.257.064.503.074.738l-17.131 2.653-.494-3.195 14.59-2.26-1.732 1.293c-.157-1.184-.562-2.186-1.214-3.005a5.66 5.66 0 00-2.445-1.789c-.952-.378-2.006-.478-3.161-.299-1.18.183-2.18.6-2.999 1.253-.793.648-1.374 1.474-1.745 2.478-.348.974-.427 2.076-.236 3.308l.119.77c.191 1.232.642 2.28 1.354 3.141.712.862 1.621 1.47 2.727 1.825 1.106.354 2.326.428 3.66.221 1.155-.179 2.167-.52 3.035-1.022a6.728 6.728 0 002.202-2.075l3.038 2.565c-.757 1.22-1.795 2.236-3.116 3.044-1.298.78-2.845 1.308-4.642 1.587z" stroke="#12A682" stroke-width="1.966" mask="url(#path-5-outside-2_73_1551)"/></g><defs><clipPath id="clip0_73_1551"><path d="M0 0h280v167c0 8.837-7.163 16-16 16H0V0z" fill="#fff"/></clipPath></defs></svg>