<svg width="751" height="758" fill="none" xmlns="http://www.w3.org/2000/svg"><g clip-path="url(#clip0_70_5269)"><path opacity=".3" d="M1054.67 277.26c0 265.221-218.889 480.24-488.916 480.24-270.026 0-488.911-215.019-488.911-480.24s218.885-480.24 488.911-480.24c270.027 0 488.916 215.019 488.916 480.24z" stroke="#151E34"/><path opacity=".3" d="M978.323 156.74c0 265.221-218.885 480.24-488.911 480.24C219.385 636.98.5 421.961.5 156.74S219.385-323.5 489.412-323.5c270.026 0 488.911 215.019 488.911 480.24z" stroke="#12A682"/><path opacity=".1" d="M1128.28 277.26c0 265.221-218.883 480.24-488.909 480.24-270.027 0-488.912-215.019-488.912-480.24s218.885-480.24 488.912-480.24c270.026 0 488.909 215.019 488.909 480.24z" fill="#12A682" stroke="#151E34"/></g><defs><clipPath id="clip0_70_5269"><path fill="#fff" d="M0 0h751v758H0z"/></clipPath></defs></svg>