<svg width="503" height="424" fill="none" xmlns="http://www.w3.org/2000/svg"><path opacity=".3" d="M748.453 82.772c0 188.171-155.296 340.728-346.882 340.728-191.587 0-346.883-152.557-346.883-340.728 0-188.17 155.296-340.727 346.883-340.727 191.586 0 346.882 152.557 346.882 340.727z" stroke="#151E34"/><path opacity=".3" d="M694.266-2.772c0 188.17-155.297 340.727-346.883 340.727C155.796 337.955.5 185.398.5-2.772.5-190.943 155.796-343.5 347.383-343.5c191.586 0 346.883 152.557 346.883 340.728z" stroke="#12A682"/><path opacity=".1" d="M800.706 82.772c0 188.171-155.296 340.728-346.883 340.728-191.586 0-346.883-152.557-346.883-340.728 0-188.17 155.297-340.727 346.883-340.727 191.587 0 346.883 152.557 346.883 340.727z" fill="#12A682" stroke="#151E34"/></svg>