<svg width="336" height="107" fill="none" xmlns="http://www.w3.org/2000/svg"><path d="M99.182 53.228l11.355-9.714-27.974 36.71-12.305 10.961 28.924-37.957z" fill="#E0DEE9" stroke="#151E34" stroke-width=".5"/><path d="M97.713 52.132l12.415-11.106-28.924 37.957L68.789 90.09l28.924-37.957z" fill="#E0DEE9" stroke="#151E34" stroke-width=".5"/><path d="M92.778 60.768l6.873-7.29-9.642 12.653-6.872 7.29 9.641-12.653z" fill="#AA9A85" stroke="#151E34" stroke-width=".5"/><path d="M70.258 91.186l12.256-10.898-1.47-1.096-12.256 10.897 1.47 1.097z" fill="#E0DEE9" stroke="#151E34" stroke-width=".5"/><path d="M71.123 89.55l5.621-4.931-.387-.289-5.62 4.931.386.289z" fill="#AA9A85" stroke="#151E34" stroke-width=".5"/><path d="M110.097 41.068l-26.878-20.05-28.973 38.02 26.878 20.05 28.973-38.02z" fill="#E0DEE9" stroke="#151E34" stroke-width=".5"/><path fill-rule="evenodd" clip-rule="evenodd" d="M77.066 52.862l3.498-4.59 3.15 2.35-3.498 4.59-3.15-2.35zm3.26-2.494l.687.513.684.51.004.003.01.007c.008.005.01.01.002.018l-.004.007-.003.003-.087.114-.174.229-.005.006c-.005.008-.008.011-.01.011-.004 0-.007-.002-.013-.007l-.008-.005-1.372-1.024-.004-.003-.006-.005c-.009-.005-.011-.01-.003-.019a.044.044 0 00.004-.005l.002-.003.088-.115.175-.23.005-.006c.004-.007.007-.01.01-.01.002 0 .006.002.012.007l.006.004zm-1.472 1.893l.435-.571.435-.57.004-.005.006-.009c.005-.007.01-.006.015-.002a.068.068 0 00.005.005l.003.002.328.244.004.003c.007.005.01.008.01.01.001.004-.002.007-.007.013l-.003.005-.273.358c-.01.012-.014.018-.013.023 0 .005.007.01.018.017l1.012.755.005.004c.006.005.009.007.01.01 0 .002-.003.006-.008.013l-.003.004-.004.004-.258.34c-.009.01-.013.016-.017.017-.005 0-.01-.004-.02-.011l-1.013-.755-.006-.005c-.006-.005-.009-.007-.012-.007-.003 0-.006.004-.011.012l-.004.005-.278.365c-.012.016-.012.016-.028.004l-.005-.004-.322-.24-.006-.004a.037.037 0 01-.011-.01c0-.004.002-.007.008-.014l.004-.006z" fill="#C6C3D1"/><path fill-rule="evenodd" clip-rule="evenodd" d="M81.484 47.064l3.498-4.59 3.15 2.35-3.498 4.59-2.495.033-.655-2.383zm3.303-1.566v.034a.047.047 0 01-.018.002h-.004l-.145.007-.292.015c-.02 0-.025-.004-.026-.023a.928.928 0 01.17-.638c.06-.092.13-.177.216-.249a.91.91 0 011.072-.072c.093.059.175.13.243.216a.834.834 0 01.184.661.93.93 0 01-.144.373 1.132 1.132 0 01-.225.258c-.15.125-.321.207-.511.252a.042.042 0 01-.039-.008l-.464-.347-.116-.087-.006-.004c-.004-.004-.008-.008-.013-.01-.006-.002-.007-.006-.008-.01 0-.005-.001-.008-.005-.01-.005-.003-.004-.008 0-.012l.008-.011.478-.627.003-.004a.072.072 0 00.006-.008c.004-.006.009-.006.014-.001a.07.07 0 00.008.005l.004.003.102.076.203.152.008.006c.006.004.01.006.01.01 0 .002-.002.005-.008.012l-.005.006-.192.253-.005.006c-.005.007-.008.01-.007.013 0 .003.003.005.01.01l.007.005.044.033.023.017c.03.023.03.023.065.006a.565.565 0 00.23-.222.399.399 0 00.037-.334.455.455 0 00-.125-.193.502.502 0 00-.258-.136.421.421 0 00-.336.07.49.49 0 00-.153.2.508.508 0 00-.042.221c0 .028 0 .056.002.084zm-1.655 1.568a.937.937 0 01.184-.661c.065-.085.12-.143.189-.197a.895.895 0 01.678-.197c.26.03.469.154.623.36.173.231.23.49.156.771a.973.973 0 01-.354.532.895.895 0 01-.697.19.898.898 0 01-.549-.29.85.85 0 01-.23-.508zm.973-.563a.403.403 0 00-.386.134c-.156.204-.141.424-.008.58.08.094.181.155.305.173a.41.41 0 00.374-.127.433.433 0 00.006-.603.486.486 0 00-.29-.157z" fill="#C6C3D1"/><path transform="matrix(-.6061 .79538 .80155 .59793 84.982 42.474)" stroke="#151E34" stroke-width=".5" d="M0 0h13.06v3.93H0z"/><path d="M82.179 21.518l1.04-.5-28.986 38.038-1.04.5 28.986-38.038z" fill="#E0DEE9" stroke="#151E34" stroke-width=".5"/><path d="M80.28 79.762L53.193 59.555l1.054-.518 26.878 20.05-.843.675z" fill="#E0DEE9" stroke="#151E34" stroke-width=".5"/><path d="M81.124 79.088l28.973-38.021c.811.605.972 1.75.358 2.555L82.594 80.184l-1.47-1.096zm130.257 3.192l20.416 9.846-63.658-16.876-20.415-9.846 63.657 16.876zm.761-2.385l11.951-44.127-63.764-16.905-11.951 44.127 63.764 16.905z" fill="#E0DEE9" stroke="#151E34" stroke-width=".5"/><path d="M211.215 73.663l8.646-31.923a3.975 3.975 0 00-2.821-4.886l-51.153-13.561a4.026 4.026 0 00-4.912 2.836l-8.646 31.923a3.975 3.975 0 002.821 4.886L206.303 76.5a4.025 4.025 0 004.912-2.835z" fill="#151E34"/><path d="M211.215 73.663l8.646-31.923a3.975 3.975 0 00-2.821-4.886l-51.153-13.561a4.026 4.026 0 00-4.912 2.836l-8.646 31.923a3.975 3.975 0 002.821 4.886L206.303 76.5a4.025 4.025 0 004.912-2.835z" fill="url(#paint0_linear_65_452)"/><path d="M211.215 73.663l8.646-31.923a3.975 3.975 0 00-2.821-4.886l-51.153-13.561a4.026 4.026 0 00-4.912 2.836l-8.646 31.923a3.975 3.975 0 002.821 4.886L206.303 76.5a4.025 4.025 0 004.912-2.835z" stroke="#151E34" stroke-width=".5"/><path d="M222.915 34.717l1.178 1.05-63.793-16.91-1.178-1.052 63.793 16.913z" fill="#E0DEE9" stroke="#151E34" stroke-width=".5"/><path d="M147.265 61.587l11.857-43.783 1.207 1.06-11.95 44.127-1.114-1.404z" fill="#E0DEE9" stroke="#151E34" stroke-width=".5"/><path d="M212.142 79.894l-.653 2.414-63.764-16.905.653-2.413 63.764 16.904z" fill="#E0DEE9" stroke="#151E34" stroke-width=".5"/><path d="M212.036 79.866l20.657 9.91L169.036 72.9l-20.657-9.91 63.657 16.876z" fill="#E0DEE9" stroke="#151E34" stroke-width=".5"/><path d="M198.4 78.098l12.903 4.899-21.22-5.626-12.902-4.898 21.219 5.625z" fill="#A4A3A3" stroke="#151E34" stroke-width=".5"/><path d="M147.725 65.403l20.309 9.818.653-2.413-20.308-9.818-.654 2.413z" fill="#E0DEE9" stroke="#151E34" stroke-width=".5"/><path d="M150.273 65.65l9.228 4.538.172-.635-9.228-4.537-.172.635z" fill="#AA9A85" stroke="#151E34" stroke-width=".5"/><path d="M148.378 62.99l-.654 2.414c-1.496-.544-.787-2.61-.46-3.817l1.114 1.404zm84.247 26.768l-.653 2.414-63.764-16.905.653-2.413 63.764 16.904z" fill="#E0DEE9" stroke="#151E34" stroke-width=".5"/><ellipse cx=".541" cy=".536" rx=".541" ry=".536" transform="matrix(-.9666 -.25626 -.2614 .96523 193.151 28.674)" fill="#E0DEE9" stroke="#151E34" stroke-width=".5"/><path d="M298.579 83.15l5.296 14.267-25.411-39.766-6.159-15.617 26.274 41.116z" fill="#E0DEE9" stroke="#151E34" stroke-width=".5"/><path d="M300.171 82.155l6.259 15.773-26.274-41.116-6.259-15.773 26.274 41.116z" fill="#E0DEE9" stroke="#151E34" stroke-width=".5"/><path d="M293.597 74.36l4.57 9.144-8.758-13.706-4.569-9.144 8.757 13.705z" fill="#AA9A85" stroke="#151E34" stroke-width=".5"/><path d="M272.305 42.033l6.115 15.548 1.592-.995-6.115-15.549-1.592.996z" fill="#E0DEE9" stroke="#151E34" stroke-width=".5"/><path d="M273.575 43.444l2.739 7.107.419-.262-2.739-7.107-.419.262z" fill="#AA9A85" stroke="#151E34" stroke-width=".5"/><path d="M306.401 97.884l29.115-18.213-26.317-41.185L280.083 56.7l26.318 41.185z" fill="#E0DEE9" stroke="#151E34" stroke-width=".5"/><path fill-rule="evenodd" clip-rule="evenodd" d="M306.927 62.334l3.177 4.972-3.412 2.135-3.177-4.973 3.412-2.134zm1.234 3.99l-.744.465-.741.464-.005.002-.009.006c-.008.006-.014.007-.019-.003l-.005-.007-.002-.004-.079-.123-.158-.248-.004-.007c-.006-.007-.008-.011-.007-.014 0-.003.004-.005.011-.01l.008-.005 1.487-.93.004-.002a.081.081 0 01.007-.004c.008-.007.014-.007.019.004l.004.005.002.003.08.125.159.25.004.006c.005.007.007.01.006.013 0 .003-.004.005-.011.01l-.007.004zm-1.299-2.079l.395.619.395.618.003.005.006.009c.005.007.003.011-.003.015l-.006.003-.003.002-.356.223-.003.002c-.008.005-.012.007-.015.006-.003 0-.005-.004-.009-.01l-.003-.006-.249-.388c-.008-.013-.012-.02-.017-.02-.005-.001-.011.002-.023.01l-1.097.686-.005.003-.012.006c-.003 0-.006-.005-.011-.012l-.002-.004-.004-.005-.234-.368c-.008-.012-.012-.018-.011-.022.001-.005.007-.008.018-.016l1.097-.685.006-.004c.007-.004.011-.007.011-.01.001-.002-.002-.006-.007-.015l-.003-.005-.253-.395c-.011-.017-.011-.017.006-.028l.005-.003.349-.219.006-.004c.008-.005.012-.007.015-.006.003 0 .005.004.01.012l.004.006zm4.078 4.37l3.177 4.972-3.412 2.134-3.177-4.972.87-2.375 2.542.24zm.322 3.694l-.033-.011c0-.007.002-.013.004-.019l.001-.003.046-.141.092-.282c.006-.018.012-.022.031-.016l.043.013a.975.975 0 01.513.378c.067.091.125.188.163.295a.909.909 0 01-.319 1.042.98.98 0 01-.296.152.877.877 0 01-.706-.065.964.964 0 01-.309-.27 1.166 1.166 0 01-.227-.883.041.041 0 01.022-.033l.503-.314.126-.08.006-.003a.035.035 0 00.014-.01c.004-.004.009-.003.014-.002.004 0 .007.001.011-.002.005-.004.008 0 .011.004l.008.012.434.68.003.004a.03.03 0 00.005.008c.005.006.003.01-.004.014l-.008.005-.004.003-.11.069-.221.138-.008.005c-.007.004-.01.007-.013.006-.003 0-.005-.004-.01-.012l-.004-.007-.175-.273-.004-.007c-.005-.007-.007-.011-.01-.012-.003 0-.006.002-.013.006l-.008.006-.048.03-.024.014c-.033.021-.034.021-.029.06a.56.56 0 00.132.297.41.41 0 00.309.156.474.474 0 00.232-.047.508.508 0 00.225-.196.42.42 0 00.054-.343.504.504 0 00-.139-.217.527.527 0 00-.198-.12 2.132 2.132 0 00-.082-.03zm-.919-2.134a.979.979 0 01.573.413c.058.092.094.166.122.25a.893.893 0 01-.055.714.898.898 0 01-.573.46.915.915 0 01-.803-.132.993.993 0 01-.386-.527.892.892 0 01.067-.73.912.912 0 01.48-.414.892.892 0 01.575-.034zm.192 1.125a.402.402 0 00.01-.414c-.14-.221-.358-.287-.558-.218a.497.497 0 00-.278.227.41.41 0 00-.012.4.455.455 0 00.581.223.494.494 0 00.257-.218z" fill="#C6C3D1"/><path transform="matrix(-.53846 -.84265 -.8478 .53032 314.117 73.587)" stroke="#151E34" stroke-width=".5" d="M0 0h13.354v4.025H0z"/><path d="M335.408 78.505l.108 1.166-26.329-41.204-.109-1.166 26.33 41.204z" fill="#E0DEE9" stroke="#151E34" stroke-width=".5"/><path d="M279.736 55.657L309.079 37.3l.12 1.185L280.083 56.7l-.347-1.042z" fill="#E0DEE9" stroke="#151E34" stroke-width=".5"/><path d="M280.084 56.699l26.317 41.185a1.9 1.9 0 01-2.603-.587l-25.307-39.602 1.593-.996z" fill="#E0DEE9" stroke="#151E34" stroke-width=".5"/><path d="M138.527 5.564L135.567 1l-6.766 4.295-.365 3.454-.365 3.453 3.325 1.11 6.766-4.295.365-3.453z" fill="#fff"/><path d="M138.527 5.564L135.567 1l-6.766 4.295-.365 3.454m10.091-3.185l-.365 3.453-6.766 4.296m7.131-7.749l-6.766 4.295m-.365 3.454l.365-3.454m-.365 3.454l-3.325-1.11.365-3.454m3.325 1.11l-3.325-1.11" stroke="#151E34" stroke-width=".5"/><path d="M129.916 11.03l-2.96-4.563-6.765 4.295-.366 3.454 2.96 4.563 6.766-4.295.365-3.453z" fill="#fff"/><path d="M129.916 11.03l-2.96-4.563-6.765 4.295m9.725.269l-.365 3.453-6.766 4.295m7.131-7.748l-6.765 4.295m-.366 3.453l.366-3.453m-.366 3.453l-2.96-4.563.366-3.454m2.96 4.564l-2.96-4.564" stroke="#151E34" stroke-width=".5"/><path d="M131.482 5.328c-.27.175-.471.436-.563.774-.071.262-.051.521.052.772.116.279.304.497.574.64.32.17.656.195 1.002.084a1.37 1.37 0 00.72-.523c.232-.332.285-.697.172-1.08a1.209 1.209 0 00-.636-.766 1.247 1.247 0 00-.98-.067 1.429 1.429 0 00-.341.166zm.411.495c.151-.09.359-.104.569.01.142.077.24.196.301.344a.595.595 0 01.036.363.59.59 0 01-.336.42.57.57 0 01-.549-.014.665.665 0 01-.314-.371c-.097-.267-.009-.56.293-.752zm1.931-.931l.053-.155a.717.717 0 01.164-.268.691.691 0 01.296-.187.587.587 0 01.472.068.693.693 0 01.271.3.626.626 0 01.067.313.559.559 0 01-.211.416.78.78 0 01-.407.18c-.053.006-.053.006-.082-.039-.021-.032-.042-.063-.062-.096-.021-.032-.024-.026.009-.047l.374-.237c.034-.022.031-.015.01-.047l-.287-.443-.01-.017c-.005-.009-.011-.011-.02-.004l-.017.01-.928.59a.249.249 0 00-.017.01c-.006.004-.011.009-.005.016.008.01-.006.022.006.032.008.007.012.019.019.028l.544.841a.058.058 0 00.047.029 1.7 1.7 0 00.789-.085c.151-.054.291-.131.419-.228a1.29 1.29 0 00.368-.417c.167-.305.19-.622.084-.95a1.31 1.31 0 00-.212-.396 1.262 1.262 0 00-1.432-.418c-.148.052-.28.13-.404.221-.096.07-.184.148-.262.237a1.276 1.276 0 00-.27.514c-.007.024-.003.033.023.04l.387.122.194.06c.009.003.018.008.03.007z" fill="#E0DEE9"/><path d="M131.482 5.328c-.27.175-.471.436-.563.774-.071.262-.051.521.052.772.116.279.304.497.574.64.32.17.656.195 1.002.084a1.37 1.37 0 00.72-.523c.232-.332.285-.697.172-1.08a1.209 1.209 0 00-.636-.766 1.247 1.247 0 00-.98-.067 1.429 1.429 0 00-.341.166zm.411.495c.151-.09.359-.104.569.01.142.077.24.196.301.344a.595.595 0 01.036.363.59.59 0 01-.336.42.57.57 0 01-.549-.014.665.665 0 01-.314-.371c-.097-.267-.009-.56.293-.752zm1.931-.931l.053-.155a.717.717 0 01.164-.268.691.691 0 01.296-.187.587.587 0 01.472.068.693.693 0 01.271.3.626.626 0 01.067.313.559.559 0 01-.211.416.78.78 0 01-.407.18c-.053.006-.053.006-.082-.039-.021-.032-.042-.063-.062-.096-.021-.032-.024-.026.009-.047l.374-.237c.034-.022.031-.015.01-.047l-.287-.443-.01-.017c-.005-.009-.011-.011-.02-.004l-.017.01-.928.59a.249.249 0 00-.017.01c-.006.004-.011.009-.005.016.008.01-.006.022.006.032.008.007.012.019.019.028l.544.841a.058.058 0 00.047.029 1.7 1.7 0 00.789-.085c.151-.054.291-.131.419-.228a1.29 1.29 0 00.368-.417c.167-.305.19-.622.084-.95a1.31 1.31 0 00-.212-.396 1.262 1.262 0 00-1.432-.418c-.148.052-.28.13-.404.221-.096.07-.184.148-.262.237a1.276 1.276 0 00-.27.514c-.007.024-.003.033.023.04l.387.122.194.06c.009.003.018.008.03.007z" stroke="#151E34" stroke-width=".5"/><path d="M123.648 10.302l-.842.535c-.032.02-.031.014-.01.047l.302.466.005.007c.015.023.015.023.038.008l.538-.342c.032-.02.027-.02.046.01l.951 1.466c.02.03.02.03.052.01l.5-.317.007-.005c.029-.018.027-.014.009-.041l-.951-1.466c-.021-.033-.021-.033.013-.055l.529-.336c.027-.017.027-.013.009-.04l-.308-.476-.008-.012c-.005-.01-.011-.012-.02-.005l-.019.012-.841.534zm2.632-.227l-.645-.995c-.021-.032-.014-.03-.046-.01l-.509.323c-.004.003-.008.006-.012.007-.014.007-.014.016-.005.027.004.004.006.01.009.014l1.29 1.989c.022.033.014.033.049.01l.505-.32.014-.009c.015-.007.013-.015.005-.026l-.012-.019-.643-.99z" fill="#E0DEE9"/><path d="M123.648 10.302l-.842.535c-.032.02-.031.014-.01.047l.302.466.005.007c.015.023.015.023.038.008l.538-.342c.032-.02.027-.02.046.01l.951 1.466c.02.03.02.03.052.01l.5-.317.007-.005c.029-.018.027-.014.009-.041l-.951-1.466c-.021-.033-.021-.033.013-.055l.529-.336c.027-.017.027-.013.009-.04l-.308-.476-.008-.012c-.005-.01-.011-.012-.02-.005l-.019.012-.841.534zm2.632-.227l-.645-.995c-.021-.032-.014-.03-.046-.01l-.509.323c-.004.003-.008.006-.012.007-.014.007-.014.016-.005.027.004.004.006.01.009.014l1.29 1.989c.022.033.014.033.049.01l.505-.32.014-.009c.015-.007.013-.015.005-.026l-.012-.019-.643-.99z" stroke="#151E34" stroke-width=".5"/><path d="M153.697 102.104l1.889-6.975-10.34-2.74-3.764 2.74-3.764 2.739 1.875 4.235 10.339 2.741 3.765-2.74z" fill="#fff"/><path d="M153.697 102.104l1.889-6.975-10.34-2.74-3.764 2.74m12.215 6.975l-3.765 2.74-10.339-2.741m14.104.001l-10.34-2.74m-3.764 2.739l3.764-2.74m-3.764 2.74l-1.875-4.235 3.764-2.74m1.875 4.235l-1.875-4.235" stroke="#151E34" stroke-width=".5"/><path d="M140.537 98.616l1.889-6.975-10.339-2.741-3.765 2.74-1.888 6.975 10.339 2.741 3.764-2.74z" fill="#fff"/><path d="M140.537 98.616l1.889-6.975-10.339-2.741m8.45 9.716l-3.764 2.74-10.339-2.741m14.103 0l-10.339-2.74m-3.764 2.74l3.764-2.74m-3.764 2.74l1.888-6.975 3.765-2.74m-1.889 6.975l1.889-6.975" stroke="#151E34" stroke-width=".5"/><path d="M147.616 95.03a1.783 1.783 0 00-1.274.144 1.59 1.59 0 00-.722.743 1.627 1.627 0 00-.123 1.133c.118.464.394.815.815 1.052.361.204.752.285 1.166.231.539-.07.949-.346 1.229-.799.251-.405.319-.846.192-1.307a1.63 1.63 0 00-.812-1.014 1.92 1.92 0 00-.471-.184zm-.124.844c.226.065.426.256.5.562a.874.874 0 01-.072.602.809.809 0 01-.329.36.796.796 0 01-.719.049.748.748 0 01-.479-.547.878.878 0 01.089-.639c.178-.334.549-.51 1.01-.387zm2.658 1.046c.068-.03.134-.06.202-.087a.968.968 0 01.413-.08.928.928 0 01.453.12c.197.121.308.3.354.52a.912.912 0 01-.056.534.849.849 0 01-.25.346.76.76 0 01-.604.167 1.042 1.042 0 01-.544-.235c-.054-.046-.053-.046-.035-.115l.04-.147c.014-.05.005-.046.056-.032l.571.151c.051.014.042.017.056-.032l.183-.677.007-.025c.005-.013.002-.022-.013-.024l-.026-.007-1.418-.376-.026-.007c-.009-.002-.018-.002-.02.01-.002.016-.028.014-.027.035 0 .014-.007.028-.011.042-.116.429-.231.857-.349 1.285a.076.076 0 00.014.071c.209.292.47.526.791.693.19.099.392.166.603.204.25.045.499.045.746-.015a1.57 1.57 0 001.019-.77c.101-.175.168-.363.205-.562a1.647 1.647 0 00-.868-1.77 2.098 2.098 0 00-.582-.195 2.183 2.183 0 00-.471-.043 1.766 1.766 0 00-.753.198c-.031.015-.036.027-.02.059l.226.485.114.243c.005.012.009.025.02.037z" fill="#E0DEE9"/><path d="M147.616 95.03a1.783 1.783 0 00-1.274.144 1.59 1.59 0 00-.722.743 1.627 1.627 0 00-.123 1.133c.118.464.394.815.815 1.052.361.204.752.285 1.166.231.539-.07.949-.346 1.229-.799.251-.405.319-.846.192-1.307a1.63 1.63 0 00-.812-1.014 1.92 1.92 0 00-.471-.184zm-.124.844c.226.065.426.256.5.562a.874.874 0 01-.072.602.809.809 0 01-.329.36.796.796 0 01-.719.049.748.748 0 01-.479-.547.878.878 0 01.089-.639c.178-.334.549-.51 1.01-.387zm2.658 1.046c.068-.03.134-.06.202-.087a.968.968 0 01.413-.08.928.928 0 01.453.12c.197.121.308.3.354.52a.912.912 0 01-.056.534.849.849 0 01-.25.346.76.76 0 01-.604.167 1.042 1.042 0 01-.544-.235c-.054-.046-.053-.046-.035-.115l.04-.147c.014-.05.005-.046.056-.032l.571.151c.051.014.042.017.056-.032l.183-.677.007-.025c.005-.013.002-.022-.013-.024l-.026-.007-1.418-.376-.026-.007c-.009-.002-.018-.002-.02.01-.002.016-.028.014-.027.035 0 .014-.007.028-.011.042-.116.429-.231.857-.349 1.285a.076.076 0 00.014.071c.209.292.47.526.791.693.19.099.392.166.603.204.25.045.499.045.746-.015a1.57 1.57 0 001.019-.77c.101-.175.168-.363.205-.562a1.647 1.647 0 00-.868-1.77 2.098 2.098 0 00-.582-.195 2.183 2.183 0 00-.471-.043 1.766 1.766 0 00-.753.198c-.031.015-.036.027-.02.059l.226.485.114.243c.005.012.009.025.02.037z" stroke="#151E34" stroke-width=".5"/><path d="M135.643 91.856l-1.286-.341c-.05-.013-.043-.018-.056.032l-.193.713a1.525 1.525 0 01-.003.01c-.009.035-.009.035.027.045l.822.218c.049.013.044.007.032.053l-.607 2.24c-.013.047-.013.047.036.06l.764.203c.004 0 .007.002.011.003.044.011.038.013.049-.028l.607-2.241c.014-.05.014-.05.066-.037l.808.215c.042.01.038.014.05-.028l.197-.727a.115.115 0 01.004-.018c.005-.013.002-.02-.013-.024l-.029-.008-1.286-.34zm2.586 2.361l.412-1.521c.013-.048.017-.041-.03-.054l-.779-.206-.018-.005c-.019-.007-.028 0-.031.019l-.006.021-.823 3.04c-.014.051-.02.043.034.058l.771.204c.007.002.015.003.022.006.019.008.027-.001.03-.02l.008-.028.41-1.514z" fill="#E0DEE9"/><path d="M135.643 91.856l-1.286-.341c-.05-.013-.043-.018-.056.032l-.193.713a1.525 1.525 0 01-.003.01c-.009.035-.009.035.027.045l.822.218c.049.013.044.007.032.053l-.607 2.24c-.013.047-.013.047.036.06l.764.203c.004 0 .007.002.011.003.044.011.038.013.049-.028l.607-2.241c.014-.05.014-.05.066-.037l.808.215c.042.01.038.014.05-.028l.197-.727a.115.115 0 01.004-.018c.005-.013.002-.02-.013-.024l-.029-.008-1.286-.34zm2.586 2.361l.412-1.521c.013-.048.017-.041-.03-.054l-.779-.206-.018-.005c-.019-.007-.028 0-.031.019l-.006.021-.823 3.04c-.014.051-.02.043.034.058l.771.204c.007.002.015.003.022.006.019.008.027-.001.03-.02l.008-.028.41-1.514z" stroke="#151E34" stroke-width=".5"/><path d="M258.493 76.788l1.408-5.2-7.708-2.042-2.806 2.042-2.806 2.043 1.398 3.156 7.707 2.044 2.807-2.043z" fill="#fff"/><path d="M258.493 76.788l1.408-5.2-7.708-2.042-2.806 2.042m9.106 5.2l-2.807 2.043-7.707-2.044m10.514.001l-7.708-2.043m-2.806 2.042l2.806-2.042m-2.806 2.042l-1.398-3.157 2.806-2.042m1.398 3.157l-1.398-3.157" stroke="#151E34" stroke-width=".5"/><path d="M248.683 74.188l1.408-5.2-7.708-2.043-2.806 2.042-1.408 5.2 7.708 2.043 2.806-2.042z" fill="#fff"/><path d="M248.683 74.188l1.408-5.2-7.708-2.043m6.3 7.243l-2.806 2.042-7.708-2.043m10.514 0l-7.708-2.043m-2.806 2.043l2.806-2.043m-2.806 2.043l1.408-5.2 2.806-2.042m-1.408 5.2l1.408-5.2" stroke="#151E34" stroke-width=".5"/><path d="M253.96 71.514a1.33 1.33 0 00-.95.109 1.18 1.18 0 00-.538.553 1.21 1.21 0 00-.092.845c.088.346.294.607.607.784.27.152.561.213.87.172.401-.052.707-.258.916-.595.187-.302.238-.63.143-.974a1.215 1.215 0 00-.605-.757 1.435 1.435 0 00-.351-.137zm-.093.63c.169.049.318.19.373.42a.653.653 0 01-.053.448.61.61 0 01-.782.305.555.555 0 01-.357-.408.654.654 0 01.066-.476c.133-.249.41-.38.753-.289zm1.982.78l.15-.065a.72.72 0 01.308-.06.684.684 0 01.337.09c.147.09.23.224.265.388a.678.678 0 01-.042.398.625.625 0 01-.187.257.565.565 0 01-.45.125.775.775 0 01-.405-.175c-.04-.035-.04-.035-.026-.086l.029-.11c.011-.036.004-.034.042-.024l.426.113c.038.01.031.013.041-.024a91.9 91.9 0 00.137-.504l.005-.019c.004-.01.002-.016-.01-.018-.006 0-.012-.003-.019-.005l-1.057-.28-.019-.005c-.007-.002-.014-.002-.015.007-.002.012-.021.01-.02.026 0 .01-.005.021-.008.032l-.26.957a.056.056 0 00.009.054 1.615 1.615 0 001.04.668c.186.034.372.034.556-.012.337-.082.588-.277.759-.573.076-.13.126-.271.153-.42a1.226 1.226 0 00-.647-1.319 1.547 1.547 0 00-.434-.145 1.318 1.318 0 00-.912.116c-.023.01-.026.02-.015.043a53.677 53.677 0 00.254.543c.003.009.006.019.015.027z" fill="#E0DEE9"/><path d="M253.96 71.514a1.33 1.33 0 00-.95.109 1.18 1.18 0 00-.538.553 1.21 1.21 0 00-.092.845c.088.346.294.607.607.784.27.152.561.213.87.172.401-.052.707-.258.916-.595.187-.302.238-.63.143-.974a1.215 1.215 0 00-.605-.757 1.435 1.435 0 00-.351-.137zm-.093.63c.169.049.318.19.373.42a.653.653 0 01-.053.448.61.61 0 01-.782.305.555.555 0 01-.357-.408.654.654 0 01.066-.476c.133-.249.41-.38.753-.289zm1.982.78l.15-.065a.72.72 0 01.308-.06.684.684 0 01.337.09c.147.09.23.224.265.388a.678.678 0 01-.042.398.625.625 0 01-.187.257.565.565 0 01-.45.125.775.775 0 01-.405-.175c-.04-.035-.04-.035-.026-.086l.029-.11c.011-.036.004-.034.042-.024l.426.113c.038.01.031.013.041-.024a91.9 91.9 0 00.137-.504l.005-.019c.004-.01.002-.016-.01-.018-.006 0-.012-.003-.019-.005l-1.057-.28-.019-.005c-.007-.002-.014-.002-.015.007-.002.012-.021.01-.02.026 0 .01-.005.021-.008.032l-.26.957a.056.056 0 00.009.054 1.615 1.615 0 001.04.668c.186.034.372.034.556-.012.337-.082.588-.277.759-.573.076-.13.126-.271.153-.42a1.226 1.226 0 00-.647-1.319 1.547 1.547 0 00-.434-.145 1.318 1.318 0 00-.912.116c-.023.01-.026.02-.015.043a53.677 53.677 0 00.254.543c.003.009.006.019.015.027z" stroke="#151E34" stroke-width=".5"/><path d="M245.035 69.148l-.959-.254c-.037-.01-.032-.013-.042.024l-.144.531-.002.008c-.007.026-.007.026.02.033l.613.163c.036.01.033.006.023.04l-.452 1.67c-.009.035-.009.035.027.044l.569.151.009.003c.032.008.028.01.036-.021l.453-1.671c.01-.037.01-.037.049-.027l.602.16c.032.008.029.01.037-.02l.147-.543.003-.013c.004-.01.002-.016-.009-.018l-.022-.006-.958-.254zm1.927 1.761l.307-1.135c.01-.035.013-.03-.022-.04-.194-.05-.388-.102-.581-.153l-.013-.004c-.015-.005-.021 0-.023.014l-.005.016-.613 2.266c-.011.038-.015.032.025.043l.575.153c.005 0 .011.002.016.004.014.006.02 0 .022-.014a5808.742 5808.742 0 01.312-1.15z" fill="#E0DEE9"/><path d="M245.035 69.148l-.959-.254c-.037-.01-.032-.013-.042.024l-.144.531-.002.008c-.007.026-.007.026.02.033l.613.163c.036.01.033.006.023.04l-.452 1.67c-.009.035-.009.035.027.044l.569.151.009.003c.032.008.028.01.036-.021l.453-1.671c.01-.037.01-.037.049-.027l.602.16c.032.008.029.01.037-.02l.147-.543.003-.013c.004-.01.002-.016-.009-.018l-.022-.006-.958-.254zm1.927 1.761l.307-1.135c.01-.035.013-.03-.022-.04-.194-.05-.388-.102-.581-.153l-.013-.004c-.015-.005-.021 0-.023.014l-.005.016-.613 2.266c-.011.038-.015.032.025.043l.575.153c.005 0 .011.002.016.004.014.006.02 0 .022-.014a5808.742 5808.742 0 01.312-1.15z" stroke="#151E34" stroke-width=".5"/><path d="M280.064 10.966l-3.335-3.369-4.962 4.96.315 3.037.314 3.037 3.021.332 4.961-4.96-.314-3.037z" fill="#fff"/><path d="M280.064 10.966l-3.335-3.369-4.962 4.96.315 3.037m7.982-4.628l.314 3.037-4.961 4.96m4.647-7.997l-4.962 4.96m.315 3.037l-.315-3.037m.315 3.037l-3.021-.332-.314-3.037m3.02.332l-3.02-.332" stroke="#151E34" stroke-width=".5"/><path d="M273.749 17.279l-3.335-3.37-4.961 4.96.314 3.038 3.335 3.368 4.962-4.96-.315-3.037z" fill="#fff"/><path d="M273.749 17.279l-3.335-3.37-4.961 4.96m8.296-1.59l.315 3.037-4.962 4.96m4.647-7.997l-4.961 4.96m.314 3.036l-.314-3.037m.314 3.037l-3.335-3.368-.314-3.038m3.335 3.37l-3.335-3.37" stroke="#151E34" stroke-width=".5"/><path d="M274.046 12.083c-.197.2-.32.463-.337.77-.013.24.051.458.184.655.148.218.347.37.602.442.302.086.592.045.865-.115a1.21 1.21 0 00.516-.585 1.075 1.075 0 00-.049-.96 1.046 1.046 0 00-.678-.54 1.068 1.068 0 00-.843.127 1.249 1.249 0 00-.26.206zm.439.349a.484.484 0 01.484-.099.58.58 0 01.318.24.527.527 0 01.095.305.52.52 0 01-.209.424.49.49 0 01-.468.091.575.575 0 01-.333-.26c-.131-.212-.109-.48.113-.701zm1.469-1.162c.006-.05.01-.096.017-.143a.641.641 0 01.09-.261.607.607 0 01.218-.217.502.502 0 01.412-.03.592.592 0 01.284.208.55.55 0 01.114.255.497.497 0 01-.104.398.687.687 0 01-.313.23c-.043.016-.043.016-.076-.017a4.232 4.232 0 01-.07-.071c-.024-.024-.025-.018-.001-.043.092-.09.183-.182.275-.274.024-.024.023-.018 0-.042l-.324-.327-.012-.012c-.006-.007-.011-.008-.018 0l-.012.012-.681.68-.012.013c-.005.004-.008.009-.001.014.008.007-.001.02.011.027.008.004.013.013.02.02l.614.621a.05.05 0 00.045.016 1.47 1.47 0 00.654-.22 1.42 1.42 0 00.314-.275c.108-.127.19-.268.237-.428.086-.293.049-.57-.101-.831a1.155 1.155 0 00-.251-.302 1.08 1.08 0 00-1.29-.09 1.358 1.358 0 00-.303.265 1.447 1.447 0 00-.179.253 1.146 1.146 0 00-.131.438l-.005.054c-.002.023.003.029.027.031a103.303 103.303 0 00.525.047c.008 0 .017.003.027 0z" fill="#E0DEE9"/><path d="M274.046 12.083c-.197.2-.32.463-.337.77-.013.24.051.458.184.655.148.218.347.37.602.442.302.086.592.045.865-.115a1.21 1.21 0 00.516-.585 1.075 1.075 0 00-.049-.96 1.046 1.046 0 00-.678-.54 1.068 1.068 0 00-.843.127 1.249 1.249 0 00-.26.206zm.439.349a.484.484 0 01.484-.099.58.58 0 01.318.24.527.527 0 01.095.305.52.52 0 01-.209.424.49.49 0 01-.468.091.575.575 0 01-.333-.26c-.131-.212-.109-.48.113-.701zm1.469-1.162c.006-.05.01-.096.017-.143a.641.641 0 01.09-.261.607.607 0 01.218-.217.502.502 0 01.412-.03.592.592 0 01.284.208.55.55 0 01.114.255.497.497 0 01-.104.398.687.687 0 01-.313.23c-.043.016-.043.016-.076-.017a4.232 4.232 0 01-.07-.071c-.024-.024-.025-.018-.001-.043.092-.09.183-.182.275-.274.024-.024.023-.018 0-.042l-.324-.327-.012-.012c-.006-.007-.011-.008-.018 0l-.012.012-.681.68-.012.013c-.005.004-.008.009-.001.014.008.007-.001.02.011.027.008.004.013.013.02.02l.614.621a.05.05 0 00.045.016 1.47 1.47 0 00.654-.22 1.42 1.42 0 00.314-.275c.108-.127.19-.268.237-.428.086-.293.049-.57-.101-.831a1.155 1.155 0 00-.251-.302 1.08 1.08 0 00-1.29-.09 1.358 1.358 0 00-.303.265 1.447 1.447 0 00-.179.253 1.146 1.146 0 00-.131.438l-.005.054c-.002.023.003.029.027.031a103.303 103.303 0 00.525.047c.008 0 .017.003.027 0z" stroke="#151E34" stroke-width=".5"/><path d="M268.302 17.827l-.618.617c-.023.023-.024.018 0 .042l.341.344.005.005c.017.017.017.017.034 0l.395-.395c.023-.023.018-.022.04 0l1.072 1.082c.022.023.022.023.045 0l.367-.367.005-.005c.021-.021.02-.018 0-.037l-1.071-1.083c-.024-.024-.024-.024.001-.05l.388-.387c.02-.02.02-.017 0-.037l-.347-.351-.009-.009c-.006-.007-.011-.008-.018 0l-.014.014-.616.617zm2.191-.689l-.727-.734c-.023-.024-.018-.024-.041 0l-.373.373-.009.008c-.01.009-.009.016.001.024l.01.01 1.453 1.468c.025.025.018.026.044 0l.37-.37.01-.01c.012-.008.009-.016 0-.023l-.014-.014-.724-.732z" fill="#E0DEE9"/><path d="M268.302 17.827l-.618.617c-.023.023-.024.018 0 .042l.341.344.005.005c.017.017.017.017.034 0l.395-.395c.023-.023.018-.022.04 0l1.072 1.082c.022.023.022.023.045 0l.367-.367.005-.005c.021-.021.02-.018 0-.037l-1.071-1.083c-.024-.024-.024-.024.001-.05l.388-.387c.02-.02.02-.017 0-.037l-.347-.351-.009-.009c-.006-.007-.011-.008-.018 0l-.014.014-.616.617zm2.191-.689l-.727-.734c-.023-.024-.018-.024-.041 0l-.373.373-.009.008c-.01.009-.009.016.001.024l.01.01 1.453 1.468c.025.025.018.026.044 0l.37-.37.01-.01c.012-.008.009-.016 0-.023l-.014-.014-.724-.732z" stroke="#151E34" stroke-width=".5"/><path d="M29.797 94.946l-1.995-7.368-10.922 2.895-1.982 4.474-1.98 4.474 3.976 2.894 10.922-2.896 1.98-4.473z" fill="#fff"/><path d="M29.797 94.946l-1.995-7.368-10.922 2.895-1.982 4.474m14.899-.001l-1.981 4.473-10.922 2.896m12.903-7.37l-10.922 2.896m-1.981 4.474l1.98-4.474m-1.98 4.474l-3.977-2.894 1.981-4.474m3.977 2.894l-3.977-2.894" stroke="#151E34" stroke-width=".5"/><path d="M15.896 98.63l-1.995-7.367-10.922 2.895-1.981 4.474L2.993 106l10.922-2.895 1.981-4.474z" fill="#fff"/><path d="M15.896 98.63l-1.995-7.367-10.922 2.895m12.917 4.473l-1.98 4.474L2.992 106m12.903-7.37l-10.922 2.896M2.993 106l1.981-4.474M2.993 106L.998 98.632l1.98-4.474m1.996 7.368L2.98 94.159" stroke="#151E34" stroke-width=".5"/><path d="M20.457 91.65c-.437.12-.819.385-1.088.8a1.655 1.655 0 00-.263 1.056c.034.423.192.794.492 1.1.355.364.795.54 1.306.537a1.94 1.94 0 001.19-.397c.456-.347.684-.813.699-1.374.013-.501-.16-.94-.522-1.296a1.748 1.748 0 00-1.285-.503 2.04 2.04 0 00-.529.078zm.338.838c.242-.058.526.012.757.253a.933.933 0 01.256.589.845.845 0 01-.11.5.833.833 0 01-.63.421.8.8 0 01-.73-.25.932.932 0 01-.26-.63c-.016-.399.23-.755.717-.883zm2.99-.431c.047-.063.09-.125.138-.185a1.01 1.01 0 01.335-.29.977.977 0 01.479-.126.82.82 0 01.602.29.96.96 0 01.233.518.883.883 0 01-.044.447.79.79 0 01-.463.469 1.11 1.11 0 01-.624.068c-.073-.014-.073-.014-.093-.086l-.042-.155c-.014-.053-.02-.045.034-.06l.603-.16c.054-.014.048-.006.034-.058l-.194-.715-.007-.027c-.002-.014-.01-.02-.024-.014l-.027.007-1.499.397-.027.007c-.01.003-.018.007-.013.019.006.016-.018.027-.006.046.008.013.009.03.013.045.122.452.245.905.366 1.358a.08.08 0 00.05.058c.347.157.711.235 1.094.22.227-.01.447-.053.66-.129.253-.089.481-.22.675-.403.354-.338.523-.754.521-1.237a1.845 1.845 0 00-.112-.621 1.764 1.764 0 00-1.74-1.166 2.19 2.19 0 00-.636.126 2.24 2.24 0 00-.454.207 1.842 1.842 0 00-.583.574c-.02.03-.018.043.013.065a205.757 205.757 0 00.7.488c.011.008.022.018.038.023z" fill="#E0DEE9"/><path d="M20.457 91.65c-.437.12-.819.385-1.088.8a1.655 1.655 0 00-.263 1.056c.034.423.192.794.492 1.1.355.364.795.54 1.306.537a1.94 1.94 0 001.19-.397c.456-.347.684-.813.699-1.374.013-.501-.16-.94-.522-1.296a1.748 1.748 0 00-1.285-.503 2.04 2.04 0 00-.529.078zm.338.838c.242-.058.526.012.757.253a.933.933 0 01.256.589.845.845 0 01-.11.5.833.833 0 01-.63.421.8.8 0 01-.73-.25.932.932 0 01-.26-.63c-.016-.399.23-.755.717-.883zm2.99-.431c.047-.063.09-.125.138-.185a1.01 1.01 0 01.335-.29.977.977 0 01.479-.126.82.82 0 01.602.29.96.96 0 01.233.518.883.883 0 01-.044.447.79.79 0 01-.463.469 1.11 1.11 0 01-.624.068c-.073-.014-.073-.014-.093-.086l-.042-.155c-.014-.053-.02-.045.034-.06l.603-.16c.054-.014.048-.006.034-.058l-.194-.715-.007-.027c-.002-.014-.01-.02-.024-.014l-.027.007-1.499.397-.027.007c-.01.003-.018.007-.013.019.006.016-.018.027-.006.046.008.013.009.03.013.045.122.452.245.905.366 1.358a.08.08 0 00.05.058c.347.157.711.235 1.094.22.227-.01.447-.053.66-.129.253-.089.481-.22.675-.403.354-.338.523-.754.521-1.237a1.845 1.845 0 00-.112-.621 1.764 1.764 0 00-1.74-1.166 2.19 2.19 0 00-.636.126 2.24 2.24 0 00-.454.207 1.842 1.842 0 00-.583.574c-.02.03-.018.043.013.065a205.757 205.757 0 00.7.488c.011.008.022.018.038.023z" stroke="#151E34" stroke-width=".5"/><path d="M7.81 95.004l-1.358.36c-.053.014-.049.007-.035.059l.204.753.003.011c.01.037.01.037.048.027l.87-.23c.05-.014.044-.017.057.031l.64 2.367c.014.05.014.05.065.036l.807-.214.012-.003c.046-.012.042-.008.03-.051l-.641-2.368c-.014-.053-.014-.053.04-.067l.854-.227c.045-.011.043-.006.031-.05l-.208-.769-.005-.018c-.003-.015-.01-.02-.025-.016l-.03.008-1.359.36zm3.626.809l-.435-1.607c-.014-.05-.006-.047-.056-.033l-.823.218-.019.005c-.021.003-.025.015-.018.033.003.007.004.015.006.023l.87 3.21c.014.055.005.05.06.036l.816-.216c.008-.002.015-.005.023-.006.022-.003.024-.015.018-.033l-.009-.03-.433-1.6z" fill="#E0DEE9"/><path d="M7.81 95.004l-1.358.36c-.053.014-.049.007-.035.059l.204.753.003.011c.01.037.01.037.048.027l.87-.23c.05-.014.044-.017.057.031l.64 2.367c.014.05.014.05.065.036l.807-.214.012-.003c.046-.012.042-.008.03-.051l-.641-2.368c-.014-.053-.014-.053.04-.067l.854-.227c.045-.011.043-.006.031-.05l-.208-.769-.005-.018c-.003-.015-.01-.02-.025-.016l-.03.008-1.359.36zm3.626.809l-.435-1.607c-.014-.05-.006-.047-.056-.033l-.823.218-.019.005c-.021.003-.025.015-.018.033.003.007.004.015.006.023l.87 3.21c.014.055.005.05.06.036l.816-.216c.008-.002.015-.005.023-.006.022-.003.024-.015.018-.033l-.009-.03-.433-1.6z" stroke="#151E34" stroke-width=".5"/><defs><linearGradient id="paint0_linear_65_452" x1="220.906" y1="37.879" x2="191.744" y2="86.287" gradientUnits="userSpaceOnUse"><stop stop-color="#C4C4C4"/><stop offset=".193" stop-color="#FDA3FF"/><stop offset=".443" stop-color="#7DFF9A"/><stop offset=".693" stop-color="#9DB1E5"/><stop offset="1" stop-color="#C4C4C4"/></linearGradient></defs></svg>